<svg width="24" height="24" viewBox="0 0 24 24" fill="none" xmlns="http://www.w3.org/2000/svg">
<path fill-rule="evenodd" clip-rule="evenodd" d="M21 12C21 16.9706 16.9706 21 12 21C7.02944 21 3 16.9706 3 12C3 7.02944 7.02944 3 12 3C16.9706 3 21 7.02944 21 12ZM12 19.5C16.1421 19.5 19.5 16.1421 19.5 12C19.5 7.85786 16.1421 4.5 12 4.5C7.85786 4.5 4.5 7.85786 4.5 12C4.5 16.1421 7.85786 19.5 12 19.5Z" fill="#202124"/>
<path fill-rule="evenodd" clip-rule="evenodd" d="M16.4801 8.42383C16.7983 8.68901 16.8413 9.16193 16.5762 9.48014L11.5762 15.4801C11.4413 15.642 11.2445 15.7397 11.034 15.7492C10.8235 15.7588 10.6187 15.6793 10.4697 15.5303L7.46967 12.5303C7.17678 12.2374 7.17678 11.7626 7.46967 11.4697C7.76256 11.1768 8.23744 11.1768 8.53033 11.4697L10.9496 13.8889L15.4238 8.51986C15.689 8.20165 16.1619 8.15866 16.4801 8.42383Z" fill="#202124"/>
</svg>
