<svg width="24" height="24" viewBox="0 0 24 24" fill="none" xmlns="http://www.w3.org/2000/svg">
<path d="M17.0455 14.0455C16.9547 14.2511 16.9276 14.4792 16.9677 14.7004C17.0078 14.9216 17.1133 15.1257 17.2705 15.2864L17.3114 15.3273C17.4382 15.4539 17.5387 15.6043 17.6074 15.7699C17.676 15.9354 17.7113 16.1128 17.7113 16.292C17.7113 16.4712 17.676 16.6487 17.6074 16.8142C17.5387 16.9798 17.4382 17.1302 17.3114 17.2568C17.1847 17.3836 17.0343 17.4842 16.8688 17.5528C16.7032 17.6214 16.5258 17.6568 16.3466 17.6568C16.1674 17.6568 15.9899 17.6214 15.8244 17.5528C15.6589 17.4842 15.5085 17.3836 15.3818 17.2568L15.3409 17.2159C15.1802 17.0587 14.9761 16.9533 14.7549 16.9132C14.5338 16.8731 14.3056 16.9001 14.1 16.9909C13.8983 17.0773 13.7264 17.2208 13.6052 17.4038C13.4841 17.5867 13.4191 17.8011 13.4182 18.0205V18.1364C13.4182 18.498 13.2745 18.8449 13.0188 19.1006C12.7631 19.3563 12.4162 19.5 12.0545 19.5C11.6929 19.5 11.346 19.3563 11.0903 19.1006C10.8346 18.8449 10.6909 18.498 10.6909 18.1364V18.075C10.6856 17.8493 10.6126 17.6305 10.4813 17.4468C10.3499 17.2632 10.1664 17.1234 9.95455 17.0455C9.7489 16.9547 9.52078 16.9276 9.2996 16.9677C9.07842 17.0078 8.87433 17.1133 8.71364 17.2705L8.67273 17.3114C8.54608 17.4382 8.39569 17.5387 8.23015 17.6074C8.0646 17.676 7.88716 17.7113 7.70795 17.7113C7.52875 17.7113 7.35131 17.676 7.18576 17.6074C7.02022 17.5387 6.86983 17.4382 6.74318 17.3114C6.6164 17.1847 6.51582 17.0343 6.44719 16.8688C6.37857 16.7032 6.34325 16.5258 6.34325 16.3466C6.34325 16.1674 6.37857 15.9899 6.44719 15.8244C6.51582 15.6589 6.6164 15.5085 6.74318 15.3818L6.78409 15.3409C6.94127 15.1802 7.04672 14.9761 7.08682 14.7549C7.12693 14.5338 7.09985 14.3056 7.00909 14.1C6.92266 13.8983 6.77915 13.7264 6.59623 13.6052C6.4133 13.4841 6.19895 13.4191 5.97955 13.4182H5.86364C5.50198 13.4182 5.15513 13.2745 4.8994 13.0188C4.64367 12.7631 4.5 12.4162 4.5 12.0545C4.5 11.6929 4.64367 11.346 4.8994 11.0903C5.15513 10.8346 5.50198 10.6909 5.86364 10.6909H5.925C6.15068 10.6856 6.36955 10.6126 6.55316 10.4813C6.73677 10.3499 6.87662 10.1664 6.95455 9.95455C7.04531 9.7489 7.07238 9.52078 7.03228 9.2996C6.99217 9.07842 6.88673 8.87433 6.72955 8.71364L6.68864 8.67273C6.56185 8.54608 6.46127 8.39569 6.39265 8.23015C6.32402 8.0646 6.2887 7.88716 6.2887 7.70795C6.2887 7.52875 6.32402 7.35131 6.39265 7.18576C6.46127 7.02022 6.56185 6.86983 6.68864 6.74318C6.81528 6.6164 6.96567 6.51582 7.13122 6.44719C7.29676 6.37857 7.47421 6.34325 7.65341 6.34325C7.83261 6.34325 8.01006 6.37857 8.1756 6.44719C8.34114 6.51582 8.49154 6.6164 8.61818 6.74318L8.65909 6.78409C8.81978 6.94127 9.02387 7.04672 9.24505 7.08682C9.46623 7.12693 9.69435 7.09985 9.9 7.00909H9.95455C10.1562 6.92266 10.3282 6.77915 10.4493 6.59623C10.5705 6.4133 10.6355 6.19895 10.6364 5.97955V5.86364C10.6364 5.50198 10.78 5.15513 11.0358 4.8994C11.2915 4.64367 11.6383 4.5 12 4.5C12.3617 4.5 12.7085 4.64367 12.9642 4.8994C13.22 5.15513 13.3636 5.50198 13.3636 5.86364V5.925C13.3645 6.1444 13.4295 6.35876 13.5507 6.54168C13.6718 6.72461 13.8438 6.86812 14.0455 6.95455C14.2511 7.04531 14.4792 7.07238 14.7004 7.03228C14.9216 6.99217 15.1257 6.88673 15.2864 6.72955L15.3273 6.68864C15.4539 6.56185 15.6043 6.46127 15.7699 6.39265C15.9354 6.32402 16.1128 6.2887 16.292 6.2887C16.4712 6.2887 16.6487 6.32402 16.8142 6.39265C16.9798 6.46127 17.1302 6.56185 17.2568 6.68864C17.3836 6.81528 17.4842 6.96567 17.5528 7.13122C17.6214 7.29676 17.6568 7.47421 17.6568 7.65341C17.6568 7.83261 17.6214 8.01006 17.5528 8.1756C17.4842 8.34114 17.3836 8.49154 17.2568 8.61818L17.2159 8.65909C17.0587 8.81978 16.9533 9.02387 16.9132 9.24505C16.8731 9.46623 16.9001 9.69435 16.9909 9.9V9.95455C17.0773 10.1562 17.2208 10.3282 17.4038 10.4493C17.5867 10.5705 17.8011 10.6355 18.0205 10.6364H18.1364C18.498 10.6364 18.8449 10.78 19.1006 11.0358C19.3563 11.2915 19.5 11.6383 19.5 12C19.5 12.3617 19.3563 12.7085 19.1006 12.9642C18.8449 13.22 18.498 13.3636 18.1364 13.3636H18.075C17.8556 13.3645 17.6412 13.4295 17.4583 13.5507C17.2754 13.6718 17.1319 13.8438 17.0455 14.0455Z" fill="#CED0D0" stroke="#202124" stroke-width="1.5" stroke-linecap="round" stroke-linejoin="round"/>
<path d="M12 14.0455C13.1297 14.0455 14.0455 13.1297 14.0455 12C14.0455 10.8704 13.1297 9.95459 12 9.95459C10.8704 9.95459 9.95459 10.8704 9.95459 12C9.95459 13.1297 10.8704 14.0455 12 14.0455Z" fill="white" stroke="#202124" stroke-width="1.5" stroke-linecap="round" stroke-linejoin="round"/>
</svg>
