<svg width="24" height="24" viewBox="0 0 24 24" fill="none" xmlns="http://www.w3.org/2000/svg">
<circle cx="12" cy="12" r="5" fill="#CED0D0"/>
<path d="M7.80847 8.24873H8.56347C8.81211 8.24873 9.05057 8.34751 9.22638 8.52332C9.4022 8.69914 9.50097 8.93759 9.50097 9.18623C9.50097 9.43487 9.4022 9.67333 9.22638 9.84914C9.05057 10.025 8.81211 10.1237 8.56347 10.1237H5.43848C5.18984 10.1237 4.95138 10.025 4.77556 9.84914C4.59975 9.67333 4.50098 9.43487 4.50098 9.18623V6.06124C4.50098 5.8126 4.59975 5.57414 4.77556 5.39832C4.95138 5.22251 5.18984 5.12374 5.43848 5.12374C5.68712 5.12374 5.92557 5.22251 6.10139 5.39832C6.2772 5.57414 6.37597 5.8126 6.37597 6.06124V7.03748C7.50691 5.75592 9.04167 4.89909 10.7261 4.6089C12.4105 4.31871 14.1435 4.61256 15.6381 5.44179C17.1327 6.27102 18.2992 7.58588 18.9444 9.16862C19.5897 10.7514 19.675 12.507 19.1862 14.1449C18.6974 15.7827 17.6638 17.2044 16.2566 18.1746C14.8495 19.1448 13.1531 19.6053 11.4485 19.4797C9.7439 19.3542 8.13332 18.6502 6.88348 17.4842C5.63364 16.3183 4.81953 14.7605 4.57598 13.0687C4.54084 12.8224 4.60498 12.5722 4.75431 12.3732C4.90363 12.1742 5.12591 12.0426 5.37223 12.0075C5.61854 11.9723 5.86874 12.0365 6.06776 12.1858C6.26678 12.3351 6.39833 12.5574 6.43347 12.8037C6.61648 14.0711 7.22631 15.2381 8.16223 16.1119C9.09816 16.9858 10.3042 17.5143 11.5811 17.6101C12.858 17.7059 14.1293 17.3633 15.1852 16.6388C16.241 15.9143 17.0181 14.8514 17.3881 13.6255C17.7582 12.3997 17.699 11.0843 17.2204 9.89663C16.7418 8.70897 15.8723 7.7201 14.7557 7.09337C13.6391 6.46664 12.3421 6.23955 11.079 6.44962C9.81583 6.65968 8.66214 7.29434 7.80847 8.24873Z" fill="#202124"/>
<path d="M7.80847 8.24873H8.56347C8.81211 8.24873 9.05057 8.34751 9.22638 8.52332C9.4022 8.69914 9.50097 8.93759 9.50097 9.18623C9.50097 9.43487 9.4022 9.67333 9.22638 9.84914C9.05057 10.025 8.81211 10.1237 8.56347 10.1237H5.43848C5.18984 10.1237 4.95138 10.025 4.77556 9.84914C4.59975 9.67333 4.50098 9.43487 4.50098 9.18623V6.06124C4.50098 5.8126 4.59975 5.57414 4.77556 5.39832C4.95138 5.22251 5.18984 5.12374 5.43848 5.12374C5.68712 5.12374 5.92557 5.22251 6.10139 5.39832C6.2772 5.57414 6.37597 5.8126 6.37597 6.06124V7.03748C7.50691 5.75592 9.04167 4.89909 10.7261 4.6089C12.4105 4.31871 14.1435 4.61256 15.6381 5.44179C17.1327 6.27102 18.2992 7.58588 18.9444 9.16862C19.5897 10.7514 19.675 12.507 19.1862 14.1449C18.6974 15.7827 17.6638 17.2044 16.2566 18.1746C14.8495 19.1448 13.1531 19.6053 11.4485 19.4797C9.7439 19.3542 8.13332 18.6502 6.88348 17.4842C5.63364 16.3183 4.81953 14.7605 4.57598 13.0687C4.54084 12.8224 4.60498 12.5722 4.75431 12.3732C4.90363 12.1742 5.12591 12.0426 5.37223 12.0075C5.61854 11.9723 5.86874 12.0365 6.06776 12.1858C6.26678 12.3351 6.39833 12.5574 6.43347 12.8037C6.61648 14.0711 7.22631 15.2381 8.16223 16.1119C9.09816 16.9858 10.3042 17.5143 11.5811 17.6101C12.858 17.7059 14.1293 17.3633 15.1852 16.6388C16.241 15.9143 17.0181 14.8514 17.3881 13.6255C17.7582 12.3997 17.699 11.0843 17.2204 9.89663C16.7418 8.70897 15.8723 7.7201 14.7557 7.09337C13.6391 6.46664 12.3421 6.23955 11.079 6.44962C9.81583 6.65968 8.66214 7.29434 7.80847 8.24873Z" stroke="white"/>
<path d="M12.3514 8.52337C12.1756 8.34755 11.9371 8.24878 11.6885 8.24878C11.4398 8.24878 11.2014 8.34755 11.0256 8.52337C10.8497 8.69918 10.751 8.93764 10.751 9.18628V12.3113C10.751 12.5599 10.8497 12.7984 11.0256 12.9742C11.2014 13.15 11.4398 13.2488 11.6885 13.2488H13.5635C13.8121 13.2488 14.0506 13.15 14.2264 12.9742C14.4022 12.7984 14.501 12.5599 14.501 12.3113C14.501 12.0626 14.4022 11.8242 14.2264 11.6484C14.0506 11.4725 13.8121 11.3738 13.5635 11.3738H12.626V9.18628C12.626 8.93764 12.5272 8.69918 12.3514 8.52337Z" fill="#202124"/>
</svg>
