<svg width="24" height="24" viewBox="0 0 24 24" fill="none" xmlns="http://www.w3.org/2000/svg">
<path fill-rule="evenodd" clip-rule="evenodd" d="M21 12C21 16.9706 16.9706 21 12 21C7.02944 21 3 16.9706 3 12C3 7.02944 7.02944 3 12 3C16.9706 3 21 7.02944 21 12ZM12 19.5C16.1421 19.5 19.5 16.1421 19.5 12C19.5 7.85786 16.1421 4.5 12 4.5C7.85786 4.5 4.5 7.85786 4.5 12C4.5 16.1421 7.85786 19.5 12 19.5Z" fill="#202124"/>
<path fill-rule="evenodd" clip-rule="evenodd" d="M11.881 7.25024C12.2951 7.23976 12.6393 7.56694 12.6498 7.98102L12.7312 11.1994H16C16.4142 11.1994 16.75 11.5352 16.75 11.9494C16.75 12.3636 16.4142 12.6994 16 12.6994L12.75 12.6994L12.75 16C12.75 16.4142 12.4142 16.75 12 16.75C11.5858 16.75 11.25 16.4142 11.25 16L11.25 12.6994H8C7.58579 12.6994 7.25 12.3636 7.25 11.9494C7.25 11.5352 7.58579 11.1994 8 11.1994H11.2308L11.1502 8.01898C11.1398 7.6049 11.4669 7.26073 11.881 7.25024Z" fill="#202124"/>
</svg>
