<svg width="24" height="24" viewBox="0 0 24 24" fill="none" xmlns="http://www.w3.org/2000/svg">
<path fill-rule="evenodd" clip-rule="evenodd" d="M4.53632 13.1965L5.53632 11.4644L8.53632 6.26828C9.64089 4.35511 12.0873 3.69961 14.0004 4.80418C15.7546 5.81698 16.4515 7.95787 15.7037 9.78146C18.1321 10.1233 20.0004 12.2097 20.0004 14.7324C20.0004 17.4938 17.7619 19.7324 15.0004 19.7324C13.3914 19.7324 11.9598 18.9723 11.0452 17.7916C9.81833 19.2345 7.69919 19.6414 6.00042 18.6606C4.08725 17.556 3.43175 15.1097 4.53632 13.1965ZM14.1655 9.51828C14.8558 8.32255 14.4462 6.79358 13.2504 6.10322C12.0547 5.41286 10.5257 5.82255 9.83536 7.01828L7.21036 11.5649L10.2097 13.2966C10.7315 11.553 12.1791 10.2093 13.9819 9.83619L14.1655 9.51828ZM6.75042 17.3616C7.94616 18.0519 9.47513 17.6422 10.1655 16.4465L10.2507 16.2989C10.1059 15.8595 10.0204 15.3933 10.0035 14.9096L6.46036 12.864L5.83536 13.9465C5.145 15.1422 5.55469 16.6712 6.75042 17.3616ZM15.0004 18.2324C16.9334 18.2324 18.5004 16.6654 18.5004 14.7324C18.5004 12.7994 16.9334 11.2324 15.0004 11.2324C14.9693 11.2324 14.9382 11.2328 14.9072 11.2336C13.0173 11.283 11.5004 12.8306 11.5004 14.7324C11.5004 15.3369 11.6537 15.9055 11.9234 16.4017C12.5163 17.4922 13.6719 18.2324 15.0004 18.2324Z" fill="#202124"/>
<path d="M17.2504 14.7324C17.2504 14.3182 16.9146 13.9824 16.5004 13.9824H13.5004C13.433 13.9824 13.3676 13.9913 13.3054 14.008C12.9858 14.0938 12.7504 14.3856 12.7504 14.7324C12.7504 14.7992 12.7592 14.864 12.7756 14.9257C12.8608 15.2462 13.1531 15.4824 13.5004 15.4824H16.5004C16.9146 15.4824 17.2504 15.1466 17.2504 14.7324Z" fill="#202124"/>
</svg>
