<svg width="18" height="18" viewBox="0 0 18 18" fill="none" xmlns="http://www.w3.org/2000/svg">
<path fill-rule="evenodd" clip-rule="evenodd" d="M18 9C18 13.9706 13.9706 18 9 18C4.02944 18 0 13.9706 0 9C0 4.02944 4.02944 0 9 0C13.9706 0 18 4.02944 18 9ZM9 16.5C13.1421 16.5 16.5 13.1421 16.5 9C16.5 4.85786 13.1421 1.5 9 1.5C4.85786 1.5 1.5 4.85786 1.5 9C1.5 13.1421 4.85786 16.5 9 16.5Z" fill="#662E6B"/>
<path fill-rule="evenodd" clip-rule="evenodd" d="M7.66012 13.0494C7.66012 13.6831 7.89439 14 8.36292 14C8.68802 14 9.01313 13.8704 9.33823 13.6111C9.6729 13.3423 9.95019 13.0206 10.1701 12.6461C10.39 12.262 10.5 11.9019 10.5 11.5658C10.5 11.4026 10.457 11.321 10.3709 11.321C10.304 11.321 10.2466 11.3882 10.1988 11.5226C10.0554 11.8683 9.90238 12.142 9.73983 12.3436C9.58684 12.5453 9.44819 12.6461 9.32389 12.6461C9.21871 12.6461 9.16612 12.5885 9.16612 12.4733C9.16612 12.4444 9.17568 12.3916 9.1948 12.3148L9.91194 8.59877C9.97888 8.22428 10.0123 7.96022 10.0123 7.80658C10.0123 7.26886 9.81154 7 9.40994 7C9.08484 7 8.75018 7.13443 8.40595 7.40329C8.16571 7.59093 7.95341 7.8043 7.76906 8.04339C7.60879 8.25124 7.37747 8.5428 7.53881 8.74983C7.54837 8.76209 7.56001 8.77273 7.57406 8.78125C7.62952 8.81488 7.69871 8.80117 7.76587 8.76843C7.95937 8.67412 8.05827 8.43253 8.26231 8.36393C8.28217 8.35725 8.30136 8.35391 8.31989 8.35391C8.40595 8.35391 8.44898 8.42112 8.44898 8.55556C8.44898 8.59396 8.43941 8.69959 8.42029 8.87243L7.73183 12.358C7.68403 12.6461 7.66012 12.8765 7.66012 13.0494Z" fill="#662E6B"/>
<path d="M10.2282 5C10.2282 5.55228 9.78051 6 9.22822 6C8.67594 6 8.22822 5.55228 8.22822 5C8.22822 4.44772 8.67594 4 9.22822 4C9.78051 4 10.2282 4.44772 10.2282 5Z" fill="#662E6B"/>
</svg>
