<svg width="24" height="24" viewBox="0 0 24 24" fill="none" xmlns="http://www.w3.org/2000/svg">
<path fill-rule="evenodd" clip-rule="evenodd" d="M17.6565 11.9688C17.1138 11.9267 16.6237 11.678 16.2659 11.3122L14.9737 11.8942C15.0084 12.0775 15.0279 12.2671 15.0279 12.4626C15.0279 12.9137 14.9318 13.3423 14.7601 13.7302L15.2436 14.1493C15.3454 14.0925 15.4526 14.0433 15.5648 14.0029C15.6879 13.9586 15.8169 13.9248 15.9511 13.9032C16.0127 13.8933 16.0742 13.886 16.1354 13.8814C17.2504 13.797 18.2662 14.5797 18.4477 15.7011C18.6397 16.8837 17.8322 18.0008 16.6461 18.1918C15.4608 18.3829 14.3403 17.5773 14.1488 16.3945C14.0851 16.0016 14.1332 15.6169 14.2672 15.2712L13.8517 14.9111C13.3104 15.3486 12.6212 15.613 11.8702 15.613C11.2074 15.613 10.5922 15.4074 10.0844 15.0584L8.195 16.7608C8.2979 17.0129 8.35506 17.2885 8.35506 17.5775C8.35506 18.7757 7.37848 19.75 6.17764 19.75C4.9766 19.75 4 18.7757 4 17.5775C4 16.3793 4.9766 15.405 6.17764 15.405C6.5454 15.405 6.89251 15.4966 7.19674 15.6582L9.09001 13.9523C8.84993 13.5088 8.71176 13.0017 8.71176 12.4625C8.71176 11.5427 9.11049 10.7159 9.74088 10.1405L8.87425 8.56826C8.7666 8.58549 8.6556 8.59501 8.54157 8.59501C7.34058 8.59501 6.36372 7.62076 6.36372 6.42251C6.36372 5.22425 7.34058 4.25 8.54157 4.25C9.74242 4.25 10.719 5.22432 10.719 6.42251C10.719 6.97036 10.5139 7.46956 10.1784 7.85089L11.0456 9.42367C11.3077 9.3517 11.5839 9.31173 11.8702 9.31173C12.886 9.31173 13.7895 9.79367 14.3666 10.5376L15.6516 9.95901C15.6473 9.9058 15.6449 9.85161 15.6449 9.79648C15.6449 8.59827 16.6215 7.62397 17.8226 7.62397C19.0239 7.62397 20 8.59833 20 9.79648C20 10.9945 19.0236 11.9688 17.8226 11.9688H17.6565ZM5.48892 17.5782C5.48892 17.9568 5.79784 18.265 6.17735 18.265C6.55637 18.265 6.86556 17.9566 6.86556 17.5782C6.86556 17.1996 6.55626 16.8914 6.17735 16.8914C5.79768 16.8914 5.48892 17.1995 5.48892 17.5782ZM11.8696 10.7981C12.7895 10.7981 13.5383 11.5455 13.5383 12.4634C13.5385 13.3808 12.79 14.1282 11.8696 14.1282C10.9494 14.1282 10.2004 13.3808 10.2004 12.4634C10.2004 11.5454 10.9496 10.7981 11.8696 10.7981ZM16.1882 15.3707C15.8136 15.4307 15.5577 15.7843 15.6185 16.1577C15.679 16.531 16.0332 16.7863 16.408 16.7259C16.7821 16.6657 17.038 16.3119 16.9775 15.9388C16.9171 15.5654 16.5627 15.3103 16.1882 15.3707ZM17.8224 10.4831C17.4429 10.4831 17.134 10.1749 17.134 9.79653C17.1338 9.41812 17.4428 9.10973 17.8224 9.10973C18.2017 9.10973 18.5106 9.41789 18.5106 9.79653C18.5106 10.1746 18.2018 10.4831 17.8224 10.4831ZM8.54169 5.73609C8.16206 5.73609 7.85283 6.04462 7.85283 6.42289C7.85283 6.80102 8.16193 7.10969 8.54169 7.10969C8.92093 7.10969 9.2299 6.80154 9.2299 6.42289C9.2299 6.04433 8.9206 5.73609 8.54169 5.73609Z" fill="#202124"/>
</svg>
