<svg width="131" height="12" viewBox="0 0 131 12" fill="none" xmlns="http://www.w3.org/2000/svg">
<path d="M130.526 6.55024C130.821 6.25966 130.825 5.7848 130.534 5.48961L125.799 0.679205C125.509 0.384015 125.034 0.380275 124.738 0.670854C124.443 0.961432 124.44 1.43629 124.73 1.73148L128.939 6.0074L124.663 10.2165C124.368 10.5071 124.364 10.9819 124.655 11.2771C124.946 11.5723 125.42 11.5761 125.716 11.2855L130.526 6.55024ZM1.00591 4.25002C0.591705 4.24676 0.253285 4.57989 0.250023 4.99409C0.246762 5.4083 0.579894 5.74672 0.994095 5.74998L1.00591 4.25002ZM65.494 6.25785L129.994 6.76572L130.006 5.26577L65.5058 4.7579L65.494 6.25785ZM65.5058 4.7579L1.00591 4.25002L0.994095 5.74998L65.494 6.25785L65.5058 4.7579Z" fill="#606368"/>
</svg>
