<svg width="138" height="12" viewBox="0 0 138 12" fill="none" xmlns="http://www.w3.org/2000/svg">
<path shape-rendering="auto" id="Vector 225" d="M137.53 6.53034C137.823 6.23745 137.823 5.76258 137.53 5.46968L132.757 0.696711C132.464 0.403818 131.99 0.403818 131.697 0.696711C131.404 0.989605 131.404 1.46448 131.697 1.75737L135.939 6.00001L131.697 10.2427C131.404 10.5355 131.404 11.0104 131.697 11.3033C131.99 11.5962 132.464 11.5962 132.757 11.3033L137.53 6.53034ZM1 5.25C0.585787 5.25 0.25 5.58579 0.25 6C0.25 6.41421 0.585786 6.75 1 6.75L1 5.25ZM69 6.75001L137 6.75001L137 5.25001L69 5.25001L69 6.75001ZM69 5.25001L1 5.25L1 6.75L69 6.75001L69 5.25001Z" fill="#1F1F1F"/>
</svg>
