<svg width="24" height="24" viewBox="0 0 24 24" fill="none" xmlns="http://www.w3.org/2000/svg">
<path d="M6.67969 6.54688H13.3047C14.4089 6.54688 15.2552 6.82031 15.8438 7.36719C16.4375 7.91406 16.7344 8.59115 16.7344 9.39844C16.7344 10.0755 16.5234 10.6562 16.1016 11.1406C15.8203 11.4635 15.4089 11.7188 14.8672 11.9062C15.6901 12.1042 16.2943 12.4453 16.6797 12.9297C17.0703 13.4089 17.2656 14.013 17.2656 14.7422C17.2656 15.3359 17.1276 15.8698 16.8516 16.3438C16.5755 16.8177 16.1979 17.1927 15.7188 17.4688C15.4219 17.6406 14.974 17.7656 14.375 17.8438C13.5781 17.9479 13.0495 18 12.7891 18H6.67969V6.54688ZM10.25 11.0391H11.7891C12.3411 11.0391 12.724 10.9453 12.9375 10.7578C13.1562 10.5651 13.2656 10.2891 13.2656 9.92969C13.2656 9.59635 13.1562 9.33594 12.9375 9.14844C12.724 8.96094 12.349 8.86719 11.8125 8.86719H10.25V11.0391ZM10.25 15.5391H12.0547C12.6641 15.5391 13.0938 15.4323 13.3438 15.2188C13.5938 15 13.7188 14.7083 13.7188 14.3438C13.7188 14.0052 13.5938 13.7344 13.3438 13.5312C13.099 13.3229 12.6667 13.2188 12.0469 13.2188H10.25V15.5391Z" fill="#202124"/>
</svg>
