<svg width="24" height="24" viewBox="0 0 24 24" fill="none" xmlns="http://www.w3.org/2000/svg">
<g clip-path="url(#clip0_91_1982)">
<path fill-rule="evenodd" clip-rule="evenodd" d="M17.9186 5.25C17.6981 5.25 17.4866 5.33759 17.3307 5.49351L10.3956 12.4287L10.0036 13.9964L11.5713 13.6044L18.5065 6.66928C18.6624 6.51337 18.75 6.3019 18.75 6.0814C18.75 5.8609 18.6624 5.64943 18.5065 5.49351C18.3506 5.33759 18.1391 5.25 17.9186 5.25ZM16.2701 4.43285C16.7073 3.99563 17.3003 3.75 17.9186 3.75C18.5369 3.75 19.1299 3.99563 19.5671 4.43285C20.0044 4.87007 20.25 5.46307 20.25 6.0814C20.25 6.69972 20.0044 7.29272 19.5671 7.72994L12.4851 14.812C12.389 14.9081 12.2686 14.9763 12.1367 15.0093L9.15477 15.7547C8.89919 15.8186 8.62882 15.7437 8.44254 15.5575C8.25625 15.3712 8.18137 15.1008 8.24526 14.8452L8.99074 11.8633C9.02371 11.7314 9.0919 11.611 9.18802 11.5149L16.2701 4.43285ZM4.40636 5.98776C4.82662 5.5675 5.39662 5.3314 5.99096 5.3314H11.2093C11.6235 5.3314 11.9593 5.66719 11.9593 6.0814C11.9593 6.49561 11.6235 6.8314 11.2093 6.8314H5.99096C5.79444 6.8314 5.60598 6.90946 5.46702 7.04842C5.32806 7.18738 5.25 7.37584 5.25 7.57236V18.009C5.25 18.2056 5.32806 18.394 5.46702 18.533C5.60598 18.6719 5.79444 18.75 5.99096 18.75H16.4276C16.6242 18.75 16.8126 18.6719 16.9516 18.533C17.0905 18.394 17.1686 18.2056 17.1686 18.009V12.7907C17.1686 12.3765 17.5044 12.0407 17.9186 12.0407C18.3328 12.0407 18.6686 12.3765 18.6686 12.7907V18.009C18.6686 18.6034 18.4325 19.1734 18.0122 19.5936C17.592 20.0139 17.022 20.25 16.4276 20.25H5.99096C5.39662 20.25 4.82662 20.0139 4.40636 19.5936C3.9861 19.1734 3.75 18.6034 3.75 18.009V7.57236C3.75 6.97802 3.9861 6.40802 4.40636 5.98776Z" fill="#202124"/>
</g>
<defs>
<clipPath id="clip0_91_1982">
<rect width="24" height="24" fill="white"/>
</clipPath>
</defs>
</svg>
