<svg width="24" height="24" viewBox="0 0 24 24" fill="none" xmlns="http://www.w3.org/2000/svg">
<path fill-rule="evenodd" clip-rule="evenodd" d="M5.95469 5.69459C5.36997 5.69459 4.8092 5.92494 4.39574 6.33497C3.98228 6.745 3.75 7.30112 3.75 7.88099V18.0636C3.75 18.6435 3.98228 19.1996 4.39574 19.6096C4.8092 20.0196 5.36997 20.25 5.95469 20.25H16.2225C16.8072 20.25 17.368 20.0196 17.7814 19.6096C18.1949 19.1996 18.4272 18.6435 18.4272 18.0636V11.9723C18.4272 11.5682 18.0968 11.2406 17.6893 11.2406C17.2818 11.2406 16.9515 11.5682 16.9515 11.9723V18.0636C16.9515 18.2553 16.8747 18.4392 16.7379 18.5748C16.6012 18.7104 16.4158 18.7865 16.2225 18.7865H5.95469C5.76136 18.7865 5.57594 18.7104 5.43924 18.5748C5.30253 18.4392 5.22573 18.2553 5.22573 18.0636V7.88099C5.22573 7.68926 5.30253 7.50539 5.43924 7.36981C5.57594 7.23424 5.76136 7.15807 5.95469 7.15807H12.0886C12.4961 7.15807 12.8265 6.83046 12.8265 6.42633C12.8265 6.0222 12.4961 5.69459 12.0886 5.69459H5.95469Z" fill="#202124"/>
<path fill-rule="evenodd" clip-rule="evenodd" d="M15.3347 3.75003C15.2379 3.74921 15.1424 3.76731 15.0534 3.80321C14.9645 3.83911 14.884 3.89212 14.8163 3.95919C14.7486 4.02627 14.6952 4.10615 14.659 4.19432C14.6227 4.28249 14.6045 4.37727 14.6053 4.47328C14.6069 4.66721 14.6861 4.85429 14.8261 4.99306C14.966 5.13184 15.1546 5.2105 15.3501 5.21215L17.7032 5.23198L12.98 10.417C12.8434 10.5524 12.7684 10.7372 12.77 10.9311C12.7716 11.125 12.8501 11.3121 12.99 11.4509C13.1299 11.5896 13.3244 11.6683 13.52 11.6699C13.7155 11.6715 13.9034 11.5961 14.04 11.4607L18.7556 6.27565L18.7756 8.60896C18.7779 8.80251 18.8574 8.98915 18.9973 9.12744C19.1372 9.26575 19.3255 9.34409 19.5207 9.34568C19.7158 9.34726 19.9019 9.27208 20.0384 9.13706C20.1748 9.00207 20.2511 8.81779 20.25 8.62432L20.2149 4.52349C20.2133 4.32959 20.134 4.14256 19.9941 4.00381C19.8542 3.86507 19.6656 3.78644 19.4701 3.78479L15.3347 3.75003Z" fill="#202124"/>
<path d="M15.0534 3.80321C15.1424 3.76731 15.2379 3.74921 15.3347 3.75003L19.4701 3.78479C19.6656 3.78644 19.8542 3.86507 19.9941 4.00381C20.134 4.14256 20.2133 4.32959 20.2149 4.52349L20.25 8.62432C20.2511 8.81779 20.1748 9.00207 20.0384 9.13706C19.9019 9.27208 19.7158 9.34726 19.5207 9.34568C19.3255 9.34409 19.1372 9.26575 18.9973 9.12744C18.8574 8.98915 18.7779 8.80251 18.7756 8.60896L18.7556 6.27565L14.04 11.4607C13.9034 11.5961 13.7155 11.6715 13.52 11.6699C13.3244 11.6683 13.1299 11.5896 12.99 11.4509C12.8501 11.3121 12.7716 11.125 12.77 10.9311C12.7684 10.7372 12.8434 10.5524 12.98 10.417L17.7032 5.23198L15.3501 5.21215C15.1546 5.2105 14.966 5.13184 14.8261 4.99306C14.6861 4.85429 14.6069 4.66721 14.6053 4.47328C14.6045 4.37727 14.6227 4.28249 14.659 4.19432C14.6952 4.10615 14.7486 4.02627 14.8163 3.95919C14.884 3.89212 14.9645 3.83911 15.0534 3.80321Z" fill="#202124"/>
</svg>
