<svg width="24" height="24" viewBox="0 0 24 24" fill="none" xmlns="http://www.w3.org/2000/svg">
<path d="M6.24538 8.66942H5.24159V6.85479C5.24159 6.82132 5.24159 6.76025 5.24159 6.67157C5.24159 6.58121 5.24243 6.48165 5.24409 6.37289C5.24743 6.26413 5.2516 6.16625 5.25661 6.07924C5.21322 6.13111 5.17234 6.17545 5.13395 6.21226C5.09724 6.24907 5.06136 6.28338 5.02631 6.31517L4.61078 6.65902L4.09763 6.02653L5.35424 5H6.24538V8.66942Z" fill="#202124"/>
<path d="M6.69595 13.8096H4.04005V13.157L4.9337 12.251C5.11893 12.0569 5.26245 11.9013 5.36425 11.7842C5.46771 11.667 5.54031 11.5675 5.58203 11.4855C5.62375 11.4035 5.64461 11.3182 5.64461 11.2295C5.64461 11.1207 5.60956 11.0421 5.53947 10.9935C5.46938 10.945 5.38678 10.9208 5.29165 10.9208C5.17651 10.9208 5.05969 10.9542 4.94121 11.0212C4.82439 11.0864 4.69172 11.1835 4.5432 11.3123L4 10.6748C4.11014 10.5761 4.22696 10.4824 4.35045 10.3937C4.47394 10.3033 4.61996 10.2297 4.78851 10.1728C4.95706 10.1159 5.16232 10.0875 5.4043 10.0875C5.65295 10.0875 5.86823 10.131 6.05013 10.218C6.2337 10.305 6.37554 10.4246 6.47567 10.5769C6.5758 10.7275 6.62586 10.899 6.62586 11.0914C6.62586 11.3039 6.58665 11.4938 6.50821 11.6612C6.43145 11.8268 6.31547 11.9933 6.16027 12.1606C6.00507 12.3263 5.81149 12.5145 5.57952 12.7253L5.31168 12.9663V12.9914H6.69595V13.8096Z" fill="#202124"/>
<path d="M6.5733 16.076C6.5733 16.25 6.53575 16.4006 6.46065 16.5278C6.38723 16.6533 6.28877 16.7562 6.16527 16.8365C6.04345 16.9168 5.90995 16.9771 5.76476 17.0172V17.0323C6.0568 17.0691 6.28209 17.1586 6.44063 17.3008C6.60083 17.4414 6.68094 17.6413 6.68094 17.9007C6.68094 18.1015 6.62753 18.2855 6.52073 18.4529C6.41393 18.6185 6.24788 18.7515 6.02259 18.8519C5.7973 18.9506 5.50777 19 5.15398 19C4.91701 19 4.71508 18.9824 4.5482 18.9473C4.38132 18.9122 4.21945 18.8636 4.06258 18.8017V17.9785C4.22112 18.0605 4.38383 18.1215 4.55071 18.1617C4.71925 18.2002 4.87278 18.2194 5.0113 18.2194C5.2516 18.2194 5.41515 18.1851 5.50192 18.1165C5.59037 18.0479 5.63459 17.9559 5.63459 17.8404C5.63459 17.7568 5.61373 17.6857 5.57201 17.6271C5.53029 17.5685 5.45269 17.5234 5.33922 17.4916C5.22741 17.4598 5.06637 17.4439 4.8561 17.4439H4.63081V16.6985H4.8611C5.04801 16.6985 5.1957 16.6817 5.30417 16.6483C5.41431 16.6148 5.49358 16.5696 5.54198 16.5127C5.59037 16.4542 5.61457 16.3872 5.61457 16.3119C5.61457 16.2149 5.57702 16.1429 5.50192 16.0961C5.42683 16.0492 5.32753 16.0258 5.20404 16.0258C5.0939 16.0258 4.99044 16.0409 4.89365 16.071C4.79685 16.1011 4.71258 16.1346 4.64082 16.1714C4.56906 16.2082 4.51483 16.2383 4.47811 16.2617L4.06759 15.5991C4.21945 15.4954 4.393 15.4076 4.58825 15.3356C4.78517 15.2637 5.04217 15.2277 5.35924 15.2277C5.73639 15.2277 6.0326 15.303 6.24788 15.4536C6.46482 15.6042 6.5733 15.8116 6.5733 16.076Z" fill="#202124"/>
<path fill-rule="evenodd" clip-rule="evenodd" d="M8.09473 7.10203C8.09473 6.69627 8.42774 6.36734 8.83853 6.36734H18.7559C19.1667 6.36734 19.4997 6.69627 19.4997 7.10203C19.4997 7.50779 19.1667 7.83673 18.7559 7.83673H8.83853C8.42774 7.83673 8.09473 7.50779 8.09473 7.10203Z" fill="#202124"/>
<path fill-rule="evenodd" clip-rule="evenodd" d="M8.09473 12C8.09473 11.5942 8.42774 11.2653 8.83853 11.2653H18.7559C19.1667 11.2653 19.4997 11.5942 19.4997 12C19.4997 12.4058 19.1667 12.7347 18.7559 12.7347H8.83853C8.42774 12.7347 8.09473 12.4058 8.09473 12Z" fill="#202124"/>
<path fill-rule="evenodd" clip-rule="evenodd" d="M8.09473 16.898C8.09473 16.4922 8.42774 16.1633 8.83853 16.1633H18.7559C19.1667 16.1633 19.4997 16.4922 19.4997 16.898C19.4997 17.3037 19.1667 17.6326 18.7559 17.6326H8.83853C8.42774 17.6326 8.09473 17.3037 8.09473 16.898Z" fill="#202124"/>
</svg>
