<svg width="24" height="24" viewBox="0 0 24 24" fill="none" xmlns="http://www.w3.org/2000/svg">
<path d="M10.9144 17.3287C12.3375 17.3284 13.7197 16.852 14.8408 15.9753L17.7986 18.9331C18.1117 19.2462 18.6193 19.2462 18.9323 18.9331C19.2454 18.6201 19.2454 18.1125 18.9323 17.7994L15.9745 14.8416C16.8517 13.7204 17.3284 12.3379 17.3287 10.9144C17.3287 7.37765 14.4511 4.5 10.9144 4.5C7.37765 4.5 4.5 7.37765 4.5 10.9144C4.5 14.4511 7.37765 17.3287 10.9144 17.3287ZM10.9144 6.10359C13.5675 6.10359 15.7251 8.26123 15.7251 10.9144C15.7251 13.5675 13.5675 15.7251 10.9144 15.7251C8.26123 15.7251 6.10359 13.5675 6.10359 10.9144C6.10359 8.26123 8.26123 6.10359 10.9144 6.10359Z" fill="#202124"/>
</svg>
