<svg width="24" height="24" viewBox="0 0 24 24" fill="none" xmlns="http://www.w3.org/2000/svg">
<path fill-rule="evenodd" clip-rule="evenodd" d="M21 12C21 16.9706 16.9706 21 12 21C7.02944 21 3 16.9706 3 12C3 7.02944 7.02944 3 12 3C16.9706 3 21 7.02944 21 12ZM12 19.5C16.1421 19.5 19.5 16.1421 19.5 12C19.5 7.85786 16.1421 4.5 12 4.5C7.85786 4.5 4.5 7.85786 4.5 12C4.5 16.1421 7.85786 19.5 12 19.5Z" fill="#202124"/>
<path fill-rule="evenodd" clip-rule="evenodd" d="M6.25 12C6.25 12.4142 6.58579 12.75 7 12.75H15.1893L12.4697 15.4697C12.1768 15.7626 12.1768 16.2374 12.4697 16.5303C12.7626 16.8232 13.2374 16.8232 13.5303 16.5303L17.5303 12.5303C17.8232 12.2374 17.8232 11.7626 17.5303 11.4697L13.5303 7.46967C13.2374 7.17678 12.7626 7.17678 12.4697 7.46967C12.1768 7.76256 12.1768 8.23744 12.4697 8.53033L15.1893 11.25H7C6.58579 11.25 6.25 11.5858 6.25 12Z" fill="#202124"/>
</svg>
