<svg width="24" height="24" viewBox="0 0 24 24" fill="none" xmlns="http://www.w3.org/2000/svg">
<path d="M17.1 5.875L19.65 8.5L17.7 8.5C17.3686 8.5 17.1 8.22018 17.1 7.875L17.1 5.875Z" fill="#202124"/>
<path fill-rule="evenodd" clip-rule="evenodd" d="M19.3 19L4.7 19C4.03726 19 3.5 18.4404 3.5 17.75L3.5 6.25C3.5 5.55964 4.03726 5 4.7 5L15.5 5C15.7761 5 16 5.22386 16 5.5L16 7.75C16 8.85457 16.8954 9.75 18 9.75L20 9.75C20.2761 9.75 20.5 9.97386 20.5 10.25L20.5 17.75C20.5 18.4404 19.9627 19 19.3 19ZM6.5 9.58333C6.5 9.9055 6.79848 10.1667 7.16667 10.1667L12.6111 10.1667C12.9793 10.1667 13.2778 9.9055 13.2778 9.58333C13.2778 9.26117 12.9793 9 12.6111 9L7.16667 9C6.79848 9 6.5 9.26117 6.5 9.58333ZM7.16667 13.0833C6.79848 13.0833 6.5 12.8222 6.5 12.5C6.5 12.1778 6.79848 11.9167 7.16667 11.9167L16.8333 11.9167C17.2015 11.9167 17.5 12.1778 17.5 12.5C17.5 12.8222 17.2015 13.0833 16.8333 13.0833L7.16667 13.0833ZM6.5 15.4167C6.5 15.7388 6.79848 16 7.16667 16L16.8333 16C17.2015 16 17.5 15.7388 17.5 15.4167C17.5 15.0945 17.2015 14.8333 16.8333 14.8333L7.16667 14.8333C6.79848 14.8333 6.5 15.0945 6.5 15.4167Z" fill="#202124"/>
</svg>
