<svg width="24" height="24" viewBox="0 0 24 24" fill="none" xmlns="http://www.w3.org/2000/svg">
<path d="M19.9058 8.61281C20.286 8.98854 20.5 9.50083 20.5 10.0354V17C20.5 18.1046 19.6046 19 18.5 19H5.5C4.39543 19 3.5 18.1046 3.5 17L3.5 7C3.5 5.89543 4.39543 5 5.5 5L15.4285 5C15.9548 5 16.4599 5.20748 16.8343 5.57744L19.9058 8.61281ZM18.375 9.2L16.25 7.1V8.7C16.25 8.97614 16.4739 9.2 16.75 9.2H18.375ZM4.91667 16.6C4.91667 17.1523 5.36438 17.6 5.91667 17.6H18.0833C18.6356 17.6 19.0833 17.1523 19.0833 16.6V10.6H16.8333C15.7288 10.6 14.8333 9.70457 14.8333 8.6L14.8333 6.4L5.91667 6.4C5.36438 6.4 4.91667 6.84772 4.91667 7.4L4.91667 16.6Z" fill="#202124"/>
<path d="M7 15.4167C7 15.7388 7.29848 16 7.66667 16H15.8333C16.2015 16 16.5 15.7388 16.5 15.4167C16.5 15.0945 16.2015 14.8333 15.8333 14.8333H7.66667C7.29848 14.8333 7 15.0945 7 15.4167Z" fill="#202124"/>
<path d="M7 12.5C7 12.8222 7.29848 13.0833 7.66667 13.0833H15.8333C16.2015 13.0833 16.5 12.8222 16.5 12.5C16.5 12.1778 16.2015 11.9167 15.8333 11.9167H7.66667C7.29848 11.9167 7 12.1778 7 12.5Z" fill="#202124"/>
<path d="M7 9.58333C7 9.9055 7.29848 10.1667 7.66667 10.1667H12.5C12.8682 10.1667 13.1667 9.9055 13.1667 9.58333C13.1667 9.26117 12.8682 9 12.5 9H7.66667C7.29848 9 7 9.26117 7 9.58333Z" fill="#202124"/>
</svg>
