<svg width="24" height="24" viewBox="0 0 24 24" fill="none" xmlns="http://www.w3.org/2000/svg">
<path d="M12 9.08334C11.8069 9.08636 11.6148 9.10872 11.4266 9.14999C11.3019 9.17732 11.247 9.31885 11.2901 9.43901C11.345 9.59174 11.3739 9.75321 11.375 9.91667C11.375 10.1082 11.3373 10.2978 11.264 10.4748C11.1907 10.6517 11.0833 10.8125 10.9479 10.9479C10.8124 11.0833 10.6517 11.1907 10.4747 11.264C10.2978 11.3373 10.1082 11.375 9.91666 11.375C9.75502 11.3739 9.59533 11.3456 9.44411 11.2919C9.32216 11.2487 9.1788 11.3062 9.15392 11.4332C9.05346 11.946 9.09271 12.4781 9.26989 12.973C9.47569 13.5478 9.85713 14.0433 10.3602 14.3893C10.8633 14.7354 11.4624 14.9143 12.0729 14.9009C12.6833 14.8874 13.274 14.6822 13.7613 14.3144C14.2487 13.9466 14.6079 13.4348 14.7882 12.8514C14.9685 12.2681 14.9606 11.6428 14.7658 11.0641C14.571 10.4855 14.199 9.98282 13.7026 9.62731C13.2062 9.27181 12.6106 9.08149 12 9.08334ZM19.4094 11.6198C17.9971 8.86433 15.2013 7 12 7C8.79869 7 6.00207 8.86563 4.59061 11.6201C4.53104 11.7379 4.5 11.8681 4.5 12.0001C4.5 12.1322 4.53104 12.2624 4.59061 12.3802C6.00285 15.1357 8.79869 17 12 17C15.2013 17 17.9979 15.1344 19.4094 12.38C19.469 12.2621 19.5 12.1319 19.5 11.9999C19.5 11.8678 19.469 11.7376 19.4094 11.6198ZM12 15.75C9.60992 15.75 7.4049 14.5103 6.08514 12.4712C5.89942 12.1843 5.89942 11.8157 6.08514 11.5288C7.40487 9.48972 9.60968 8.25 12 8.25C14.3903 8.25 16.5952 9.48974 17.9149 11.5288C18.1006 11.8157 18.1006 12.1843 17.9149 12.4712C16.5954 14.5103 14.3903 15.75 12 15.75Z" fill="#202124"/>
</svg>
