<svg width="24" height="24" viewBox="0 0 24 24" fill="none" xmlns="http://www.w3.org/2000/svg">
<path d="M7.42394 8.44875L7.7221 8.11541C8.60611 7.12708 9.80081 6.46987 11.1088 6.25234C12.4169 6.03481 13.76 6.26997 14.9163 6.91897C16.0726 7.56798 16.9729 8.592 17.4686 9.82189C17.9642 11.0518 18.0255 12.4139 17.6423 13.6834C17.2591 14.9528 16.4544 16.0535 15.361 16.8037C14.2676 17.5539 12.9511 17.9088 11.6288 17.8096C10.3065 17.7104 9.05763 17.1631 8.08843 16.2581C7.11924 15.3532 6.48773 14.1447 6.29822 12.8323C6.27057 12.6385 6.16702 12.4633 6.01042 12.3458C5.85383 12.2283 5.65698 12.1778 5.46317 12.2055C5.26936 12.2331 5.09447 12.3366 4.97698 12.4932C4.85949 12.6498 4.80902 12.8467 4.83667 13.0405C5.07373 14.6872 5.86609 16.2032 7.0826 17.338C8.29911 18.4728 9.86675 19.1581 11.5259 19.2803C13.185 19.4025 14.8362 18.9543 16.2058 18.01C17.5755 17.0657 18.5815 15.6818 19.0572 14.0877C19.533 12.4935 19.45 10.7847 18.8219 9.24414C18.1939 7.7036 17.0585 6.4238 15.6037 5.61669C14.149 4.80957 12.4622 4.52355 10.8227 4.80601C9.18324 5.08846 7.68941 5.92244 6.58863 7.16983L6.23867 7.5664V6.06125C6.23867 5.86565 6.16097 5.67807 6.02266 5.53976C5.88435 5.40145 5.69677 5.32375 5.50117 5.32375C5.30557 5.32375 5.11799 5.40145 4.97968 5.53976C4.84137 5.67807 4.76367 5.86565 4.76367 6.06125V9.18624C4.76367 9.38184 4.84137 9.56943 4.97968 9.70773C5.11799 9.84604 5.30557 9.92374 5.50117 9.92374H8.62617C8.82176 9.92374 9.00935 9.84604 9.14766 9.70773C9.28596 9.56943 9.36367 9.38184 9.36367 9.18624C9.36367 8.99065 9.28596 8.80306 9.14766 8.66475C9.00935 8.52645 8.82176 8.44875 8.62617 8.44875H7.42394Z" fill="#202124"/>
<path d="M12.4887 9.18624C12.4887 8.99065 12.411 8.80306 12.2727 8.66475C12.1343 8.52645 11.9468 8.44875 11.7512 8.44875C11.5556 8.44875 11.368 8.52645 11.2297 8.66475C11.0914 8.80306 11.0137 8.99065 11.0137 9.18624V12.3112C11.0137 12.5068 11.0914 12.6944 11.2297 12.8327C11.368 12.971 11.5556 13.0487 11.7512 13.0487H13.6262C13.8218 13.0487 14.0093 12.971 14.1476 12.8327C14.286 12.6944 14.3637 12.5068 14.3637 12.3112C14.3637 12.1156 14.286 11.9281 14.1476 11.7897C14.0093 11.6514 13.8218 11.5737 13.6262 11.5737H12.4887V9.18624Z" fill="#202124"/>
</svg>
