<svg width="24" height="24" viewBox="0 0 24 24" fill="none" xmlns="http://www.w3.org/2000/svg">
<path fill-rule="evenodd" clip-rule="evenodd" d="M12.0002 4.45001C11.8484 4.45001 11.7034 4.5136 11.5967 4.6259L4.77501 11.8452C4.67039 11.9556 4.58785 12.0868 4.53213 12.2312C4.4764 12.3755 4.44859 12.5302 4.45027 12.686C4.45716 13.3282 4.9625 13.8443 5.57405 13.8443H6.22722V18.5C6.22722 19.0799 6.69732 19.55 7.27722 19.55H10.0737C10.6536 19.55 11.1237 19.0799 11.1237 18.5V14.865C11.1237 14.7821 11.1908 14.715 11.2737 14.715H12.7268C12.8096 14.715 12.8768 14.7821 12.8768 14.865V18.5C12.8768 19.0799 13.3469 19.55 13.9268 19.55H16.7232C17.3031 19.55 17.7732 19.0799 17.7732 18.5V13.8443H18.4413C18.7385 13.8443 19.0179 13.7209 19.2271 13.4993C19.3302 13.3905 19.4118 13.2613 19.4672 13.1192C19.5225 12.9771 19.5507 12.8249 19.5502 12.6714C19.5502 12.3611 19.4346 12.0667 19.2255 11.8453L12.8324 5.07973L12.4038 4.6259C12.297 4.5136 12.152 4.45001 12.0002 4.45001ZM12.1109 6.24477C12.0517 6.18211 11.952 6.18209 11.8928 6.24472L6.23538 12.23C6.14497 12.3256 6.21278 12.483 6.34439 12.483H7.26848C7.40655 12.483 7.51848 12.595 7.51848 12.733V17.7387C7.51848 17.9872 7.71995 18.1887 7.96848 18.1887H9.8148C9.89764 18.1887 9.9648 18.1215 9.9648 18.0387V14.2446C9.9648 13.8325 10.2807 13.4938 10.6766 13.4938H13.3238C13.7198 13.4938 14.0357 13.8325 14.0357 14.2446V18.0387C14.0357 18.1215 14.1028 18.1887 14.1857 18.1887H16.032C16.2805 18.1887 16.482 17.9872 16.482 17.7387V12.733C16.482 12.595 16.5939 12.483 16.732 12.483H17.6578C17.7894 12.483 17.8572 12.3256 17.7668 12.23L12.3477 6.49556L12.1109 6.24477Z" fill="#202124"/>
</svg>
