<svg width="24" height="24" viewBox="0 0 24 24" fill="none" xmlns="http://www.w3.org/2000/svg">
<path fill-rule="evenodd" clip-rule="evenodd" d="M18.5682 5.92386C18.7992 6.05746 18.9545 6.30719 18.9545 6.59321V15.0932C18.9545 15.52 18.6086 15.8659 18.1818 15.8659H5.81818C5.39142 15.8659 5.04545 15.52 5.04545 15.0932L5.04545 6.59321C5.04545 6.16644 5.39142 5.82048 5.81818 5.82048L10.8409 5.82048V12.0023C10.8409 12.2157 11.0139 12.3887 11.2273 12.3887H11.4536C11.5561 12.3887 11.6543 12.348 11.7268 12.2755L14.045 9.95731C14.1959 9.80643 14.4405 9.80643 14.5914 9.95732L16.9096 12.2755C16.982 12.348 17.0803 12.3887 17.1828 12.3887H17.4091C17.6225 12.3887 17.7955 12.2157 17.7955 12.0023V5.82048H18.1818C18.3226 5.82048 18.4545 5.85811 18.5682 5.92386ZM4.27273 18.1841C3.84596 18.1841 3.5 18.5301 3.5 18.9568C3.5 19.3836 3.84596 19.7296 4.27273 19.7296H19.7273C20.154 19.7296 20.5 19.3836 20.5 18.9568C20.5 18.5301 20.154 18.1841 19.7273 18.1841H4.27273ZM12.3298 10.1271C12.2081 10.2488 12 10.1626 12 9.99046V5.82048L16.6364 5.82048V9.99046C16.6364 10.1626 16.4283 10.2488 16.3066 10.1271L14.5914 8.41186C14.4405 8.26098 14.1959 8.26098 14.045 8.41186L12.3298 10.1271ZM3.5 5.82048C3.5 4.96695 4.19192 4.27502 5.04545 4.27502H18.9545C19.8081 4.27502 20.5 4.96695 20.5 5.82048V15.8659C20.5 16.7195 19.8081 17.4114 18.9545 17.4114H5.04545C4.19192 17.4114 3.5 16.7195 3.5 15.8659V5.82048Z" fill="#202124"/>
</svg>
