<svg width="24" height="24" viewBox="0 0 24 24" fill="none" xmlns="http://www.w3.org/2000/svg">
<path fill-rule="evenodd" clip-rule="evenodd" d="M21 12C21 16.9706 16.9706 21 12 21C7.02944 21 3 16.9706 3 12C3 7.02944 7.02944 3 12 3C16.9706 3 21 7.02944 21 12ZM12 19.5C16.1421 19.5 19.5 16.1421 19.5 12C19.5 7.85786 16.1421 4.5 12 4.5C7.85786 4.5 4.5 7.85786 4.5 12C4.5 16.1421 7.85786 19.5 12 19.5Z" fill="#202124"/>
<path fill-rule="evenodd" clip-rule="evenodd" d="M14.0303 7.46967C14.3232 7.76256 14.3232 8.23744 14.0303 8.53033L10.5607 12L14.0303 15.4697C14.3232 15.7626 14.3232 16.2374 14.0303 16.5303C13.7374 16.8232 13.2626 16.8232 12.9697 16.5303L8.96967 12.5303C8.67678 12.2374 8.67678 11.7626 8.96967 11.4697L12.9697 7.46967C13.2626 7.17678 13.7374 7.17678 14.0303 7.46967Z" fill="#202124"/>
</svg>
