<svg width="24" height="24" viewBox="0 0 24 24" fill="none" xmlns="http://www.w3.org/2000/svg">
<path fill-rule="evenodd" clip-rule="evenodd" d="M21 12C21 16.9706 16.9706 21 12 21C7.02944 21 3 16.9706 3 12C3 7.02944 7.02944 3 12 3C16.9706 3 21 7.02944 21 12ZM12 19.5C16.1421 19.5 19.5 16.1421 19.5 12C19.5 7.85786 16.1421 4.5 12 4.5C7.85786 4.5 4.5 7.85786 4.5 12C4.5 16.1421 7.85786 19.5 12 19.5Z" fill="#202124"/>
<path fill-rule="evenodd" clip-rule="evenodd" d="M7.46967 14.0303C7.76256 14.3232 8.23744 14.3232 8.53033 14.0303L12 10.5607L15.4697 14.0303C15.7626 14.3232 16.2374 14.3232 16.5303 14.0303C16.8232 13.7374 16.8232 13.2626 16.5303 12.9697L12.5303 8.96967C12.2374 8.67678 11.7626 8.67678 11.4697 8.96967L7.46967 12.9697C7.17678 13.2626 7.17678 13.7374 7.46967 14.0303Z" fill="#202124"/>
</svg>
