<svg width="24" height="24" viewBox="0 0 24 24" fill="none" xmlns="http://www.w3.org/2000/svg">
<path fill-rule="evenodd" clip-rule="evenodd" d="M21 12C21 16.9706 16.9706 21 12 21C7.02944 21 3 16.9706 3 12C3 7.02944 7.02944 3 12 3C16.9706 3 21 7.02944 21 12ZM12 19.5C16.1421 19.5 19.5 16.1421 19.5 12C19.5 7.85786 16.1421 4.5 12 4.5C7.85786 4.5 4.5 7.85786 4.5 12C4.5 16.1421 7.85786 19.5 12 19.5Z" fill="#202124"/>
<path fill-rule="evenodd" clip-rule="evenodd" d="M9.96967 7.46967C9.67678 7.76256 9.67678 8.23744 9.96967 8.53033L13.4393 12L9.96967 15.4697C9.67678 15.7626 9.67678 16.2374 9.96967 16.5303C10.2626 16.8232 10.7374 16.8232 11.0303 16.5303L15.0303 12.5303C15.3232 12.2374 15.3232 11.7626 15.0303 11.4697L11.0303 7.46967C10.7374 7.17678 10.2626 7.17678 9.96967 7.46967Z" fill="#202124"/>
</svg>
