<svg width="24" height="24" viewBox="0 0 24 24" fill="none" xmlns="http://www.w3.org/2000/svg">
<path fill-rule="evenodd" clip-rule="evenodd" d="M21 12C21 16.9706 16.9706 21 12 21C7.02944 21 3 16.9706 3 12C3 7.02944 7.02944 3 12 3C16.9706 3 21 7.02944 21 12ZM12 19.5C16.1421 19.5 19.5 16.1421 19.5 12C19.5 7.85786 16.1421 4.5 12 4.5C7.85786 4.5 4.5 7.85786 4.5 12C4.5 16.1421 7.85786 19.5 12 19.5Z" fill="#202124"/>
<path fill-rule="evenodd" clip-rule="evenodd" d="M10.6601 16.0494C10.6601 16.6831 10.8944 17 11.3629 17C11.688 17 12.0131 16.8704 12.3382 16.6111C12.6729 16.3423 12.9502 16.0206 13.1701 15.6461C13.39 15.262 13.5 14.9019 13.5 14.5658C13.5 14.4026 13.457 14.321 13.3709 14.321C13.304 14.321 13.2466 14.3882 13.1988 14.5226C13.0554 14.8683 12.9024 15.142 12.7398 15.3436C12.5868 15.5453 12.4482 15.6461 12.3239 15.6461C12.2187 15.6461 12.1661 15.5885 12.1661 15.4733C12.1661 15.4444 12.1757 15.3916 12.1948 15.3148L12.9119 11.5988C12.9789 11.2243 13.0123 10.9602 13.0123 10.8066C13.0123 10.2689 12.8115 10 12.4099 10C12.0848 10 11.7502 10.1344 11.4059 10.4033C11.1657 10.5909 10.9534 10.8043 10.7691 11.0434C10.6088 11.2512 10.3775 11.5428 10.5388 11.7498C10.5484 11.7621 10.56 11.7727 10.5741 11.7812C10.6295 11.8149 10.6987 11.8012 10.7659 11.7684C10.9594 11.6741 11.0583 11.4325 11.2623 11.3639C11.2822 11.3572 11.3014 11.3539 11.3199 11.3539C11.4059 11.3539 11.449 11.4211 11.449 11.5556C11.449 11.594 11.4394 11.6996 11.4203 11.8724L10.7318 15.358C10.684 15.6461 10.6601 15.8765 10.6601 16.0494Z" fill="#202124"/>
<path d="M13.2282 8C13.2282 8.55228 12.7805 9 12.2282 9C11.6759 9 11.2282 8.55228 11.2282 8C11.2282 7.44772 11.6759 7 12.2282 7C12.7805 7 13.2282 7.44772 13.2282 8Z" fill="#202124"/>
</svg>
