<svg width="24" height="24" viewBox="0 0 24 24" fill="none" xmlns="http://www.w3.org/2000/svg">
<path d="M8.39712 7.6936L8.43217 7.72925C8.35732 7.80285 8.29798 7.89018 8.25751 7.98623C8.21703 8.08228 8.19621 8.1852 8.1962 8.28912C8.19618 8.39304 8.21699 8.49596 8.25743 8.59202C8.29788 8.68809 8.3572 8.77543 8.43204 8.84904C8.58319 8.99771 8.78837 9.08139 9.0025 9.08141C9.21663 9.08144 9.42183 8.9978 9.57302 8.84917L11.1085 7.33952L11.1936 7.2559V7.37518V13.2028C11.1936 13.4126 11.2784 13.6141 11.4295 13.7627C11.5807 13.9113 11.7859 13.995 12 13.995C12.2141 13.995 12.4193 13.9113 12.5705 13.7627C12.7216 13.6141 12.8064 13.4126 12.8064 13.2028V7.37518V7.2559L12.8915 7.33952L14.4269 8.84908C14.4269 8.84909 14.4269 8.84911 14.4269 8.84912C14.5783 8.99707 14.7832 9.08011 14.997 9.0798C15.2107 9.07948 15.4155 8.99581 15.5664 8.84739C15.7172 8.699 15.8019 8.49801 15.8022 8.28855C15.8024 8.07914 15.7182 7.87799 15.5678 7.72925L8.39712 7.6936ZM8.39712 7.6936L8.43217 7.72925L11.4296 4.78224C11.5807 4.63363 11.7859 4.55 12 4.55C12.2141 4.55 12.4193 4.63363 12.5704 4.78224L15.5677 7.72916L8.39712 7.6936ZM15.8372 12.0799V12.0299H15.7872H15.4256C15.2115 12.0299 15.0063 11.9462 14.8551 11.7975C14.704 11.6489 14.6192 11.4475 14.6192 11.2377C14.6192 11.0278 14.704 10.8264 14.8551 10.6778C15.0063 10.5291 15.2115 10.4455 15.4256 10.4455H16.0726C16.4381 10.4459 16.7882 10.5888 17.0464 10.8427C17.3045 11.0966 17.4496 11.4406 17.45 11.7992V18.0963C17.4496 18.4549 17.3045 18.7989 17.0464 19.0528C16.7882 19.3066 16.4381 19.4496 16.0726 19.45H7.92739C7.56195 19.4496 7.21175 19.3066 6.9536 19.0528C6.69546 18.7989 6.55042 18.4549 6.55 18.0963L6.55 11.7992C6.55043 11.4405 6.69547 11.0966 6.9536 10.8427C7.21175 10.5888 7.56195 10.4459 7.92739 10.4455H8.57439C8.78853 10.4455 8.99373 10.5291 9.1449 10.6778C9.29604 10.8264 9.3808 11.0278 9.3808 11.2377C9.3808 11.4475 9.29604 11.6489 9.1449 11.7975C8.99373 11.9462 8.78853 12.0299 8.57439 12.0299H8.2128H8.1628V12.0799V17.8156V17.8656H8.2128H15.7872H15.8372V17.8156V12.0799Z" fill="#202124" stroke="white" stroke-width="0.1"/>
</svg>
