<svg width="24" height="24" viewBox="0 0 24 24" fill="none" xmlns="http://www.w3.org/2000/svg">
<path d="M10.9149 17.3287C12.338 17.3284 13.7202 16.852 14.8413 15.9753L17.7991 18.9331C18.1121 19.2462 18.6197 19.2462 18.9328 18.9331C19.2459 18.6201 19.2459 18.1125 18.9328 17.7994L15.975 14.8416C16.8522 13.7204 17.3289 12.3379 17.3292 10.9144C17.3292 7.37765 14.4516 4.5 10.9149 4.5C7.37813 4.5 4.50049 7.37765 4.50049 10.9144C4.50049 14.4511 7.37813 17.3287 10.9149 17.3287ZM10.9149 6.10359C13.568 6.10359 15.7256 8.26123 15.7256 10.9144C15.7256 13.5675 13.568 15.7251 10.9149 15.7251C8.26171 15.7251 6.10408 13.5675 6.10408 10.9144C6.10408 8.26123 8.26171 6.10359 10.9149 6.10359Z" fill="#202124"/>
</svg>
