<svg width="20" height="21" viewBox="0 0 20 21" fill="none" xmlns="http://www.w3.org/2000/svg">
<path d="M8.74956 0.9375L11.2496 0.9375C11.9399 0.9375 12.4996 1.49714 12.4996 2.1875L12.9489 4.8194C12.9752 4.97371 13.1353 5.06612 13.2821 5.01178L15.7862 4.08486C16.384 3.73969 17.1485 3.94453 17.4937 4.5424L18.7437 6.70746C19.0889 7.30532 18.884 8.06981 18.2862 8.41499L16.2314 10.1201C16.1109 10.2201 16.1109 10.4049 16.2314 10.5049L18.286 12.2099C18.8839 12.5551 19.0887 13.3196 18.7435 13.9175L17.4935 16.0825C17.1484 16.6804 16.3839 16.8852 15.786 16.5401L13.2821 15.6132C13.1353 15.5589 12.9752 15.6513 12.9489 15.8056L12.4996 18.4375C12.4996 19.1279 11.9399 19.6875 11.2496 19.6875H8.74956C8.0592 19.6875 7.49956 19.1279 7.49956 18.4375L7.05025 15.8056C7.02391 15.6513 6.86384 15.5589 6.71703 15.6132L4.21324 16.54C3.61538 16.8852 2.85089 16.6803 2.50571 16.0825L1.25571 13.9174C0.910532 13.3195 1.11538 12.555 1.71324 12.2099L3.76774 10.5049C3.88821 10.4049 3.88821 10.2201 3.76774 10.1201L1.7131 8.41506C1.11523 8.06989 0.91039 7.3054 1.25557 6.70753L2.50557 4.54247C2.85075 3.9446 3.61523 3.73976 4.2131 4.08494L6.71703 5.01177C6.86384 5.06611 7.02391 4.9737 7.05025 4.81939L7.49956 2.1875C7.49956 1.49714 8.0592 0.9375 8.74956 0.9375Z" fill="#85C94E" stroke="#524F81" stroke-width="1.875"/>
<path d="M8 10.3123L9.5 11.8123L12 8.81226" stroke="#524F81" stroke-width="1.87" stroke-linecap="round" stroke-linejoin="round"/>
</svg>
