<svg width="24" height="24" viewBox="0 0 24 24" fill="none" xmlns="http://www.w3.org/2000/svg">
<path d="M14.6687 5.03311C12.8231 4.17753 10.6952 4.17752 8.84931 5.03312C7.00368 5.88871 5.62647 7.51336 5.08315 9.47667L5.08082 9.48507C4.97235 9.83695 4.60385 10.0386 4.24907 9.94034C3.89413 9.84205 3.68225 9.47928 3.76975 9.12207L3.7718 9.1137C4.25429 7.36333 5.29679 5.81982 6.73957 4.71975C8.18217 3.61967 9.94546 3.02393 11.7587 3.02393C13.572 3.02393 15.3355 3.61967 16.7783 4.71974C17.7783 5.48229 18.586 6.45793 19.1482 7.56783L19.7725 6.23948C19.9422 5.91754 20.3354 5.78572 20.6649 5.94149C20.9941 6.09732 21.1424 6.4846 21.0018 6.82036L20.9968 6.83216L19.7318 9.52435L19.7031 9.58561C19.6094 9.78413 19.4265 9.92371 19.2155 9.96433L19.2029 9.97532L19.0957 9.976L19.0927 9.97602L19.0912 9.97603C18.9902 9.97667 18.8908 9.95464 18.8 9.91219L16.0379 8.6108C15.7158 8.44064 15.5851 8.04692 15.7401 7.71769C15.8956 7.38868 16.2825 7.23908 16.6189 7.3802L16.6306 7.3851L17.8011 7.9356C17.0946 6.67415 16.0043 5.65229 14.6687 5.03311Z" fill="#202124"/>
<path d="M9.33142 18.9669C11.177 19.8224 13.3049 19.8224 15.1508 18.9669C16.9964 18.1113 18.3736 16.4866 18.917 14.5233L18.9193 14.5149C19.0278 14.163 19.3963 13.9614 19.751 14.0596C20.106 14.1579 20.3179 14.5207 20.2304 14.8779L20.2283 14.8863C19.7458 16.6366 18.7033 18.1801 17.2605 19.2802C15.8179 20.3803 14.0546 20.976 12.2414 20.976C10.4281 20.976 8.66463 20.3803 7.22176 19.2802C6.22179 18.5177 5.41409 17.542 4.85189 16.4321L4.22765 17.7605C4.0579 18.0824 3.66467 18.2142 3.3352 18.0585C3.00596 17.9026 2.85771 17.5154 2.99831 17.1796L3.00326 17.1678L4.26831 14.4756L4.297 14.4144C4.39069 14.2158 4.57362 14.0763 4.78461 14.0356L4.79715 14.0246L4.90441 14.024L4.90743 14.024L4.90892 14.0239C5.0099 14.0233 5.10929 14.0453 5.20009 14.0878L7.96219 15.3892C8.28428 15.5593 8.415 15.953 8.25995 16.2823C8.10454 16.6113 7.71756 16.7609 7.38123 16.6198L7.36954 16.6149L6.19898 16.0644C6.90545 17.3258 7.99581 18.3477 9.33142 18.9669Z" fill="#202124"/>
<path d="M10.4135 12.4556C10.22 12.4317 10.0295 12.3979 9.84158 12.3528L9.75467 12.3297C9.57439 12.2828 9.39711 12.2279 9.22437 12.1622L9.18246 12.1477C9.00417 12.0779 8.8316 11.9956 8.66334 11.9067L8.56227 11.8516C8.3978 11.7589 8.23741 11.6593 8.08467 11.5485C8.06606 11.535 8.04926 11.5199 8.03065 11.5064C7.89039 11.4013 7.75625 11.288 7.62763 11.1675C7.60348 11.1453 7.57851 11.1236 7.55495 11.1006C7.42178 10.9703 7.29675 10.8306 7.17873 10.6843C7.15403 10.6537 7.13114 10.6216 7.10703 10.5901C6.9899 10.4351 6.87774 10.2746 6.77908 10.1037L6.73957 10.0352C6.70505 9.97545 6.72554 9.899 6.78533 9.86448L7.38072 9.52073C7.4405 9.48621 7.51695 9.5067 7.55147 9.56649L7.59098 9.63492C7.61222 9.6717 7.6364 9.70582 7.66104 9.73956C7.69993 9.79283 7.77371 9.80933 7.83084 9.77635L12.4725 7.09649C12.5298 7.06337 12.5518 6.99108 12.5216 6.93214C12.5028 6.89532 12.4833 6.8587 12.4624 6.82242L12.4229 6.75399C12.3883 6.6942 12.4088 6.61775 12.4686 6.58323L13.064 6.23948C13.1238 6.20496 13.2002 6.22545 13.2348 6.28524L13.2743 6.35367C14.3627 8.23882 14.0048 10.6837 12.4053 12.3036L12.396 12.3136C11.4512 13.2657 11.0771 14.5983 11.3467 15.8141C11.3645 15.8942 11.4552 15.9317 11.5263 15.8907L15.8903 13.3711C15.9677 13.3264 15.9746 13.2174 15.9035 13.1633L15.3485 12.7414C15.3084 12.7109 15.254 12.7075 15.2104 12.7327L12.4069 14.3512C12.3184 14.4023 12.2109 14.3315 12.2291 14.231C12.2907 13.891 12.4051 13.5596 12.5687 13.2485C12.5794 13.228 12.596 13.2111 12.616 13.1995L13.9287 12.4416C14.0277 12.3845 14.0032 12.2412 13.8895 12.2293C13.8077 12.2207 13.7254 12.215 13.6426 12.2116C13.5342 12.2071 13.4743 12.0766 13.5414 11.9913C13.6883 11.8046 13.8208 11.6075 13.9376 11.402C13.9627 11.3577 14.0118 11.332 14.0624 11.3387C15.4534 11.5246 16.7086 12.302 17.4167 13.5285L17.7973 14.1877C17.8318 14.2475 17.8113 14.324 17.7515 14.3585L17.1561 14.7022C17.0963 14.7367 17.0199 14.7163 16.9854 14.6565L16.6048 13.9973C16.6027 13.9941 16.5985 13.9932 16.5952 13.9951L11.7363 16.8004C11.733 16.8023 11.7317 16.8064 11.7334 16.8098L12.114 17.469C12.1485 17.5288 12.128 17.6052 12.0682 17.6397L11.4728 17.9835C11.413 18.018 11.3366 17.9975 11.3021 17.9377L10.9215 17.2785C10.1048 15.864 10.1607 14.1137 10.9856 12.6934C11.0355 12.6075 10.9746 12.4963 10.8753 12.4925C10.7526 12.4878 10.6303 12.4789 10.5086 12.4656C10.4769 12.4623 10.4457 12.4597 10.4135 12.4556ZM10.5386 11.5565C10.9497 11.6098 11.3693 11.6018 11.7833 11.5328C11.8146 11.5275 11.8457 11.5214 11.8769 11.5152C11.9041 11.5099 11.9289 11.4958 11.9471 11.4748C12.2464 11.1281 12.4867 10.7385 12.6591 10.322C12.7029 10.2162 12.5889 10.1222 12.4898 10.1795L10.4976 11.3296C10.3992 11.3864 10.4216 11.5418 10.5344 11.5558L10.5386 11.5565ZM8.33285 10.5175C8.3232 10.5231 8.32079 10.5375 8.32909 10.5449L8.38066 10.593C8.53322 10.7263 8.69624 10.8479 8.86837 10.9568C8.93008 10.9954 8.99476 11.0279 9.05934 11.0612C9.09781 11.081 9.1438 11.0803 9.18127 11.0586L12.909 8.90643C12.9465 8.88476 12.9703 8.84517 12.9708 8.80183C12.9738 8.55258 12.9534 8.30462 12.91 8.06102C12.8952 7.97796 12.8022 7.93708 12.7292 7.97927L8.33285 10.5175Z" fill="#202124"/>
</svg>
