<svg width="24" height="24" viewBox="0 0 24 24" fill="none" xmlns="http://www.w3.org/2000/svg">
<path d="M14.6687 5.03311C12.8231 4.17753 10.6952 4.17752 8.84931 5.03312C7.00368 5.88871 5.62647 7.51336 5.08315 9.47667L5.08082 9.48507C4.97235 9.83695 4.60385 10.0386 4.24907 9.94034C3.89413 9.84205 3.68225 9.47928 3.76975 9.12207L3.7718 9.1137C4.25429 7.36333 5.29679 5.81982 6.73957 4.71975C8.18217 3.61967 9.94546 3.02393 11.7587 3.02393C13.572 3.02393 15.3355 3.61967 16.7783 4.71974C17.7783 5.48229 18.586 6.45793 19.1482 7.56783L19.7725 6.23948C19.9422 5.91754 20.3354 5.78572 20.6649 5.94149C20.9941 6.09732 21.1424 6.4846 21.0018 6.82036L20.9968 6.83216L19.7318 9.52435L19.7031 9.58561C19.6094 9.78413 19.4265 9.92371 19.2155 9.96433L19.2029 9.97532L19.0957 9.976L19.0927 9.97602L19.0912 9.97603C18.9902 9.97667 18.8908 9.95464 18.8 9.91219L16.0379 8.6108C15.7158 8.44064 15.5851 8.04692 15.7401 7.71769C15.8956 7.38868 16.2825 7.23908 16.6189 7.3802L16.6306 7.3851L17.8011 7.9356C17.0946 6.67415 16.0043 5.65229 14.6687 5.03311Z" fill="#202124"/>
<path d="M9.33142 18.9669C11.177 19.8224 13.3049 19.8224 15.1508 18.9669C16.9964 18.1113 18.3736 16.4866 18.917 14.5233L18.9193 14.5149C19.0278 14.163 19.3963 13.9614 19.751 14.0596C20.106 14.1579 20.3179 14.5207 20.2304 14.8779L20.2283 14.8863C19.7458 16.6366 18.7033 18.1801 17.2605 19.2802C15.8179 20.3803 14.0546 20.976 12.2414 20.976C10.4281 20.976 8.66463 20.3803 7.22176 19.2802C6.22179 18.5177 5.41409 17.542 4.85189 16.4321L4.22765 17.7605C4.0579 18.0824 3.66467 18.2142 3.3352 18.0585C3.00596 17.9026 2.85771 17.5154 2.99831 17.1796L3.00326 17.1678L4.26831 14.4756L4.297 14.4144C4.39069 14.2158 4.57362 14.0763 4.78461 14.0356L4.79715 14.0246L4.90441 14.024L4.90743 14.024L4.90892 14.0239C5.0099 14.0233 5.10929 14.0453 5.20009 14.0878L7.96219 15.3892C8.28428 15.5593 8.415 15.953 8.25995 16.2823C8.10454 16.6113 7.71756 16.7609 7.38123 16.6198L7.36954 16.6149L6.19898 16.0644C6.90545 17.3258 7.99581 18.3477 9.33142 18.9669Z" fill="#202124"/>
<path d="M10.323 12.2191C10.1619 12.1539 10.0056 12.0808 9.85418 11.9986L9.78465 11.9587C9.64023 11.8767 9.50023 11.7885 9.36665 11.692L9.33389 11.6699C9.19645 11.5687 9.06684 11.458 8.94246 11.3426L8.86813 11.2718C8.74788 11.1541 8.63277 11.0312 8.5268 10.9006C8.51389 10.8846 8.50289 10.8678 8.48997 10.8519C8.39345 10.729 8.30407 10.6005 8.22113 10.467C8.20544 10.4424 8.18895 10.4179 8.17396 10.3927C8.08936 10.2497 8.01392 10.1006 7.94604 9.94736C7.93183 9.91532 7.91954 9.88235 7.90603 9.84971C7.84095 9.68915 7.7814 9.52504 7.73587 9.35512L7.71764 9.28707C7.70171 9.22762 7.73699 9.16651 7.79644 9.15058L8.38848 8.99195C8.44793 8.97602 8.50903 9.0113 8.52496 9.07075L8.5432 9.13879C8.553 9.17537 8.56595 9.21033 8.57938 9.24507C8.60058 9.29992 8.66031 9.33115 8.71711 9.31593L13.3326 8.0792C13.3897 8.06392 13.4253 8.00674 13.4129 7.94901C13.4051 7.91295 13.3968 7.87694 13.3872 7.84086L13.3689 7.77281C13.353 7.71336 13.3883 7.65225 13.4477 7.63632L14.0398 7.47768C14.0992 7.46175 14.1603 7.49704 14.1763 7.55649L14.1945 7.62453C14.6968 9.49907 13.8245 11.5219 12.0733 12.5478L12.0629 12.5543C11.0296 13.1561 10.4 14.2175 10.3516 15.3266C10.3484 15.3997 10.4179 15.4529 10.4886 15.434L14.8281 14.2712C14.905 14.2506 14.9361 14.1583 14.8873 14.0953L14.5068 13.604C14.4793 13.5685 14.4332 13.5529 14.3898 13.5645L11.6022 14.3115C11.5142 14.3351 11.4379 14.2493 11.4768 14.1669C11.6083 13.8883 11.7832 13.6294 11.9959 13.3992C12.0099 13.3841 12.028 13.3733 12.048 13.3679L13.3533 13.0182C13.4518 12.9918 13.4637 12.8628 13.3685 12.8263C13.3001 12.8 13.2305 12.7761 13.16 12.754C13.0677 12.7252 13.0463 12.599 13.1237 12.541C13.2933 12.4141 13.4528 12.275 13.6008 12.125C13.6327 12.0926 13.6809 12.0818 13.7229 12.0993C14.8779 12.5803 15.7794 13.5394 16.1062 14.759L16.2818 15.4145C16.2977 15.4739 16.2625 15.535 16.203 15.551L15.611 15.7096C15.5515 15.7255 15.4904 15.6903 15.4745 15.6308L15.2988 14.9753C15.2977 14.9721 15.2944 14.9704 15.2911 14.9712L10.4595 16.2658C10.4563 16.2667 10.4542 16.27 10.4549 16.2733L10.6305 16.9287C10.6464 16.9882 10.6112 17.0493 10.5517 17.0652L9.95967 17.2239C9.90022 17.2398 9.83911 17.2045 9.82318 17.1451L9.64755 16.4896C9.27066 15.083 9.72264 13.5886 10.7608 12.5559C10.8236 12.4934 10.7968 12.3836 10.7121 12.3575C10.6076 12.3251 10.5043 12.2892 10.4026 12.2497C10.376 12.2395 10.3497 12.23 10.323 12.2191ZM10.6381 11.4737C10.9798 11.6145 11.3431 11.7044 11.7155 11.7405C11.7437 11.7432 11.7719 11.7451 11.8001 11.747C11.8248 11.7486 11.8494 11.7422 11.8699 11.7283C12.2076 11.4988 12.5045 11.2188 12.749 10.8999C12.8112 10.8189 12.7347 10.7117 12.6361 10.7381L10.6552 11.2689C10.5574 11.2951 10.5408 11.434 10.6347 11.4722L10.6381 11.4737ZM8.97841 10.07C8.96882 10.0726 8.96341 10.0844 8.96884 10.0928L9.00216 10.1461C9.10278 10.2961 9.2151 10.4384 9.33821 10.5719C9.38243 10.6194 9.43064 10.6623 9.47858 10.7058C9.50714 10.7318 9.5469 10.7418 9.58416 10.7318L13.2909 9.73856C13.3282 9.72856 13.3579 9.69996 13.3683 9.66275C13.4284 9.44879 13.468 9.23056 13.4869 9.01078C13.4933 8.93583 13.4226 8.87918 13.35 8.89865L8.97841 10.07Z" fill="#202124"/>
<path d="M14.0141 7.38154C14.1269 7.35131 14.2432 7.41808 14.2734 7.53087L14.2917 7.59845C14.8061 9.51825 13.9118 11.5837 12.1262 12.6314L12.1269 12.6326L12.1161 12.6388L12.1135 12.6411C11.1091 13.2262 10.4984 14.2566 10.4515 15.3309L10.4517 15.334L10.4543 15.3357C10.4564 15.3373 10.4592 15.3381 10.463 15.337L14.8024 14.1744C14.8102 14.1723 14.8131 14.1632 14.8081 14.1568L14.4282 13.6657C14.4254 13.6621 14.4206 13.6604 14.4161 13.6615L11.628 14.4077C11.4651 14.4512 11.3084 14.2905 11.3864 14.1246C11.5223 13.8366 11.7031 13.5685 11.9226 13.331C11.9497 13.3017 11.9847 13.2819 12.0223 13.2718L13.3273 12.9219C13.3307 12.9209 13.3323 12.9181 13.3323 12.9181C13.2665 12.8929 13.1986 12.8712 13.1302 12.8498C12.96 12.7966 12.9213 12.5676 13.0636 12.4609C13.2291 12.3371 13.3849 12.2013 13.5293 12.0549C13.5884 11.995 13.6801 11.9731 13.7615 12.007C14.9424 12.4988 15.8671 13.4808 16.2027 14.7326L16.3788 15.3885C16.409 15.5011 16.3421 15.6173 16.2295 15.6477L15.637 15.8064C15.5243 15.8365 15.408 15.7697 15.3777 15.6571L15.2259 15.0917L10.575 16.3376L10.7269 16.903C10.7571 17.0158 10.6903 17.132 10.5775 17.1623L9.9862 17.3203C9.87341 17.3505 9.75718 17.2837 9.72696 17.1709L9.55085 16.5151C9.16424 15.0716 9.62895 13.5411 10.6903 12.4852C10.6943 12.4812 10.6969 12.4751 10.6951 12.4673C10.6932 12.4593 10.6882 12.4545 10.6828 12.4529C10.576 12.4199 10.4704 12.3832 10.3665 12.3428C10.343 12.3338 10.3126 12.3233 10.2848 12.3119C10.1207 12.2454 9.96104 12.1706 9.80633 12.0866L9.8047 12.0851L9.73548 12.0454C9.58851 11.9619 9.44495 11.872 9.30799 11.7731L9.278 11.7529L9.27448 11.751C9.13344 11.6471 9.00097 11.5335 8.8748 11.4164L8.87411 11.4152L8.79902 11.3445L8.79833 11.3433C8.67609 11.2236 8.55809 11.098 8.44916 10.9637C8.44085 10.9534 8.43308 10.9434 8.42736 10.9356C8.42125 10.9272 8.41704 10.921 8.41254 10.9154L8.41185 10.9142C8.31322 10.7887 8.22158 10.6571 8.13704 10.5211L8.08813 10.4433C8.00135 10.2966 7.92457 10.1439 7.85536 9.98766C7.84076 9.95473 7.82583 9.91534 7.8144 9.88771C7.74844 9.72498 7.68679 9.55622 7.63982 9.38092L7.62153 9.31334C7.5913 9.20054 7.65807 9.08432 7.77086 9.05409L8.36243 8.89515C8.47508 8.86496 8.59127 8.93194 8.62168 9.04448L8.63971 9.11301C8.64801 9.14399 8.65948 9.17463 8.67269 9.20879C8.67412 9.21249 8.67739 9.21616 8.68129 9.21817C8.6848 9.21991 8.68817 9.22039 8.69098 9.21976L13.3071 7.9827C13.3135 7.98092 13.3166 7.97452 13.3156 7.96982C13.3081 7.93477 13.2996 7.9008 13.2906 7.86706L13.2725 7.79853C13.2425 7.68581 13.3092 7.56951 13.4219 7.53929L14.0141 7.38154ZM13.4741 7.73323C13.468 7.73486 13.4637 7.74096 13.4653 7.74706L13.4836 7.81464C13.4938 7.85294 13.5029 7.89115 13.5108 7.92809C13.5346 8.03879 13.4662 8.14661 13.3586 8.17544L8.7434 9.41275C8.63605 9.44152 8.52565 9.38248 8.48646 9.28122C8.47285 9.24601 8.45824 9.20656 8.44697 9.16448L8.42868 9.0969C8.42705 9.0908 8.4207 9.08745 8.4146 9.08909L7.82234 9.24684C7.81637 9.24847 7.81308 9.25493 7.81452 9.26092L7.83256 9.32944C7.87659 9.49375 7.93445 9.65352 7.99856 9.81169L8.03769 9.9071C8.10415 10.0571 8.17764 10.2027 8.25992 10.3417L8.30538 10.4136C8.38624 10.5437 8.47392 10.6697 8.56769 10.7892L8.58949 10.8173C8.59559 10.8256 8.5998 10.8318 8.60431 10.8374C8.70697 10.964 8.81913 11.0841 8.93696 11.1995L9.01042 11.2687C9.13161 11.3812 9.25714 11.489 9.38929 11.5866L9.4228 11.6087L9.42512 11.6114C9.55528 11.7054 9.69276 11.7912 9.83458 11.8717L9.90379 11.9115C10.0514 11.9916 10.2033 12.0622 10.3609 12.126L10.4388 12.156L10.7419 12.2625C10.8988 12.3111 10.9472 12.5118 10.8312 12.6271C9.81672 13.6365 9.37764 15.0946 9.74454 16.4639L9.9197 17.1194C9.92137 17.1254 9.92777 17.1288 9.93378 17.1273L10.5263 16.9686C10.5322 16.9668 10.5357 16.9605 10.5341 16.9545L10.3589 16.2989L10.3567 16.2923C10.3461 16.2375 10.3801 16.1839 10.4341 16.1694L15.2658 14.8749L15.3061 14.8715C15.3452 14.8764 15.3796 14.9032 15.3933 14.9424L15.3956 14.9491L15.5717 15.6049C15.5733 15.611 15.5797 15.6143 15.5857 15.6127L16.1771 15.4547C16.1831 15.4531 16.1865 15.4467 16.1849 15.4406L16.0097 14.7851C15.6916 13.598 14.8136 12.6618 13.6847 12.1916C13.6822 12.1906 13.6773 12.1908 13.6726 12.1954C13.5211 12.3491 13.357 12.4915 13.1834 12.6214C13.1787 12.6251 13.1751 12.6319 13.1769 12.6419C13.1786 12.6518 13.1841 12.6566 13.1896 12.6585C13.2617 12.6811 13.3336 12.7061 13.4042 12.7332C13.4954 12.7682 13.5401 12.8524 13.5332 12.9346C13.5263 13.0152 13.4707 13.0903 13.3797 13.1148L12.0738 13.4645C12.0717 13.4652 12.069 13.4673 12.069 13.4673C11.8634 13.6899 11.6949 13.9405 11.5679 14.2096L11.5662 14.2121L11.5668 14.2133L11.5704 14.2153C11.5704 14.2153 11.5731 14.2158 11.5765 14.2149L14.364 13.4675C14.4462 13.4455 14.5342 13.476 14.5863 13.5433L14.9663 14.0344C15.0588 14.1538 14.9996 14.329 14.8536 14.3681L10.5142 15.5307C10.3817 15.5659 10.2455 15.4657 10.2517 15.3219C10.3018 14.1782 10.9505 13.086 12.0124 12.4674L12.0205 12.4635L12.0232 12.4612C13.7378 11.4565 14.5876 9.47875 14.0977 7.65062L14.0797 7.5821C14.0779 7.5762 14.0716 7.57268 14.0656 7.57428L13.4741 7.73323ZM12.6107 10.6421C12.7919 10.5936 12.9547 10.7967 12.8285 10.9613C12.5774 11.2886 12.2727 11.5761 11.9263 11.8115C11.8868 11.8383 11.8398 11.8498 11.7936 11.8466C11.7656 11.8448 11.736 11.8433 11.7063 11.8404C11.3242 11.8035 10.9508 11.7108 10.5999 11.5662L10.5973 11.5645L10.5935 11.5635L10.594 11.5616C10.5019 11.5222 10.4649 11.4338 10.4734 11.3554C10.4819 11.2772 10.5356 11.198 10.6295 11.1728L12.6107 10.6421ZM12.6622 10.8348L10.681 11.3655C10.6781 11.3663 10.6759 11.3692 10.6759 11.3692C10.6746 11.371 10.6734 11.3735 10.673 11.3765L10.6722 11.3794L10.6757 11.3813C11.0082 11.5183 11.3625 11.6062 11.7252 11.6413C11.7518 11.6438 11.7791 11.6453 11.8076 11.6472C11.8104 11.6473 11.814 11.6459 11.814 11.6459C12.143 11.4223 12.4322 11.1493 12.6702 10.839L12.6719 10.8364L12.6684 10.8345C12.6684 10.8345 12.6657 10.8339 12.6622 10.8348ZM13.3241 8.80213C13.4604 8.76562 13.5989 8.87184 13.5865 9.01903C13.5671 9.24511 13.5261 9.47001 13.4643 9.68997C13.4441 9.76195 13.3875 9.81666 13.3172 9.83555L9.6105 10.829C9.53967 10.848 9.46458 10.828 9.4114 10.7797C9.36479 10.7374 9.31244 10.6915 9.26474 10.6403C9.13823 10.5031 9.02261 10.3562 8.91916 10.2019L8.91778 10.1995L8.88456 10.1462C8.86168 10.1097 8.86416 10.0689 8.87664 10.0399C8.8892 10.0108 8.91546 9.98351 8.95309 9.97343L13.3241 8.80213ZM9.11808 10.1349C9.20759 10.2638 9.3046 10.3877 9.41154 10.5037C9.45222 10.5474 9.49683 10.5871 9.54607 10.6318C9.54997 10.6353 9.55465 10.636 9.55833 10.635L13.265 9.64161C13.2692 9.64049 13.272 9.63787 13.2727 9.63558C13.331 9.42772 13.3695 9.21557 13.3878 9.00219L13.3876 8.99911L13.385 8.9974C13.383 8.99571 13.3803 8.99427 13.3765 8.99513L9.11808 10.1349Z" fill="#202124"/>
</svg>
