<svg width="24" height="24" viewBox="0 0 24 24" fill="none" xmlns="http://www.w3.org/2000/svg">
<path d="M12.5809 3.76533C12.2701 3.41156 11.73 3.41156 11.4193 3.76533L11.0764 4.15575C10.9182 4.33587 10.6893 4.43294 10.4536 4.41993L9.15539 4.34826C8.76692 4.32681 8.42211 4.60201 8.346 4.99424L8.26453 5.4141C8.20471 5.72238 7.97572 5.9666 7.67827 6.03938L7.15748 6.1668C6.7896 6.2568 6.53695 6.60439 6.55723 6.99261L6.62826 8.3527C6.64092 8.59504 6.5465 8.8303 6.37131 8.99295L5.99155 9.3455C5.64744 9.66497 5.64744 10.2202 5.99155 10.5397L6.37131 10.8923C6.5465 11.0549 6.64092 11.2902 6.62826 11.5325L6.55723 12.8926C6.53695 13.2808 6.7896 13.6284 7.15748 13.7184L7.67827 13.8458C7.97572 13.9186 8.20471 14.1628 8.26453 14.4711L8.346 14.891C8.42211 15.2832 8.76692 15.5584 9.15539 15.537L10.4536 15.4653C10.6893 15.4523 10.9182 15.5493 11.0764 15.7295L11.4193 16.1199C11.73 16.4737 12.2701 16.4737 12.5809 16.1199L12.9238 15.7295C13.082 15.5493 13.3108 15.4523 13.5466 15.4653L14.8448 15.537C15.2332 15.5584 15.5781 15.2832 15.6542 14.891L15.7356 14.4711C15.7955 14.1628 16.0244 13.9186 16.3219 13.8458L16.8427 13.7184C17.2106 13.6284 17.4632 13.2808 17.4429 12.8926L17.3719 11.5325C17.3592 11.2902 17.4537 11.0549 17.6289 10.8923L18.0086 10.5397C18.3527 10.2202 18.3527 9.66497 18.0086 9.3455L17.6289 8.99295C17.4537 8.8303 17.3592 8.59504 17.3719 8.3527L17.4429 6.99261C17.4632 6.60439 17.2106 6.2568 16.8427 6.1668L16.3219 6.03938C16.0244 5.9666 15.7955 5.72238 15.7356 5.4141L15.6542 4.99424C15.5781 4.60201 15.2332 4.32681 14.8448 4.34826L13.5466 4.41993C13.3108 4.43294 13.082 4.33587 12.9238 4.15575L12.5809 3.76533Z" fill="#202124"/>
<path d="M10.6914 16.3786L11.0343 16.769C11.1881 16.9441 11.3982 17.0326 11.6088 17.0343L10.2764 20.2476C10.1688 20.523 9.81803 20.5879 9.62382 20.3682L8.08735 18.6306L5.99915 19.244C5.70974 19.329 5.43924 19.0603 5.51198 18.76L6.77248 14.3675L7.29327 14.4949C7.59073 14.5677 7.81971 14.8119 7.87953 15.1202L7.961 15.5401C8.03711 15.9323 8.38192 16.2075 8.77039 16.1861L10.0686 16.1144C10.3043 16.1014 10.5332 16.1984 10.6914 16.3786Z" fill="#202124"/>
<path d="M13.3086 16.3786L12.9657 16.769C12.8119 16.9441 12.6018 17.0326 12.3912 17.0343L13.7236 20.2476C13.8312 20.523 14.182 20.5879 14.3762 20.3682L15.9126 18.6306L18.0008 19.244C18.2903 19.329 18.5608 19.0603 18.488 18.76L17.2275 14.3675L16.7067 14.4949C16.4093 14.5677 16.1803 14.8119 16.1205 15.1202L16.039 15.5401C15.9629 15.9323 15.6181 16.2075 15.2296 16.1861L13.9314 16.1144C13.6957 16.1014 13.4668 16.1984 13.3086 16.3786Z" fill="#202124"/>
</svg>
