<svg width="24" height="24" viewBox="0 0 24 24" fill="none" xmlns="http://www.w3.org/2000/svg">
<path fill-rule="evenodd" clip-rule="evenodd" d="M12.6735 4.83595C12.6249 4.83513 12.5743 4.83509 12.5198 4.83509H5.24209C4.7783 4.83509 4.3561 5.25468 4.3561 5.70734V15.6314C4.3561 16.0365 4.6916 16.4094 5.0884 16.4884V7.35394C5.0884 6.15504 6.12679 5.14661 7.33049 5.14661H12.6735V4.83595ZM14.0296 5.14661V4.37226C14.0296 4.27259 14.007 4.17417 13.9633 4.08425C13.8548 3.86103 13.6762 3.73081 13.5298 3.65802C13.3871 3.58711 13.2418 3.55327 13.1285 3.53468C12.9161 3.49982 12.6848 3.49993 12.5387 3.50001C12.5322 3.50001 12.5259 3.50001 12.5198 3.50001H5.24209C4.02431 3.50001 3 4.52231 3 5.70734V15.6314C3 16.8048 3.99467 17.7957 5.16549 17.8374C5.4253 18.7674 6.30996 19.4853 7.33049 19.4853H14.6082C14.6171 19.4853 14.6263 19.4854 14.6359 19.4854C14.6496 19.4854 14.6641 19.4855 14.6792 19.4854C14.7264 19.6096 14.7785 19.7116 14.8198 19.7926C14.8245 19.8018 14.8291 19.8108 14.8335 19.8195C14.9846 20.1169 15.2545 20.2807 15.4625 20.3662C15.6836 20.457 15.9295 20.5 16.1632 20.5C16.4895 20.5 16.7802 20.4179 17.0209 20.2591C17.2578 20.1029 17.4072 19.8984 17.4982 19.7111C17.5652 19.5731 17.6161 19.4383 17.6447 19.2868C17.6717 19.1435 17.673 19.0121 17.673 18.9068V15.7293H16.995C17.673 15.7293 17.673 15.7293 17.673 15.7293L17.673 15.7278L17.673 15.7262L17.673 15.7227L17.6729 15.7149L17.6723 15.6958C17.6718 15.6815 17.6708 15.6641 17.6691 15.6441C17.6658 15.6042 17.6596 15.5524 17.6479 15.4924C17.6251 15.375 17.5783 15.2109 17.4788 15.0406C17.3983 14.9027 17.2911 14.7749 17.1564 14.6676C19.3512 14.2166 21 12.301 21 10.0063C21 7.37644 18.8345 5.24451 16.1632 5.24451C15.9178 5.24451 15.6766 5.26251 15.441 5.29724C15.1933 5.20981 14.8991 5.14661 14.5992 5.14661H14.0296ZM12.9109 6.48169H7.33049C6.8707 6.48169 6.4445 6.89734 6.4445 7.35394V17.278C6.4445 17.7307 6.8667 18.1503 7.33049 18.1503H14.554V15.7293C14.554 15.5232 14.5836 15.1377 14.8829 14.812C14.9403 14.7496 15.0028 14.6944 15.0698 14.6459C14.0374 14.411 13.1315 13.8507 12.4696 13.0807C12.3903 13.1127 12.3035 13.1304 12.2125 13.1304H7.84581C7.47133 13.1304 7.16776 12.8315 7.16776 12.4628C7.16776 12.0942 7.47133 11.7953 7.84581 11.7953H11.6794C11.4518 11.243 11.3265 10.639 11.3265 10.0063C11.3265 9.98847 11.3266 9.97067 11.3268 9.95289H7.84581C7.47133 9.95289 7.16776 9.65402 7.16776 9.28535C7.16776 8.91668 7.47133 8.61781 7.84581 8.61781H11.5353C11.7923 7.7865 12.2741 7.05159 12.9109 6.48169ZM16.0099 13.4297C14.157 13.2578 12.782 11.831 12.782 10.0152C12.782 8.40369 13.9919 7.02505 15.5811 6.66983C15.645 6.65555 15.7052 6.63258 15.7605 6.60228C15.8926 6.58729 16.027 6.57959 16.1632 6.57959C18.0856 6.57959 19.6439 8.11378 19.6439 10.0063C19.6439 11.8988 18.0856 13.433 16.1632 13.433C16.1118 13.433 16.0607 13.4319 16.0099 13.4297ZM15.9104 15.719C15.9532 15.7073 16.0314 15.6937 16.1632 15.6937C16.1893 15.6937 16.215 15.6923 16.2403 15.6895C16.2544 15.6914 16.2657 15.6936 16.2743 15.6957C16.291 15.6998 16.2997 15.7038 16.3028 15.7054C16.3073 15.7131 16.3129 15.7276 16.3161 15.7437L16.3169 15.7487V18.9068C16.3169 19.0062 16.3137 19.0306 16.3114 19.043C16.3104 19.0481 16.3064 19.07 16.2748 19.135C16.2704 19.1441 16.2671 19.1485 16.2656 19.1502C16.2656 19.1502 16.2595 19.1531 16.2513 19.1555C16.2381 19.1592 16.2104 19.1649 16.1632 19.1649C16.1289 19.1649 16.0938 19.1616 16.0609 19.1555C16.0394 19.1515 16.0209 19.1466 16.0059 19.1418C15.9363 19.0007 15.9101 18.9266 15.9101 18.8089V15.7382C15.9101 15.7311 15.9102 15.7248 15.9104 15.719ZM7.16776 15.6314C7.16776 15.2627 7.47133 14.9639 7.84581 14.9639H13.1436C13.5181 14.9639 13.8217 15.2627 13.8217 15.6314C13.8217 16.0001 13.5181 16.299 13.1436 16.299H7.84581C7.47133 16.299 7.16776 16.0001 7.16776 15.6314Z" fill="#202124"/>
</svg>
