<svg width="24" height="30" viewBox="0 0 24 30" fill="none" xmlns="http://www.w3.org/2000/svg">
<path d="M12.5 0L12.5 6" stroke="#CED0D0"/>
<path d="M12.5 23L12.5 30" stroke="#CED0D0"/>
<path fill-rule="evenodd" clip-rule="evenodd" d="M5.70794 6.5C4.48853 6.5 3.5 7.48007 3.5 8.68904C3.5 9.89802 4.48853 10.8781 5.70794 10.8781C6.68197 10.8781 7.50819 10.253 7.80168 9.38556H13.5117H15.307C16.3337 9.38556 17.166 10.2178 17.166 11.2445C17.166 12.2712 16.3337 13.1035 15.307 13.1035H13.5171H10.8074H9.7158C7.67887 13.1035 6.02761 14.7547 6.02761 16.7917C6.02761 18.8286 7.67887 20.4799 9.7158 20.4799H17.9806L16.2462 22.2219C15.9551 22.5143 15.9551 22.9883 16.2462 23.2807C16.5372 23.5731 17.0092 23.5731 17.3003 23.2807L20.0888 20.4799L20.2817 20.2861C20.5728 19.9937 20.5728 19.5197 20.2817 19.2273L20.1419 19.0868L17.3003 16.2326C17.0092 15.9403 16.5372 15.9403 16.2462 16.2326C15.9551 16.525 15.9551 16.999 16.2462 17.2914L18.0337 19.0868H9.84623C8.57865 19.0868 7.55107 18.0593 7.55107 16.7917C7.55107 15.5241 8.57865 14.4965 9.84623 14.4965H10.8074H13.5171H15.2545C17.0505 14.4965 18.5065 13.0405 18.5065 11.2445C18.5065 9.4485 17.0505 7.99253 15.2545 7.99253H13.5117H7.80168C7.50819 7.1251 6.68197 6.5 5.70794 6.5ZM5.70794 7.89303C5.26452 7.89303 4.90505 8.24942 4.90505 8.68904C4.90505 9.12867 5.26452 9.48506 5.70794 9.48506C6.15136 9.48506 6.51083 9.12867 6.51083 8.68904C6.51083 8.24942 6.15136 7.89303 5.70794 7.89303Z" fill="#9795B3"/>
</svg>
