<svg width="24" height="24" viewBox="0 0 24 24" fill="none" xmlns="http://www.w3.org/2000/svg">
<path fill-rule="evenodd" clip-rule="evenodd" d="M3 5.65196C3 4.37494 4.12345 3.25 5.3988 3.25H13.6503C14.0285 3.25 14.5096 3.31174 14.889 3.52195C15.1211 3.49147 15.3578 3.47575 15.5982 3.47575C18.5815 3.47575 21 5.89741 21 8.88468C21 11.5463 19.0801 13.7589 16.5513 14.2097C16.6824 14.3191 16.7881 14.4469 16.8697 14.5846C16.98 14.7707 17.0324 14.9511 17.0581 15.0813C17.0712 15.1476 17.0781 15.2048 17.0819 15.2486C17.0837 15.2706 17.0848 15.2896 17.0854 15.3051L17.086 15.3258L17.0861 15.3341L17.0862 15.3378L17.0862 15.3395C17.0862 15.3395 17.0862 15.3411 16.4186 15.3411H17.0862L17.0862 19.0323C17.0862 19.2583 17.0863 19.5008 16.9819 19.8277C16.964 19.8836 16.9389 19.9369 16.9073 19.9863C16.8052 20.1461 16.6502 20.3446 16.4096 20.5004C16.1615 20.661 15.863 20.75 15.517 20.75C14.9687 20.75 14.4398 20.5201 14.1371 20.0743C14.1021 20.0228 14.0744 19.9667 14.0547 19.9077C14.0535 19.904 14.0492 19.8945 14.0425 19.8799C14.0222 19.8353 13.98 19.7426 13.936 19.6186C13.8689 19.6216 13.8092 19.6214 13.7592 19.6213C13.7496 19.6213 13.7403 19.6213 13.7315 19.6213H5.47996C4.12127 19.6213 3 18.4851 3 17.138V5.65196ZM15.1473 15.3747V18.8718C15.1473 18.9631 15.1643 19.0349 15.1926 19.113C15.2086 19.1575 15.2268 19.2 15.2529 19.2613L15.2543 19.2647C15.2634 19.286 15.274 19.3109 15.2852 19.3384C15.3211 19.3628 15.3927 19.3955 15.517 19.3955C15.6219 19.3955 15.6617 19.3716 15.6751 19.3629C15.6864 19.3556 15.7004 19.3443 15.7175 19.3249C15.7321 19.2512 15.7335 19.1752 15.7335 19.0163V15.3584C15.733 15.3551 15.7323 15.3502 15.7311 15.3441C15.7264 15.3202 15.7179 15.2952 15.7064 15.2758C15.6976 15.2609 15.6875 15.2493 15.6677 15.2382C15.6473 15.2267 15.5823 15.1966 15.4359 15.1966C15.3159 15.1966 15.2538 15.2147 15.2281 15.2249C15.2064 15.2336 15.2014 15.2406 15.2014 15.2406C15.1911 15.2523 15.1708 15.2846 15.1473 15.3747ZM14.3077 14.1383C13.1234 13.8476 12.0925 13.1659 11.3592 12.2377C11.3019 12.2534 11.2416 12.2619 11.1794 12.2619H6.07515C5.70161 12.2619 5.3988 11.9587 5.3988 11.5846C5.3988 11.2106 5.70161 10.9074 6.07515 10.9074H10.5868C10.335 10.2825 10.1964 9.59981 10.1964 8.88468C10.1964 8.84677 10.1968 8.80896 10.1976 8.77124C10.1968 8.75798 10.1964 8.74462 10.1964 8.73117C10.1964 8.68285 10.1971 8.63468 10.1984 8.58669H6.07515C5.70161 8.58669 5.3988 8.28347 5.3988 7.90944C5.3988 7.53541 5.70161 7.2322 6.07515 7.2322H10.4153C10.7277 6.1879 11.3561 5.27805 12.1796 4.60449H5.3988C4.87053 4.60449 4.35271 5.123 4.35271 5.65196V17.138C4.35271 17.7414 4.87272 18.2668 5.47996 18.2668H13.7315V15.332C13.7315 15.0652 13.7834 14.6522 14.1057 14.3125C14.1678 14.247 14.2353 14.1891 14.3077 14.1383ZM15.5982 4.83024C13.3619 4.83024 11.5491 6.64547 11.5491 8.88468C11.5491 11.1239 13.3619 12.9391 15.5982 12.9391C17.8345 12.9391 19.6473 11.1239 19.6473 8.88468C19.6473 6.64547 17.8345 4.83024 15.5982 4.83024ZM5.3988 15.1876C5.3988 14.8135 5.70161 14.5103 6.07515 14.5103H12.2255C12.599 14.5103 12.9018 14.8135 12.9018 15.1876C12.9018 15.5616 12.599 15.8648 12.2255 15.8648H6.07515C5.70161 15.8648 5.3988 15.5616 5.3988 15.1876Z" fill="#202124"/>
</svg>
