<svg width="24" height="24" viewBox="0 0 24 24" fill="none" xmlns="http://www.w3.org/2000/svg">
<path d="M9.29711 20.2195C9.41854 20.6155 9.83801 20.8381 10.234 20.7166C10.63 20.5952 10.8526 20.1757 10.7312 19.7797L9.29711 20.2195ZM8.2402 17.1409L8.70644 16.5534L8.70642 16.5534L8.2402 17.1409ZM5.37667 12.0034L4.67899 11.7282L4.6789 11.7284L5.37667 12.0034ZM4.01911 10.2782L4.6095 10.7408L4.61004 10.7401L4.01911 10.2782ZM7.06263 8.55189L7.40238 9.22052C7.6128 9.1136 7.76061 8.91387 7.80137 8.68139L7.06263 8.55189ZM14.2972 17.4213L14.1568 16.6845C13.9627 16.7215 13.791 16.8337 13.6791 16.9965L14.2972 17.4213ZM15.0377 20.5039C15.316 20.8107 15.7903 20.8338 16.0971 20.5555C16.4039 20.2772 16.427 19.8029 16.1487 19.4961L15.0377 20.5039ZM10.1998 8.19989L9.48123 7.98494C9.4785 7.99407 9.47595 8.00324 9.47357 8.01247L10.1998 8.19989ZM10.433 10.335L10.9589 9.80037L10.9584 9.79986L10.433 10.335ZM12.5641 11.139L13.303 11.2678C13.3382 11.0657 13.2891 10.8581 13.1672 10.6931C13.0452 10.5282 12.861 10.4204 12.6575 10.3949L12.5641 11.139ZM14.8093 12.0034L15.0122 11.2814C14.8202 11.2274 14.6147 11.2521 14.441 11.35C14.2673 11.4479 14.1398 11.6109 14.0865 11.8031L14.8093 12.0034ZM16.7996 11.1394L17.545 11.2227L17.545 11.2226L16.7996 11.1394ZM11.5769 7.19992L11.7198 7.93619L11.7198 7.93618L11.5769 7.19992ZM14.9951 13.2371C15.3471 13.0187 15.4553 12.5563 15.237 12.2044C15.0186 11.8524 14.5562 11.7441 14.2043 11.9625L14.9951 13.2371ZM13.3997 13.5998L12.7902 13.1627L12.7901 13.1629L13.3997 13.5998ZM11.4961 15.297C11.4155 15.7033 11.6795 16.098 12.0858 16.1786C12.4921 16.2592 12.8868 15.9951 12.9674 15.5888L11.4961 15.297ZM10.7312 19.7797C10.309 18.4027 9.64916 17.3016 8.70644 16.5534L7.77397 17.7283C8.4128 18.2353 8.93537 19.0398 9.29711 20.2195L10.7312 19.7797ZM8.70642 16.5534C7.9204 15.9296 6.92456 15.8307 6.27095 15.7449C5.90648 15.6971 5.63879 15.6568 5.42361 15.586C5.22307 15.52 5.1344 15.4478 5.08352 15.3768L3.86427 16.2506C4.16139 16.6652 4.56925 16.884 4.95483 17.0109C5.32577 17.1329 5.73379 17.1873 6.07566 17.2322C6.83471 17.3318 7.37403 17.411 7.77398 17.7284L8.70642 16.5534ZM5.08352 15.3768C5.03971 15.3157 4.99888 15.21 5.01156 15.0025C5.02465 14.7881 5.09251 14.5202 5.21134 14.2015C5.32874 13.8866 5.48056 13.5613 5.63895 13.2307C5.79011 12.9153 5.95807 12.5737 6.07445 12.2784L4.6789 11.7284C4.58768 11.9599 4.452 12.2366 4.28622 12.5826C4.12766 12.9135 3.94924 13.2928 3.80585 13.6774C3.66389 14.0582 3.5404 14.4846 3.51435 14.9111C3.48787 15.3445 3.56009 15.8261 3.86427 16.2506L5.08352 15.3768ZM6.07436 12.2786C6.27798 11.7624 6.17847 11.2839 5.92951 10.9133C5.71166 10.5889 5.39404 10.3657 5.16257 10.2214C5.03966 10.1448 4.91814 10.077 4.81953 10.0222C4.71259 9.96277 4.64287 9.92415 4.58975 9.89078C4.51811 9.84578 4.56316 9.86223 4.62019 9.93588C4.65491 9.98071 4.73187 10.0948 4.74734 10.2689C4.76489 10.4663 4.69455 10.6322 4.6095 10.7408L3.42871 9.81571C3.31437 9.96167 3.23224 10.1656 3.25324 10.4018C3.27217 10.6147 3.36782 10.7685 3.43419 10.8542C3.55452 11.0096 3.7147 11.1125 3.79182 11.1609C3.88745 11.221 4.00009 11.2829 4.09091 11.3334C4.19007 11.3885 4.2817 11.4399 4.36911 11.4944C4.55827 11.6123 4.64997 11.6985 4.68432 11.7496C4.68757 11.7545 4.68316 11.7176 4.67899 11.7282L6.07436 12.2786ZM4.61004 10.7401C4.56283 10.8005 4.55263 10.7884 4.71108 10.6835C4.8368 10.6003 5.02 10.4896 5.26707 10.3494C5.75949 10.0702 6.46948 9.69454 7.40238 9.22052L6.72289 7.88325C5.78303 8.36081 5.04925 8.74855 4.5271 9.04467C4.26688 9.19224 4.05009 9.3222 3.88315 9.4327C3.74893 9.52154 3.55338 9.6562 3.42818 9.81639L4.61004 10.7401ZM7.80137 8.68139C8.04318 7.30193 8.59279 6.35005 9.3939 5.73159C10.2044 5.10591 11.3648 4.75 12.9589 4.75V3.25C11.1539 3.25 9.63215 3.65267 8.47727 4.54425C7.31303 5.44305 6.61406 6.76712 6.3239 8.42239L7.80137 8.68139ZM12.9589 4.75C15.2664 4.75 16.8139 5.71572 17.8021 6.96918C18.8113 8.24929 19.2495 9.84979 19.2495 11.0718H20.7495C20.7495 9.54432 20.2165 7.60891 18.98 6.0405C17.7225 4.44543 15.7497 3.25 12.9589 3.25V4.75ZM19.2495 11.0718C19.2495 13.4328 17.1818 16.1078 14.1568 16.6845L14.4377 18.158C18.1134 17.4572 20.7495 14.2091 20.7495 11.0718H19.2495ZM13.6791 16.9965C13.2792 17.5785 13.4886 18.2566 13.7264 18.7298C13.988 19.2504 14.4405 19.8455 15.0377 20.5039L16.1487 19.4961C15.5824 18.8718 15.2371 18.3955 15.0667 18.0563C14.8725 17.6699 15.0157 17.7 14.9154 17.846L13.6791 16.9965ZM9.47357 8.01247C9.1982 9.0794 9.18477 10.1606 9.90753 10.8702L10.9584 9.79986C10.8468 9.69027 10.6782 9.34754 10.926 8.38732L9.47357 8.01247ZM9.90701 10.8697C10.4999 11.4529 11.4105 11.7501 12.4707 11.8832L12.6575 10.3949C11.7098 10.2759 11.1996 10.0371 10.9589 9.80037L9.90701 10.8697ZM11.8253 11.0102C11.7063 11.6924 11.6811 12.3656 11.9183 12.8894C12.0486 13.177 12.2617 13.4263 12.5682 13.5802C12.8641 13.7286 13.1817 13.7556 13.4743 13.7254L13.3203 12.2333C13.2213 12.2435 13.2105 12.2242 13.241 12.2395C13.2824 12.2602 13.2933 12.2896 13.2847 12.2706C13.2702 12.2386 13.2424 12.1498 13.2377 11.9703C13.2332 11.7945 13.2515 11.5629 13.303 11.2678L11.8253 11.0102ZM13.4743 13.7254C13.9463 13.6767 14.3933 13.5481 14.7641 13.2918C15.1492 13.0257 15.4078 12.6519 15.532 12.2037L14.0865 11.8031C14.0527 11.9249 13.997 11.9987 13.9113 12.0578C13.8115 12.1268 13.6314 12.2012 13.3203 12.2333L13.4743 13.7254ZM14.6063 12.7254C15.2714 12.9123 15.9517 12.9816 16.5235 12.7334C17.1723 12.4518 17.4734 11.8633 17.545 11.2227L16.0542 11.0561C16.0376 11.205 16.0035 11.2784 15.9841 11.3091C15.9696 11.3319 15.9561 11.3445 15.9262 11.3574C15.8345 11.3972 15.5711 11.4384 15.0122 11.2814L14.6063 12.7254ZM17.545 11.2226C17.6389 10.3806 17.4601 9.62432 17.2062 9.06959C17.0798 8.79353 16.9255 8.54686 16.7566 8.35583C16.6729 8.26109 16.5713 8.16386 16.4524 8.08473C16.3461 8.01396 16.1537 7.90908 15.9044 7.90908V9.40908C15.7315 9.40908 15.6291 9.33859 15.6212 9.33339C15.6009 9.31982 15.6063 9.31934 15.6328 9.34933C15.6844 9.40774 15.7637 9.52241 15.8423 9.69394C15.9981 10.0344 16.1143 10.5183 16.0542 11.0562L17.545 11.2226ZM15.9044 7.90908C15.8424 7.90908 15.7585 7.90715 15.6691 7.89945C15.5773 7.89153 15.4957 7.87882 15.4335 7.86245C15.3614 7.84348 15.3672 7.83304 15.4049 7.86308C15.4288 7.88213 15.4699 7.92132 15.5047 7.98628C15.5416 8.05496 15.5593 8.13015 15.5593 8.19989H14.0593C14.0593 8.57964 14.252 8.86241 14.4702 9.03626C14.6656 9.19195 14.8879 9.26994 15.0516 9.31302C15.3844 9.40063 15.7378 9.40908 15.9044 9.40908V7.90908ZM15.5593 8.19989C15.5593 7.7903 15.3283 7.50345 15.1276 7.33882C14.9299 7.17672 14.6937 7.07153 14.4818 7.00053C14.0514 6.85629 13.5282 6.78991 13.0529 6.78991V8.28991C13.4108 8.28991 13.7657 8.34253 14.0052 8.42279C14.062 8.44183 14.1053 8.46013 14.1364 8.47574C14.1684 8.49181 14.1791 8.50091 14.1764 8.49867C14.1748 8.49735 14.0593 8.39849 14.0593 8.19989H15.5593ZM13.0529 6.78991C12.9288 6.78991 12.9409 6.76921 12.9976 6.8009C13.0134 6.80975 13.0878 6.8722 12.9408 6.73618C12.8019 6.60759 12.6032 6.47152 12.2981 6.4199C12.0405 6.37632 11.754 6.40157 11.4341 6.46365L11.7198 7.93618C11.9719 7.88727 12.0517 7.89952 12.0479 7.89888C12.0374 7.8971 12.0083 7.89011 11.9722 7.8707C11.9377 7.85218 11.9184 7.83376 11.9221 7.83715C11.926 7.84079 11.9312 7.84586 11.9478 7.86227C11.9613 7.87575 11.9854 7.89973 12.0125 7.92474C12.0708 7.97859 12.1536 8.04758 12.2657 8.11024C12.4985 8.24036 12.7604 8.28991 13.0529 8.28991V6.78991ZM11.4341 6.46365C10.532 6.63867 9.74927 7.08896 9.48123 7.98494L10.9183 8.41485C10.9607 8.27325 11.0963 8.05716 11.7198 7.93619L11.4341 6.46365ZM14.2043 11.9625C13.9765 12.1038 13.7098 12.2896 13.4641 12.4879C13.2295 12.6774 12.9678 12.9151 12.7902 13.1627L14.0092 14.0368C14.0668 13.9565 14.2017 13.8203 14.4065 13.6549C14.6004 13.4984 14.816 13.3482 14.9951 13.2371L14.2043 11.9625ZM12.7901 13.1629C12.6497 13.3588 12.5153 13.5364 12.386 13.7072C12.2593 13.8746 12.1326 14.0416 12.0206 14.2012C11.8032 14.5107 11.58 14.8735 11.4961 15.297L12.9674 15.5888C12.9874 15.4879 13.0544 15.3391 13.2482 15.0632C13.3417 14.93 13.4508 14.7858 13.5819 14.6127C13.7104 14.4429 13.8559 14.2507 14.0093 14.0366L12.7901 13.1629Z" fill="#202124"/>
</svg>
