<svg width="24" height="24" viewBox="0 0 24 24" fill="none" xmlns="http://www.w3.org/2000/svg">
<path d="M13.4337 16.2C13.0284 16.2 12.7002 16.5286 12.7002 16.9336C12.7002 17.3386 13.0284 17.6673 13.4337 17.6673C13.8388 17.6673 14.1673 17.3388 14.1673 16.9336C14.1673 16.5285 13.8388 16.2 13.4337 16.2Z" fill="#202124"/>
<path d="M16.1146 11.1276C15.7093 11.1276 15.3811 11.4562 15.3811 11.8612C15.3811 12.2662 15.7093 12.5948 16.1146 12.5948C16.5197 12.5948 16.8482 12.2664 16.8482 11.8612C16.8482 11.4561 16.5197 11.1276 16.1146 11.1276Z" fill="#202124"/>
<path d="M11.4337 5.70001C11.0284 5.70001 10.7002 6.02861 10.7002 6.43364C10.7002 6.83865 11.0284 7.16726 11.4337 7.16726C11.8388 7.16726 12.1673 6.83881 12.1673 6.43364C12.1673 6.02849 11.8388 5.70001 11.4337 5.70001Z" fill="#202124"/>
<path fill-rule="evenodd" clip-rule="evenodd" d="M12.0002 3.45001C7.28566 3.45001 3.4502 7.28532 3.4502 12C3.4502 16.7147 7.28551 20.55 12.0002 20.55C16.7149 20.55 20.5502 16.7147 20.5502 12C20.5502 7.28532 16.7149 3.45001 12.0002 3.45001ZM4.71573 12C4.71573 7.9838 7.98399 4.71555 12.0002 4.71555C16.0164 4.71555 19.2847 7.9838 19.2847 12C19.2847 16.0162 16.0164 19.2845 12.0002 19.2845C7.98403 19.2845 4.71573 16.0162 4.71573 12ZM10.7002 6.43364C10.7002 6.02861 11.0284 5.70001 11.4337 5.70001C11.8388 5.70001 12.1673 6.02849 12.1673 6.43364C12.1673 6.83881 11.8388 7.16726 11.4337 7.16726C11.0284 7.16726 10.7002 6.83865 10.7002 6.43364ZM13.705 7.67219C14.1547 7.17861 14.9722 7.14175 15.4654 7.59153L16.341 8.39097C16.5866 8.61516 16.7304 8.92302 16.7457 9.25471C16.7609 9.58694 16.6452 9.90615 16.4209 10.1518C16.1854 10.4097 15.85 10.5577 15.5005 10.5577C15.1888 10.5577 14.8902 10.4413 14.6604 10.2317L13.785 9.43273C13.5395 9.2087 13.3951 8.90084 13.3803 8.56863C13.3654 8.23672 13.481 7.91762 13.705 7.67219ZM5.90445 11.6949C5.90445 10.8567 6.58657 10.175 7.4247 10.175C8.26282 10.175 8.94496 10.8566 8.94496 11.6949C8.94496 12.5334 8.26318 13.2152 7.4247 13.2152C6.58621 13.2152 5.90445 12.5334 5.90445 11.6949ZM15.3811 11.8612C15.3811 11.4562 15.7093 11.1276 16.1146 11.1276C16.5197 11.1276 16.8482 11.4561 16.8482 11.8612C16.8482 12.2664 16.5197 12.5948 16.1146 12.5948C15.7093 12.5948 15.3811 12.2662 15.3811 11.8612ZM8.61449 15.0917C8.83319 14.6907 9.25276 14.4419 9.70947 14.4419C9.91693 14.4419 10.1228 14.4945 10.3055 14.5945L11.346 15.1615C11.6382 15.3205 11.8512 15.5854 11.9452 15.9035C12.0394 16.2225 12.0033 16.5606 11.8441 16.8523C11.6254 17.2529 11.2057 17.5024 10.7491 17.5024C10.5413 17.5024 10.3356 17.4496 10.1529 17.3497L9.11256 16.7827C8.82086 16.624 8.60696 16.3598 8.51324 16.0405C8.41917 15.7216 8.45531 15.3835 8.61449 15.0917ZM12.7002 16.9336C12.7002 16.5286 13.0284 16.2 13.4337 16.2C13.8388 16.2 14.1673 16.5285 14.1673 16.9336C14.1673 17.3388 13.8388 17.6673 13.4337 17.6673C13.0284 17.6673 12.7002 17.3386 12.7002 16.9336ZM7.42484 12.2496C7.11896 12.2496 6.87013 12.0007 6.87013 11.6949C6.87013 11.389 7.11911 11.1405 7.42484 11.1405C7.73072 11.1405 7.97956 11.3891 7.97956 11.6949C7.97956 12.0007 7.73072 12.2496 7.42484 12.2496ZM10.6149 16.5026C10.7484 16.5751 10.9241 16.5219 10.996 16.3901C11.032 16.3243 11.0403 16.2487 11.0181 16.1768C10.9972 16.1046 10.9494 16.0453 10.8834 16.0093L9.84245 15.442C9.80056 15.419 9.7557 15.4074 9.70875 15.4074C9.60566 15.4074 9.51088 15.4637 9.46155 15.5539C9.4256 15.62 9.41773 15.6959 9.43897 15.7678C9.46022 15.84 9.50805 15.8993 9.57401 15.9352L10.6149 16.5026ZM15.3115 9.51863C15.4229 9.62039 15.607 9.61118 15.7082 9.50066C15.7588 9.4451 15.7848 9.3732 15.7814 9.29892C15.778 9.22375 15.7457 9.15482 15.6902 9.10431L14.8147 8.30506C14.7632 8.25782 14.6956 8.23152 14.6257 8.23152C14.5455 8.23152 14.472 8.26376 14.4181 8.32303C14.3671 8.37859 14.3415 8.4502 14.3448 8.52507C14.3482 8.60024 14.3805 8.66917 14.436 8.71968L15.3115 9.51863Z" fill="#202124"/>
<path fill-rule="evenodd" clip-rule="evenodd" d="M12.0332 9.65401C11.7901 9.65401 11.556 9.69075 11.3342 9.75516L11.0035 9.204C11.0737 9.1782 11.1441 9.15536 11.2146 9.13618C11.5221 9.05239 11.7046 8.73515 11.6206 8.42691C11.5724 8.24873 11.4455 8.11256 11.2885 8.04594C11.1732 7.99699 11.0407 7.98514 10.9112 8.02021C10.5639 8.11465 10.2329 8.25531 9.92371 8.42954C9.91133 8.43424 9.89714 8.44051 9.88215 8.44911L9.87698 8.45223C9.86032 8.46229 9.84682 8.47267 9.83641 8.4816C9.59116 8.62688 9.3549 8.79432 9.13905 8.98996C8.90225 9.20387 8.8869 9.57046 9.10001 9.806C9.31428 10.0418 9.67986 10.0601 9.91664 9.8453C9.94317 9.82118 9.97034 9.79754 9.9981 9.77431L10.3271 10.3229C9.82422 10.7844 9.50383 11.4456 9.50383 12.1826C9.50383 13.5776 10.638 14.7118 12.033 14.7118C12.6388 14.7118 13.195 14.4969 13.6303 14.141L14.1501 14.5191C14.0956 14.5703 14.0397 14.6188 13.9823 14.6641C13.7319 14.8613 13.6879 15.2247 13.8856 15.4756C13.9996 15.6208 14.1697 15.6965 14.3402 15.6965C14.4655 15.6965 14.592 15.6557 14.6976 15.5728C14.9803 15.3501 15.2301 15.0913 15.4466 14.8101C15.4562 14.801 15.4668 14.7896 15.4772 14.7759L15.4808 14.771C15.4922 14.7552 15.5006 14.7404 15.5067 14.7281C15.6757 14.4985 15.8277 14.2521 15.9499 13.9877C16.0843 13.6982 15.9552 13.3548 15.667 13.2212C15.3777 13.0879 15.034 13.2139 14.9 13.5042C14.885 13.5367 14.8692 13.5691 14.8527 13.6013L14.3356 13.2249C14.4802 12.9077 14.5623 12.5554 14.5623 12.1832C14.5623 10.7882 13.4282 9.65401 12.0332 9.65401ZM12.0327 10.811C11.2759 10.811 10.6598 11.4271 10.6598 12.1839C10.6598 12.9407 11.2759 13.5567 12.0327 13.5567C12.7895 13.5567 13.4056 12.9407 13.4056 12.1839C13.4056 11.4271 12.7895 10.811 12.0327 10.811Z" fill="#202124"/>
<path fill-rule="evenodd" clip-rule="evenodd" d="M11.3342 9.75516C11.556 9.69075 11.7901 9.65401 12.0332 9.65401C13.4282 9.65401 14.5623 10.7882 14.5623 12.1832C14.5623 12.5554 14.4802 12.9077 14.3356 13.2249L14.8527 13.6013C14.8692 13.5691 14.885 13.5367 14.9 13.5042C15.034 13.2139 15.3777 13.0879 15.667 13.2212C15.9552 13.3548 16.0843 13.6982 15.9499 13.9877C15.8277 14.2521 15.6757 14.4985 15.5067 14.7281C15.5006 14.7404 15.4922 14.7552 15.4808 14.771L15.4772 14.7759C15.4668 14.7896 15.4562 14.801 15.4466 14.8101C15.2301 15.0913 14.9803 15.3501 14.6976 15.5728C14.592 15.6557 14.4655 15.6965 14.3402 15.6965C14.1697 15.6965 13.9996 15.6208 13.8856 15.4756C13.6879 15.2247 13.7319 14.8613 13.9823 14.6641C14.0397 14.6188 14.0956 14.5703 14.1501 14.5191L13.6303 14.141C13.195 14.4969 12.6388 14.7118 12.033 14.7118C10.638 14.7118 9.50383 13.5776 9.50383 12.1826C9.50383 11.4456 9.82422 10.7844 10.3271 10.3229L9.9981 9.77431C9.97034 9.79754 9.94317 9.82118 9.91664 9.8453C9.67986 10.0601 9.31428 10.0418 9.10001 9.806C8.8869 9.57046 8.90225 9.20387 9.13905 8.98996C9.3549 8.79432 9.59116 8.62688 9.83641 8.4816C9.84682 8.47267 9.86032 8.46229 9.87698 8.45223L9.88215 8.44911C9.89714 8.44051 9.91133 8.43424 9.92371 8.42954C10.2329 8.25531 10.5639 8.11465 10.9112 8.02021C11.0407 7.98514 11.1732 7.99699 11.2885 8.04594C11.4455 8.11256 11.5724 8.24873 11.6206 8.42691C11.7046 8.73515 11.5221 9.05239 11.2146 9.13618C11.1441 9.15536 11.0737 9.1782 11.0035 9.204L11.3342 9.75516ZM10.6598 12.1839C10.6598 11.4271 11.2759 10.811 12.0327 10.811C12.7895 10.811 13.4056 11.4271 13.4056 12.1839C13.4056 12.9407 12.7895 13.5567 12.0327 13.5567C11.2759 13.5567 10.6598 12.9407 10.6598 12.1839Z" fill="#202124"/>
</svg>
