<svg width="24" height="24" viewBox="0 0 24 24" fill="none" xmlns="http://www.w3.org/2000/svg">
<path d="M14.292 5.69643V10.7135L18.1847 16.007C18.1847 16.007 18.1847 16.007 18.1847 16.007C18.4347 16.3469 18.5843 16.7486 18.6178 17.1677C18.6514 17.5868 18.567 18.007 18.3741 18.3815C18.1813 18.7561 17.8875 19.0703 17.5255 19.2897C17.1635 19.5091 16.7473 19.6251 16.3229 19.625L14.292 5.69643ZM14.292 5.69643H15.2504C15.3194 5.69643 15.3754 5.64046 15.3754 5.57143V4.5C15.3754 4.43096 15.3194 4.375 15.2504 4.375H8.75014C8.68111 4.375 8.62514 4.43096 8.62514 4.5V5.57143C8.62514 5.64046 8.68111 5.69643 8.75014 5.69643H9.70852V10.7135L5.81589 16.007C5.5659 16.3468 5.41574 16.7485 5.38219 17.1677C5.34863 17.5868 5.43301 18.007 5.62587 18.3815C5.81873 18.7561 6.11251 19.0703 6.47453 19.2897C6.83653 19.5091 7.25272 19.6251 7.67706 19.625C7.67707 19.625 7.67708 19.625 7.67709 19.625H16.3229L14.292 5.69643ZM7.67773 18.3036H16.3234C16.5022 18.3034 16.6775 18.2543 16.8297 18.1619C16.982 18.0695 17.1053 17.9374 17.1862 17.7803C17.2671 17.6233 17.3025 17.4473 17.2886 17.2718C17.2747 17.0962 17.212 16.9278 17.1073 16.7851C17.1073 16.785 17.1073 16.785 17.1073 16.785L15.3684 14.4207C15.2977 14.3246 15.1855 14.2679 15.0663 14.2679H8.93432C8.81504 14.2679 8.70286 14.3246 8.6322 14.4207L6.89382 16.785L7.67773 18.3036ZM7.67773 18.3036C7.49886 18.3034 7.32362 18.2543 7.17134 18.1619C7.01908 18.0695 6.89578 17.9374 6.81489 17.7803C6.73401 17.6233 6.69861 17.4473 6.71252 17.2718C6.72643 17.0963 6.78909 16.9279 6.89373 16.7851L7.67773 18.3036ZM10.8232 11.4411C10.9653 11.2479 11.0419 11.0144 11.0419 10.7745V6.07143C11.0419 5.86432 11.2098 5.69643 11.4169 5.69643H12.5836C12.7908 5.69643 12.9586 5.86432 12.9586 6.07143V10.7745C12.9586 11.0144 13.0353 11.2479 13.1774 11.4411L13.9624 12.5085C14.096 12.6901 13.9663 12.9464 13.7409 12.9464H10.2597C10.0343 12.9464 9.90458 12.6901 10.0381 12.5085L10.8232 11.4411Z" fill="#202124" stroke="#202124" stroke-width="0.25" stroke-linejoin="round"/>
</svg>
