<svg width="24" height="24" viewBox="0 0 24 24" fill="none" xmlns="http://www.w3.org/2000/svg">
<g clip-path="url(#clip0_91_2265)">
<path fill-rule="evenodd" clip-rule="evenodd" d="M14.417 10.6724V5.91992C14.417 5.86552 14.4611 5.82143 14.5155 5.82143H14.7147C15.1486 5.82143 15.5004 5.46965 15.5004 5.03571C15.5004 4.60178 15.1486 4.25 14.7147 4.25H9.28586C8.85192 4.25 8.50014 4.60178 8.50014 5.03571C8.50014 5.46965 8.85192 5.82143 9.28586 5.82143H9.48503C9.53942 5.82143 9.58352 5.86552 9.58352 5.91992V10.6724L5.7152 15.9329C5.45151 16.2913 5.293 16.7153 5.25759 17.1577C5.22217 17.6001 5.31124 18.0435 5.51474 18.4387C5.71823 18.8339 6.02811 19.1653 6.40975 19.3966C6.79134 19.6279 7.22995 19.7501 7.67706 19.75H16.3229C16.7701 19.7501 17.2087 19.6279 17.5903 19.3966C17.9719 19.1653 18.2818 18.8339 18.4853 18.4387C18.6888 18.0435 18.7778 17.6001 18.7424 17.1577C18.707 16.7155 18.5492 16.2915 18.2853 15.9329L14.417 10.6724ZM11.1669 6.07143V10.7745C11.1669 11.041 11.0817 11.3005 10.9239 11.5151L10.1388 12.5826C10.066 12.6816 10.1367 12.8214 10.2597 12.8214H13.7409C13.8638 12.8214 13.9346 12.6816 13.8617 12.5826L13.0767 11.5151C12.9188 11.3005 12.8336 11.041 12.8336 10.7745V6.07143C12.8336 5.93336 12.7217 5.82143 12.5836 5.82143H11.4169C11.2788 5.82143 11.1669 5.93336 11.1669 6.07143ZM7.67787 18.1786H16.3232C16.4793 18.1784 16.6322 18.1356 16.7649 18.055C16.8976 17.9745 17.0048 17.8596 17.0751 17.7231C17.1453 17.5867 17.176 17.4339 17.164 17.2816C17.1519 17.1294 17.0975 16.9831 17.0066 16.8591L15.2677 14.4947C15.2205 14.4307 15.1458 14.3929 15.0663 14.3929H8.93432C8.8548 14.3929 8.78002 14.4307 8.73291 14.4948L6.99462 16.8589C6.9036 16.983 6.8492 17.1293 6.83713 17.2816C6.82507 17.4339 6.85576 17.5867 6.92602 17.7231C6.99629 17.8596 7.10352 17.9745 7.23619 18.055C7.36889 18.1356 7.52175 18.1784 7.67787 18.1786Z" fill="#202124"/>
</g>
<defs>
<clipPath id="clip0_91_2265">
<rect width="24" height="24" fill="white"/>
</clipPath>
</defs>
</svg>
