<svg width="24" height="24" viewBox="0 0 24 24" fill="none" xmlns="http://www.w3.org/2000/svg">
<path fill-rule="evenodd" clip-rule="evenodd" d="M10.4165 4.5C10.4165 4.08579 10.7523 3.75 11.1665 3.75H12.8332C13.2474 3.75 13.5832 4.08579 13.5832 4.5C13.5832 4.91421 13.2474 5.25 12.8332 5.25H12.7498V7.14017C13.5479 7.26232 14.2827 7.57632 14.9058 8.03362L16.2428 6.69666L16.1839 6.63782C15.8911 6.34492 15.8911 5.87005 16.1839 5.57716C16.4768 5.28426 16.9517 5.28426 17.2446 5.57716L18.4229 6.75549C18.7158 7.04838 18.7158 7.52326 18.4229 7.81615C18.13 8.10904 17.6552 8.10905 17.3623 7.81615L17.3034 7.75732L15.9664 9.09432C16.4236 9.71737 16.7375 10.4521 16.8597 11.25H18.7498V11.1667C18.7498 10.7524 19.0856 10.4167 19.4998 10.4167C19.9141 10.4167 20.2498 10.7524 20.2498 11.1667V12.8333C20.2498 13.2475 19.9141 13.5833 19.4998 13.5833C19.0856 13.5833 18.7498 13.2475 18.7498 12.8333V12.75H16.8597C16.7375 13.5479 16.4236 14.2826 15.9664 14.9057L17.3034 16.2427L17.3623 16.1838C17.6552 15.891 18.13 15.891 18.4229 16.1838C18.7158 16.4767 18.7158 16.9516 18.4229 17.2445L17.8345 17.833L17.8338 17.8337L17.8331 17.8344L17.2446 18.4228C16.9517 18.7157 16.4768 18.7157 16.1839 18.4228C15.8911 18.1299 15.8911 17.6551 16.1839 17.3622L16.2428 17.3033L14.9058 15.9664C14.2827 16.4237 13.5478 16.7377 12.7498 16.8598V18.75H12.8332C13.2474 18.75 13.5832 19.0858 13.5832 19.5C13.5832 19.9142 13.2474 20.25 12.8332 20.25H11.1665C10.7523 20.25 10.4165 19.9142 10.4165 19.5C10.4165 19.0858 10.7523 18.75 11.1665 18.75H11.2498V16.8598C10.452 16.7377 9.71725 16.4238 9.09422 15.9666L7.75749 17.3033L7.8165 17.3624C8.10929 17.6554 8.10912 18.1302 7.81612 18.423C7.52313 18.7158 7.04825 18.7156 6.75546 18.4227L6.18151 17.8483C6.17645 17.8435 6.17144 17.8386 6.16648 17.8337C6.1614 17.8286 6.1564 17.8234 6.15149 17.8183L5.57796 17.2443C5.28517 16.9513 5.28534 16.4764 5.57834 16.1837C5.87133 15.8909 6.34621 15.891 6.639 16.184L6.69721 16.2423L8.03355 14.9059C7.57628 14.2828 7.2623 13.548 7.14017 12.75H5.25V12.8333C5.25 13.2475 4.91421 13.5833 4.5 13.5833C4.08579 13.5833 3.75 13.2475 3.75 12.8333V11.1667C3.75 10.7525 4.08579 10.4167 4.5 10.4167C4.91421 10.4167 5.25 10.7525 5.25 11.1667V11.25H7.14017C7.26229 10.4521 7.57623 9.71727 8.03344 9.09419L6.69661 7.75735L6.63756 7.81635C6.34457 8.10914 5.86969 8.10898 5.5769 7.81598C5.28411 7.52298 5.28428 7.04811 5.57728 6.75532L6.15165 6.18136C6.15644 6.1763 6.1613 6.17129 6.16626 6.16634C6.17134 6.16126 6.17648 6.15627 6.18167 6.15136L6.75561 5.57782C7.04861 5.28503 7.52348 5.2852 7.81627 5.57819C8.10906 5.87119 8.10889 6.34607 7.8159 6.63885L7.75764 6.69707L9.09408 8.0335C9.71714 7.57626 10.4519 7.26231 11.2498 7.14017V5.25H11.1665C10.7523 5.25 10.4165 4.91421 10.4165 4.5ZM11.9998 8.58333C10.1129 8.58333 8.58333 10.113 8.58333 12C8.58333 13.887 10.1129 15.4167 11.9998 15.4167C13.8868 15.4167 15.4165 13.887 15.4165 12C15.4165 10.113 13.8868 8.58333 11.9998 8.58333Z" fill="#202124"/>
<clipPath id="clip0_91_2267">
<rect width="24" height="24" fill="white"/>
</clipPath>
</svg>
