<svg width="24" height="24" viewBox="0 0 24 24" fill="none" xmlns="http://www.w3.org/2000/svg">
<path fill-rule="evenodd" clip-rule="evenodd" d="M4.53657 13.1965L5.53657 11.4645L8.53657 6.26831C9.64114 4.35514 12.0875 3.69964 14.0007 4.80421C15.7549 5.817 16.4517 7.95789 15.7039 9.78148C18.1324 10.1233 20.0007 12.2097 20.0007 14.7324C20.0007 17.4938 17.7621 19.7324 15.0007 19.7324C13.3916 19.7324 11.9601 18.9723 11.0455 17.7916C9.81858 19.2345 7.69943 19.6414 6.00067 18.6606C4.0875 17.556 3.432 15.1097 4.53657 13.1965ZM14.1657 9.51831C14.8561 8.32258 14.4464 6.7936 13.2507 6.10324C12.0549 5.41289 10.526 5.82258 9.8356 7.01831L7.2106 11.5649L10.2099 13.2966C10.7317 11.553 12.1794 10.2093 13.9822 9.83622L14.1657 9.51831ZM6.75067 17.3616C7.9464 18.0519 9.47538 17.6422 10.1657 16.4465L10.251 16.2989C10.1062 15.8596 10.0206 15.3933 10.0038 14.9096L6.4606 12.864L5.8356 13.9465C5.14525 15.1422 5.55494 16.6712 6.75067 17.3616ZM15.0007 18.2324C16.9337 18.2324 18.5007 16.6654 18.5007 14.7324C18.5007 12.7994 16.9337 11.2324 15.0007 11.2324C14.9695 11.2324 14.9384 11.2328 14.9074 11.2336C13.0175 11.283 11.5007 12.8306 11.5007 14.7324C11.5007 15.3369 11.6539 15.9055 11.9236 16.4017C12.5165 17.4922 13.6721 18.2324 15.0007 18.2324Z" fill="#202124"/>
<path d="M17.2507 14.7324C17.2507 14.3182 16.9149 13.9824 16.5007 13.9824H13.5007C13.4332 13.9824 13.3678 13.9913 13.3056 14.008C12.986 14.0939 12.7507 14.3857 12.7507 14.7324C12.7507 14.7992 12.7594 14.864 12.7758 14.9257C12.8611 15.2462 13.1533 15.4824 13.5007 15.4824H16.5007C16.9149 15.4824 17.2507 15.1466 17.2507 14.7324Z" fill="#202124"/>
</svg>
