<svg width="24" height="24" viewBox="3 2 28 28" fill="none" xmlns="http://www.w3.org/2000/svg">
<path d="M16.6113 4.40832L16.6081 4.39673L16.507 4.43297C14.2519 5.24162 13.036 6.70477 12.4942 8.25463C11.954 9.80015 12.0855 11.4269 12.5135 12.5692L12.5138 12.5699C13.1134 14.1356 13.8638 15.0713 14.4848 15.8148C15.1437 16.6139 15.5613 17.1392 15.551 18.0664C15.4273 18.1666 15.1984 18.217 14.8609 18.1881C14.5029 18.1574 14.049 18.0393 13.5351 17.8333L13.4979 17.9261L13.5351 17.8333C12.9088 17.5822 12.448 17.6137 12.101 17.7618C11.7805 17.8986 11.5687 18.1312 11.4234 18.2908C11.4138 18.3013 11.4045 18.3115 11.3955 18.3214L11.395 18.3209L11.3878 18.3309C11.3663 18.3611 11.326 18.4098 11.2877 18.4511C11.2741 18.4658 11.2617 18.4786 11.2512 18.4887C11.2476 18.4872 11.2436 18.4855 11.2394 18.4835L11.2322 18.4802L11.2247 18.478C10.9062 18.3863 10.6738 18.2964 10.5077 18.201C10.3426 18.1061 10.2488 18.0093 10.1984 17.9056L10.1985 17.9056L10.1967 17.9022C10.1484 17.8118 10.1287 17.6791 10.152 17.4963C10.1751 17.3151 10.2394 17.0937 10.348 16.8337C10.4993 16.5266 10.8253 15.7978 10.9008 14.903L10.9011 14.9031V14.8946C10.9011 14.8905 10.9015 14.8878 10.9077 14.8703L10.9084 14.8683C10.9147 14.8506 10.9259 14.8195 10.9259 14.7789V14.7588C10.9509 14.3311 10.8999 13.8806 10.7484 13.4077C10.4796 12.472 9.86101 11.6513 8.94663 10.9645C10.2354 10.0814 10.8203 8.96449 11.0079 7.90308C11.2004 6.81394 10.974 5.78719 10.6698 5.13433C10.5477 4.85123 10.192 4.71578 9.89657 4.85154C9.60232 4.96399 9.4446 5.30231 9.59976 5.59259C9.61816 5.62702 9.76421 5.93697 9.84326 6.39424H5.64623C5.68286 6.14866 5.73482 5.9397 5.78208 5.7825C5.80922 5.69221 5.83474 5.61924 5.85478 5.56647C5.8648 5.54007 5.87339 5.51891 5.88004 5.5033C5.88337 5.49549 5.88614 5.48925 5.8883 5.48456L5.89093 5.47899L5.89172 5.47741C5.89191 5.47702 5.892 5.47686 5.89199 5.47688L5.89232 5.47706L5.89574 5.46907C6.01605 5.18775 5.89481 4.846 5.56389 4.73341L5.56389 4.73341C5.25522 4.62839 4.92017 4.72923 4.79626 5.04386C4.49265 5.71958 4.26645 6.7868 4.49046 7.90527C4.70871 8.99503 5.35353 10.1281 6.7571 10.9898C5.75056 11.701 5.08508 12.5676 4.79254 13.5705C4.66615 13.9963 4.615 14.4233 4.64005 14.8284V14.8484V14.8715H4.63997L4.64013 14.8755C4.66542 15.5147 4.82978 16.0757 4.99028 16.4819C5.07062 16.6853 5.15022 16.8504 5.21146 16.968C5.24209 17.0267 5.26812 17.0736 5.28733 17.1073C5.29693 17.1242 5.3048 17.1377 5.31059 17.1476L5.31752 17.1595C5.3195 17.1629 5.31995 17.1637 5.31977 17.1634L5.31903 17.1638L5.32655 17.1743C5.44049 17.3342 5.61702 17.4477 5.82851 17.4477C5.91894 17.4477 6.03667 17.4206 6.12881 17.3631C6.38293 17.2047 6.52178 16.8676 6.33258 16.5984L6.33078 16.5954L6.3204 16.5778C6.31124 16.5621 6.2978 16.5383 6.28119 16.5072C6.24794 16.445 6.20204 16.3536 6.15226 16.2379C6.06264 16.0296 5.96096 15.7439 5.89757 15.4098L9.66302 15.3664C9.59555 15.6669 9.51263 15.912 9.43087 16.0876C9.41612 16.105 9.40752 16.1211 9.4025 16.1306L9.40174 16.132C9.39836 16.1383 9.39745 16.1399 9.39671 16.141C9.39669 16.141 9.39667 16.141 9.39665 16.1411L9.37914 16.1575L9.37102 16.1803C9.35983 16.2117 9.34861 16.2381 9.33619 16.2671L9.3357 16.2682C9.32431 16.2949 9.31189 16.3239 9.29937 16.3582L9.26877 16.4155L9.25756 16.4365L9.25609 16.4393C9.22436 16.4857 9.20895 16.531 9.19856 16.5699C9.19378 16.5878 9.1905 16.6018 9.18764 16.6139C9.18319 16.6329 9.17976 16.6475 9.17328 16.6658C8.92006 17.3529 8.91482 17.9134 9.12665 18.384L9.12652 18.384L9.12892 18.3887C9.47102 19.0532 10.2255 19.3633 10.8689 19.5488C11.0089 19.6001 11.1702 19.6 11.2658 19.6H11.2713C11.8412 19.6 12.1648 19.2165 12.3377 19.0085L12.3381 19.0081C12.4013 18.9312 12.448 18.8745 12.4928 18.8319C12.536 18.7909 12.5721 18.7684 12.6108 18.757C12.6922 18.733 12.8168 18.748 13.0901 18.8525C14.3014 19.3429 15.1286 19.3784 15.6917 19.2262C16.2576 19.0732 16.5427 18.7345 16.6763 18.5096L16.6766 18.509C17.2636 17.5043 17.458 16.768 17.4355 16.1465C17.413 15.5267 17.1741 15.0343 16.9276 14.527L16.9204 14.5121C16.6875 14.0307 16.4313 13.5011 16.3023 12.7375C16.1718 11.9655 16.1705 10.9484 16.4656 9.49953L16.4658 9.49864C16.5272 9.18253 16.3093 8.90332 15.9886 8.8487L15.9885 8.84869C15.6682 8.79425 15.3659 8.98538 15.3047 9.29778C14.9811 10.9044 14.9925 12.0742 15.1496 12.9738C15.3068 13.8736 15.609 14.4975 15.857 15.0078L15.8572 15.0081C16.0713 15.4452 16.2307 15.7807 16.2553 16.1802C16.0479 15.8462 15.7991 15.5368 15.5396 15.214C15.5118 15.1795 15.4839 15.1447 15.4559 15.1098L15.4559 15.1098L15.4549 15.1086C14.8634 14.3939 14.2038 13.5709 13.6654 12.1747C13.3265 11.2687 13.2168 9.98463 13.6145 8.7494C14.0051 7.53616 14.8858 6.36718 16.5288 5.64698C19.6826 10.3584 17.9 14.2412 17.8118 14.4334L17.8116 14.4338C17.659 14.7235 17.8167 15.06 18.11 15.1721C18.4087 15.3093 18.7588 15.1687 18.9048 14.8955C19.0137 14.6918 21.1799 10.0657 17.2651 4.60777L17.2552 4.59397L17.2413 4.58422C17.056 4.45409 16.8383 4.37266 16.6113 4.40832ZM9.5927 13.6986C9.65212 13.8839 9.67855 14.0539 9.70011 14.2405L5.80987 14.2843C5.82291 14.1481 5.85961 14.0087 5.89944 13.8595C5.91546 13.8143 5.92837 13.7739 5.9405 13.736C5.96293 13.6658 5.98267 13.604 6.01438 13.5359L9.5164 13.4914C9.52567 13.5168 9.53549 13.5413 9.54464 13.5641L9.54561 13.5665C9.56463 13.6139 9.58077 13.6545 9.59131 13.6939L9.59119 13.6939L9.5927 13.6986ZM5.59297 7.51977H9.85036C9.82545 7.7578 9.78109 7.99514 9.6924 8.24544H5.79276C5.68479 8.00953 5.62221 7.75973 5.59297 7.51977ZM7.77599 10.2451L7.77587 10.245C7.2378 9.99339 6.84228 9.69283 6.52764 9.3711H9.03054C8.74082 9.7004 8.36001 10.0027 7.85642 10.2906C7.85379 10.2889 7.85108 10.2873 7.84826 10.2855L7.84716 10.2848C7.82881 10.2734 7.80606 10.2592 7.77599 10.2451ZM7.85632 11.6112C8.22777 11.8533 8.54729 12.1089 8.80418 12.3898L6.80364 12.4087C7.0857 12.129 7.44374 11.8712 7.85632 11.6112Z" fill="#202124" stroke="#202124" stroke-width="0.2" style="transform: scale(1.5);"/>
</svg>
