<svg width="24" height="24" viewBox="0 0 24 24" fill="none" xmlns="http://www.w3.org/2000/svg">
<path fill-rule="evenodd" clip-rule="evenodd" d="M17.2986 4.5025C17.0715 4.34301 16.7841 4.24186 16.4811 4.33628L16.4731 4.33896C14.1894 5.15786 12.9513 6.6436 12.3997 8.22175C11.851 9.79123 11.9842 11.4421 12.4197 12.6044L12.4202 12.6058C13.0256 14.1865 13.7841 15.1322 14.4075 15.8786C15.0547 16.6634 15.4454 17.1592 15.4509 18.0142C15.3481 18.0748 15.1625 18.1137 14.8693 18.0886C14.5243 18.059 14.0804 17.9444 13.5721 17.7406C12.9257 17.4815 12.437 17.5097 12.0616 17.67C11.7202 17.8156 11.4952 18.0631 11.3504 18.2223L11.3216 18.2539L11.3133 18.263L11.3061 18.2731C11.2894 18.2966 11.2565 18.3367 11.2231 18.3736C10.9229 18.2858 10.7084 18.2011 10.5574 18.1144C10.4033 18.0259 10.3272 17.942 10.2883 17.8619L10.2847 17.8551C10.2499 17.7901 10.2291 17.6809 10.251 17.509C10.2725 17.3404 10.3331 17.129 10.4389 16.8751C10.593 16.5618 10.9235 15.8217 11.0002 14.9116L11.0006 14.9072L10.999 14.9115C10.9996 14.9088 11.001 14.9022 11.001 14.8948V14.9032L11.0006 14.9072L11.0017 14.904L11.0027 14.9013C11.0095 14.8823 11.0257 14.8373 11.0257 14.7791V14.7618C11.051 14.3231 10.9984 13.8618 10.8439 13.3788C10.5786 12.4563 9.9834 11.6477 9.11546 10.9682C10.3491 10.0821 10.9197 8.97599 11.1062 7.92061C11.3025 6.80966 11.0724 5.76277 10.7609 5.09346C10.6155 4.75885 10.2012 4.60358 9.85762 4.75943C9.51639 4.89182 9.32481 5.2908 9.51139 5.63987L9.51227 5.64156L9.51458 5.6462L9.52215 5.6621C9.52833 5.67539 9.53644 5.69351 9.54598 5.71616C9.56507 5.76145 9.5896 5.82414 9.61579 5.90171C9.65157 6.00769 9.69017 6.14067 9.72222 6.29436H5.76362C5.79724 6.10358 5.83911 5.93966 5.87766 5.81141C5.90412 5.72341 5.92888 5.65267 5.94808 5.60209C5.96682 5.55274 5.97838 5.52765 5.98 5.52415L5.98409 5.51649L5.9875 5.50851C6.12916 5.17731 5.98564 4.77146 5.59592 4.63886C5.25064 4.52139 4.85279 4.63057 4.70392 5.00509C4.39357 5.69699 4.16377 6.78435 4.39222 7.92504C4.60915 9.00819 5.23774 10.1294 6.57832 10.9956C5.62426 11.7006 4.98455 12.5548 4.69642 13.5424C4.56734 13.9773 4.5145 14.4149 4.53987 14.8316L4.53971 14.8717L4.54003 14.8796C4.56589 15.5332 4.7338 16.1055 4.8971 16.5188C4.97891 16.7259 5.06003 16.8942 5.12259 17.0143C5.15389 17.0744 5.18054 17.1223 5.20026 17.1569C5.21011 17.1742 5.21818 17.1881 5.22404 17.1981L5.23003 17.2084C5.23182 17.2115 5.23138 17.2106 5.23138 17.2106L5.23746 17.222L5.24494 17.2325C5.37385 17.4133 5.57847 17.5478 5.82833 17.5478C5.93494 17.5478 6.07151 17.5167 6.18154 17.4481C6.46713 17.27 6.64557 16.8737 6.4162 16.5439L6.40669 16.5277C6.39809 16.5129 6.38523 16.4902 6.3692 16.4602C6.33711 16.4002 6.29247 16.3113 6.24394 16.1985C6.16716 16.02 6.08143 15.7836 6.01988 15.5086L9.53592 15.468C9.47735 15.7007 9.41034 15.8921 9.34501 16.0347C9.33092 16.0531 9.32176 16.0693 9.31649 16.0791L9.32818 16.0681C9.31769 16.078 9.31122 16.0889 9.31122 16.0889L9.31335 16.085L9.31435 16.0831L9.31649 16.0791L9.29287 16.1013L9.27663 16.1469C9.2666 16.1751 9.25653 16.1987 9.24406 16.2279L9.24332 16.2296C9.23271 16.2544 9.22034 16.2833 9.20772 16.3174L9.17012 16.3878C9.13169 16.4455 9.11333 16.501 9.10177 16.5442C9.09486 16.57 9.09138 16.5853 9.08878 16.5967C9.08569 16.6103 9.08386 16.6183 9.07904 16.6319C8.82005 17.3351 8.80935 17.9239 9.03503 18.4252L9.03983 18.4346C9.40234 19.1387 10.194 19.4581 10.8378 19.6441C10.9939 19.7003 11.1685 19.7002 11.2621 19.7001L11.2711 19.7001C11.8914 19.7001 12.2418 19.2803 12.4145 19.0726L12.4151 19.0717C12.4797 18.9932 12.5222 18.942 12.5615 18.9046C12.5976 18.8703 12.6203 18.8585 12.6389 18.853C12.6842 18.8396 12.7789 18.8408 13.0533 18.9457C14.2761 19.4406 15.1263 19.4827 15.7176 19.3229C16.3144 19.1615 16.6186 18.8024 16.7621 18.5608L16.7628 18.5596C17.3553 17.5454 17.5587 16.79 17.5352 16.143C17.5119 15.5012 17.2645 14.992 17.0196 14.4881L17.0174 14.4834L17.0112 14.4706C16.9587 14.3622 16.9053 14.2518 16.8526 14.1373C16.6716 13.7438 16.4988 13.3015 16.4007 12.7209C16.2727 11.9638 16.2702 10.9594 16.5634 9.51961L16.5637 9.51784C16.6371 9.14014 16.3745 8.81313 16.0051 8.75023C15.6366 8.68759 15.2793 8.90791 15.2065 9.27816C14.8809 10.8946 14.8913 12.0772 15.0509 12.9911C15.2106 13.9056 15.5186 14.5407 15.7672 15.0522C15.8891 15.301 15.9904 15.5119 16.0593 15.7167C15.9192 15.5268 15.7699 15.3412 15.6186 15.153L15.5338 15.0474L15.5318 15.045C14.9425 14.333 14.2912 13.52 13.7587 12.1393C13.4273 11.253 13.3192 9.99231 13.7095 8.78017C14.0855 7.61207 14.9256 6.48349 16.4921 5.77286C16.7244 6.12472 16.929 6.47178 17.1086 6.81282C19.2875 10.9481 17.8095 14.1985 17.7217 14.3898C17.5403 14.7375 17.7316 15.1327 18.071 15.2644C18.421 15.4233 18.8244 15.2579 18.9928 14.9428C19.1116 14.7206 21.2916 10.0503 17.3462 4.54961L17.3264 4.52202L17.2986 4.5025ZM9.58681 14.1419C9.56762 14.0011 9.54233 13.8697 9.49729 13.7293L9.49428 13.7199C9.48558 13.6874 9.47208 13.6524 9.45262 13.6039L9.45094 13.5997L9.448 13.5924L6.08041 13.6352C6.06502 13.6746 6.05258 13.7136 6.03827 13.7585C6.0261 13.7967 6.01259 13.8391 5.99478 13.8895C5.96651 13.9954 5.94133 14.0918 5.92482 14.1831L9.58681 14.1419ZM7.81829 10.1547C7.83267 10.1614 7.84566 10.1682 7.85725 10.1746C8.24257 9.94984 8.55079 9.71728 8.79875 9.47123H6.77561C7.05164 9.72078 7.38815 9.95352 7.81829 10.1547ZM7.06163 12.3064L8.56869 12.2922C8.36366 12.0953 8.12466 11.9095 7.85511 11.7304C7.5552 11.9215 7.28841 12.1103 7.06163 12.3064ZM9.73764 7.61989H5.70813C5.73734 7.79576 5.78572 7.97421 5.85787 8.14556H9.62059C9.67883 7.9666 9.71453 7.79347 9.73764 7.61989Z" fill="#202124"/>
</svg>
