<svg width="24" height="24" viewBox="0 0 24 24" fill="none" xmlns="http://www.w3.org/2000/svg">
<path fill-rule="evenodd" clip-rule="evenodd" d="M11.3462 3.5H12.6538V4.15385H13.3077V5.46154H12.6538V6.76923H14.6154V6.11538H15.2692V5.46154H15.9231V6.11538H16.5769V6.76923H17.8846V7.42308H18.5385V8.07692H19.1923V11.3462H20.5V16.5769H19.8462V17.2308H19.1923V19.1923H18.5385V19.8462H17.8846V20.5H6.11538V19.8462H5.46154V19.1923H4.80769V17.2308H4.15385V16.5769H3.5V11.3462H4.80769V8.07692H5.46154V7.42308H6.11538V6.76923H7.42308V6.11538H8.07692V5.46154H8.73077V6.11538H9.38462V6.76923H11.3462V5.46154H10.6923V4.15385H11.3462V3.5ZM8.07692 12V13.3077H8.73077V13.9615H9.38462V13.3077H10.0385V12H9.38462V11.3462H8.73077V12H8.07692ZM13.9615 12V13.3077H14.6154V13.9615H15.2692V13.3077H15.9231V12H15.2692V11.3462H14.6154V12H13.9615ZM10.0385 17.8846H13.9615V17.2308H14.6154V16.5769H13.9615V15.9231H10.0385V16.5769H9.38462V17.2308H10.0385V17.8846Z" fill="#202124"/>
</svg>
