<svg width="24" height="24" viewBox="0 0 24 24" fill="none" xmlns="http://www.w3.org/2000/svg">
<path fill-rule="evenodd" clip-rule="evenodd" d="M19.5 16.5C19.5 17.325 18.825 18 18 18H6C5.175 18 4.5 17.325 4.5 16.5V7.5C4.5 6.675 5.175 6 6 6H9.87891C10.2764 6 10.6582 6.15823 10.9395 6.43945L12 7.5H18C18.825 7.5 19.5 8.175 19.5 9V16.5ZM11.375 13.5742V15C11.375 15.3452 11.6548 15.625 12 15.625C12.3452 15.625 12.625 15.3452 12.625 15V13.5742H14C14.3452 13.5742 14.625 13.2944 14.625 12.9492C14.6249 12.6041 14.3451 12.3242 14 12.3242H12.625V11C12.625 10.6548 12.3452 10.375 12 10.375C11.6548 10.375 11.375 10.6548 11.375 11V12.3242H10C9.65487 12.3242 9.37508 12.6041 9.375 12.9492C9.375 13.2944 9.65482 13.5742 10 13.5742H11.375Z" fill="#202124"/>
</svg>
