<svg width="24" height="24" viewBox="0 0 24 24" fill="none" xmlns="http://www.w3.org/2000/svg">
<path d="M10.9144 17.3287C12.3375 17.3284 13.7197 16.852 14.8408 15.9753L17.7986 18.9331C18.1117 19.2462 18.6193 19.2462 18.9323 18.9331C19.2454 18.6201 19.2454 18.1125 18.9323 17.7994L15.9745 14.8416C16.8517 13.7204 17.3284 12.3379 17.3287 10.9144C17.3287 7.37765 14.4511 4.5 10.9144 4.5C7.37765 4.5 4.5 7.37765 4.5 10.9144C4.5 14.4511 7.37765 17.3287 10.9144 17.3287ZM10.9144 6.10359C13.5675 6.10359 15.7251 8.26123 15.7251 10.9144C15.7251 13.5675 13.5675 15.7251 10.9144 15.7251C8.26123 15.7251 6.10359 13.5675 6.10359 10.9144C6.10359 8.26123 8.26123 6.10359 10.9144 6.10359Z" fill="white"/>
<path d="M10.3496 12.9746V11.5488H8.97461C8.62943 11.5488 8.34961 11.269 8.34961 10.9238C8.34969 10.5787 8.62948 10.2988 8.97461 10.2988H10.3496V8.97461C10.3496 8.62943 10.6294 8.34961 10.9746 8.34961C11.3198 8.34961 11.5996 8.62943 11.5996 8.97461V10.2988H12.9746C13.3197 10.2988 13.5995 10.5787 13.5996 10.9238C13.5996 11.269 13.3198 11.5488 12.9746 11.5488H11.5996V12.9746C11.5996 13.3198 11.3198 13.5996 10.9746 13.5996C10.6294 13.5996 10.3496 13.3198 10.3496 12.9746Z" fill="white"/>
</svg>
