<svg width="32" height="32" viewBox="0 0 32 32" fill="none" xmlns="http://www.w3.org/2000/svg">
<path fill-rule="evenodd" clip-rule="evenodd" d="M18.7153 21.8827C17.3809 22.7738 16.0789 23.0091 14.3669 23.0094C9.60142 23.0094 5.724 19.132 5.724 14.3665C5.724 9.60105 9.60142 5.72363 14.3669 5.72363C19.1324 5.72363 23.0098 9.60105 23.0098 14.3665C23.0094 16.079 22.7743 17.3805 21.8829 18.7149C21.6938 18.998 21.7136 19.3789 21.9543 19.6197L25.3292 22.9945C25.8553 23.5207 25.8554 24.3737 25.3292 24.9L24.9003 25.3289C24.3741 25.8552 23.5209 25.8552 22.9947 25.329L19.6199 21.9542C19.3792 21.7135 18.9984 21.6937 18.7153 21.8827ZM13.3033 15.6096V18.5242C13.3033 19.1753 13.8311 19.7032 14.4823 19.7032C15.1334 19.7032 15.6613 19.1753 15.6613 18.5242V15.6096H18.5246C19.1757 15.6096 19.7036 15.0817 19.7036 14.4306C19.7035 13.7795 19.1757 13.2516 18.5246 13.2516H15.6613V10.4396C15.6613 9.78849 15.1334 9.26063 14.4823 9.26063C13.8311 9.26063 13.3033 9.78849 13.3033 10.4396V13.2516H10.44C9.7889 13.2516 9.26108 13.7795 9.261 14.4306C9.261 15.0817 9.78885 15.6096 10.44 15.6096H13.3033Z" fill="white"/>
</svg>
