<svg width="24" height="24" viewBox="0 0 24 24" fill="none" xmlns="http://www.w3.org/2000/svg">
<path fill-rule="evenodd" clip-rule="evenodd" d="M15.75 7.25C15.75 9.32107 14.0711 11 12 11C9.92893 11 8.25 9.32107 8.25 7.25C8.25 5.17893 9.92893 3.5 12 3.5C14.0711 3.5 15.75 5.17893 15.75 7.25ZM12 5C13.2426 5 14.25 6.00736 14.25 7.25C14.25 8.49264 13.2426 9.5 12 9.5C10.7574 9.5 9.75 8.49264 9.75 7.25C9.75 6.00736 10.7574 5 12 5Z" fill="#606368"/>
<path d="M17.9176 18.417C17.9176 15.1493 15.2683 13.5 12.0006 13.5H11.9994C8.73174 13.5 6.08243 15.1493 6.08243 18.417C6.0826 18.7389 6.34353 18.9998 6.66544 19H17.3346C17.6565 18.9998 17.9174 18.7389 17.9176 18.417ZM19.4176 18.417C19.4174 19.5673 18.4849 20.4998 17.3346 20.5H6.66544C5.5151 20.4998 4.5826 19.5673 4.58243 18.417C4.58243 14.3209 7.90331 12 11.9994 12H12.0006C16.0967 12 19.4176 14.3209 19.4176 18.417Z" fill="#606368"/>
</svg>
