<svg width="24" height="24" viewBox="0 0 24 24" fill="none" xmlns="http://www.w3.org/2000/svg">
<circle cx="12" cy="12" r="8.25" stroke="#202124" stroke-width="1.5"/>
<path d="M12.875 7.6414L12.5442 13.7154C12.53 13.8368 12.473 13.9317 12.3735 14C12.2739 14.0658 12.1494 14.0987 12 14.0987C11.8506 14.0987 11.7261 14.0658 11.6265 14C11.5269 13.9317 11.47 13.8368 11.4557 13.7154L11.125 7.65658C11.125 7.45923 11.2085 7.30109 11.3757 7.18217C11.5429 7.06072 11.751 7 12 7C12.2454 7 12.4517 7.06072 12.6189 7.18217C12.7896 7.30362 12.875 7.4567 12.875 7.6414Z" fill="#202124" stroke="#202124" stroke-width="0.3"/>
<path d="M13 16C13 16.5523 12.5523 17 12 17C11.4477 17 11 16.5523 11 16C11 15.4477 11.4477 15 12 15C12.5523 15 13 15.4477 13 16Z" fill="#202124"/>
</svg>
