<svg width="24" height="24" viewBox="0 0 24 24" fill="none" xmlns="http://www.w3.org/2000/svg">
<path fill-rule="evenodd" clip-rule="evenodd" d="M11.1444 14.3288C11.6589 13.9716 12.3411 13.9716 12.8556 14.3288L16.5 16.8597V6.39421C16.5 6.36386 16.488 6.32591 16.4523 6.29119C16.4151 6.25507 16.356 6.22754 16.2857 6.22754H7.71429C7.64403 6.22754 7.58487 6.25507 7.54772 6.29119C7.51201 6.32591 7.5 6.36386 7.5 6.39421V16.8597L11.1444 14.3288ZM6.7852 19.1823C6.45364 19.4125 6 19.1752 6 18.7716V6.39421C6 5.95218 6.18061 5.52825 6.5021 5.21569C6.82359 4.90313 7.25963 4.72754 7.71429 4.72754H16.2857C16.7404 4.72754 17.1764 4.90313 17.4979 5.21569C17.8194 5.52825 18 5.95218 18 6.39421V18.7716C18 19.1752 17.5464 19.4125 17.2148 19.1823L12 15.5609L6.7852 19.1823Z" fill="#202124"/>
</svg>
