<svg width="33" height="12" viewBox="0 0 33 12" fill="none" xmlns="http://www.w3.org/2000/svg">
<path d="M32.5303 6.53033C32.8232 6.23744 32.8232 5.76256 32.5303 5.46967L27.7574 0.696699C27.4645 0.403806 26.9896 0.403806 26.6967 0.696699C26.4038 0.989593 26.4038 1.46447 26.6967 1.75736L30.9393 6L26.6967 10.2426C26.4038 10.5355 26.4038 11.0104 26.6967 11.3033C26.9896 11.5962 27.4645 11.5962 27.7574 11.3033L32.5303 6.53033ZM1 5.25C0.585786 5.25 0.25 5.58579 0.25 6C0.25 6.41421 0.585786 6.75 1 6.75V5.25ZM16.5 6.75H32V5.25H16.5V6.75ZM16.5 5.25H1V6.75H16.5V5.25Z" fill="#606368"/>
</svg>
