<svg width="33" height="12" viewBox="0 0 33 12" fill="none" xmlns="http://www.w3.org/2000/svg">
<path d="M32.5303 6.53033C32.8232 6.23744 32.8232 5.76256 32.5303 5.46967L27.7574 0.696699C27.4645 0.403806 26.9896 0.403806 26.6967 0.696699C26.4038 0.989593 26.4038 1.46447 26.6967 1.75736L30.9393 6L26.6967 10.2426C26.4038 10.5355 26.4038 11.0104 26.6967 11.3033C26.9896 11.5962 27.4645 11.5962 27.7574 11.3033L32.5303 6.53033ZM1 5.25C0.585786 5.25 0.25 5.58579 0.25 6C0.25 6.41421 0.585786 6.75 1 6.75V5.25ZM2.9375 6.75C3.35171 6.75 3.6875 6.41421 3.6875 6C3.6875 5.58579 3.35171 5.25 2.9375 5.25V6.75ZM6.8125 5.25C6.39829 5.25 6.0625 5.58579 6.0625 6C6.0625 6.41421 6.39829 6.75 6.8125 6.75V5.25ZM10.6875 6.75C11.1017 6.75 11.4375 6.41421 11.4375 6C11.4375 5.58579 11.1017 5.25 10.6875 5.25V6.75ZM14.5625 5.25C14.1483 5.25 13.8125 5.58579 13.8125 6C13.8125 6.41421 14.1483 6.75 14.5625 6.75V5.25ZM18.4375 6.75C18.8517 6.75 19.1875 6.41421 19.1875 6C19.1875 5.58579 18.8517 5.25 18.4375 5.25V6.75ZM22.3125 5.25C21.8983 5.25 21.5625 5.58579 21.5625 6C21.5625 6.41421 21.8983 6.75 22.3125 6.75V5.25ZM26.1875 6.75C26.6017 6.75 26.9375 6.41421 26.9375 6C26.9375 5.58579 26.6017 5.25 26.1875 5.25V6.75ZM30.0625 5.25C29.6483 5.25 29.3125 5.58579 29.3125 6C29.3125 6.41421 29.6483 6.75 30.0625 6.75V5.25ZM1 6.75H2.9375V5.25H1V6.75ZM6.8125 6.75H10.6875V5.25H6.8125V6.75ZM14.5625 6.75H16.5V5.25H14.5625V6.75ZM16.5 6.75H18.4375V5.25H16.5V6.75ZM22.3125 6.75H26.1875V5.25H22.3125V6.75ZM30.0625 6.75H32V5.25H30.0625V6.75Z" fill="#606368"/>
</svg>
