<svg width="24" height="24" viewBox="0 0 24 24" fill="none" xmlns="http://www.w3.org/2000/svg">
<mask id="mask0_219_87" style="mask-type:alpha" maskUnits="userSpaceOnUse" x="0" y="0" width="24" height="24">
<rect width="24" height="24" fill="#D9D9D9"/>
</mask>
<g mask="url(#mask0_219_87)">
<path d="M4 13.25H15.5714L10.3982 18.4232C10.3511 18.4704 10.3247 18.5344 10.325 18.6011C10.3253 18.6678 10.3522 18.7316 10.3998 18.7783L11.8248 20.1783C11.9227 20.2745 12.0798 20.2738 12.1768 20.1768L20.1768 12.1768C20.2744 12.0791 20.2744 11.9209 20.1768 11.8232L12.1768 3.82322C12.0798 3.7262 11.9227 3.72551 11.8248 3.82167L10.3998 5.22167C10.3522 5.2684 10.3253 5.33221 10.325 5.39889C10.3247 5.46558 10.3511 5.52962 10.3982 5.57678L15.5714 10.75H4C3.86193 10.75 3.75 10.8619 3.75 11V13C3.75 13.1381 3.86193 13.25 4 13.25Z" fill="white" stroke="white" stroke-width="0.5" stroke-linejoin="round"/>
</g>
</svg>
