<svg width="14" height="16" viewBox="0 0 14 16" fill="none" xmlns="http://www.w3.org/2000/svg">
<path d="M1.16973 7.9022C-0.210981 5.51074 0.608395 2.45279 2.99986 1.07208C5.39132 -0.308637 8.44927 0.510739 9.82998 2.9022L12.33 7.23233L12.83 8.09835C14.2107 10.4898 13.3913 13.5478 10.9999 14.9285C8.60839 16.3092 5.55044 15.4898 4.16973 13.0984L3.66973 12.2323L1.16973 7.9022Z" fill="#EBA400"/>
<path fill-rule="evenodd" clip-rule="evenodd" d="M4.16973 13.0984C5.55044 15.4898 8.60839 16.3092 10.9999 14.9285C13.3913 13.5478 14.2107 10.4898 12.83 8.09835L9.82998 2.9022C8.44927 0.510739 5.39132 -0.308637 2.99986 1.07208C0.608395 2.45279 -0.210981 5.51074 1.16973 7.9022L4.16973 13.0984ZM11.4059 8.63185L11.5309 8.84835C12.4974 10.5224 11.9239 12.6629 10.2499 13.6294C8.57583 14.5959 6.43527 14.0224 5.46877 12.3484L5.34377 12.1318L11.4059 8.63185ZM10.6559 7.33281L4.59377 10.8328L2.46877 7.1522C1.50227 5.47818 2.07583 3.33761 3.74986 2.37111C5.42388 1.40461 7.56445 1.97818 8.53095 3.6522L10.6559 7.33281Z" fill="#524F81"/>
<path fill-rule="evenodd" clip-rule="evenodd" d="M4.06681 3.92019C3.92874 3.68105 4.01068 3.37525 4.24983 3.23718C5.44556 2.54682 6.97453 2.95651 7.66489 4.15224C7.80296 4.39139 7.72102 4.69719 7.48188 4.83526C7.24273 4.97333 6.93693 4.89139 6.79886 4.65224C6.38465 3.9348 5.46726 3.68899 4.74983 4.10321C4.51068 4.24128 4.20488 4.15934 4.06681 3.92019Z" fill="#524F81"/>
</svg>
