<svg width="16" height="18" viewBox="0 0 16 18" fill="none" xmlns="http://www.w3.org/2000/svg">
<path d="M6.13333 10.5C6.13333 10.2239 6.34227 10 6.6 10H11.2667C11.5244 10 11.7333 10.2239 11.7333 10.5C11.7333 10.7761 11.5244 11 11.2667 11H6.6C6.34227 11 6.13333 10.7761 6.13333 10.5Z" fill="#524F81"/>
<path d="M6.13333 8.5C6.13333 8.22386 6.34227 8 6.6 8H11.2667C11.5244 8 11.7333 8.22386 11.7333 8.5C11.7333 8.77614 11.5244 9 11.2667 9H6.6C6.34227 9 6.13333 8.77614 6.13333 8.5Z" fill="#524F81"/>
<path d="M6.13333 12.5C6.13333 12.2239 6.34227 12 6.6 12H11.2667C11.5244 12 11.7333 12.2239 11.7333 12.5C11.7333 12.7761 11.5244 13 11.2667 13H6.6C6.34227 13 6.13333 12.7761 6.13333 12.5Z" fill="#524F81"/>
<path fill-rule="evenodd" clip-rule="evenodd" d="M2.86667 3C2.86667 1.89543 3.7024 1 4.73333 1H13.1333C14.1643 1 15 1.89543 15 3V15C15 16.1046 14.1643 17 13.1333 17H4.73333C3.7024 17 2.86667 16.1046 2.86667 15V14.5H2.4C1.6268 14.5 1 13.8284 1 13C1 12.1716 1.6268 11.5 2.4 11.5H2.86667V10.5H2.4C1.6268 10.5 1 9.82843 1 9C1 8.17157 1.6268 7.5 2.4 7.5H2.86667V6.5H2.4C1.6268 6.5 1 5.82843 1 5C1 4.17157 1.6268 3.5 2.4 3.5H2.86667V3ZM13.1333 2.15H4.73333C4.29519 2.15 3.94 2.53056 3.94 3V3.5H4.26667C4.5244 3.5 4.73333 3.72386 4.73333 4C4.73333 4.27614 4.5244 4.5 4.26667 4.5H3.94V7.5H4.26667C4.5244 7.5 4.73333 7.72386 4.73333 8C4.73333 8.27614 4.5244 8.5 4.26667 8.5H3.94V11.5H4.26667C4.5244 11.5 4.73333 11.7239 4.73333 12C4.73333 12.2761 4.5244 12.5 4.26667 12.5H3.94V15C3.94 15.4694 4.29519 15.85 4.73333 15.85H13.1333C13.5715 15.85 13.9267 15.4694 13.9267 15V3C13.9267 2.53056 13.5715 2.15 13.1333 2.15ZM2.4 4.5C2.14227 4.5 1.93333 4.72386 1.93333 5C1.93333 5.27614 2.14227 5.5 2.4 5.5H2.86667V4.5H2.4ZM2.4 8.5C2.14227 8.5 1.93333 8.72386 1.93333 9C1.93333 9.27614 2.14227 9.5 2.4 9.5H2.86667V8.5H2.4ZM2.4 12.5C2.14227 12.5 1.93333 12.7239 1.93333 13C1.93333 13.2761 2.14227 13.5 2.4 13.5H2.86667V12.5H2.4Z" fill="#524F81"/>
<path fill-rule="evenodd" clip-rule="evenodd" d="M4.73333 2.15H13.1333C13.5715 2.15 13.9267 2.53056 13.9267 3V15C13.9267 15.4694 13.5715 15.85 13.1333 15.85H4.73333C4.29519 15.85 3.94 15.4694 3.94 15V12.5H4.26667C4.5244 12.5 4.73333 12.2761 4.73333 12C4.73333 11.7239 4.5244 11.5 4.26667 11.5H3.94V8.5H4.26667C4.5244 8.5 4.73333 8.27614 4.73333 8C4.73333 7.72386 4.5244 7.5 4.26667 7.5H3.94V4.5H4.26667C4.5244 4.5 4.73333 4.27614 4.73333 4C4.73333 3.72386 4.5244 3.5 4.26667 3.5H3.94V3C3.94 2.53056 4.29519 2.15 4.73333 2.15ZM11.2667 10H6.6C6.34227 10 6.13333 10.2239 6.13333 10.5C6.13333 10.7761 6.34227 11 6.6 11H11.2667C11.5244 11 11.7333 10.7761 11.7333 10.5C11.7333 10.2239 11.5244 10 11.2667 10ZM11.2667 8H6.6C6.34227 8 6.13333 8.22386 6.13333 8.5C6.13333 8.77614 6.34227 9 6.6 9H11.2667C11.5244 9 11.7333 8.77614 11.7333 8.5C11.7333 8.22386 11.5244 8 11.2667 8ZM11.2667 12H6.6C6.34227 12 6.13333 12.2239 6.13333 12.5C6.13333 12.7761 6.34227 13 6.6 13H11.2667C11.5244 13 11.7333 12.7761 11.7333 12.5C11.7333 12.2239 11.5244 12 11.2667 12Z" fill="#8BABE6"/>
<path d="M6.13333 10.5C6.13333 10.2239 6.34227 10 6.6 10H11.2667C11.5244 10 11.7333 10.2239 11.7333 10.5C11.7333 10.7761 11.5244 11 11.2667 11H6.6C6.34227 11 6.13333 10.7761 6.13333 10.5Z" stroke="#524F81" stroke-width="0.3"/>
<path d="M6.13333 8.5C6.13333 8.22386 6.34227 8 6.6 8H11.2667C11.5244 8 11.7333 8.22386 11.7333 8.5C11.7333 8.77614 11.5244 9 11.2667 9H6.6C6.34227 9 6.13333 8.77614 6.13333 8.5Z" stroke="#524F81" stroke-width="0.3"/>
<path d="M6.13333 12.5C6.13333 12.2239 6.34227 12 6.6 12H11.2667C11.5244 12 11.7333 12.2239 11.7333 12.5C11.7333 12.7761 11.5244 13 11.2667 13H6.6C6.34227 13 6.13333 12.7761 6.13333 12.5Z" stroke="#524F81" stroke-width="0.3"/>
<path fill-rule="evenodd" clip-rule="evenodd" d="M2.86667 3C2.86667 1.89543 3.7024 1 4.73333 1H13.1333C14.1643 1 15 1.89543 15 3V15C15 16.1046 14.1643 17 13.1333 17H4.73333C3.7024 17 2.86667 16.1046 2.86667 15V14.5H2.4C1.6268 14.5 1 13.8284 1 13C1 12.1716 1.6268 11.5 2.4 11.5H2.86667V10.5H2.4C1.6268 10.5 1 9.82843 1 9C1 8.17157 1.6268 7.5 2.4 7.5H2.86667V6.5H2.4C1.6268 6.5 1 5.82843 1 5C1 4.17157 1.6268 3.5 2.4 3.5H2.86667V3ZM13.1333 2.15H4.73333C4.29519 2.15 3.94 2.53056 3.94 3V3.5H4.26667C4.5244 3.5 4.73333 3.72386 4.73333 4C4.73333 4.27614 4.5244 4.5 4.26667 4.5H3.94V7.5H4.26667C4.5244 7.5 4.73333 7.72386 4.73333 8C4.73333 8.27614 4.5244 8.5 4.26667 8.5H3.94V11.5H4.26667C4.5244 11.5 4.73333 11.7239 4.73333 12C4.73333 12.2761 4.5244 12.5 4.26667 12.5H3.94V15C3.94 15.4694 4.29519 15.85 4.73333 15.85H13.1333C13.5715 15.85 13.9267 15.4694 13.9267 15V3C13.9267 2.53056 13.5715 2.15 13.1333 2.15ZM2.4 4.5C2.14227 4.5 1.93333 4.72386 1.93333 5C1.93333 5.27614 2.14227 5.5 2.4 5.5H2.86667V4.5H2.4ZM2.4 8.5C2.14227 8.5 1.93333 8.72386 1.93333 9C1.93333 9.27614 2.14227 9.5 2.4 9.5H2.86667V8.5H2.4ZM2.4 12.5C2.14227 12.5 1.93333 12.7239 1.93333 13C1.93333 13.2761 2.14227 13.5 2.4 13.5H2.86667V12.5H2.4Z" stroke="#524F81" stroke-width="0.3"/>
<path fill-rule="evenodd" clip-rule="evenodd" d="M4.73333 2.15H13.1333C13.5715 2.15 13.9267 2.53056 13.9267 3V15C13.9267 15.4694 13.5715 15.85 13.1333 15.85H4.73333C4.29519 15.85 3.94 15.4694 3.94 15V12.5H4.26667C4.5244 12.5 4.73333 12.2761 4.73333 12C4.73333 11.7239 4.5244 11.5 4.26667 11.5H3.94V8.5H4.26667C4.5244 8.5 4.73333 8.27614 4.73333 8C4.73333 7.72386 4.5244 7.5 4.26667 7.5H3.94V4.5H4.26667C4.5244 4.5 4.73333 4.27614 4.73333 4C4.73333 3.72386 4.5244 3.5 4.26667 3.5H3.94V3C3.94 2.53056 4.29519 2.15 4.73333 2.15ZM11.2667 10H6.6C6.34227 10 6.13333 10.2239 6.13333 10.5C6.13333 10.7761 6.34227 11 6.6 11H11.2667C11.5244 11 11.7333 10.7761 11.7333 10.5C11.7333 10.2239 11.5244 10 11.2667 10ZM11.2667 8H6.6C6.34227 8 6.13333 8.22386 6.13333 8.5C6.13333 8.77614 6.34227 9 6.6 9H11.2667C11.5244 9 11.7333 8.77614 11.7333 8.5C11.7333 8.22386 11.5244 8 11.2667 8ZM11.2667 12H6.6C6.34227 12 6.13333 12.2239 6.13333 12.5C6.13333 12.7761 6.34227 13 6.6 13H11.2667C11.5244 13 11.7333 12.7761 11.7333 12.5C11.7333 12.2239 11.5244 12 11.2667 12Z" stroke="#524F81" stroke-width="0.3"/>
</svg>
