<svg width="24" height="24" viewBox="0 0 24 24" fill="none" xmlns="http://www.w3.org/2000/svg">
<path fill-rule="evenodd" clip-rule="evenodd" d="M5.70794 3.5C4.48853 3.5 3.5 4.48007 3.5 5.68904C3.5 6.89802 4.48853 7.87809 5.70794 7.87809C6.68197 7.87809 7.50819 7.25299 7.80168 6.38556H13.5117H15.307C16.3337 6.38556 17.166 7.21784 17.166 8.24452C17.166 9.27119 16.3337 10.1035 15.307 10.1035H13.5171H10.8074H9.7158C7.67887 10.1035 6.02761 11.7547 6.02761 13.7917C6.02761 15.8286 7.67887 17.4799 9.7158 17.4799H17.9806L16.2462 19.2219C15.9551 19.5143 15.9551 19.9883 16.2462 20.2807C16.5372 20.5731 17.0092 20.5731 17.3003 20.2807L20.0888 17.4799L20.2817 17.2861C20.5728 16.9937 20.5728 16.5197 20.2817 16.2273L20.1419 16.0868L17.3003 13.2326C17.0092 12.9403 16.5372 12.9403 16.2462 13.2326C15.9551 13.525 15.9551 13.999 16.2462 14.2914L18.0337 16.0868H9.84623C8.57865 16.0868 7.55107 15.0593 7.55107 13.7917C7.55107 12.5241 8.57865 11.4965 9.84623 11.4965H10.8074H13.5171H15.2545C17.0505 11.4965 18.5065 10.0405 18.5065 8.24452C18.5065 6.4485 17.0505 4.99253 15.2545 4.99253H13.5117H7.80168C7.50819 4.1251 6.68197 3.5 5.70794 3.5ZM5.70794 4.89303C5.26452 4.89303 4.90505 5.24942 4.90505 5.68904C4.90505 6.12867 5.26452 6.48506 5.70794 6.48506C6.15136 6.48506 6.51083 6.12867 6.51083 5.68904C6.51083 5.24942 6.15136 4.89303 5.70794 4.89303Z" fill="#9795B3"/>
</svg>
