<svg width="24" height="24" viewBox="0 0 24 24" fill="none" xmlns="http://www.w3.org/2000/svg">
<path d="M12 20.25C16.5563 20.25 20.25 16.5563 20.25 12C20.25 7.44365 16.5563 3.75 12 3.75C7.44365 3.75 3.75 7.44365 3.75 12C3.75 16.5563 7.44365 20.25 12 20.25Z" stroke="#202124" stroke-width="1.5" stroke-linecap="round" stroke-linejoin="round"/>
<path d="M10.916 8.37596C10.6859 8.22253 10.39 8.20823 10.1461 8.33874C9.90224 8.46926 9.75 8.7234 9.75 9V15C9.75 15.2766 9.90224 15.5307 10.1461 15.6613C10.39 15.7918 10.6859 15.7775 10.916 15.624L15.416 12.624C15.6247 12.4849 15.75 12.2508 15.75 12C15.75 11.7492 15.6247 11.5151 15.416 11.376L10.916 8.37596Z" stroke="#202124" stroke-width="1.5" stroke-linecap="round" stroke-linejoin="round"/>
</svg>
