<svg width="24" height="24" viewBox="0 0 24 24" fill="none" xmlns="http://www.w3.org/2000/svg">
<path fill-rule="evenodd" clip-rule="evenodd" d="M10.1846 10.3772H5.79097L8.95087 13.5488L8.01525 18.2443L12 16.0907L15.9848 18.2443L15.0491 13.5488L18.209 10.3772H13.8154L12 6.12543L10.1846 10.3772ZM14.806 8.87717L12.8597 4.31899C12.5358 3.56034 11.4642 3.56034 11.1403 4.31899L9.19404 8.87717H4.43719C3.60391 8.87717 3.18661 9.88839 3.77582 10.4798L7.3234 14.0406L6.31032 19.1248C6.15509 19.9038 6.97401 20.5121 7.67091 20.1355L12 17.7958L16.3291 20.1355C17.026 20.5121 17.8449 19.9038 17.6897 19.1248L16.6766 14.0406L20.2242 10.4798C20.8134 9.88839 20.3961 8.87717 19.5628 8.87717H14.806Z" fill="#202124"/>
</svg>
