<svg width="24" height="24" viewBox="0 0 24 24" fill="none" xmlns="http://www.w3.org/2000/svg">
<path fill-rule="evenodd" clip-rule="evenodd" d="M19.1889 11.8796L12.7959 5.11406L12.3673 4.66034C12.2697 4.55764 12.1377 4.5 12 4.5C11.8624 4.5 11.7304 4.55764 11.6327 4.66034L4.81112 11.8796C4.71107 11.9851 4.632 12.1108 4.57858 12.2492C4.52516 12.3876 4.49846 12.5359 4.50007 12.6854C4.50669 13.3021 4.99146 13.7943 5.57386 13.7943H6.27703V18.5C6.27703 19.0523 6.72474 19.5 7.27703 19.5H10.0735C10.6258 19.5 11.0735 19.0523 11.0735 18.5V14.865C11.0735 14.7545 11.163 14.665 11.2735 14.665H12.7266C12.837 14.665 12.9266 14.7545 12.9266 14.865V18.5C12.9266 19.0523 13.3743 19.5 13.9266 19.5H16.723C17.2753 19.5 17.723 19.0523 17.723 18.5V13.7943H18.4411C18.724 13.7943 18.9904 13.677 19.1906 13.465C19.2892 13.3609 19.3673 13.2372 19.4204 13.101C19.4735 12.9648 19.5006 12.8188 19.5 12.6714C19.5 12.3736 19.3891 12.0916 19.1889 11.8796ZM16.0318 18.2387C16.3079 18.2387 16.5318 18.0148 16.5318 17.7387V12.733C16.5318 12.6226 16.6213 12.533 16.7318 12.533H17.6576C17.8331 12.533 17.9235 12.3232 17.803 12.1956L12.3839 6.46121L12.147 6.21043C12.0681 6.12688 11.9352 6.12686 11.8563 6.21037L6.19885 12.1956C6.07831 12.3232 6.16871 12.533 6.34419 12.533H7.26829C7.37874 12.533 7.46829 12.6226 7.46829 12.733V17.7387C7.46829 18.0148 7.69214 18.2387 7.96829 18.2387H9.8146C9.92506 18.2387 10.0146 18.1491 10.0146 18.0387V14.2445C10.0146 13.8574 10.3108 13.5438 10.6764 13.5438H13.3236C13.6893 13.5438 13.9855 13.8574 13.9855 14.2445V18.0387C13.9855 18.1491 14.075 18.2387 14.1855 18.2387H16.0318Z" fill="#202124" stroke="#202124" stroke-width="0.1"/>
</svg>
