<svg width="24" height="24" viewBox="0 0 24 24" fill="none" xmlns="http://www.w3.org/2000/svg">
<path d="M8.25 10.5C8.25 10.8978 8.09196 11.2794 7.81066 11.5607C7.52936 11.842 7.14782 12 6.75 12C6.35218 12 5.97064 11.842 5.68934 11.5607C5.40804 11.2794 5.25 10.8978 5.25 10.5C5.25 10.1022 5.40804 9.72064 5.68934 9.43934C5.97064 9.15804 6.35218 9 6.75 9C7.14782 9 7.52936 9.15804 7.81066 9.43934C8.09196 9.72064 8.25 10.1022 8.25 10.5Z" fill="#CED0D0"/>
<path d="M4.5 18H8.25V16.5C8.25 16.008 8.3445 15.5378 8.517 15.1073C8.22752 14.74 7.83082 14.4721 7.38205 14.3408C6.93328 14.2094 6.45474 14.2211 6.01294 14.3743C5.57114 14.5275 5.18804 14.8145 4.9169 15.1955C4.64575 15.5764 4.50003 16.0324 4.5 16.5V18Z" fill="#CED0D0"/>
<path d="M8.25 18H15.75V16.5C15.75 16.008 15.6555 15.5378 15.483 15.1073C15.2045 14.4112 14.7238 13.8146 14.103 13.3943C13.4822 12.9741 12.7497 12.7495 12 12.7495C11.2503 12.7495 10.5178 12.9741 9.897 13.3943C9.27618 13.8146 8.79552 14.4112 8.517 15.1073C8.3445 15.5378 8.25 16.008 8.25 16.5V18Z" fill="#CED0D0"/>
<path d="M14.25 8.25C14.25 8.84674 14.0129 9.41903 13.591 9.84099C13.169 10.2629 12.5967 10.5 12 10.5C11.4033 10.5 10.831 10.2629 10.409 9.84099C9.98705 9.41903 9.75 8.84674 9.75 8.25C9.75 7.65326 9.98705 7.08097 10.409 6.65901C10.831 6.23705 11.4033 6 12 6C12.5967 6 13.169 6.23705 13.591 6.65901C14.0129 7.08097 14.25 7.65326 14.25 8.25Z" fill="#CED0D0"/>
<path d="M18.75 10.5C18.75 10.8978 18.592 11.2794 18.3107 11.5607C18.0294 11.842 17.6478 12 17.25 12C16.8522 12 16.4706 11.842 16.1893 11.5607C15.908 11.2794 15.75 10.8978 15.75 10.5C15.75 10.1022 15.908 9.72064 16.1893 9.43934C16.4706 9.15804 16.8522 9 17.25 9C17.6478 9 18.0294 9.15804 18.3107 9.43934C18.592 9.72064 18.75 10.1022 18.75 10.5Z" fill="#CED0D0"/>
<path d="M15.75 18H19.5V16.5C19.5 16.0324 19.3542 15.5764 19.0831 15.1955C18.812 14.8145 18.4289 14.5275 17.9871 14.3743C17.5453 14.2211 17.0667 14.2094 16.6179 14.3408C16.1692 14.4721 15.7725 14.74 15.483 15.1073C15.6555 15.5378 15.75 16.008 15.75 16.5V18Z" fill="#CED0D0"/>
<path d="M15.75 18H19.5V16.5C19.5 16.0324 19.3542 15.5764 19.0831 15.1955C18.812 14.8145 18.4289 14.5275 17.9871 14.3743C17.5453 14.2211 17.0667 14.2094 16.6179 14.3408C16.1692 14.4721 15.7725 14.74 15.483 15.1073M15.75 18H8.25M15.75 18V16.5C15.75 16.008 15.6555 15.5378 15.483 15.1073M15.483 15.1073C15.2045 14.4112 14.7238 13.8146 14.103 13.3943C13.4822 12.9741 12.7497 12.7495 12 12.7495C11.2503 12.7495 10.5178 12.9741 9.897 13.3943C9.27618 13.8146 8.79552 14.4112 8.517 15.1073M8.25 18H4.5V16.5C4.50003 16.0324 4.64575 15.5764 4.9169 15.1955C5.18804 14.8145 5.57114 14.5275 6.01294 14.3743C6.45474 14.2211 6.93328 14.2094 7.38205 14.3408C7.83082 14.4721 8.22752 14.74 8.517 15.1073M8.25 18V16.5C8.25 16.008 8.3445 15.5378 8.517 15.1073M14.25 8.25C14.25 8.84674 14.0129 9.41903 13.591 9.84099C13.169 10.2629 12.5967 10.5 12 10.5C11.4033 10.5 10.831 10.2629 10.409 9.84099C9.98705 9.41903 9.75 8.84674 9.75 8.25C9.75 7.65326 9.98705 7.08097 10.409 6.65901C10.831 6.23705 11.4033 6 12 6C12.5967 6 13.169 6.23705 13.591 6.65901C14.0129 7.08097 14.25 7.65326 14.25 8.25ZM18.75 10.5C18.75 10.8978 18.592 11.2794 18.3107 11.5607C18.0294 11.842 17.6478 12 17.25 12C16.8522 12 16.4706 11.842 16.1893 11.5607C15.908 11.2794 15.75 10.8978 15.75 10.5C15.75 10.1022 15.908 9.72064 16.1893 9.43934C16.4706 9.15804 16.8522 9 17.25 9C17.6478 9 18.0294 9.15804 18.3107 9.43934C18.592 9.72064 18.75 10.1022 18.75 10.5ZM8.25 10.5C8.25 10.8978 8.09196 11.2794 7.81066 11.5607C7.52936 11.842 7.14782 12 6.75 12C6.35218 12 5.97064 11.842 5.68934 11.5607C5.40804 11.2794 5.25 10.8978 5.25 10.5C5.25 10.1022 5.40804 9.72064 5.68934 9.43934C5.97064 9.15804 6.35218 9 6.75 9C7.14782 9 7.52936 9.15804 7.81066 9.43934C8.09196 9.72064 8.25 10.1022 8.25 10.5Z" stroke="#202124" stroke-width="1.5" stroke-linecap="round" stroke-linejoin="round"/>
</svg>
