<svg width="24" height="24" viewBox="0 0 24 24" fill="none" xmlns="http://www.w3.org/2000/svg">
<circle cx="12" cy="12" r="8.25" fill="#CED0D0" stroke="#202124" stroke-width="1.5"/>
<path d="M11.9083 14.974C11.6201 14.974 11.3843 15.0724 11.2009 15.2597C10.9913 15.4471 10.8996 15.6927 10.8996 15.987C10.8996 16.2814 10.9913 16.514 11.2009 16.7013C11.3843 16.8886 11.6201 17 11.9083 17C12.1965 17 12.4323 16.9016 12.6419 16.7143C12.8253 16.527 12.9301 16.2814 12.9301 15.987C12.9301 15.6927 12.8253 15.4471 12.6419 15.2597C12.4454 15.0724 12.1965 14.974 11.9083 14.974Z" fill="#202124"/>
<path d="M12.1441 7C11.1747 7 10.4148 7.28097 9.85153 7.84291C9.41814 8.26541 9.15508 8.80894 9.05121 9.47347C8.99152 9.85544 9.3134 10.1709 9.7 10.1709H9.79345C10.18 10.1709 10.4777 9.85324 10.5584 9.47515C10.6117 9.22513 10.6985 9.01553 10.821 8.84637C11.083 8.48512 11.4891 8.31119 12.0524 8.31119C12.4978 8.31119 12.8515 8.4316 13.1004 8.68581C13.3362 8.94002 13.4672 9.28789 13.4672 9.72941C13.4672 10.0639 13.3493 10.385 13.1135 10.6794L12.9563 10.8667C12.1048 11.6427 11.5939 12.2046 11.4236 12.5659C11.3092 12.7773 11.1958 13.0733 11.1509 13.5362C11.1146 13.9104 11.4326 14.209 11.8087 14.209H11.9148C12.3118 14.209 12.602 13.8733 12.6856 13.4852C12.7197 13.3273 12.7756 13.1655 12.8646 12.994C12.9825 12.7532 13.1528 12.5257 13.3886 12.3384C14.0175 11.7765 14.3974 11.4152 14.5153 11.2814C14.8297 10.8533 15 10.3047 15 9.63576C15 8.81961 14.738 8.17739 14.214 7.70911C13.69 7.22745 12.9956 7 12.1441 7Z" fill="#202124"/>
</svg>
