<svg width="24" height="24" viewBox="0 0 24 24" fill="none" xmlns="http://www.w3.org/2000/svg">
<path d="M12 4.5C8.40875 4.5 5.5 5.99167 5.5 7.83333V16.1667C5.5 18.0083 8.41688 19.5 12 19.5C15.5831 19.5 18.5 18.0083 18.5 16.1667V7.83333C18.5 5.99167 15.5912 4.5 12 4.5ZM16.875 16.1667C16.875 16.5833 15.1444 17.8333 12 17.8333C8.85563 17.8333 7.125 16.5833 7.125 16.1667V14.3083C8.43313 14.9583 10.1475 15.3333 12 15.3333C13.8525 15.3333 15.5669 14.9583 16.875 14.3083V16.1667ZM16.875 12.375C15.8188 13.1667 13.9663 13.6667 12 13.6667C10.0338 13.6667 8.18125 13.1667 7.125 12.375V10.0333C8.31938 10.725 10.0581 11.1667 12 11.1667C13.9419 11.1667 15.6806 10.725 16.875 10.0333V12.375ZM12 9.5C8.85563 9.5 7.125 8.25 7.125 7.83333C7.125 7.41667 8.85563 6.16667 12 6.16667C15.1444 6.16667 16.875 7.41667 16.875 7.83333C16.875 8.25 15.1444 9.5 12 9.5Z" fill="#202124"/>
</svg>
