<svg width="28" height="28" viewBox="0 0 28 28" fill="none" xmlns="http://www.w3.org/2000/svg">
<path d="M13.4532 13.5516C13.4851 13.6084 13.5138 13.6662 13.5392 13.7247C13.6662 14.0172 13.7127 14.3294 13.6863 14.6324C13.6361 15.2082 13.3226 15.7507 12.7976 16.0617C11.941 16.5691 10.8457 16.268 10.3511 15.3891C9.85657 14.5102 10.1501 13.3864 11.0067 12.879C11.8633 12.3716 12.9586 12.6727 13.4532 13.5516Z" fill="#606368"/>
<path d="M17.4722 18.2434C17.75 18.737 17.7792 19.3078 17.5997 19.8033C17.4595 20.1901 17.1922 20.5311 16.8167 20.7535C15.9601 21.2609 14.8647 20.9598 14.3702 20.0809C14.3194 19.9907 14.2769 19.8978 14.2425 19.8033C14.0125 19.1716 14.143 18.4662 14.5612 17.9658C14.6896 17.8121 14.8452 17.6778 15.0257 17.5708C15.2706 17.4257 15.5351 17.3467 15.7994 17.3285C16.1032 17.3075 16.4068 17.3666 16.6805 17.4978C16.9067 17.6061 17.1124 17.7637 17.281 17.9658C17.3517 18.0506 17.4158 18.1432 17.4722 18.2434Z" fill="#606368"/>
<path d="M18.4846 12.6932C18.6752 13.032 18.7487 13.4071 18.7181 13.7694C18.6919 14.0779 18.5902 14.3771 18.4208 14.6364C18.2732 14.8624 18.0742 15.0581 17.829 15.2033C17.5839 15.3485 17.3192 15.4275 17.0546 15.4457C16.7509 15.4666 16.4473 15.4073 16.1736 15.276C15.8527 15.1221 15.5731 14.8693 15.3825 14.5307C15.3506 14.474 15.322 14.4162 15.2965 14.3577C15.1695 14.0651 15.123 13.7528 15.1494 13.4498C15.1868 13.0209 15.3703 12.6104 15.6785 12.3004C15.7841 12.1942 15.9042 12.0999 16.0381 12.0206C16.172 11.9413 16.3117 11.8817 16.4541 11.841C16.8698 11.7222 17.308 11.7644 17.6888 11.9456C17.9577 12.0736 18.1979 12.271 18.3813 12.53C18.4181 12.5819 18.4526 12.6363 18.4846 12.6932Z" fill="#606368"/>
<path d="M19.8279 9.27827C19.985 9.08235 20.268 9.05411 20.4589 9.21529C20.6499 9.37648 20.6774 9.66679 20.5203 9.86272L20.2019 10.2598V11.4084C20.4971 11.404 20.7955 11.3244 21.0694 11.1621C21.6274 10.8316 21.9464 10.2395 21.9644 9.62393C21.8425 8.81895 21.3386 8.14359 20.6489 7.79902C20.2032 7.67324 19.7104 7.7235 19.2785 7.9794C18.759 8.28713 18.4466 8.82157 18.3915 9.39059H19.6049C19.6469 9.39059 19.6879 9.39505 19.7275 9.40352L19.8279 9.27827Z" fill="#606368"/>
<path d="M21.9928 13.654C21.7321 13.6737 21.4715 13.7525 21.2299 13.8956C20.9846 14.0409 20.7855 14.2367 20.6378 14.4628L21.9928 14.9522V13.654Z" fill="#606368"/>
<path d="M21.9928 14.9522L20.6378 14.4628C20.4684 14.7222 20.3668 15.0215 20.3407 15.3302L21.9759 15.9212L21.9928 15.9269V14.9522Z" fill="#606368"/>
<path d="M6.47119 17.9658L6.47119 19.8033H13.1955C13.03 19.1784 13.1163 18.5177 13.4166 17.9658H6.47119Z" fill="#606368"/>
<path d="M4.08325 10.0031V17.3533L4.09608 17.6033C4.21005 18.7567 5.10332 19.6732 6.2275 19.7901L6.47119 19.8033L6.47119 17.9658C6.14149 17.9658 5.87421 17.6915 5.87421 17.3533V10.0031C5.87421 9.66483 6.14149 9.39059 6.47119 9.39059H11.502C11.3591 8.7583 11.4696 8.09661 11.7952 7.55306H6.47119C5.15237 7.55306 4.08325 8.64998 4.08325 10.0031Z" fill="#606368"/>
<path d="M13.8594 9.06753C13.7357 8.84781 13.8091 8.56686 14.0233 8.44C14.2374 8.31314 14.5112 8.38843 14.6349 8.60815L15.0752 9.39059H15.9551C16.1007 8.91644 16.0595 8.38355 15.7981 7.91907C15.7215 7.78292 15.6304 7.66063 15.5281 7.55306H12.966C12.5069 8.0344 12.3392 8.74376 12.5387 9.39059H14.0412L13.8594 9.06753Z" fill="#606368"/>
<path fill-rule="evenodd" clip-rule="evenodd" d="M15.5021 10.1493L15.8079 10.6927L16.4541 11.841C16.8698 11.7222 17.308 11.7644 17.6888 11.9456L18.3372 11.1371L18.7259 10.6524C18.6892 10.6005 18.6548 10.5462 18.6229 10.4895C18.4283 10.1436 18.3557 9.75984 18.3915 9.39059H19.6049C19.6469 9.39059 19.6879 9.39505 19.7275 9.40352L19.8279 9.27827C19.985 9.08235 20.268 9.05411 20.4589 9.21529C20.6499 9.37648 20.6774 9.66679 20.5203 9.86272L20.2019 10.2598V11.4084C19.9311 11.4125 19.6628 11.3534 19.4183 11.2369L19.0296 11.7216L18.3813 12.53C18.4181 12.5819 18.4526 12.6363 18.4846 12.6932C18.6752 13.032 18.7487 13.4071 18.7181 13.7694L20.061 14.2545L20.2019 14.3053L20.6378 14.4628C20.4684 14.7222 20.3668 15.0215 20.3407 15.3302L20.2019 15.28L19.764 15.1218L18.4208 14.6364C18.2732 14.8624 18.0742 15.0581 17.829 15.2033C17.5839 15.3485 17.3192 15.4275 17.0546 15.4457L16.7929 16.8811L16.6805 17.4978C16.9067 17.6061 17.1124 17.7637 17.281 17.9658C17.3517 18.0506 17.4158 18.1432 17.4722 18.2434C17.75 18.737 17.7792 19.3078 17.5997 19.8033H14.2425C14.0125 19.1716 14.143 18.4662 14.5612 17.9658C14.6896 17.8121 14.8452 17.6778 15.0257 17.5708C15.2706 17.4257 15.5351 17.3467 15.7994 17.3285L15.9118 16.7117L16.1736 15.276C15.8527 15.1221 15.5731 14.8693 15.3825 14.5307C15.3506 14.474 15.322 14.4162 15.2965 14.3577L14.2897 14.5295L13.6863 14.6324C13.6361 15.2082 13.3226 15.7507 12.7976 16.0617C11.941 16.5691 10.8457 16.268 10.3511 15.3891C9.85657 14.5102 10.1501 13.3864 11.0067 12.879C11.8633 12.3716 12.9586 12.6727 13.4532 13.5516C13.4851 13.6084 13.5138 13.6662 13.5392 13.7247L14.1427 13.6217L15.1494 13.4498C15.1868 13.0209 15.3703 12.6104 15.6785 12.3004L15.0324 11.1521L14.7266 10.6087C13.9582 10.8284 13.1133 10.4981 12.6961 9.75661C12.6295 9.63834 12.5772 9.51564 12.5387 9.39059H14.0412L13.8594 9.06753C13.7357 8.84781 13.8091 8.56686 14.0233 8.44C14.2374 8.31314 14.5112 8.38843 14.6349 8.60815L15.0752 9.39059H15.9551C15.8682 9.67339 15.7149 9.93529 15.5021 10.1493ZM20.3407 15.3302L21.9759 15.9212L21.9928 15.9269V14.9522V13.654C22.6565 13.604 23.3213 13.9372 23.6763 14.5682C24.1709 15.4471 23.8774 16.5709 23.0208 17.0783C22.6971 17.27 22.3394 17.3463 21.9928 17.3196C21.4222 17.2757 20.882 16.9525 20.5743 16.4057C20.3838 16.0671 20.3102 15.6922 20.3407 15.3302ZM21.9266 18.3428C21.2566 18.2847 20.6202 17.938 20.2019 17.3533C20.2019 17.6915 19.9346 17.9658 19.6049 17.9658H18.3423C18.6595 18.547 18.7211 19.2056 18.5632 19.8033H19.6049C20.7305 19.8033 21.6743 19.4182 21.9266 18.3428ZM21.9644 9.62393C21.8425 8.81895 21.3386 8.14359 20.6489 7.79902C21.087 7.92265 21.4798 8.21634 21.7249 8.65199C21.8973 8.95837 21.974 9.29451 21.9644 9.62393ZM12.966 7.55306H15.5281C14.9699 6.9663 14.0755 6.81768 13.3516 7.24649C13.2066 7.3324 13.0777 7.43599 12.966 7.55306ZM4.08325 17.3533C4.08325 18.7064 5.15237 19.8033 6.47119 19.8033L6.2275 19.7901C5.10332 19.6732 4.21005 18.7567 4.09608 17.6033L4.08325 17.3533Z" fill="#606368"/>
</svg>
