<svg width="24" height="24" viewBox="0 0 24 24" fill="none" xmlns="http://www.w3.org/2000/svg">
<path fill-rule="evenodd" clip-rule="evenodd" d="M11.9998 6.69999C11.5887 6.69999 11.1945 6.86329 10.9038 7.15397C10.6131 7.44465 10.4498 7.8389 10.4498 8.24999C10.4498 8.66107 10.6131 9.05532 10.9038 9.346C11.1945 9.63668 11.5887 9.79999 11.9998 9.79999C12.4109 9.79999 12.8051 9.63668 13.0958 9.346C13.3865 9.05532 13.5498 8.66107 13.5498 8.24999C13.5498 7.8389 13.3865 7.44465 13.0958 7.15397C12.8051 6.86329 12.4109 6.69999 11.9998 6.69999ZM9.91384 6.16402C10.4671 5.61079 11.2174 5.29999 11.9998 5.29999C12.7822 5.29999 13.5325 5.61079 14.0858 6.16402C14.639 6.71726 14.9498 7.4676 14.9498 8.24999C14.9498 9.03238 14.639 9.78272 14.0858 10.336C13.5325 10.8892 12.7822 11.2 11.9998 11.2C11.2174 11.2 10.4671 10.8892 9.91384 10.336C9.36061 9.78272 9.0498 9.03238 9.0498 8.24999C9.0498 7.4676 9.36061 6.71726 9.91384 6.16402ZM6.7498 9.69999C6.53763 9.69999 6.33415 9.78427 6.18412 9.9343C6.03409 10.0843 5.9498 10.2878 5.9498 10.5C5.9498 10.7122 6.03409 10.9156 6.18412 11.0657C6.33415 11.2157 6.53763 11.3 6.7498 11.3C6.96198 11.3 7.16546 11.2157 7.31549 11.0657C7.46552 10.9156 7.5498 10.7122 7.5498 10.5C7.5498 10.2878 7.46552 10.0843 7.31549 9.9343C7.16546 9.78427 6.96198 9.69999 6.7498 9.69999ZM5.19417 8.94435C5.60675 8.53177 6.16633 8.29999 6.7498 8.29999C7.33328 8.29999 7.89286 8.53177 8.30544 8.94435C8.71802 9.35693 8.9498 9.91651 8.9498 10.5C8.9498 11.0835 8.71802 11.643 8.30544 12.0556C7.89286 12.4682 7.33328 12.7 6.7498 12.7C6.16633 12.7 5.60675 12.4682 5.19417 12.0556C4.78159 11.643 4.5498 11.0835 4.5498 10.5C4.5498 9.91651 4.78159 9.35693 5.19417 8.94435ZM17.2498 9.69999C17.0376 9.69999 16.8341 9.78427 16.6841 9.9343C16.5341 10.0843 16.4498 10.2878 16.4498 10.5C16.4498 10.7122 16.5341 10.9156 16.6841 11.0657C16.8341 11.2157 17.0376 11.3 17.2498 11.3C17.462 11.3 17.6655 11.2157 17.8155 11.0657C17.9655 10.9156 18.0498 10.7122 18.0498 10.5C18.0498 10.2878 17.9655 10.0843 17.8155 9.9343C17.6655 9.78427 17.462 9.69999 17.2498 9.69999ZM15.6942 8.94435C16.1067 8.53177 16.6663 8.29999 17.2498 8.29999C17.8333 8.29999 18.3929 8.53177 18.8054 8.94435C19.218 9.35693 19.4498 9.91651 19.4498 10.5C19.4498 11.0835 19.218 11.643 18.8054 12.0556C18.3929 12.4682 17.8333 12.7 17.2498 12.7C16.6663 12.7 16.1067 12.4682 15.6942 12.0556C15.2816 11.643 15.0498 11.0835 15.0498 10.5C15.0498 9.91651 15.2816 9.35693 15.6942 8.94435ZM11.9998 13.4495C11.39 13.4495 10.7942 13.6322 10.2892 13.974C9.78423 14.3158 9.39325 14.8011 9.1667 15.3673C9.02699 15.716 8.9498 16.0982 8.9498 16.5V17.3H15.0498V16.5C15.0498 16.0982 14.9727 15.7163 14.833 15.3676C14.6065 14.8014 14.2154 14.3158 13.7104 13.974C13.2054 13.6322 12.6096 13.4495 11.9998 13.4495ZM16.4498 17.3H18.7998V16.5C18.7998 16.5 18.7998 16.5001 18.7998 16.5C18.7998 16.1779 18.6994 15.8638 18.5126 15.6014C18.3258 15.3389 18.0619 15.1412 17.7576 15.0357C17.4532 14.9302 17.1235 14.9221 16.8144 15.0126C16.6199 15.0695 16.4396 15.1637 16.283 15.2887C16.3919 15.6746 16.4498 16.0812 16.4498 16.5V17.3ZM15.6828 14.0007C15.3674 13.536 14.9651 13.1328 14.4952 12.8147C13.7585 12.316 12.8894 12.0495 11.9998 12.0495C11.1102 12.0495 10.2411 12.316 9.5044 12.8147C9.03449 13.1328 8.63225 13.536 8.31677 14.0007C8.08843 13.8576 7.84022 13.7455 7.5785 13.6689C6.99011 13.4967 6.36268 13.5121 5.78343 13.7129C5.20419 13.9138 4.7019 14.2901 4.3464 14.7896C3.9909 15.289 3.79985 15.8869 3.7998 16.4999V18C3.7998 18.3866 4.11321 18.7 4.4998 18.7H19.4998C19.8864 18.7 20.1998 18.3866 20.1998 18V16.5C20.1998 15.8869 20.0087 15.289 19.6532 14.7896C19.2977 14.2901 18.7954 13.9138 18.2162 13.7129C17.6369 13.5121 17.0095 13.4967 16.4211 13.6689C16.1594 13.7455 15.9112 13.8576 15.6828 14.0007ZM7.5498 17.3V16.5C7.5498 16.0812 7.60773 15.6746 7.71665 15.2887C7.56001 15.1637 7.37972 15.0695 7.18522 15.0126C6.87607 14.9221 6.5464 14.9302 6.24205 15.0357C5.9377 15.1412 5.67379 15.3389 5.487 15.6014C5.30022 15.8638 5.19984 16.1779 5.1998 16.5C5.1998 16.5 5.1998 16.5 5.1998 16.5V17.3H7.5498Z" fill="#202124"/>
</svg>
