<svg width="24" height="24" viewBox="0 0 24 24" fill="none" xmlns="http://www.w3.org/2000/svg">
<path d="M15.2497 16.2417C15.802 16.2417 16.2497 16.6894 16.2497 17.2417V17.6584H19.083C19.4742 17.6584 19.7913 17.9755 19.7913 18.3667C19.7913 18.7579 19.4742 19.075 19.083 19.075H16.2497V19.4917C16.2497 20.044 15.802 20.4917 15.2497 20.4917H15.1247C14.5724 20.4917 14.1247 20.044 14.1247 19.4917V17.2417C14.1247 16.6894 14.5724 16.2417 15.1247 16.2417H15.2497ZM4.91634 17.6584C4.52514 17.6584 4.20801 17.9755 4.20801 18.3667C4.20801 18.7579 4.52514 19.075 4.91634 19.075H11.9997C12.3909 19.075 12.708 18.7579 12.708 18.3667C12.708 17.9755 12.3909 17.6584 11.9997 17.6584H4.91634ZM10.1663 9.8667C9.61406 9.8667 9.16634 10.3144 9.16634 10.8667V13.1167C9.16634 13.669 9.61406 14.1167 10.1663 14.1167H10.2913C10.8436 14.1167 11.2913 13.669 11.2913 13.1167V12.7H19.083C19.4742 12.7 19.7913 12.3829 19.7913 11.9917C19.7913 11.6005 19.4742 11.2834 19.083 11.2834L11.2913 11.2834V10.8667C11.2913 10.3144 10.8436 9.8667 10.2913 9.8667H10.1663ZM4.91634 11.2834C4.52514 11.2834 4.20801 11.6005 4.20801 11.9917C4.20801 12.3829 4.52514 12.7 4.91634 12.7H7.04134C7.43254 12.7 7.74967 12.3829 7.74967 11.9917C7.74967 11.6005 7.43254 11.2834 7.04134 11.2834H4.91634ZM15.1247 3.4917C14.5724 3.4917 14.1247 3.93941 14.1247 4.4917L14.1247 6.7417C14.1247 7.29398 14.5724 7.7417 15.1247 7.7417H15.2497C15.802 7.7417 16.2497 7.29398 16.2497 6.7417V6.32503L19.083 6.32503C19.4742 6.32503 19.7913 6.0079 19.7913 5.6167C19.7913 5.2255 19.4742 4.90837 19.083 4.90837L16.2497 4.90837V4.4917C16.2497 3.93941 15.802 3.4917 15.2497 3.4917H15.1247ZM4.91634 4.90837C4.52514 4.90837 4.20801 5.2255 4.20801 5.6167C4.20801 6.0079 4.52514 6.32503 4.91634 6.32503H11.9997C12.3909 6.32503 12.708 6.0079 12.708 5.6167C12.708 5.2255 12.3909 4.90837 11.9997 4.90837H4.91634Z" fill="#202124"/>
</svg>
