<svg width="32" height="32" viewBox="0 0 32 32" fill="none" xmlns="http://www.w3.org/2000/svg">
<path fill-rule="evenodd" clip-rule="evenodd" d="M8.3802 10.0037L8.77774 9.55882C9.95643 8.23962 11.5494 7.36238 13.2934 7.07202C15.0374 6.78166 16.8283 7.09555 18.37 7.96183C19.9118 8.82812 21.1122 10.195 21.7731 11.8366C22.3079 13.1653 22.4634 14.6096 22.2324 16.0103C22.1756 16.3546 22.43 16.6842 22.7786 16.6842H23.667C23.9206 16.6842 24.1407 16.5056 24.1801 16.2548C24.4536 14.5105 24.2495 12.7156 23.5775 11.0654C22.7401 9.00914 21.2262 7.30089 19.2866 6.22356C17.3469 5.14623 15.0979 4.76446 12.9119 5.14148C10.7259 5.5185 8.73415 6.63168 7.26645 8.29667L6.79983 8.82601V6.81696C6.79983 6.55588 6.69623 6.30549 6.51182 6.12088C6.32741 5.93627 6.0773 5.83255 5.8165 5.83255C5.55571 5.83255 5.30559 5.93627 5.12118 6.12088C4.93677 6.30549 4.83317 6.55588 4.83317 6.81696V10.9881C4.83317 11.2492 4.93677 11.4996 5.12118 11.6842C5.30559 11.8688 5.55571 11.9726 5.8165 11.9726H9.98316C10.244 11.9726 10.4941 11.8688 10.6785 11.6842C10.8629 11.4996 10.9665 11.2492 10.9665 10.9881C10.9665 10.7271 10.8629 10.4767 10.6785 10.2921C10.4941 10.1075 10.244 10.0037 9.98316 10.0037H8.3802ZM13.8495 24.4615C14.3012 24.4948 14.6665 24.1222 14.6665 23.6687V23.2007C14.6665 22.8259 14.36 22.5265 13.9867 22.4984C12.2236 22.366 10.5584 21.6355 9.26619 20.4276C7.97393 19.2197 7.13192 17.6066 6.87924 15.8549C6.84237 15.5962 6.7043 15.3623 6.49551 15.2055C6.28671 15.0486 6.02424 14.9813 5.76583 15.0182C5.50742 15.0551 5.27424 15.1932 5.11758 15.4023C4.96093 15.6113 4.89363 15.874 4.9305 16.1327C5.24658 18.3307 6.30307 20.3543 7.92508 21.869C9.54709 23.3837 11.6373 24.2984 13.8495 24.4615Z" fill="#606368"/>
<path d="M14.8451 10.2921C15.0296 10.4767 15.1332 10.7271 15.1332 10.9881V14.1749H16.6498C16.9106 14.1749 17.1607 14.2787 17.3451 14.4633C17.5296 14.6479 17.6332 14.8983 17.6332 15.1593C17.6332 15.4204 17.5296 15.6708 17.3451 15.8554C17.1607 16.04 16.9106 16.1437 16.6498 16.1437H14.1498C13.889 16.1437 13.6389 16.04 13.4545 15.8554C13.2701 15.6708 13.1665 15.4204 13.1665 15.1593V10.9881C13.1665 10.7271 13.2701 10.4767 13.4545 10.2921C13.6389 10.1075 13.889 10.0037 14.1498 10.0037C14.4106 10.0037 14.6607 10.1075 14.8451 10.2921Z" fill="#606368"/>
<path fill-rule="evenodd" clip-rule="evenodd" d="M26.6366 26.044C27.0185 26.044 27.3332 25.7368 27.3332 25.3531C27.333 24.9696 27.0184 24.6622 26.6366 24.6622H16.9891C16.6075 24.6626 16.294 24.9698 16.2938 25.3531C16.2938 25.7366 16.6074 26.0436 16.9891 26.044H26.6366ZM26.6366 22.7302C27.0185 22.7302 27.3331 22.423 27.3332 22.0393C27.3332 21.6557 27.0185 21.3485 26.6366 21.3485H16.9891C16.6074 21.3488 16.2938 21.6559 16.2938 22.0393C16.2939 22.4228 16.6074 22.7299 16.9891 22.7302H26.6366ZM26.6366 19.5966C27.0185 19.5966 27.3332 19.2894 27.3332 18.9057C27.333 18.5222 27.0184 18.2149 26.6366 18.2149H16.9891C16.6075 18.2152 16.294 18.5224 16.2938 18.9057C16.2938 19.2892 16.6074 19.5963 16.9891 19.5966H26.6366Z" fill="#606368"/>
</svg>
