<svg width="13" height="12" viewBox="0 0 13 12" fill="none" xmlns="http://www.w3.org/2000/svg">
<g clip-path="url(#clip0_7810_159220)">
<path d="M2.97943 3.26841L3.20878 3.01199C3.88879 2.25174 4.80779 1.7462 5.81397 1.57886C6.82015 1.41153 7.85331 1.59242 8.74278 2.09166C9.63225 2.59089 10.3248 3.37861 10.7061 4.32467C11.0873 5.27073 11.1345 6.31855 10.8397 7.29503C10.5449 8.2715 9.92591 9.11823 9.08486 9.69532C8.24382 10.2724 7.23107 10.5453 6.21393 10.469C5.19679 10.3927 4.23611 9.97175 3.49058 9.27563C2.74505 8.57952 2.25927 7.64992 2.11349 6.64039C2.09222 6.49131 2.01256 6.35652 1.89211 6.26614C1.77165 6.17576 1.62022 6.13694 1.47114 6.15821C1.32206 6.17948 1.18753 6.2591 1.09715 6.37955C1.00677 6.50001 0.967949 6.65144 0.989218 6.80052C1.17157 8.06718 1.78109 9.23337 2.71686 10.1063C3.65264 10.9792 4.85851 11.5064 6.13478 11.6004C7.41104 11.6944 8.68113 11.3496 9.73471 10.6232C10.7883 9.89681 11.5621 8.83232 11.9281 7.60604C12.2941 6.37977 12.2302 5.06527 11.7471 3.88025C11.264 2.69522 10.3906 1.71076 9.27157 1.0899C8.15255 0.469039 6.85502 0.249027 5.59388 0.4663C4.33273 0.683573 3.18363 1.3251 2.33688 2.28463L2.06768 2.58968V1.43187C2.06768 1.28141 2.00791 1.13711 1.90152 1.03072C1.79513 0.924333 1.65083 0.864563 1.50037 0.864563C1.34992 0.864563 1.20562 0.924333 1.09923 1.03072C0.992838 1.13711 0.933068 1.28141 0.933068 1.43187V3.83571C0.933068 3.98617 0.992838 4.13047 1.09923 4.23686C1.20562 4.34325 1.34992 4.40302 1.50037 4.40302H3.90422C4.05468 4.40302 4.19897 4.34325 4.30536 4.23686C4.41176 4.13047 4.47152 3.98617 4.47152 3.83571C4.47152 3.68525 4.41176 3.54096 4.30536 3.43457C4.19897 3.32818 4.05468 3.26841 3.90422 3.26841H2.97943Z" fill="white"/>
<path d="M6.87537 3.83571C6.87537 3.68525 6.8156 3.54096 6.70921 3.43457C6.60282 3.32818 6.45852 3.26841 6.30806 3.26841C6.1576 3.26841 6.01331 3.32818 5.90691 3.43457C5.80052 3.54096 5.74075 3.68525 5.74075 3.83571V6.23956C5.74075 6.39002 5.80052 6.53431 5.90691 6.6407C6.01331 6.74709 6.1576 6.80686 6.30806 6.80686H7.75037C7.90083 6.80686 8.04512 6.74709 8.15151 6.6407C8.2579 6.53431 8.31767 6.39002 8.31767 6.23956C8.31767 6.0891 8.2579 5.9448 8.15151 5.83841C8.04512 5.73202 7.90083 5.67225 7.75037 5.67225H6.87537V3.83571Z" fill="white"/>
</g>
<defs>
<clipPath id="clip0_7810_159220">
<rect width="12" height="12" fill="white" transform="translate(0.5)"/>
</clipPath>
</defs>
</svg>
