<svg width="24" height="24" viewBox="0 0 24 24" fill="none" xmlns="http://www.w3.org/2000/svg">
<path fill-rule="evenodd" clip-rule="evenodd" d="M12 10.7045C11.2845 10.7045 10.7045 11.2845 10.7045 12C10.7045 12.7155 11.2845 13.2955 12 13.2955C12.7155 13.2955 13.2955 12.7155 13.2955 12C13.2955 11.2845 12.7155 10.7045 12 10.7045ZM9.20455 12C9.20455 10.4561 10.4561 9.20455 12 9.20455C13.5439 9.20455 14.7955 10.4561 14.7955 12C14.7955 13.5439 13.5439 14.7955 12 14.7955C10.4561 14.7955 9.20455 13.5439 9.20455 12Z" fill="#202124"/>
<path fill-rule="evenodd" clip-rule="evenodd" d="M12 3.75C11.4394 3.75 10.9018 3.97269 10.5054 4.36907C10.1091 4.76545 9.88636 5.30306 9.88636 5.86364V5.97768C9.88585 6.05042 9.8642 6.12145 9.82403 6.18211C9.79927 6.2195 9.76814 6.25194 9.73227 6.27809C9.68604 6.2887 9.6408 6.30369 9.59718 6.32294C9.52863 6.3532 9.45259 6.36222 9.37886 6.34885C9.30613 6.33567 9.23894 6.30128 9.18571 6.25005L9.14851 6.21285C8.95227 6.01647 8.71927 5.86068 8.46281 5.75436C8.20621 5.64799 7.93117 5.59325 7.65341 5.59325C7.37564 5.59325 7.1006 5.64799 6.84401 5.75436C6.58755 5.86068 6.35454 6.01647 6.15831 6.21285C5.96193 6.40909 5.80613 6.6421 5.69982 6.89856C5.59345 7.15515 5.5387 7.43019 5.5387 7.70795C5.5387 7.98572 5.59345 8.26076 5.69982 8.51735C5.80613 8.77381 5.96222 9.00711 6.1586 9.20335L6.19551 9.24026C6.24674 9.29348 6.28112 9.36067 6.29431 9.43341C6.30768 9.50713 6.29865 9.58317 6.2684 9.65172C6.26202 9.66618 6.2561 9.68083 6.25064 9.69566C6.22467 9.76628 6.17805 9.82746 6.11685 9.87123C6.05739 9.91376 5.98683 9.93795 5.91388 9.94091H5.86364C5.30306 9.94091 4.76545 10.1636 4.36907 10.56C3.97269 10.9564 3.75 11.494 3.75 12.0545C3.75 12.6151 3.97269 13.1527 4.36907 13.5491C4.76545 13.9455 5.30307 14.1682 5.86364 14.1682H5.97761C6.05038 14.1687 6.12143 14.1903 6.18211 14.2305C6.24309 14.2709 6.29089 14.3282 6.3197 14.3955L6.32294 14.4028C6.3532 14.4714 6.36222 14.5474 6.34885 14.6211C6.33567 14.6939 6.30128 14.7611 6.25006 14.8143L6.21315 14.8512C6.01663 15.0475 5.86073 15.2806 5.75436 15.5372C5.64799 15.7938 5.59325 16.0688 5.59325 16.3466C5.59325 16.6244 5.64799 16.8994 5.75436 17.156C5.86067 17.4124 6.01677 17.6457 6.21315 17.842C6.40932 18.0382 6.64222 18.1939 6.89856 18.3002C7.15515 18.4066 7.43019 18.4613 7.70795 18.4613C7.98572 18.4613 8.26076 18.4066 8.51735 18.3002C8.77394 18.1938 9.00705 18.0379 9.20335 17.8414L9.24024 17.8045C9.29347 17.7533 9.36067 17.7189 9.43341 17.7057C9.50713 17.6923 9.58317 17.7013 9.65172 17.7316C9.66618 17.738 9.68083 17.7439 9.69566 17.7494C9.76628 17.7753 9.82746 17.8219 9.87123 17.8832C9.91376 17.9426 9.93795 18.0132 9.94091 18.0861V18.1364C9.94091 18.6969 10.1636 19.2345 10.56 19.6309C10.9564 20.0273 11.494 20.25 12.0545 20.25C12.6151 20.25 13.1527 20.0273 13.5491 19.6309C13.9455 19.2345 14.1682 18.6969 14.1682 18.1364V18.0224C14.1687 17.9496 14.1903 17.8786 14.2305 17.8179C14.2709 17.7569 14.3282 17.7091 14.3955 17.6803L14.4028 17.6771C14.4714 17.6468 14.5474 17.6378 14.6211 17.6511C14.6939 17.6643 14.7611 17.6987 14.8143 17.75L14.8512 17.7869C15.0475 17.9834 15.2806 18.1393 15.5372 18.2456C15.7938 18.352 16.0688 18.4068 16.3466 18.4068C16.6244 18.4068 16.8994 18.352 17.156 18.2456C17.4125 18.1393 17.6455 17.9835 17.8417 17.7871C18.0381 17.5909 18.1939 17.3579 18.3002 17.1014C18.4066 16.8449 18.4613 16.5698 18.4613 16.292C18.4613 16.0143 18.4066 15.7392 18.3002 15.4826C18.1938 15.2261 18.0379 14.9929 17.8414 14.7966L17.8045 14.7597C17.7533 14.7065 17.7189 14.6393 17.7057 14.5666C17.6923 14.4929 17.7014 14.4168 17.7316 14.3483L17.7348 14.3409C17.7636 14.2737 17.8115 14.2164 17.8724 14.176C17.9331 14.1358 18.0042 14.1141 18.0769 14.1136H18.1364C18.6969 14.1136 19.2345 13.891 19.6309 13.4946C20.0273 13.0982 20.25 12.5606 20.25 12C20.25 11.4394 20.0273 10.9018 19.6309 10.5054C19.2345 10.1091 18.6969 9.88636 18.1364 9.88636H18.0223C17.9496 9.88585 17.8785 9.8642 17.8179 9.82403C17.7805 9.79927 17.7481 9.76814 17.7219 9.73227C17.7113 9.68604 17.6963 9.6408 17.6771 9.59718C17.6468 9.52863 17.6378 9.45259 17.6511 9.37886C17.6643 9.30613 17.6987 9.23893 17.75 9.18571L17.7869 9.14881C17.9832 8.95257 18.1393 8.71927 18.2456 8.46281C18.352 8.20621 18.4068 7.93117 18.4068 7.65341C18.4068 7.37564 18.352 7.1006 18.2456 6.84401C18.1394 6.58768 17.9836 6.35473 17.7874 6.15856C17.5911 5.96206 17.358 5.80617 17.1014 5.69982C16.8449 5.59345 16.5698 5.5387 16.292 5.5387C16.0771 5.5387 15.8638 5.57149 15.6594 5.63561C15.5996 5.65435 15.5407 5.67576 15.4826 5.69982C15.2261 5.80618 14.9929 5.96208 14.7966 6.1586L14.7597 6.19551C14.7065 6.24674 14.6393 6.28112 14.5666 6.29431C14.4929 6.30768 14.4168 6.29861 14.3483 6.26836L14.3409 6.26519C14.2737 6.23638 14.2164 6.18854 14.176 6.12757C14.1358 6.06689 14.1141 5.99583 14.1136 5.92307V5.86364C14.1136 5.64742 14.0805 5.43462 14.0171 5.23202C13.916 4.90936 13.7381 4.61257 13.4946 4.36907C13.0982 3.97269 12.5606 3.75 12 3.75ZM11.3864 5.86364C11.3864 5.70089 11.451 5.54481 11.5661 5.42973C11.6498 5.34605 11.7551 5.28903 11.869 5.26415C11.9117 5.25481 11.9556 5.25 12 5.25C12.1627 5.25 12.3188 5.31465 12.4339 5.42973C12.5207 5.51654 12.5788 5.62668 12.6021 5.74541C12.6097 5.78408 12.6136 5.82366 12.6136 5.86364V5.925L12.6136 5.92799C12.6151 6.29366 12.7235 6.65092 12.9254 6.95579C13.1265 7.25955 13.4118 7.49809 13.7463 7.6423C14.0881 7.79228 14.4669 7.83684 14.8342 7.77024C15.0297 7.7348 15.2171 7.66876 15.39 7.57547C15.5432 7.49282 15.685 7.38879 15.8108 7.26572L15.8579 7.21867C15.9149 7.16162 15.9826 7.11636 16.0571 7.08548C16.1316 7.05459 16.2114 7.0387 16.292 7.0387C16.3727 7.0387 16.4525 7.05459 16.527 7.08548C16.6015 7.11636 16.6698 7.16221 16.7268 7.21926C16.7838 7.27625 16.8291 7.34393 16.86 7.41842C16.8909 7.49292 16.9068 7.57277 16.9068 7.65341C16.9068 7.73405 16.8909 7.8139 16.86 7.8884C16.8291 7.96289 16.7835 8.03086 16.7265 8.08785L16.6855 8.12873L16.6798 8.13464C16.623 8.19266 16.5703 8.25408 16.5219 8.31844C16.3468 8.55118 16.2276 8.82247 16.1752 9.11125C16.1176 9.42899 16.1432 9.75533 16.2482 10.0589C16.2574 10.1245 16.2753 10.1888 16.3016 10.25C16.4456 10.5861 16.6848 10.8727 16.9897 11.0746C17.2945 11.2765 17.6518 11.3849 18.0175 11.3864L18.0205 11.3864H18.1364C18.2991 11.3864 18.4552 11.451 18.5703 11.5661C18.6853 11.6812 18.75 11.8373 18.75 12C18.75 12.1627 18.6853 12.3188 18.5703 12.4339C18.4552 12.549 18.2991 12.6136 18.1364 12.6136L18.075 12.6136L18.072 12.6136C17.7063 12.6151 17.3491 12.7235 17.0442 12.9254C16.7404 13.1265 16.5019 13.4118 16.3577 13.7463C16.2077 14.0881 16.1632 14.4669 16.2298 14.8342C16.2966 15.2028 16.4723 15.543 16.7343 15.8108L16.7813 15.8579C16.8384 15.9149 16.8836 15.9826 16.9145 16.0571C16.9454 16.1316 16.9613 16.2114 16.9613 16.292C16.9613 16.3727 16.9454 16.4525 16.9145 16.527C16.8836 16.6015 16.8378 16.6698 16.7807 16.7268C16.7237 16.7838 16.6561 16.8291 16.5816 16.86C16.5071 16.8909 16.4272 16.9068 16.3466 16.9068C16.2659 16.9068 16.1861 16.8909 16.1116 16.86C16.0371 16.8291 15.9691 16.7835 15.9121 16.7265L15.8713 16.6855L15.8654 16.6798C15.5975 16.4178 15.2574 16.2421 14.8888 16.1752C14.5214 16.1086 14.1427 16.1532 13.8009 16.3031C13.4664 16.4474 13.1811 16.6859 12.9799 16.9897C12.778 17.2945 12.6696 17.6518 12.6682 18.0175L12.6682 18.0205V18.1364C12.6682 18.2991 12.6035 18.4552 12.4885 18.5703C12.3734 18.6853 12.2173 18.75 12.0545 18.75C11.8918 18.75 11.7357 18.6853 11.6206 18.5703C11.5056 18.4552 11.4409 18.2991 11.4409 18.1364V18.075L11.4407 18.0575C11.4319 17.6813 11.3102 17.3165 11.0913 17.0105C10.877 16.7109 10.5793 16.4812 10.2356 16.3499C9.89858 16.2062 9.52664 16.1643 9.16579 16.2298C8.79716 16.2966 8.45697 16.4723 8.18916 16.7343L8.1421 16.7813C8.08511 16.8384 8.01744 16.8836 7.94294 16.9145C7.86845 16.9454 7.7886 16.9613 7.70795 16.9613C7.62731 16.9613 7.54746 16.9454 7.47297 16.9145C7.39847 16.8836 7.33021 16.8378 7.27322 16.7807C7.21616 16.7238 7.1709 16.6561 7.14002 16.5816C7.10914 16.5071 7.09325 16.4272 7.09325 16.3466C7.09325 16.266 7.10914 16.1861 7.14002 16.1116C7.1709 16.0371 7.21646 15.9691 7.27351 15.9121L7.31445 15.8713L7.32024 15.8654C7.58221 15.5975 7.75795 15.2574 7.82479 14.8888C7.89139 14.5214 7.84683 14.1426 7.69685 13.8008C7.55263 13.4663 7.31409 13.1811 7.01034 12.9799C6.70546 12.778 6.3482 12.6696 5.98254 12.6682H5.86364C5.70089 12.6682 5.54481 12.6035 5.42973 12.4885C5.31465 12.3734 5.25 12.2173 5.25 12.0545C5.25 11.8918 5.31465 11.7357 5.42973 11.6206C5.54481 11.5056 5.70089 11.4409 5.86364 11.4409H5.925L5.94254 11.4407C6.31867 11.4319 6.68345 11.3102 6.98947 11.0913C7.28906 10.877 7.51875 10.5794 7.65012 10.2356C7.79381 9.89859 7.83567 9.52665 7.77024 9.16579C7.7034 8.79716 7.5277 8.45697 7.26572 8.18916L7.21867 8.1421C7.16162 8.08511 7.11636 8.01744 7.08548 7.94294C7.05459 7.86845 7.0387 7.7886 7.0387 7.70795C7.0387 7.62731 7.05459 7.54746 7.08548 7.47297C7.11636 7.39847 7.16221 7.33021 7.21926 7.27322C7.27625 7.21616 7.34393 7.1709 7.41842 7.14002C7.49292 7.10914 7.57277 7.09325 7.65341 7.09325C7.73405 7.09325 7.8139 7.10914 7.8884 7.14002C7.96289 7.1709 8.03086 7.21646 8.08785 7.27351L8.12873 7.31445L8.13464 7.32024C8.40246 7.58221 8.74261 7.75795 9.11125 7.82479C9.42899 7.8824 9.75533 7.85683 10.0589 7.7518C10.1245 7.74258 10.1888 7.72468 10.25 7.69845C10.5861 7.5544 10.8727 7.31521 11.0746 7.01034C11.2765 6.70546 11.3849 6.3482 11.3864 5.98254V5.86364Z" fill="#202124"/>
</svg>
