<svg width="24" height="24" viewBox="0 0 24 24" fill="none" xmlns="http://www.w3.org/2000/svg">
<path d="M11.1347 6.82662L8.25 6.82662L8.2499 6.82662C7.87246 6.82701 7.51068 6.97713 7.24389 7.244C6.97698 7.51077 6.82684 7.8726 6.82647 8.25005V8.25014V12.4413C6.82647 12.7402 7.06881 12.9825 7.36765 12.9825C7.66648 12.9825 7.90882 12.7402 7.90882 12.4413V8.25025C7.90901 8.06191 8.06176 7.90916 8.2501 7.90897H11.1347L10.5148 8.52886C10.4116 8.62982 10.3528 8.76792 10.3519 8.9124C10.351 9.05714 10.4081 9.19622 10.5105 9.2985C10.6127 9.4009 10.7518 9.45794 10.8966 9.45704C11.041 9.45613 11.1792 9.39741 11.2801 9.29413C11.2803 9.29398 11.2804 9.29382 11.2806 9.29367L12.8235 7.75065C12.8489 7.7253 12.8715 7.69758 12.8912 7.66817C12.898 7.65795 12.9031 7.64832 12.9066 7.64149C12.9086 7.63778 12.9098 7.63531 12.9108 7.63336C12.9118 7.63136 12.9125 7.62989 12.9134 7.62816C12.9234 7.61137 12.9319 7.59459 12.9394 7.57844L12.9397 7.57857L12.9424 7.57121C12.9489 7.55365 12.9543 7.53604 12.9588 7.51856C12.9594 7.51648 12.96 7.51472 12.9609 7.51214C12.9616 7.51011 12.9624 7.50757 12.9636 7.50399L11.1347 6.82662ZM11.1347 6.82662L10.5144 6.2063L10.5135 6.20538L10.5135 6.20538C10.3068 5.99326 10.3089 5.65441 10.5183 5.44496C10.7278 5.23551 11.0666 5.23342 11.2788 5.44011L11.2797 5.44101L11.2797 5.44102L12.8235 6.98489C12.849 7.01038 12.8715 7.03814 12.891 7.06736L11.1347 6.82662ZM12.9427 7.16422L12.9424 7.16433C12.9489 7.18189 12.9543 7.19951 12.9588 7.21699C12.959 7.21764 12.9591 7.21829 12.9593 7.21894L12.9427 7.16422ZM12.9427 7.16422L12.9394 7.1571M12.9427 7.16422L12.9394 7.1571M12.9394 7.1571C12.9317 7.14046 12.923 7.1237 12.9132 7.10718M12.9394 7.1571L12.9132 7.10718M12.8646 16.0905L13.485 15.4702L13.485 15.4702L13.4861 15.4691C13.6918 15.2568 13.6893 14.9188 13.4802 14.7097L12.8646 16.0905ZM12.8646 16.0905H15.7493C15.9376 16.0904 16.0904 15.9376 16.0905 15.7493V11.5582C16.0905 11.2592 16.3328 11.017 16.6317 11.017C16.9305 11.017 17.1729 11.2592 17.1729 11.5582V15.7493V15.7494C17.1725 16.1268 17.0224 16.4886 16.7555 16.7555C16.4886 17.0223 16.1268 17.1725 15.7495 17.1729H15.7494H12.8646L13.4839 17.7921C13.4841 17.7923 13.4843 17.7925 13.4844 17.7927C13.5881 17.8935 13.6471 18.0318 13.6482 18.1764C13.6492 18.3214 13.5922 18.4607 13.4898 18.5632L13.4897 18.5633C13.3872 18.6657 13.2479 18.7227 13.1029 18.7217C12.9583 18.7206 12.82 18.6617 12.7192 18.558C12.719 18.5578 12.7188 18.5576 12.7186 18.5574L11.1758 17.0146L11.1756 17.0144C11.1506 16.9892 11.1278 16.9615 11.108 16.9317M12.8646 16.0905L11.1913 16.8763M11.108 16.9317L11.1913 16.8763M11.108 16.9317C11.108 16.9317 11.108 16.9317 11.108 16.9318L11.1913 16.8763M11.108 16.9317C11.1012 16.9215 11.0961 16.9118 11.0927 16.9052C11.089 16.898 11.0878 16.8954 11.0862 16.8923M11.1913 16.8763C11.1866 16.8694 11.1829 16.862 11.1792 16.8547L11.1765 16.8492L11.173 16.8427M11.0862 16.8923C11.0866 16.893 11.087 16.8937 11.0874 16.8944L11.173 16.8427M11.0862 16.8923C11.0763 16.8758 11.0676 16.8589 11.0598 16.842L11.0568 16.8354L11.0571 16.8353C11.0505 16.8177 11.0451 16.8 11.0406 16.7825M11.0862 16.8923C11.0859 16.8918 11.0857 16.8914 11.0854 16.8909L11.173 16.8427M11.173 16.8427L11.0406 16.7825M11.0406 16.7825C11.0407 16.783 11.0408 16.7834 11.041 16.7839L11.137 16.7559M11.0406 16.7825L11.1508 16.8004C11.1453 16.7858 11.1408 16.7709 11.137 16.7559M11.0406 16.7825C11.0404 16.7819 11.0402 16.7812 11.04 16.7805L11.137 16.7559M11.0406 16.7825C11.0394 16.7788 11.0384 16.7761 11.0358 16.7679C11.0334 16.7607 11.0302 16.75 11.0277 16.7378M11.137 16.7559L11.1347 16.7486L11.1328 16.7428C11.1301 16.7347 11.1274 16.7266 11.1258 16.7181M11.1258 16.7181L11.0277 16.7378M11.1258 16.7181C11.1143 16.661 11.1142 16.6023 11.1256 16.5453L11.0276 16.5256C11.0276 16.5257 11.0276 16.5258 11.0275 16.5259C11.0135 16.5959 11.0137 16.6679 11.0277 16.7378M11.1258 16.7181L11.0277 16.7376C11.0277 16.7376 11.0277 16.7377 11.0277 16.7378M12.7197 14.705L12.7207 14.7039C12.9329 14.498 13.2712 14.5005 13.4802 14.7096L12.7197 14.705ZM12.7197 14.705L11.1758 16.2488L11.1756 16.249L12.7197 14.705ZM11.0596 16.4212L11.0598 16.4213C11.0674 16.4047 11.0759 16.3882 11.0856 16.372C11.0882 16.3668 11.0989 16.3453 11.108 16.3316C11.108 16.3316 11.108 16.3316 11.108 16.3315L11.1913 16.387L11.0596 16.4212ZM11.0596 16.4212L11.057 16.4283M11.0596 16.4212L11.057 16.4283M11.057 16.4283C11.0505 16.4458 11.0451 16.4632 11.0405 16.4807L11.057 16.4283ZM12.9132 7.10718C12.9123 7.10549 12.9115 7.10399 12.9104 7.10182C12.9095 7.09995 12.9083 7.09759 12.9066 7.09419C12.9031 7.08746 12.898 7.07771 12.8911 7.06739L12.9132 7.10718ZM7.36776 13.6647H7.36765C6.58064 13.6647 5.82575 13.9773 5.26916 14.5339C4.71258 15.0904 4.4 15.8453 4.4 16.6324C4.4 17.4194 4.71261 18.1743 5.26916 18.7308C5.82572 19.2874 6.58064 19.6 7.36765 19.6C8.15466 19.6 8.90955 19.2874 9.46613 18.7308C10.0227 18.1743 10.3353 17.4194 10.3353 16.6324V16.6322C10.3344 15.8455 10.0214 15.0911 9.46512 14.5349C8.90882 13.9786 8.15449 13.6656 7.36776 13.6647ZM6.03458 17.9654L6.03455 17.9654C5.68097 17.612 5.48235 17.1323 5.48235 16.6324C5.48235 16.1324 5.68096 15.6528 6.03456 15.2993L6.03458 15.2993C6.38804 14.9457 6.86768 14.7471 7.36765 14.7471C7.86761 14.7471 8.34722 14.9457 8.70072 15.2993L8.70074 15.2993C9.0543 15.6527 9.25291 16.1323 9.25294 16.6322C9.25236 17.1321 9.05362 17.6113 8.7001 17.9648C8.34658 18.3183 7.86741 18.517 7.36753 18.5176C6.8676 18.5176 6.38804 18.319 6.03458 17.9654ZM16.6325 4.4H16.6324C15.8453 4.4 15.0905 4.71261 14.5339 5.26916C13.9773 5.82572 13.6647 6.58064 13.6647 7.36765C13.6647 8.15466 13.9773 8.90955 14.5339 9.46613C15.0904 10.0227 15.8453 10.3353 16.6324 10.3353C17.4194 10.3353 18.1743 10.0227 18.7308 9.46613C19.2874 8.90957 19.6 8.15465 19.6 7.36765V7.36753C19.5991 6.58081 19.2861 5.82644 18.7298 5.27017C18.1735 4.71391 17.4192 4.40091 16.6325 4.4ZM15.2993 8.70074L15.2993 8.70072C14.9457 8.34725 14.7471 7.86761 14.7471 7.36765C14.7471 6.86768 14.9457 6.38807 15.2993 6.03458L15.2993 6.03455C15.6527 5.68097 16.1324 5.48235 16.6324 5.48235C17.1323 5.48235 17.6119 5.68096 17.9654 6.03456L17.9654 6.03458C18.319 6.38801 18.5176 6.8676 18.5176 7.36753C18.5171 7.86741 18.3183 8.3466 17.9648 8.7001C17.6113 9.0536 17.1321 9.25234 16.6322 9.25294C16.1323 9.25291 15.6528 9.0543 15.2993 8.70074ZM12.9717 7.47362C12.9856 7.40379 12.9856 7.33174 12.9717 7.26192V7.47362Z" fill="#202124" stroke="#202124" stroke-width="0.2"/>
</svg>
