<svg width="24" height="24" viewBox="0 0 24 24" fill="none" xmlns="http://www.w3.org/2000/svg">
<path d="M8.90802 4.45655C9.02821 4.57673 9.09573 4.73974 9.09573 4.9097V11.4089V11.4091L8.90802 4.45655ZM8.90802 4.45655C8.78784 4.33637 8.62484 4.26885 8.45487 4.26885M8.90802 4.45655L8.45487 4.26885M8.45487 4.26885C8.28491 4.26885 8.1219 4.33637 8.00172 4.45655M8.45487 4.26885L8.00172 4.45655M8.00172 4.45655C7.88154 4.57673 7.81402 4.73974 7.81402 4.9097M8.00172 4.45655L7.81402 4.9097M7.81402 4.9097V11.4091M7.81402 4.9097V11.4091M7.81402 11.4091V11.4102M7.81402 11.4091V11.4102M7.81402 11.4102C7.81402 11.416 7.81402 11.422 7.81409 11.4281M7.81402 11.4102L7.81409 11.4281M7.81409 11.4281C7.15193 11.5725 6.55758 11.9367 6.12815 12.4621C5.68958 12.9987 5.45 13.6704 5.45 14.3634C5.45 15.0564 5.68958 15.7281 6.12815 16.2646C6.55759 16.79 7.15196 17.1543 7.81413 17.2987L7.81409 11.4281ZM15.9983 4.45655C16.1185 4.57673 16.186 4.73974 16.186 4.9097V6.68211V6.68227L15.9983 4.45655ZM15.9983 4.45655C15.8781 4.33637 15.7151 4.26885 15.5451 4.26885M15.9983 4.45655L15.5451 4.26885M15.5451 4.26885C15.3752 4.26885 15.2122 4.33637 15.092 4.45655M15.5451 4.26885L15.092 4.45655M15.092 4.45655C14.9718 4.57673 14.9043 4.73974 14.9043 4.9097M15.092 4.45655L14.9043 4.9097M14.9043 4.9097V6.68227M14.9043 4.9097V6.68227M14.9043 6.68227V6.68337M14.9043 6.68227V6.68337M14.9043 6.68337C14.9043 6.68916 14.9043 6.69513 14.9043 6.70127M14.9043 6.68337L14.9043 6.70127M14.9043 6.70127C14.2422 6.84568 13.6478 7.20988 13.2184 7.73528C12.7798 8.27185 12.5403 8.94354 12.5403 9.63654C12.5403 10.3295 12.7798 11.0012 13.2184 11.5378C13.6478 12.0632 14.2422 12.4274 14.9044 12.5718L14.9043 6.70127ZM7.81402 17.3179V19.0902C7.81402 19.2602 7.88154 19.4232 8.00172 19.5434C8.1219 19.6636 8.28491 19.7311 8.45487 19.7311C8.62484 19.7311 8.78784 19.6636 8.90802 19.5434C9.02821 19.4232 9.09573 19.2602 9.09573 19.0902V17.3177V17.3165C9.09573 17.3108 9.09573 17.3048 9.09566 17.2986C9.75781 17.1542 10.3522 16.79 10.7816 16.2646C11.2202 15.7281 11.4597 15.0564 11.4597 14.3634C11.4597 13.6704 11.2202 12.9987 10.7816 12.4621C10.3522 11.9367 9.75778 11.5725 9.09561 11.4281L7.81402 17.3179ZM14.9043 12.591V19.0902C14.9043 19.2602 14.9718 19.4232 15.092 19.5434C15.2122 19.6636 15.3752 19.7311 15.5451 19.7311C15.7151 19.7311 15.8781 19.6636 15.9983 19.5434C16.1185 19.4232 16.186 19.2602 16.186 19.0902V12.5908V12.5897C16.186 12.5839 16.186 12.578 16.1859 12.5718C16.8481 12.4274 17.4424 12.0632 17.8719 11.5378C18.3104 11.0012 18.55 10.3295 18.55 9.63654C18.55 8.94354 18.3104 8.27185 17.8719 7.73528C17.4424 7.20987 16.848 6.84566 16.1859 6.70126L14.9043 12.591ZM7.23684 13.1453C7.55988 12.8223 7.99802 12.6408 8.45487 12.6408C8.91172 12.6408 9.34986 12.8223 9.67291 13.1453C9.99595 13.4684 10.1774 13.9065 10.1774 14.3634C10.1774 14.8202 9.99595 15.2584 9.67291 15.5814C9.34986 15.9045 8.91172 16.0859 8.45487 16.0859C7.99802 16.0859 7.55988 15.9045 7.23684 15.5814C6.91379 15.2584 6.73231 14.8202 6.73231 14.3634C6.73231 13.9065 6.91379 13.4684 7.23684 13.1453ZM13.8226 9.63654C13.8226 9.17969 14.004 8.74155 14.3271 8.4185C14.6501 8.09546 15.0883 7.91398 15.5451 7.91398C16.002 7.91398 16.4401 8.09546 16.7632 8.4185C17.0862 8.74155 17.2677 9.17969 17.2677 9.63654C17.2677 10.0934 17.0862 10.5315 16.7632 10.8546C16.4401 11.1776 16.002 11.3591 15.5451 11.3591C15.0883 11.3591 14.6501 11.1776 14.3271 10.8546C14.004 10.5315 13.8226 10.0934 13.8226 9.63654Z" fill="#202124" stroke="#202124" stroke-width="0.1"/>
</svg>
