<svg width="24" height="24" viewBox="0 0 24 24" fill="none" xmlns="http://www.w3.org/2000/svg">
<path d="M13.775 6.1716L6.44621 13.5007L6.44619 13.5008C5.47355 14.4739 5.33035 15.9634 6.00932 17.0919L4.58641 18.5149C4.33786 18.7634 4.33787 19.1653 4.58641 19.4138L4.58657 19.414C4.71081 19.5377 4.87361 19.6 5.03629 19.6C5.19894 19.6 5.36186 19.5377 5.48573 19.4137M13.775 6.1716L16.7056 5.4854M13.775 6.1716L13.3202 5.71676L13.3909 5.64605L13.3202 5.71676C13.0716 5.4682 13.0716 5.06637 13.3202 4.81781C13.5687 4.56926 13.9705 4.56926 14.2191 4.81781L16.2513 6.84988L17.1609 5.94023L16.7057 5.48546L13.775 6.1716ZM5.48573 19.4137L5.4857 19.4137L5.41497 19.343L5.48573 19.4137ZM5.48573 19.4137L6.88839 18.0105M6.88839 18.0105C7.36822 18.3351 7.9303 18.5158 8.52362 18.5158C9.30808 18.5158 10.0465 18.2102 10.601 17.6551L10.5303 17.5844M6.88839 18.0105L6.94759 17.9513L6.87687 17.8806M6.88839 18.0105C6.86491 17.9946 6.84163 17.9784 6.81855 17.9618L6.87687 17.8806M10.5303 17.5844L10.601 17.655L17.9291 10.3265M10.5303 17.5844L17.8584 10.2558L17.9291 10.3265M10.5303 17.5844C9.9946 18.1207 9.28159 18.4158 8.52362 18.4158C7.92301 18.4158 7.35528 18.224 6.87687 17.8806M17.9291 10.3265L18.3839 10.7814C18.5079 10.9053 18.6707 10.9677 18.8333 10.9677C18.996 10.9677 19.1589 10.9054 19.2828 10.7813C19.5313 10.5328 19.5313 10.131 19.2827 9.88243L17.1498 7.74917M17.9291 10.3265L17.9999 10.2558L6.87687 17.8806M17.1498 7.74917L18.0594 6.83904M17.1498 7.74917L17.0791 7.67848L17.0084 7.74919M17.1498 7.74917L17.0791 7.81988L17.0084 7.74919M18.0594 6.83904L18.5142 7.29382M18.0594 6.83904L18.1301 6.76831L18.5849 7.22315M18.0594 6.83904L17.9887 6.76833L17.0084 7.74919M18.5142 7.29382C18.6387 7.41847 18.8017 7.48004 18.9641 7.48004C19.1267 7.48004 19.2896 7.41774 19.4135 7.29374M18.5142 7.29382L18.5849 7.22315M18.5142 7.29382L18.5142 7.29386L18.5849 7.22315M19.4135 7.29374C19.662 7.04524 19.6621 6.64272 19.4134 6.39469M19.4135 7.29374L19.3428 7.22303M19.4135 7.29374C19.4135 7.29373 19.4135 7.29371 19.4135 7.2937L19.3428 7.22303M19.4134 6.39469L17.6045 4.58642L17.5338 4.65713M19.4134 6.39469L19.4135 6.39478L19.3428 6.4655M19.4134 6.39469L19.3428 6.4655M17.5338 4.65713L17.6045 4.5864C17.3559 4.33786 16.9541 4.33787 16.7056 4.58642C16.4571 4.83489 16.4569 5.23736 16.7056 5.4854M17.5338 4.65713C17.3243 4.44762 16.9858 4.44762 16.7763 4.65713C16.5668 4.86663 16.5668 5.20576 16.7763 5.41465M17.5338 4.65713L19.3428 6.4655M16.7056 5.4854L16.7763 5.41465M16.7056 5.4854L16.7763 5.41465M16.7763 5.41465L19.212 9.95314L17.0084 7.74919M19.3428 6.4655C19.5523 6.6744 19.5523 7.01353 19.3428 7.22303M19.3428 7.22303C19.2384 7.32754 19.1013 7.38004 18.9641 7.38004C18.827 7.38004 18.6898 7.32814 18.5849 7.22315M15.9697 10.4883L15.1982 9.71681C14.9497 9.46826 14.5478 9.46826 14.2993 9.71681C14.0507 9.96537 14.0507 10.3672 14.2993 10.6158L14.37 10.545L14.2993 10.6158L15.0708 11.3873L14.0106 12.4479L13.2391 11.6765C12.9906 11.4279 12.5888 11.4279 12.3402 11.6765C12.0917 11.925 12.0917 12.3269 12.3402 12.5754L12.4109 12.5047L12.3402 12.5754L13.1117 13.3469L12.051 14.4076L11.2796 13.6361C11.031 13.3876 10.6292 13.3876 10.3807 13.6361C10.1321 13.8847 10.1321 14.2865 10.3807 14.5351L11.1521 15.3066L9.70258 16.7562C9.07417 17.3846 7.97395 17.3846 7.34555 16.7562C6.69622 16.1063 6.69622 15.0489 7.34558 14.399L14.6734 7.0711L17.0304 9.42824L15.9697 10.4883Z" fill="#202124" stroke="#202124" stroke-width="0.2"/>
</svg>
