<svg width="24" height="24" viewBox="0 0 24 24" fill="none" xmlns="http://www.w3.org/2000/svg">
<path fill-rule="evenodd" clip-rule="evenodd" d="M17.258 8.86708L16.371 9.75408C16.9632 10.2329 17.4858 10.8114 17.9149 11.4744C18.1006 11.7613 18.1006 12.1298 17.9149 12.4168C16.5954 14.4558 14.3903 15.6956 12 15.6956C11.5165 15.6956 11.0406 15.6448 10.5781 15.547L9.55522 16.5698C10.3294 16.8143 11.1504 16.9456 12 16.9456C15.2013 16.9456 17.9979 15.0799 19.4094 12.3255C19.469 12.2077 19.5 12.0775 19.5 11.9454C19.5 11.8134 19.469 11.6832 19.4094 11.5653C18.8736 10.5199 18.1387 9.6028 17.258 8.86708ZM14.843 11.2821L11.3529 14.7722C11.5875 14.8265 11.8293 14.8518 12.0728 14.8464C12.6833 14.8329 13.274 14.6278 13.7613 14.26C14.2487 13.8921 14.6079 13.3803 14.7882 12.7969C14.9405 12.3041 14.9585 11.7814 14.843 11.2821Z" fill="#202124"/>
<path fill-rule="evenodd" clip-rule="evenodd" d="M6 17.3033C5.80474 17.4986 5.80474 17.8151 6 18.0104C6.18306 18.1935 6.47274 18.2049 6.66913 18.0447C6.67894 18.0329 6.68938 18.0215 6.70045 18.0104L8.53872 16.1721L9.48979 15.2211L10.3696 14.3413L14.4121 10.2988L15.5376 9.1732L16.4445 8.26637L18.0142 6.69669C18.0264 6.68449 18.039 6.67305 18.0521 6.66237C18.2154 6.46594 18.205 6.17378 18.0208 5.98959C17.8256 5.79432 17.509 5.79432 17.3137 5.98959L15.5446 7.75873C14.4666 7.2366 13.2649 6.94552 12 6.94552C8.79868 6.94552 6.00207 8.81116 4.59061 11.5656C4.53104 11.6834 4.5 11.8136 4.5 11.9457C4.5 12.0777 4.53104 12.2079 4.59061 12.3258C5.29785 13.7057 6.35209 14.8621 7.63048 15.6728L6 17.3033ZM11.4266 9.09552C11.6148 9.05426 11.8069 9.03189 12 9.02887C12.6106 9.02703 13.2062 9.21734 13.7026 9.57285L13.7188 9.58451L14.5982 8.70513C13.7841 8.37337 12.9053 8.19553 12 8.19553C9.60967 8.19553 7.40487 9.43525 6.08513 11.4743C5.89942 11.7613 5.89942 12.1298 6.08514 12.4168C6.72298 13.4023 7.56759 14.201 8.53994 14.7634L9.6553 13.648C9.49379 13.4257 9.36362 13.1803 9.26988 12.9185C9.0927 12.4236 9.05345 11.8915 9.15391 11.3787C9.17879 11.2517 9.32215 11.1942 9.4441 11.2375C9.59532 11.2912 9.75501 11.3194 9.91665 11.3205C10.1082 11.3205 10.2978 11.2828 10.4747 11.2095C10.6517 11.1362 10.8124 11.0288 10.9479 10.8934C11.0833 10.758 11.1907 10.5972 11.264 10.4203C11.3373 10.2434 11.375 10.0537 11.375 9.86221C11.3739 9.69874 11.345 9.53727 11.2901 9.38454C11.2469 9.26439 11.3018 9.12286 11.4266 9.09552Z" fill="#202124"/>
</svg>
