<svg width="14" height="16" viewBox="0 0 14 16" fill="none" xmlns="http://www.w3.org/2000/svg">
<path fill-rule="evenodd" clip-rule="evenodd" d="M9.41702 6.67244V1.91992C9.41702 1.86552 9.46112 1.82143 9.51551 1.82143H9.71468C10.1486 1.82143 10.5004 1.46965 10.5004 1.03571C10.5004 0.601776 10.1486 0.25 9.71468 0.25H4.28586C3.85192 0.25 3.50014 0.601776 3.50014 1.03571C3.50014 1.46965 3.85192 1.82143 4.28586 1.82143H4.48503C4.53942 1.82143 4.58352 1.86552 4.58352 1.91992V6.67244L0.715203 11.9329C0.451512 12.2913 0.293003 12.7153 0.257587 13.1577C0.222169 13.6001 0.311236 14.0435 0.514741 14.4387C0.718234 14.8339 1.02811 15.1653 1.40975 15.3966C1.79134 15.6279 2.22995 15.7501 2.67706 15.75H11.3229C11.7701 15.7501 12.2087 15.6279 12.5903 15.3966C12.9719 15.1653 13.2818 14.8339 13.4853 14.4387C13.6888 14.0435 13.7778 13.6001 13.7424 13.1577C13.707 12.7155 13.5492 12.2915 13.2853 11.9329L9.41702 6.67244ZM6.1669 2.07143V6.77454C6.1669 7.041 6.08175 7.30049 5.92388 7.51514L5.13884 8.58256C5.06599 8.68161 5.13672 8.82143 5.25968 8.82143H8.74086C8.86382 8.82143 8.93455 8.68161 8.8617 8.58256L8.07666 7.51514C7.91879 7.30048 7.83365 7.041 7.83365 6.77454V2.07143C7.83365 1.93336 7.72172 1.82143 7.58365 1.82143H6.4169C6.27882 1.82143 6.1669 1.93336 6.1669 2.07143ZM2.67787 14.1786H11.3232C11.4793 14.1784 11.6322 14.1356 11.7649 14.055C11.8976 13.9745 12.0048 13.8596 12.0751 13.7231C12.1453 13.5867 12.176 13.4339 12.164 13.2816C12.1519 13.1294 12.0975 12.9831 12.0066 12.8591L10.2677 10.4947C10.2205 10.4307 10.1458 10.3929 10.0663 10.3929H3.93432C3.8548 10.3929 3.78002 10.4307 3.73291 10.4948L1.99462 12.8589C1.9036 12.983 1.8492 13.1293 1.83713 13.2816C1.82507 13.4339 1.85576 13.5867 1.92602 13.7231C1.99629 13.8596 2.10352 13.9745 2.23619 14.055C2.36889 14.1356 2.52175 14.1784 2.67787 14.1786Z" fill="#202124"/>
</svg>
