<svg width="24" height="24" viewBox="0 0 24 24" fill="none" xmlns="http://www.w3.org/2000/svg">
<path d="M11.9998 7.83333V4.5V7.83333ZM11.1665 4.5H12.8332H11.1665Z" fill="white"/>
<path d="M11.1665 4.5H12.8332M11.9998 7.83333V4.5V7.83333Z" stroke="#202124" stroke-width="1.5" stroke-linecap="round" stroke-linejoin="round"/>
<path d="M14.9468 9.05326L17.3034 6.69659L14.9468 9.05326ZM16.7143 6.10742L17.8926 7.28576L16.7143 6.10742Z" fill="white"/>
<path d="M16.7143 6.10742L17.8926 7.28576M14.9468 9.05326L17.3034 6.69659L14.9468 9.05326Z" stroke="#202124" stroke-width="1.5" stroke-linecap="round" stroke-linejoin="round"/>
<path d="M16.1665 11.9998H19.4998H16.1665ZM19.4998 11.1665V12.8332V11.1665Z" fill="white"/>
<path d="M19.4998 11.1665V12.8332M16.1665 11.9998H19.4998H16.1665Z" stroke="#202124" stroke-width="1.5" stroke-linecap="round" stroke-linejoin="round"/>
<path d="M14.9468 14.9468L17.3034 17.3034L14.9468 14.9468ZM17.8926 16.7143L16.7143 17.8926L17.8926 16.7143Z" fill="white"/>
<path d="M17.8926 16.7143L16.7143 17.8926M14.9468 14.9468L17.3034 17.3034L14.9468 14.9468Z" stroke="#202124" stroke-width="1.5" stroke-linecap="round" stroke-linejoin="round"/>
<path d="M11.9998 16.1665V19.4998V16.1665ZM12.8332 19.4998H11.1665H12.8332Z" fill="white"/>
<path d="M12.8332 19.4998H11.1665M11.9998 16.1665V19.4998V16.1665Z" stroke="#202124" stroke-width="1.5" stroke-linecap="round" stroke-linejoin="round"/>
<path d="M9.0534 14.9468L6.69673 17.3034L9.0534 14.9468ZM7.2859 17.8926L6.1084 16.7143L7.2859 17.8926Z" fill="white"/>
<path d="M7.2859 17.8926L6.1084 16.7143M9.0534 14.9468L6.69673 17.3034L9.0534 14.9468Z" stroke="#202124" stroke-width="1.5" stroke-linecap="round" stroke-linejoin="round"/>
<path d="M7.83333 11.9998H4.5H7.83333ZM4.5 12.8332V11.1665V12.8332Z" fill="white"/>
<path d="M4.5 12.8332V11.1665M7.83333 11.9998H4.5H7.83333Z" stroke="#202124" stroke-width="1.5" stroke-linecap="round" stroke-linejoin="round"/>
<path d="M9.05326 9.0534L6.69659 6.69673L9.05326 9.0534ZM6.10742 7.2859L7.28576 6.1084L6.10742 7.2859Z" fill="white"/>
<path d="M6.10742 7.2859L7.28576 6.1084M9.05326 9.0534L6.69659 6.69673L9.05326 9.0534Z" stroke="#202124" stroke-width="1.5" stroke-linecap="round" stroke-linejoin="round"/>
<path d="M12.0002 16.1668C14.3013 16.1668 16.1668 14.3013 16.1668 12.0002C16.1668 9.69898 14.3013 7.8335 12.0002 7.8335C9.69898 7.8335 7.8335 9.69898 7.8335 12.0002C7.8335 14.3013 9.69898 16.1668 12.0002 16.1668Z" fill="white" stroke="#202124" stroke-width="1.5" stroke-linecap="round" stroke-linejoin="round"/>
</svg>
