<svg width="24" height="24" viewBox="4 4 24 24" fill="none" xmlns="http://www.w3.org/2000/svg">
<path style="transform: scale(1.4);" d="M9.1545 10.9929C8.9055 10.805 8.6685 10.6057 8.44425 10.3929L8.34225 10.2914C8.13 10.0821 7.92825 9.86429 7.7415 9.635L7.695 9.58143C7.50375 9.34214 7.3305 9.09 7.1685 8.83214L7.0725 8.675C6.91875 8.415 6.77625 8.14857 6.65325 7.87286C6.63825 7.83929 6.627 7.805 6.612 7.77143C6.50175 7.51357 6.4065 7.24929 6.32475 6.97929C6.309 6.92929 6.29175 6.87929 6.2775 6.82857C6.19725 6.54143 6.13575 6.24786 6.08925 5.95071C6.0795 5.88857 6.0735 5.82571 6.06525 5.76286C6.027 5.45429 6 5.14214 6 4.82643V4.7C6 4.58954 6.08954 4.5 6.2 4.5H7.3C7.41046 4.5 7.5 4.58954 7.5 4.7V4.82643C7.5 4.89438 7.50622 4.961 7.51336 5.02747C7.52464 5.13241 7.61367 5.21429 7.71921 5.21429H16.2948C16.4007 5.21429 16.489 5.13169 16.4943 5.02586C16.4976 4.95975 16.5 4.89347 16.5 4.82643V4.7C16.5 4.58954 16.5895 4.5 16.7 4.5H17.8C17.9105 4.5 18 4.58954 18 4.7V4.82643C18 8.30929 15.5483 11.4107 12.036 12.3757L12.015 12.3821C9.94427 12.9455 8.35983 14.4929 7.76075 16.3931C7.72126 16.5183 7.81698 16.6429 7.9483 16.6429H16.011C16.1539 16.6429 16.2507 16.4973 16.1954 16.3655L15.7639 15.3369C15.7328 15.2626 15.6601 15.2143 15.5795 15.2143H10.4001C10.2366 15.2143 10.1442 15.0302 10.2499 14.9054C10.6072 14.4836 11.0308 14.1159 11.5064 13.8158C11.5377 13.796 11.5741 13.7857 11.6112 13.7857H14.0365C14.2194 13.7857 14.2999 13.5676 14.152 13.4601C14.0455 13.3828 13.936 13.309 13.824 13.238C13.6775 13.1451 13.6989 12.9164 13.86 12.8519C14.213 12.7107 14.5541 12.5436 14.8804 12.3522C14.9508 12.3109 15.0393 12.3146 15.104 12.3644C16.8827 13.7348 18 15.8161 18 18.0821V19.3C18 19.4105 17.9105 19.5 17.8 19.5H16.7C16.5895 19.5 16.5 19.4105 16.5 19.3V18.0821C16.4996 18.0761 16.4946 18.0714 16.4885 18.0714H7.51149C7.50544 18.0714 7.50042 18.0761 7.5 18.0821V19.3C7.5 19.4105 7.41046 19.5 7.3 19.5H6.2C6.08954 19.5 6 19.4105 6 19.3V18.0821C6 15.4688 7.47767 13.0881 9.75696 11.7801C9.89485 11.701 9.8994 11.4982 9.76483 11.4135C9.59857 11.3089 9.43627 11.1986 9.27825 11.0829C9.237 11.0529 9.19575 11.0243 9.1545 10.9929ZM10.047 9.84714C10.574 10.2499 11.1619 10.5745 11.7907 10.81C11.8384 10.8277 11.8864 10.8441 11.9344 10.8606C11.9765 10.8749 12.0221 10.8752 12.0641 10.8606C12.7562 10.6197 13.4009 10.2722 13.9729 9.833C14.1182 9.7214 14.0355 9.5 13.8523 9.5H10.1718C9.99002 9.5 9.89679 9.73316 10.0417 9.84286L10.047 9.84714ZM7.8219 6.64286C7.80408 6.64286 7.78919 6.66092 7.79475 6.67786L7.82775 6.78571C7.93249 7.0925 8.0611 7.39142 8.2125 7.68C8.26709 7.7829 8.33074 7.87964 8.39363 7.97738C8.43109 8.0356 8.49537 8.07143 8.5646 8.07143H15.4517C15.521 8.07143 15.5856 8.03561 15.621 7.97595C15.8245 7.63295 15.9947 7.27307 16.1294 6.90083C16.1754 6.77389 16.0792 6.64286 15.9442 6.64286H7.8219Z" fill="#202124"/>
</svg>
