<svg width="24" height="24" viewBox="0 0 24 24" fill="none" xmlns="http://www.w3.org/2000/svg">
<path d="M12.5723 12.8461L13.8302 11.7782L15.7958 14.1097C15.5647 14.4427 15.4294 14.8464 15.4294 15.2813C15.4294 16.4246 16.3638 17.35 17.5147 17.35C18.6656 17.35 19.6 16.4246 19.6 15.2813C19.6 14.138 18.6656 13.2125 17.5147 13.2125C17.1945 13.2125 16.8909 13.2842 16.6196 13.4123L14.6529 11.0796L15.4369 10.414C15.7755 10.6494 16.1878 10.7875 16.6323 10.7875C17.7832 10.7875 18.7177 9.86211 18.7177 8.71877C18.7177 7.57543 17.7832 6.65 16.6323 6.65C15.4814 6.65 14.5471 7.57544 14.5471 8.71877C14.5471 9.03018 14.6165 9.32568 14.7408 9.59074L12.2721 11.6866L10.86 10.1113C10.86 10.1113 10.86 10.1113 10.86 10.1113C10.6614 9.88975 10.3199 9.86993 10.0966 10.0667L10.0966 10.0667L7.63116 12.24C7.30223 12.025 6.90835 11.9 6.48533 11.9C5.33443 11.9 4.4 12.8254 4.4 13.9688C4.4 15.1121 5.33443 16.0375 6.48533 16.0375C7.63624 16.0375 8.5706 15.1121 8.5706 13.9688C8.5706 13.6362 8.49144 13.3217 8.35072 13.0431L10.411 11.227L11.8165 12.7949C11.8165 12.7949 11.8165 12.7949 11.8165 12.7949C12.0124 13.0135 12.3484 13.0362 12.5723 12.8461L12.5076 12.7699L12.5723 12.8461ZM18.5179 15.2812C18.5179 15.8292 18.0697 16.2749 17.5149 16.2749C16.9602 16.2749 16.5119 15.8292 16.5119 15.2812C16.5119 14.7331 16.9602 14.2874 17.5149 14.2874C18.0696 14.2874 18.5179 14.7331 18.5179 15.2812ZM7.4884 13.9687C7.4884 14.5167 7.04018 14.9624 6.48548 14.9624C5.9307 14.9624 5.48248 14.5167 5.48248 13.9687C5.48248 13.4206 5.93071 12.9749 6.48548 12.9749C7.04017 12.9749 7.4884 13.4206 7.4884 13.9687ZM17.6356 8.71862C17.6356 9.26665 17.1873 9.71234 16.6326 9.71234C16.0779 9.71234 15.6297 9.26666 15.6297 8.71862C15.6297 8.17057 16.078 7.72482 16.6326 7.72482C17.1873 7.72482 17.6356 8.17058 17.6356 8.71862Z" fill="#202124" stroke="#202124" stroke-width="0.2"/>
</svg>
