<svg width="152" height="28" viewBox="0 0 152 28" fill="none" xmlns="http://www.w3.org/2000/svg">
<path d="M151.352 3.33749C151.717 3.53164 151.857 3.98564 151.663 4.35154L148.499 10.3141C148.305 10.68 147.851 10.8193 147.485 10.6251C147.119 10.431 146.98 9.97696 147.174 9.61107L149.986 4.31097L144.686 1.49868C144.32 1.30453 144.181 0.850527 144.375 0.484631C144.569 0.118736 145.023 -0.0204926 145.389 0.173656L151.352 3.33749ZM0.780108 4.71704C0.384097 4.5956 0.161516 4.17612 0.282959 3.78011C0.404403 3.3841 0.823882 3.16152 1.21989 3.28296L0.780108 4.71704ZM76.5864 26.8202L76.8063 27.5372L76.5864 26.8202ZM75.4136 26.8202L75.1937 27.5372L75.4136 26.8202ZM76.3665 26.1031L150.78 3.28296L151.22 4.71704L76.8063 27.5372L76.3665 26.1031ZM75.1937 27.5372L0.780108 4.71704L1.21989 3.28296L75.6335 26.1031L75.1937 27.5372ZM76.8063 27.5372C76.2808 27.6984 75.7192 27.6984 75.1937 27.5372L75.6335 26.1031C75.8723 26.1764 76.1276 26.1764 76.3665 26.1031L76.8063 27.5372Z" fill="#1F1F1F"/>
</svg>
