<svg width="18" height="18" viewBox="0 0 18 18" fill="none" xmlns="http://www.w3.org/2000/svg">
<path fill-rule="evenodd" clip-rule="evenodd" d="M7.4165 1.5C7.4165 1.08579 7.75229 0.75 8.1665 0.75H9.83317C10.2474 0.75 10.5832 1.08579 10.5832 1.5C10.5832 1.91421 10.2474 2.25 9.83317 2.25H9.74984V4.14017C10.5479 4.26232 11.2827 4.57632 11.9058 5.03362L13.2428 3.69666L13.1839 3.63782C12.8911 3.34492 12.8911 2.87005 13.1839 2.57716C13.4768 2.28426 13.9517 2.28426 14.2446 2.57716L15.4229 3.75549C15.7158 4.04838 15.7158 4.52326 15.4229 4.81615C15.13 5.10904 14.6552 5.10905 14.3623 4.81615L14.3034 4.75732L12.9664 6.09432C13.4236 6.71737 13.7375 7.45211 13.8597 8.24999H15.7498V8.16666C15.7498 7.75244 16.0856 7.41666 16.4998 7.41666C16.9141 7.41666 17.2498 7.75244 17.2498 8.16666V9.83332C17.2498 10.2475 16.9141 10.5833 16.4998 10.5833C16.0856 10.5833 15.7498 10.2475 15.7498 9.83332V9.74999H13.8597C13.7375 10.5479 13.4236 11.2826 12.9664 11.9057L14.3034 13.2427L14.3623 13.1838C14.6552 12.891 15.13 12.891 15.4229 13.1838C15.7158 13.4767 15.7158 13.9516 15.4229 14.2445L14.8345 14.833L14.8338 14.8337L14.8331 14.8344L14.2446 15.4228C13.9517 15.7157 13.4768 15.7157 13.1839 15.4228C12.8911 15.1299 12.8911 14.6551 13.1839 14.3622L13.2428 14.3033L11.9058 12.9664C11.2827 13.4237 10.5478 13.7377 9.74984 13.8598V15.75H9.83317C10.2474 15.75 10.5832 16.0858 10.5832 16.5C10.5832 16.9142 10.2474 17.25 9.83317 17.25H8.1665C7.75229 17.25 7.4165 16.9142 7.4165 16.5C7.4165 16.0858 7.75229 15.75 8.1665 15.75H8.24984V13.8598C7.45196 13.7377 6.71725 13.4238 6.09422 12.9666L4.75749 14.3033L4.8165 14.3624C5.10929 14.6554 5.10912 15.1302 4.81612 15.423C4.52313 15.7158 4.04825 15.7156 3.75546 15.4227L3.18151 14.8483C3.17645 14.8435 3.17144 14.8386 3.16648 14.8337C3.1614 14.8286 3.1564 14.8234 3.15149 14.8183L2.57796 14.2443C2.28517 13.9513 2.28534 13.4764 2.57834 13.1837C2.87133 12.8909 3.34621 12.891 3.639 13.184L3.69721 13.2423L5.03355 11.9059C4.57628 11.2828 4.2623 10.548 4.14017 9.75H2.25V9.83333C2.25 10.2475 1.91421 10.5833 1.5 10.5833C1.08579 10.5833 0.75 10.2475 0.75 9.83333V8.16667C0.75 7.75245 1.08579 7.41667 1.5 7.41667C1.91421 7.41667 2.25 7.75245 2.25 8.16667V8.25H4.14017C4.26229 7.45206 4.57623 6.71727 5.03344 6.09419L3.69661 4.75735L3.63756 4.81635C3.34457 5.10914 2.86969 5.10898 2.5769 4.81598C2.28411 4.52298 2.28428 4.04811 2.57728 3.75532L3.15165 3.18136C3.15644 3.1763 3.1613 3.17129 3.16626 3.16634C3.17134 3.16126 3.17648 3.15627 3.18167 3.15136L3.75561 2.57782C4.04861 2.28503 4.52348 2.2852 4.81627 2.57819C5.10906 2.87119 5.10889 3.34607 4.8159 3.63885L4.75764 3.69707L6.09408 5.0335C6.71714 4.57626 7.4519 4.26231 8.24984 4.14017V2.25H8.1665C7.75229 2.25 7.4165 1.91421 7.4165 1.5ZM8.99984 5.58333C7.1129 5.58333 5.58333 7.11299 5.58333 9C5.58333 10.887 7.1129 12.4167 8.99984 12.4167C10.8868 12.4167 12.4165 10.887 12.4165 8.99999C12.4165 7.11302 10.8868 5.58333 8.99984 5.58333Z" fill="white"/>
</svg>
