<svg width="142" height="30" viewBox="0 0 142 30" fill="none" xmlns="http://www.w3.org/2000/svg">
<path d="M141.445 25.3954C141.94 25.1495 142.141 24.5492 141.895 24.0547L137.888 15.9963C137.642 15.5018 137.042 15.3002 136.547 15.5462C136.053 15.7921 135.851 16.3923 136.097 16.8869L139.659 24.0499L132.496 27.6123C132.002 27.8582 131.8 28.4585 132.046 28.953C132.292 29.4475 132.892 29.649 133.387 29.4031L141.445 25.3954ZM0.681742 23.552C0.158173 23.7278 -0.123773 24.2947 0.051996 24.8183C0.227765 25.3418 0.79469 25.6238 1.31826 25.448L0.681742 23.552ZM71.6365 1.21369L71.9548 0.265684L71.6365 1.21369ZM70.3635 1.21369L70.0452 0.265684L70.3635 1.21369ZM3.24502 24.8012C3.76859 24.6254 4.05054 24.0585 3.87477 23.5349C3.699 23.0113 3.13207 22.7294 2.6085 22.9052L3.24502 24.8012ZM6.46203 21.6115C5.93846 21.7872 5.65652 22.3542 5.83229 22.8777C6.00806 23.4013 6.57498 23.6832 7.09855 23.5075L6.46203 21.6115ZM10.9521 22.2138C11.4756 22.038 11.7576 21.4711 11.5818 20.9475C11.4061 20.424 10.8391 20.142 10.3156 20.3178L10.9521 22.2138ZM14.1691 19.0241C13.6455 19.1999 13.3636 19.7668 13.5393 20.2904C13.7151 20.8139 14.282 21.0959 14.8056 20.9201L14.1691 19.0241ZM18.6591 19.6264C19.1827 19.4507 19.4646 18.8837 19.2889 18.3602C19.1131 17.8366 18.5462 17.5546 18.0226 17.7304L18.6591 19.6264ZM21.8761 16.4367C21.3526 16.6125 21.0706 17.1794 21.2464 17.703C21.4222 18.2266 21.9891 18.5085 22.5127 18.3327L21.8761 16.4367ZM26.3662 17.0391C26.8898 16.8633 27.1717 16.2964 26.9959 15.7728C26.8202 15.2492 26.2532 14.9673 25.7297 15.1431L26.3662 17.0391ZM29.5832 13.8494C29.0596 14.0251 28.7777 14.5921 28.9534 15.1156C29.1292 15.6392 29.6961 15.9211 30.2197 15.7454L29.5832 13.8494ZM34.0732 14.4517C34.5968 14.2759 34.8788 13.709 34.703 13.1854C34.5272 12.6619 33.9603 12.3799 33.4367 12.5557L34.0732 14.4517ZM37.2902 11.262C36.7667 11.4378 36.4847 12.0047 36.6605 12.5283C36.8363 13.0518 37.4032 13.3338 37.9268 13.158L37.2902 11.262ZM41.7803 11.8643C42.3039 11.6886 42.5858 11.1216 42.41 10.5981C42.2343 10.0745 41.6673 9.79255 41.1438 9.96831L41.7803 11.8643ZM44.9973 8.67463C44.4737 8.8504 44.1918 9.41733 44.3676 9.94089C44.5433 10.4645 45.1102 10.7464 45.6338 10.5706L44.9973 8.67463ZM49.4873 9.27695C50.0109 9.10119 50.2929 8.53426 50.1171 8.01069C49.9413 7.48712 49.3744 7.20518 48.8508 7.38095L49.4873 9.27695ZM52.7043 6.08726C52.1808 6.26303 51.8988 6.82996 52.0746 7.35353C52.2504 7.87709 52.8173 8.15904 53.3409 7.98327L52.7043 6.08726ZM57.1944 6.68959C57.718 6.51382 57.9999 5.94689 57.8241 5.42332C57.6484 4.89976 57.0814 4.61781 56.5579 4.79358L57.1944 6.68959ZM60.4114 3.4999C59.8878 3.67566 59.6059 4.24259 59.7817 4.76616C59.9574 5.28973 60.5244 5.57167 61.0479 5.3959L60.4114 3.4999ZM64.9014 4.10222C65.425 3.92645 65.707 3.35952 65.5312 2.83596C65.3554 2.31239 64.7885 2.03044 64.2649 2.20621L64.9014 4.10222ZM68.1185 0.912525C67.5949 1.08829 67.3129 1.65522 67.4887 2.17879C67.6645 2.70236 68.2314 2.9843 68.755 2.80853L68.1185 0.912525ZM73.245 2.80853C73.7686 2.9843 74.3355 2.70236 74.5113 2.17879C74.6871 1.65522 74.4051 1.0883 73.8815 0.912526L73.245 2.80853ZM77.7351 2.20621C77.2115 2.03044 76.6446 2.31239 76.4688 2.83596C76.293 3.35952 76.575 3.92645 77.0985 4.10222L77.7351 2.20621ZM80.9521 5.3959C81.4756 5.57167 82.0426 5.28972 82.2183 4.76616C82.3941 4.24259 82.1122 3.67566 81.5886 3.49989L80.9521 5.3959ZM85.4421 4.79358C84.9186 4.61781 84.3516 4.89976 84.1759 5.42332C84.0001 5.94689 84.282 6.51382 84.8056 6.68959L85.4421 4.79358ZM88.6591 7.98327C89.1827 8.15904 89.7496 7.87709 89.9254 7.35352C90.1012 6.82996 89.8192 6.26303 89.2956 6.08726L88.6591 7.98327ZM93.1492 7.38095C92.6256 7.20518 92.0587 7.48712 91.8829 8.01069C91.7071 8.53426 91.9891 9.10118 92.5127 9.27695L93.1492 7.38095ZM96.3662 10.5706C96.8898 10.7464 97.4567 10.4645 97.6324 9.94089C97.8082 9.41732 97.5263 8.8504 97.0027 8.67463L96.3662 10.5706ZM100.856 9.96831C100.333 9.79254 99.7657 10.0745 99.59 10.5981C99.4142 11.1216 99.6961 11.6886 100.22 11.8643L100.856 9.96831ZM104.073 13.158C104.597 13.3338 105.164 13.0518 105.339 12.5283C105.515 12.0047 105.233 11.4378 104.71 11.262L104.073 13.158ZM108.563 12.5557C108.04 12.3799 107.473 12.6619 107.297 13.1854C107.121 13.709 107.403 14.2759 107.927 14.4517L108.563 12.5557ZM111.78 15.7454C112.304 15.9211 112.871 15.6392 113.047 15.1156C113.222 14.5921 112.94 14.0251 112.417 13.8494L111.78 15.7454ZM116.27 15.143C115.747 14.9673 115.18 15.2492 115.004 15.7728C114.828 16.2964 115.11 16.8633 115.634 17.0391L116.27 15.143ZM119.487 18.3327C120.011 18.5085 120.578 18.2266 120.754 17.703C120.929 17.1794 120.647 16.6125 120.124 16.4367L119.487 18.3327ZM123.977 17.7304C123.454 17.5546 122.887 17.8366 122.711 18.3602C122.535 18.8837 122.817 19.4507 123.341 19.6264L123.977 17.7304ZM127.194 20.9201C127.718 21.0959 128.285 20.8139 128.461 20.2904C128.636 19.7668 128.354 19.1999 127.831 19.0241L127.194 20.9201ZM131.684 20.3178C131.161 20.142 130.594 20.424 130.418 20.9475C130.242 21.4711 130.524 22.038 131.048 22.2138L131.684 20.3178ZM134.901 23.5075C135.425 23.6832 135.992 23.4013 136.168 22.8777C136.343 22.3542 136.062 21.7872 135.538 21.6115L134.901 23.5075ZM139.391 22.9052C138.868 22.7294 138.301 23.0113 138.125 23.5349C137.949 24.0585 138.231 24.6254 138.755 24.8012L139.391 22.9052ZM1.31826 25.448L3.24502 24.8012L2.6085 22.9052L0.681742 23.552L1.31826 25.448ZM7.09855 23.5075L10.9521 22.2138L10.3156 20.3178L6.46203 21.6115L7.09855 23.5075ZM14.8056 20.9201L18.6591 19.6264L18.0226 17.7304L14.1691 19.0241L14.8056 20.9201ZM22.5127 18.3327L26.3662 17.0391L25.7297 15.1431L21.8761 16.4367L22.5127 18.3327ZM30.2197 15.7454L34.0732 14.4517L33.4367 12.5557L29.5832 13.8494L30.2197 15.7454ZM37.9268 13.158L41.7803 11.8643L41.1438 9.96831L37.2902 11.262L37.9268 13.158ZM45.6338 10.5706L49.4873 9.27695L48.8508 7.38095L44.9973 8.67463L45.6338 10.5706ZM53.3409 7.98327L57.1944 6.68959L56.5579 4.79358L52.7043 6.08726L53.3409 7.98327ZM61.0479 5.3959L64.9014 4.10222L64.2649 2.20621L60.4114 3.4999L61.0479 5.3959ZM68.755 2.80853L70.6817 2.16169L70.0452 0.265684L68.1185 0.912525L68.755 2.80853ZM70.6817 2.16169C70.8883 2.09236 71.1117 2.09236 71.3183 2.16169L71.9548 0.265684C71.3352 0.0576998 70.6648 0.0576998 70.0452 0.265684L70.6817 2.16169ZM71.3183 2.16169L73.245 2.80853L73.8815 0.912526L71.9548 0.265684L71.3183 2.16169ZM77.0985 4.10222L80.9521 5.3959L81.5886 3.49989L77.7351 2.20621L77.0985 4.10222ZM84.8056 6.68959L88.6591 7.98327L89.2956 6.08726L85.4421 4.79358L84.8056 6.68959ZM92.5127 9.27695L96.3662 10.5706L97.0027 8.67463L93.1492 7.38095L92.5127 9.27695ZM100.22 11.8643L104.073 13.158L104.71 11.262L100.856 9.96831L100.22 11.8643ZM107.927 14.4517L111.78 15.7454L112.417 13.8494L108.563 12.5557L107.927 14.4517ZM115.634 17.0391L119.487 18.3327L120.124 16.4367L116.27 15.143L115.634 17.0391ZM123.341 19.6264L127.194 20.9201L127.831 19.0241L123.977 17.7304L123.341 19.6264ZM131.048 22.2138L134.901 23.5075L135.538 21.6115L131.684 20.3178L131.048 22.2138ZM138.755 24.8012L140.682 25.448L141.318 23.552L139.391 22.9052L138.755 24.8012Z" fill="#7271A4"/>
</svg>
