<svg viewBox="0 0 21 21" fill="none" xmlns="http://www.w3.org/2000/svg">
<mask id="mask0_241_286" style="mask-type:alpha" maskUnits="userSpaceOnUse" x="0" y="0" width="21" height="21">
<rect y="0.263184" width="20.2105" height="20.2105" fill="#D9D9D9"/>
</mask>
<g mask="url(#mask0_241_286)">
<path d="M6.73683 15.4209H13.4737V13.7367H6.73683V15.4209ZM6.73683 12.0525H13.4737V10.3683H6.73683V12.0525ZM5.05262 18.7894C4.58946 18.7894 4.19297 18.6245 3.86315 18.2946C3.53332 17.9648 3.36841 17.5683 3.36841 17.1052V3.63148C3.36841 3.16832 3.53332 2.77183 3.86315 2.442C4.19297 2.11218 4.58946 1.94727 5.05262 1.94727H11.7895L16.8421 6.9999V17.1052C16.8421 17.5683 16.6772 17.9648 16.3474 18.2946C16.0175 18.6245 15.621 18.7894 15.1579 18.7894H5.05262ZM10.9474 7.842V3.63148H5.05262V17.1052H15.1579V7.842H10.9474Z" fill="white"/>
</g>
</svg>
