<svg width="24" height="24" viewBox="0 0 24 24" fill="none" xmlns="http://www.w3.org/2000/svg">
<path fill-rule="evenodd" clip-rule="evenodd" d="M14.3993 14.3406C14.5377 14.3036 14.6726 14.249 14.8003 14.1765C15.6029 13.7212 15.921 12.6725 15.3899 11.8414L14.4791 10.4149C14.2697 10.0875 13.9948 9.81725 13.6798 9.61421C13.8187 9.35538 13.8991 9.05683 13.8991 8.72982C13.8991 7.61006 12.9566 6.82394 11.9492 6.82394C10.9419 6.82394 9.99484 7.61006 9.99484 8.72982C9.99484 9.05683 10.0752 9.35538 10.2141 9.61421C9.8991 9.81725 9.6242 10.0875 9.4148 10.4149L8.50401 11.8414C7.9729 12.6725 8.29107 13.7212 9.0936 14.1765C9.22136 14.249 9.35624 14.3036 9.49464 14.3406L9.42456 15.5177V15.5534C9.42456 16.5437 10.2546 17.2239 11.1245 17.2239C11.4126 17.2239 11.6963 17.1493 11.947 17.0135C12.1976 17.1493 12.4814 17.2239 12.7695 17.2239C13.6393 17.2239 14.4694 16.5437 14.4694 15.5534V15.5177L14.3993 14.3406ZM11.9493 9.43571C12.3633 9.43571 12.6992 9.11953 12.6992 8.72982C12.6992 8.34012 12.3633 8.02394 11.9493 8.02394C11.5353 8.02394 11.1994 8.34012 11.1994 8.72982C11.1994 9.11953 11.5353 9.43571 11.9493 9.43571ZM11.6197 15.5534L11.9497 13.671L12.2696 15.5534C12.2696 15.8136 12.493 16.0239 12.7695 16.0239C13.0461 16.0239 13.2695 15.8136 13.2695 15.5534L13.0741 12.2725L13.5225 12.9725C13.6647 13.1945 13.9724 13.2666 14.2083 13.1328C14.4442 12.9989 14.5208 12.7092 14.3786 12.4872L13.4678 11.0607C13.196 10.6357 12.7086 10.3754 12.1821 10.3754H11.7181C11.1916 10.3754 10.7042 10.6357 10.4324 11.0607L9.52158 12.4872C9.37942 12.7092 9.45597 12.9989 9.69186 13.1328C9.92776 13.2666 10.2355 13.1945 10.3777 12.9725L10.8245 12.2725L10.6199 15.5534C10.6199 15.8136 10.8433 16.0239 11.1198 16.0239C11.3963 16.0239 11.6197 15.8136 11.6197 15.5534Z" fill="#202124"/>
<path d="M14.6687 5.03312C12.8231 4.17755 10.6952 4.17754 8.84931 5.03313C7.00368 5.88873 5.62647 7.51338 5.08315 9.47668L5.08082 9.48509C4.97235 9.83696 4.60385 10.0386 4.24907 9.94036C3.89413 9.84206 3.68225 9.4793 3.76975 9.12209L3.7718 9.11371C4.25429 7.36335 5.29679 5.81984 6.73957 4.71976C8.18217 3.61968 9.94546 3.02394 11.7587 3.02394C13.572 3.02394 15.3355 3.61968 16.7783 4.71976C17.7783 5.4823 18.586 6.45794 19.1482 7.56785L19.7725 6.2395C19.9422 5.91755 20.3354 5.78574 20.6649 5.9415C20.9941 6.09734 21.1424 6.48462 21.0018 6.82038L20.9968 6.83217L19.7318 9.52436L19.7031 9.58562C19.6094 9.78415 19.4265 9.92373 19.2155 9.96434L19.2029 9.97534L19.0957 9.97601C19.0947 9.97602 19.0937 9.97603 19.0927 9.97603L19.0912 9.97604C18.9902 9.97668 18.8908 9.95466 18.8 9.9122L16.0379 8.61082C15.7158 8.44066 15.5851 8.04694 15.7401 7.7177C15.8956 7.3887 16.2825 7.2391 16.6189 7.38021L16.6306 7.38511L17.8011 7.93562C17.0946 6.67417 16.0043 5.6523 14.6687 5.03312Z" fill="#202124"/>
<path d="M9.33142 18.9669C11.177 19.8225 13.3049 19.8225 15.1508 18.9669C16.9964 18.1113 18.3736 16.4866 18.917 14.5233L18.9193 14.5149C19.0278 14.163 19.3963 13.9614 19.751 14.0596C20.106 14.1579 20.3179 14.5207 20.2304 14.8779L20.2283 14.8863C19.7458 16.6367 18.7033 18.1802 17.2605 19.2802C15.8179 20.3803 14.0546 20.9761 12.2414 20.9761C10.4281 20.9761 8.66463 20.3803 7.22176 19.2802C6.22179 18.5177 5.41409 17.5421 4.85189 16.4322L4.22765 17.7605C4.0579 18.0824 3.66467 18.2143 3.3352 18.0585C3.00596 17.9027 2.85771 17.5154 2.99831 17.1796L3.00326 17.1678L4.26831 14.4756L4.297 14.4144C4.39069 14.2159 4.57362 14.0763 4.78461 14.0357L4.79715 14.0247L4.90441 14.024C4.90541 14.024 4.90642 14.024 4.90743 14.024L4.90892 14.024C5.0099 14.0233 5.10929 14.0453 5.20009 14.0878L7.96219 15.3892C8.28428 15.5593 8.415 15.9531 8.25995 16.2823C8.10454 16.6113 7.71756 16.7609 7.38123 16.6198L7.36954 16.6149L6.19898 16.0644C6.90545 17.3258 7.99581 18.3477 9.33142 18.9669Z" fill="#202124"/>
</svg>
