<svg id="Layer_1" data-name="Layer 1" xmlns="http://www.w3.org/2000/svg" viewBox="0 0 24 24">
  <defs>
    <style>
      .cls-1 {
        fill: none;
        stroke: #231f20;
        stroke-linecap: round;
        stroke-linejoin: round;
        stroke-width: 1.5px;
      }
    </style>
  </defs>
  <g>
    <path class="cls-1" d="m15.57,16.2v3.45c0,.35.12.58.23.8s.46.35.8.35c.46,0,.69-.23.8-.46s.12-.35.12-.58v-3.57s0-.8-.92-.8-1.03.46-1.03.8h0Z"/>
    <circle class="cls-1" cx="16.6" cy="9.76" r="4.6"/>
    <line class="cls-1" x1="7.4" y1="16.08" x2="13.26" y2="16.08"/>
    <line class="cls-1" x1="7.4" y1="8.95" x2="11.77" y2="8.95"/>
    <path class="cls-1" d="m14.88,5.04H6.83c-.92,0-1.73.8-1.73,1.73v11.15c0,.92.8,1.73,1.73,1.73h8.05c.23,0,.46,0,.69-.12v-3.34h0c0-.35.12-.8,1.03-.8v-1.03"/>
    <line class="cls-1" x1="7.4" y1="12.52" x2="12.23" y2="12.52"/>
  </g>
  <path class="cls-1" d="m4.52,17.81c-.92,0-1.73-.8-1.73-1.73V4.93c0-.92.8-1.73,1.73-1.73h8.05c.35,0,.81,0,.92.23v1.73"/>
</svg>