<svg width="142" height="29" viewBox="0 0 142 29" fill="none" xmlns="http://www.w3.org/2000/svg">
<path d="M70.3635 27.2863L70.1248 27.9973L70.1248 27.9973L70.3635 27.2863ZM1.23869 3.289C0.846018 3.15717 0.420824 3.36863 0.288997 3.76131C0.15717 4.15398 0.36863 4.57918 0.761306 4.711L1.23869 3.289ZM71.6365 27.2863L71.8752 27.9973L71.8752 27.9973L71.6365 27.2863ZM141.672 4.33397C141.856 3.96309 141.705 3.51291 141.334 3.32846L135.29 0.322706C134.919 0.138258 134.469 0.289391 134.285 0.66027C134.1 1.03115 134.251 1.48133 134.622 1.66578L139.994 4.33756L137.323 9.70986C137.138 10.0807 137.289 10.5309 137.66 10.7154C138.031 10.8998 138.481 10.7487 138.666 10.3778L141.672 4.33397ZM70.6022 26.5753L1.23869 3.289L0.761306 4.711L70.1248 27.9973L70.6022 26.5753ZM71.8752 27.9973L141.239 4.711L140.761 3.289L71.3978 26.5753L71.8752 27.9973ZM70.1248 27.9973C70.6927 28.188 71.3073 28.188 71.8752 27.9973L71.3978 26.5753C71.1397 26.662 70.8603 26.662 70.6022 26.5753L70.1248 27.9973Z" fill="#606368"/>
</svg>
