<svg width="24" height="24" viewBox="0 0 24 24" fill="none" xmlns="http://www.w3.org/2000/svg">
<path fill-rule="evenodd" clip-rule="evenodd" d="M12.6316 12.2121V14.0303H12.7766C13.7068 14.0303 14.4608 14.7901 14.4608 15.7273V17.303C14.4608 18.2402 13.7068 19 12.7766 19H11.2234C10.2932 19 9.53918 18.2402 9.53918 17.303V15.7273C9.53918 14.7901 10.2932 14.0303 11.2234 14.0303H11.3684V12.2121H8.98713C7.97094 12.2121 7.1416 13.0182 7.09451 14.0303H7.23743C8.16759 14.0303 8.92164 14.7901 8.92164 15.7273V17.303C8.92164 18.2402 8.16759 19 7.23743 19H5.68421C4.75405 19 4 18.2402 4 17.303V15.7273C4 14.7901 4.75405 14.0303 5.68421 14.0303H5.8305C5.87826 12.3151 7.27325 10.9394 8.98713 10.9394H11.3684V9.9697H7.14386C6.2137 9.9697 5.45965 9.20994 5.45965 8.27273V6.69697C5.45965 5.75976 6.2137 5 7.14386 5H16.8561C17.7863 5 18.5404 5.75976 18.5404 6.69697V8.27273C18.5404 9.20994 17.7863 9.9697 16.8561 9.9697H12.6316V10.9394H15.0129C16.7268 10.9394 18.1217 12.3151 18.1695 14.0303H18.3158C19.246 14.0303 20 14.7901 20 15.7273V17.303C20 18.2402 19.246 19 18.3158 19H16.7626C15.8324 19 15.0784 18.2402 15.0784 17.303V15.7273C15.0784 14.7901 15.8324 14.0303 16.7626 14.0303H16.9055C16.8584 13.0182 16.0291 12.2121 15.0129 12.2121H12.6316ZM16.7626 15.303C16.53 15.303 16.3415 15.493 16.3415 15.7273V17.303C16.3415 17.5373 16.53 17.7273 16.7626 17.7273H18.3158C18.5483 17.7273 18.7368 17.5373 18.7368 17.303V15.7273C18.7368 15.493 18.5483 15.303 18.3158 15.303H16.7626ZM16.8561 8.69697C17.0887 8.69697 17.2772 8.50703 17.2772 8.27273V6.69697C17.2772 6.46267 17.0887 6.27273 16.8561 6.27273H7.14386C6.91132 6.27273 6.72281 6.46267 6.72281 6.69697V8.27273C6.72281 8.50703 6.91132 8.69697 7.14386 8.69697H16.8561ZM5.68421 15.303C5.45167 15.303 5.26316 15.493 5.26316 15.7273V17.303C5.26316 17.5373 5.45167 17.7273 5.68421 17.7273H7.23743C7.46997 17.7273 7.65848 17.5373 7.65848 17.303V15.7273C7.65848 15.493 7.46997 15.303 7.23743 15.303H5.68421ZM11.2234 15.303C10.9909 15.303 10.8023 15.493 10.8023 15.7273V17.303C10.8023 17.5373 10.9909 17.7273 11.2234 17.7273H12.7766C13.0091 17.7273 13.1977 17.5373 13.1977 17.303V15.7273C13.1977 15.493 13.0091 15.303 12.7766 15.303H11.2234Z" fill="#202124"/>
</svg>
