<svg width="24" height="24" viewBox="0 0 24 24" fill="none" xmlns="http://www.w3.org/2000/svg">
<path fill-rule="evenodd" clip-rule="evenodd" d="M21 12C21 16.9706 16.9706 21 12 21C7.02944 21 3 16.9706 3 12C3 7.02944 7.02944 3 12 3C16.9706 3 21 7.02944 21 12ZM12 19.5C16.1421 19.5 19.5 16.1421 19.5 12C19.5 7.85786 16.1421 4.5 12 4.5C7.85786 4.5 4.5 7.85786 4.5 12C4.5 16.1421 7.85786 19.5 12 19.5Z" fill="#202124"/>
<path fill-rule="evenodd" clip-rule="evenodd" d="M17.75 12C17.75 12.4142 17.4142 12.75 17 12.75H8.81066L11.5303 15.4697C11.8232 15.7626 11.8232 16.2374 11.5303 16.5303C11.2374 16.8232 10.7626 16.8232 10.4697 16.5303L6.46967 12.5303C6.17678 12.2374 6.17678 11.7626 6.46967 11.4697L10.4697 7.46967C10.7626 7.17678 11.2374 7.17678 11.5303 7.46967C11.8232 7.76256 11.8232 8.23744 11.5303 8.53033L8.81066 11.25H17C17.4142 11.25 17.75 11.5858 17.75 12Z" fill="#202124"/>
</svg>
