<svg width="308" height="198" viewBox="0 0 308 198" fill="none" xmlns="http://www.w3.org/2000/svg">
<path d="M2 82.75C0.89543 82.75 0 83.6454 0 84.75C0 85.8546 0.89543 86.75 2 86.75V82.75ZM35.4142 86.1642C36.1953 85.3832 36.1953 84.1168 35.4142 83.3358L22.6863 70.6079C21.9052 69.8268 20.6389 69.8268 19.8579 70.6079C19.0768 71.3889 19.0768 72.6552 19.8579 73.4363L31.1716 84.75L19.8579 96.0637C19.0768 96.8448 19.0768 98.1111 19.8579 98.8921C20.6389 99.6732 21.9052 99.6732 22.6863 98.8921L35.4142 86.1642ZM2 84.75V86.75H34V84.75V82.75H2V84.75Z" fill="#662E6B"/>
<g clip-path="url(#clip0_8809_212145)">
<mask id="mask0_8809_212145" style="mask-type:luminance" maskUnits="userSpaceOnUse" x="76" y="0" width="156" height="155">
<path d="M231.625 0H76.375V154.5H231.625V0Z" fill="white"/>
</mask>
<g mask="url(#mask0_8809_212145)">
<path d="M220.826 0H87.1743C81.21 0 76.375 4.81166 76.375 10.7471V143.753C76.375 149.688 81.21 154.5 87.1743 154.5H220.826C226.79 154.5 231.625 149.688 231.625 143.753V10.7471C231.625 4.81166 226.79 0 220.826 0Z" fill="#DCDCE6"/>
<path d="M87.1743 0H220.826C226.787 0 231.625 4.8141 231.625 10.7471V16.7127H76.375V10.7471C76.375 4.8141 81.2125 0 87.1743 0Z" fill="#9795B3"/>
<path d="M104.792 12.0938C106.702 12.0938 108.25 10.553 108.25 8.65236C108.25 6.75172 106.702 5.21094 104.792 5.21094C102.882 5.21094 101.334 6.75172 101.334 8.65236C101.334 10.553 102.882 12.0938 104.792 12.0938Z" fill="#524F81"/>
<path d="M95.398 12.0938C97.3079 12.0938 98.8562 10.553 98.8562 8.65236C98.8562 6.75172 97.3079 5.21094 95.398 5.21094C93.4882 5.21094 91.9399 6.75172 91.9399 8.65236C91.9399 10.553 93.4882 12.0938 95.398 12.0938Z" fill="#524F81"/>
<path d="M86.0109 12.0938C87.9207 12.0938 89.469 10.553 89.469 8.65236C89.469 6.75172 87.9207 5.21094 86.0109 5.21094C84.101 5.21094 82.5527 6.75172 82.5527 8.65236C82.5527 10.553 84.101 12.0938 86.0109 12.0938Z" fill="#524F81"/>
<path d="M175.053 42.75H135.946C131.645 42.75 128.125 46.3125 128.125 50.6667V114L155.5 102.125L182.875 114V50.6667C182.875 46.3125 179.355 42.75 175.053 42.75Z" fill="#9795B3"/>
<path d="M203.042 30.8935L197.125 34.0452L203.042 37.196L206.278 44.8395L209.513 37.196L215.43 34.0452L209.513 30.8935L206.278 23.25L203.042 30.8935Z" fill="white"/>
<path d="M95.9523 117.487L87.625 122.018L95.9523 126.547L100.507 137.535L105.06 126.547L113.387 122.018L105.06 117.487L100.507 106.5L95.9523 117.487Z" fill="white"/>
<path d="M190.447 61.5H115.303C111.615 61.5 108.625 64.3015 108.625 67.7573V82.2427C108.625 85.6987 111.615 88.5 115.303 88.5H190.447C194.135 88.5 197.125 85.6987 197.125 82.2427V67.7573C197.125 64.3015 194.135 61.5 190.447 61.5Z" fill="#524F81"/>
<path d="M115.207 78.7499V71.6591H119.902V72.8951H116.706V74.5847H119.59V75.8204H116.706V78.7499H115.207ZM122.332 78.8504C121.993 78.8504 121.69 78.7912 121.425 78.6734C121.16 78.5534 120.949 78.3772 120.795 78.1439C120.642 77.9084 120.566 77.6152 120.566 77.2649C120.566 76.9694 120.621 76.7212 120.729 76.5202C120.838 76.3192 120.985 76.1579 121.172 76.0357C121.359 75.9134 121.571 75.8204 121.809 75.7582C122.049 75.6959 122.301 75.6524 122.564 75.6269C122.873 75.5947 123.123 75.5647 123.312 75.5369C123.501 75.5069 123.639 75.4627 123.724 75.4049C123.809 75.3479 123.852 75.2624 123.852 75.1492V75.1282C123.852 74.909 123.783 74.7394 123.644 74.6193C123.508 74.4993 123.314 74.4393 123.063 74.4393C122.797 74.4393 122.586 74.4982 122.429 74.6159C122.272 74.7313 122.168 74.8767 122.117 75.0524L120.753 74.9414C120.822 74.6182 120.959 74.3389 121.162 74.1035C121.365 73.8657 121.627 73.6834 121.948 73.5564C122.271 73.4271 122.645 73.3625 123.07 73.3625C123.365 73.3625 123.648 73.3971 123.918 73.4664C124.19 73.5356 124.431 73.643 124.641 73.7884C124.854 73.9338 125.021 74.1208 125.144 74.3493C125.266 74.5755 125.327 74.8467 125.327 75.1627V78.7499H123.928V78.0127H123.887C123.801 78.1784 123.687 78.3254 123.544 78.4522C123.401 78.5767 123.229 78.6749 123.028 78.7462C122.827 78.8159 122.595 78.8504 122.332 78.8504ZM122.754 77.8327C122.971 77.8327 123.163 77.7899 123.329 77.7044C123.495 77.6167 123.626 77.4989 123.72 77.3512C123.815 77.2034 123.862 77.0362 123.862 76.8494V76.2847C123.816 76.3147 123.753 76.3424 123.672 76.3679C123.594 76.3912 123.505 76.4129 123.405 76.4339C123.306 76.4519 123.207 76.4692 123.108 76.4857C123.008 76.4992 122.918 76.5119 122.838 76.5239C122.664 76.5487 122.513 76.5892 122.384 76.6447C122.255 76.7002 122.154 76.7752 122.083 76.8697C122.011 76.9619 121.975 77.0774 121.975 77.2162C121.975 77.4172 122.048 77.5702 122.194 77.6767C122.341 77.7802 122.528 77.8327 122.754 77.8327ZM131.239 73.4318L129.38 78.7499H127.718L125.858 73.4318H127.417L128.521 77.2372H128.576L129.677 73.4318H131.239ZM134.225 78.8534C133.687 78.8534 133.222 78.7394 132.83 78.5107C132.44 78.2804 132.139 77.9594 131.926 77.5484C131.714 77.1352 131.608 76.6567 131.608 76.1114C131.608 75.5624 131.714 75.0824 131.926 74.6713C132.139 74.2581 132.44 73.9373 132.83 73.7087C133.222 73.4779 133.687 73.3625 134.225 73.3625C134.763 73.3625 135.227 73.4779 135.617 73.7087C136.01 73.9373 136.312 74.2581 136.524 74.6713C136.737 75.0824 136.843 75.5624 136.843 76.1114C136.843 76.6567 136.737 77.1352 136.524 77.5484C136.312 77.9594 136.01 78.2804 135.617 78.5107C135.227 78.7394 134.763 78.8534 134.225 78.8534ZM134.232 77.7112C134.477 77.7112 134.681 77.6422 134.845 77.5034C135.009 77.3624 135.132 77.1712 135.215 76.9289C135.301 76.6867 135.344 76.4107 135.344 76.1009C135.344 75.7919 135.301 75.5159 135.215 75.2737C135.132 75.0314 135.009 74.8398 134.845 74.699C134.681 74.5582 134.477 74.4878 134.232 74.4878C133.985 74.4878 133.778 74.5582 133.609 74.699C133.443 74.8398 133.317 75.0314 133.232 75.2737C133.148 75.5159 133.107 75.7919 133.107 76.1009C133.107 76.4107 133.148 76.6867 133.232 76.9289C133.317 77.1712 133.443 77.3624 133.609 77.5034C133.778 77.6422 133.985 77.7112 134.232 77.7112ZM137.802 78.7499V73.4318H139.232V74.3597H139.287C139.384 74.0296 139.547 73.7803 139.775 73.6118C140.004 73.441 140.267 73.3556 140.565 73.3556C140.639 73.3556 140.718 73.3602 140.804 73.3694C140.889 73.3787 140.964 73.3913 141.029 73.4075V74.7163C140.96 74.6955 140.864 74.6771 140.741 74.6609C140.619 74.6447 140.507 74.6366 140.406 74.6366C140.189 74.6366 139.995 74.684 139.824 74.7786C139.655 74.8709 139.522 74.9999 139.422 75.1664C139.325 75.3329 139.277 75.5242 139.277 75.7409V78.7499H137.802ZM141.791 78.7499V73.4318H143.266V78.7499H141.791ZM142.532 72.7462C142.313 72.7462 142.125 72.6735 141.968 72.5281C141.813 72.3803 141.736 72.2038 141.736 71.9984C141.736 71.7952 141.813 71.621 141.968 71.4755C142.125 71.3278 142.313 71.2539 142.532 71.2539C142.752 71.2539 142.939 71.3278 143.093 71.4755C143.25 71.621 143.329 71.7952 143.329 71.9984C143.329 72.2038 143.25 72.3803 143.093 72.5281C142.939 72.6735 142.752 72.7462 142.532 72.7462ZM147.277 73.4318V74.5397H144.074V73.4318H147.277ZM144.801 72.1576H146.276V77.1157C146.276 77.2522 146.297 77.3579 146.338 77.4344C146.38 77.5079 146.438 77.5597 146.511 77.5897C146.588 77.6197 146.675 77.6347 146.775 77.6347C146.844 77.6347 146.913 77.6294 146.982 77.6174C147.052 77.6039 147.105 77.5934 147.142 77.5867L147.374 78.6839C147.3 78.7072 147.196 78.7334 147.062 78.7634C146.928 78.7964 146.765 78.8159 146.574 78.8227C146.218 78.8362 145.907 78.7889 145.639 78.6809C145.373 78.5722 145.167 78.4034 145.019 78.1754C144.871 77.9467 144.799 77.6579 144.801 77.3099V72.1576ZM150.604 78.8534C150.057 78.8534 149.586 78.7432 149.191 78.5212C148.799 78.2977 148.497 77.9812 148.284 77.5724C148.072 77.1622 147.966 76.6762 147.966 76.1152C147.966 75.5677 148.072 75.0877 148.284 74.6747C148.497 74.2616 148.795 73.9396 149.181 73.7087C149.569 73.4779 150.023 73.3625 150.545 73.3625C150.896 73.3625 151.223 73.4191 151.525 73.5322C151.83 73.643 152.095 73.8103 152.322 74.0342C152.55 74.2581 152.727 74.5397 152.855 74.879C152.982 75.2159 153.045 75.6104 153.045 76.0634V76.4684H148.554V75.5542H151.656C151.656 75.3419 151.611 75.1537 151.518 74.9898C151.426 74.8259 151.298 74.6978 151.134 74.6055C150.972 74.5109 150.784 74.4635 150.569 74.4635C150.345 74.4635 150.147 74.5154 149.974 74.6193C149.803 74.7209 149.669 74.8583 149.572 75.0314C149.475 75.2024 149.426 75.3929 149.423 75.6029V76.4714C149.423 76.7347 149.472 76.9619 149.569 77.1539C149.668 77.3452 149.808 77.4929 149.988 77.5972C150.168 77.7007 150.381 77.7524 150.628 77.7524C150.792 77.7524 150.942 77.7299 151.078 77.6834C151.214 77.6377 151.331 77.5679 151.428 77.4757C151.525 77.3834 151.599 77.2702 151.65 77.1367L153.014 77.2267C152.945 77.5544 152.802 77.8402 152.588 78.0854C152.376 78.3277 152.101 78.5167 151.764 78.6532C151.429 78.7867 151.043 78.8534 150.604 78.8534ZM156.292 78.7499V71.6591H159.09C159.625 71.6591 160.082 71.7548 160.461 71.9464C160.842 72.1357 161.131 72.4046 161.33 72.7532C161.53 73.0994 161.631 73.5068 161.631 73.9754C161.631 74.4462 161.529 74.8513 161.326 75.1904C161.123 75.5279 160.829 75.7859 160.443 75.9659C160.06 76.1459 159.596 76.2359 159.051 76.2359H157.178V75.0314H158.809C159.095 75.0314 159.333 74.9921 159.522 74.9136C159.711 74.8352 159.852 74.7174 159.945 74.5605C160.039 74.4035 160.086 74.2085 160.086 73.9754C160.086 73.7399 160.039 73.5414 159.945 73.3798C159.852 73.2182 159.711 73.0959 159.519 73.0128C159.33 72.9274 159.09 72.8847 158.802 72.8847H157.791V78.7499H156.292ZM160.121 75.5227L161.883 78.7499H160.229L158.505 75.5227H160.121ZM165 78.8534C164.454 78.8534 163.983 78.7432 163.588 78.5212C163.195 78.2977 162.893 77.9812 162.681 77.5724C162.468 77.1622 162.362 76.6762 162.362 76.1152C162.362 75.5677 162.468 75.0877 162.681 74.6747C162.893 74.2616 163.192 73.9396 163.578 73.7087C163.965 73.4779 164.42 73.3625 164.942 73.3625C165.293 73.3625 165.619 73.4191 165.921 73.5322C166.226 73.643 166.491 73.8103 166.718 74.0342C166.947 74.2581 167.124 74.5397 167.251 74.879C167.378 75.2159 167.442 75.6104 167.442 76.0634V76.4684H162.951V75.5542H166.053C166.053 75.3419 166.007 75.1537 165.915 74.9898C165.822 74.8259 165.694 74.6978 165.531 74.6055C165.369 74.5109 165.18 74.4635 164.966 74.4635C164.742 74.4635 164.544 74.5154 164.37 74.6193C164.199 74.7209 164.066 74.8583 163.968 75.0314C163.872 75.2024 163.822 75.3929 163.82 75.6029V76.4714C163.82 76.7347 163.869 76.9619 163.965 77.1539C164.064 77.3452 164.204 77.4929 164.384 77.5972C164.565 77.7007 164.778 77.7524 165.025 77.7524C165.189 77.7524 165.339 77.7299 165.475 77.6834C165.611 77.6377 165.728 77.5679 165.825 77.4757C165.921 77.3834 165.996 77.2702 166.046 77.1367L167.41 77.2267C167.341 77.5544 167.199 77.8402 166.984 78.0854C166.772 78.3277 166.497 78.5167 166.161 78.6532C165.825 78.7867 165.439 78.8534 165 78.8534ZM172.829 74.9483L171.479 75.0314C171.456 74.9159 171.406 74.8121 171.33 74.7197C171.254 74.6251 171.153 74.5501 171.028 74.4947C170.906 74.437 170.76 74.4081 170.589 74.4081C170.36 74.4081 170.168 74.4566 170.01 74.5535C169.854 74.6482 169.775 74.7752 169.775 74.9344C169.775 75.0614 169.826 75.1687 169.927 75.2564C170.029 75.3442 170.203 75.4147 170.451 75.4679L171.413 75.6614C171.93 75.7679 172.315 75.9382 172.569 76.1737C172.823 76.4092 172.95 76.7189 172.95 77.1022C172.95 77.4502 172.848 77.7562 172.642 78.0194C172.439 78.2827 172.16 78.4882 171.804 78.6359C171.451 78.7814 171.043 78.8534 170.582 78.8534C169.878 78.8534 169.317 78.7072 168.899 78.4139C168.483 78.1184 168.24 77.7172 168.168 77.2094L169.62 77.1329C169.663 77.3474 169.77 77.5117 169.938 77.6249C170.106 77.7352 170.322 77.7907 170.586 77.7907C170.844 77.7907 171.051 77.7412 171.209 77.6422C171.368 77.5402 171.449 77.4097 171.451 77.2507C171.449 77.1172 171.392 77.0069 171.281 76.9214C171.171 76.8344 171 76.7669 170.769 76.7212L169.848 76.5374C169.329 76.4339 168.942 76.2539 168.688 75.9974C168.436 75.7409 168.311 75.4147 168.311 75.0172C168.311 74.6759 168.403 74.3816 168.588 74.1346C168.774 73.8876 169.036 73.6972 169.374 73.5633C169.713 73.4294 170.11 73.3625 170.565 73.3625C171.236 73.3625 171.765 73.5044 172.15 73.7884C172.538 74.0723 172.764 74.4589 172.829 74.9483ZM177.289 76.4857V73.4318H178.764V78.7499H177.348V77.7839H177.293C177.173 78.0952 176.973 78.3457 176.694 78.5354C176.417 78.7244 176.079 78.8189 175.68 78.8189C175.324 78.8189 175.011 78.7387 174.741 78.5767C174.471 78.4154 174.26 78.1859 174.108 77.8874C173.958 77.5897 173.881 77.2334 173.879 76.8179V73.4318H175.354V76.5547C175.356 76.8689 175.44 77.1172 175.607 77.2994C175.773 77.4817 175.995 77.5724 176.275 77.5724C176.453 77.5724 176.619 77.5327 176.773 77.4517C176.928 77.3684 177.053 77.2462 177.147 77.0842C177.244 76.9229 177.291 76.7234 177.289 76.4857ZM181.419 71.6591V78.7499H179.944V71.6591H181.419ZM185.43 73.4318V74.5397H182.226V73.4318H185.43ZM182.954 72.1576H184.428V77.1157C184.428 77.2522 184.449 77.3579 184.491 77.4344C184.533 77.5079 184.59 77.5597 184.664 77.5897C184.74 77.6197 184.828 77.6347 184.927 77.6347C184.997 77.6347 185.066 77.6294 185.135 77.6174C185.204 77.6039 185.257 77.5934 185.295 77.5867L185.526 78.6839C185.452 78.7072 185.349 78.7334 185.214 78.7634C185.081 78.7964 184.918 78.8159 184.726 78.8227C184.371 78.8362 184.059 78.7889 183.792 78.6809C183.526 78.5722 183.32 78.4034 183.172 78.1754C183.024 77.9467 182.952 77.6579 182.954 77.3099V72.1576ZM190.749 74.9483L189.398 75.0314C189.375 74.9159 189.325 74.8121 189.249 74.7197C189.173 74.6251 189.072 74.5501 188.948 74.4947C188.826 74.437 188.679 74.4081 188.508 74.4081C188.28 74.4081 188.087 74.4566 187.93 74.5535C187.773 74.6482 187.695 74.7752 187.695 74.9344C187.695 75.0614 187.746 75.1687 187.847 75.2564C187.948 75.3442 188.123 75.4147 188.37 75.4679L189.332 75.6614C189.849 75.7679 190.235 75.9382 190.488 76.1737C190.743 76.4092 190.869 76.7189 190.869 77.1022C190.869 77.4502 190.767 77.7562 190.561 78.0194C190.358 78.2827 190.079 78.4882 189.723 78.6359C189.37 78.7814 188.963 78.8534 188.502 78.8534C187.797 78.8534 187.236 78.7072 186.819 78.4139C186.403 78.1184 186.159 77.7172 186.088 77.2094L187.539 77.1329C187.583 77.3474 187.689 77.5117 187.857 77.6249C188.026 77.7352 188.241 77.7907 188.505 77.7907C188.763 77.7907 188.971 77.7412 189.128 77.6422C189.287 77.5402 189.368 77.4097 189.37 77.2507C189.368 77.1172 189.312 77.0069 189.201 76.9214C189.09 76.8344 188.919 76.7669 188.688 76.7212L187.767 76.5374C187.248 76.4339 186.861 76.2539 186.607 75.9974C186.356 75.7409 186.23 75.4147 186.23 75.0172C186.23 74.6759 186.322 74.3816 186.507 74.1346C186.694 73.8876 186.956 73.6972 187.293 73.5633C187.632 73.4294 188.029 73.3625 188.484 73.3625C189.156 73.3625 189.684 73.5044 190.07 73.7884C190.458 74.0723 190.683 74.4589 190.749 74.9483Z" fill="white"/>
</g>
<path d="M208.928 149.753C206.095 153.731 203.43 157.487 200.578 161.495C197.618 146.368 194.707 131.513 191.875 117C204.518 125.463 217.385 134.072 230.155 142.622C225.833 143.459 221.148 144.364 216.131 145.327C221.394 151.756 226.441 157.934 231.625 164.276C229.449 166.028 227.323 167.729 225.128 169.5C219.738 162.924 214.445 156.465 208.947 149.753H208.928Z" fill="#524F81"/>
</g>
<path d="M274 82.75C272.895 82.75 272 83.6454 272 84.75C272 85.8546 272.895 86.75 274 86.75V82.75ZM307.414 86.1642C308.195 85.3832 308.195 84.1168 307.414 83.3358L294.686 70.6079C293.905 69.8268 292.639 69.8268 291.858 70.6079C291.077 71.3889 291.077 72.6552 291.858 73.4363L303.172 84.75L291.858 96.0637C291.077 96.8448 291.077 98.1111 291.858 98.8921C292.639 99.6732 293.905 99.6732 294.686 98.8921L307.414 86.1642ZM274 84.75V86.75H306V84.75V82.75H274V84.75Z" fill="#662E6B"/>
<path d="M28.7344 187.68C28.7344 188.966 28.5 190.042 28.0312 190.906C27.5625 191.766 26.8828 192.414 25.9922 192.852C25.1068 193.284 24.0312 193.5 22.7656 193.5H19.6641V182.078H23.1094C24.2708 182.078 25.2708 182.292 26.1094 182.719C26.9479 183.141 27.5938 183.768 28.0469 184.602C28.5052 185.43 28.7344 186.456 28.7344 187.68ZM27.3359 187.727C27.3359 186.701 27.1641 185.854 26.8203 185.188C26.4818 184.521 25.9818 184.026 25.3203 183.703C24.6641 183.375 23.8594 183.211 22.9062 183.211H20.9922V192.359H22.6094C24.1823 192.359 25.362 191.971 26.1484 191.195C26.9401 190.419 27.3359 189.263 27.3359 187.727ZM32.375 184.938V193.5H31.0781V184.938H32.375ZM31.7422 181.734C31.9557 181.734 32.138 181.805 32.2891 181.945C32.4453 182.081 32.5234 182.294 32.5234 182.586C32.5234 182.872 32.4453 183.086 32.2891 183.227C32.138 183.367 31.9557 183.438 31.7422 183.438C31.5182 183.438 31.3307 183.367 31.1797 183.227C31.0339 183.086 30.9609 182.872 30.9609 182.586C30.9609 182.294 31.0339 182.081 31.1797 181.945C31.3307 181.805 31.5182 181.734 31.7422 181.734ZM40.6641 191.156C40.6641 191.703 40.526 192.164 40.25 192.539C39.9792 192.909 39.5885 193.188 39.0781 193.375C38.5729 193.562 37.9688 193.656 37.2656 193.656C36.6667 193.656 36.1484 193.609 35.7109 193.516C35.2734 193.422 34.8906 193.289 34.5625 193.117V191.922C34.9115 192.094 35.3281 192.25 35.8125 192.391C36.2969 192.531 36.7917 192.602 37.2969 192.602C38.0365 192.602 38.5729 192.482 38.9062 192.242C39.2396 192.003 39.4062 191.677 39.4062 191.266C39.4062 191.031 39.3385 190.826 39.2031 190.648C39.0729 190.466 38.8516 190.292 38.5391 190.125C38.2266 189.953 37.7943 189.766 37.2422 189.562C36.6953 189.354 36.2214 189.148 35.8203 188.945C35.4245 188.737 35.1172 188.484 34.8984 188.188C34.6849 187.891 34.5781 187.505 34.5781 187.031C34.5781 186.307 34.8698 185.753 35.4531 185.367C36.0417 184.977 36.8125 184.781 37.7656 184.781C38.2812 184.781 38.763 184.833 39.2109 184.938C39.6641 185.036 40.0859 185.172 40.4766 185.344L40.0391 186.383C39.6849 186.232 39.3073 186.104 38.9062 186C38.5052 185.896 38.0964 185.844 37.6797 185.844C37.0807 185.844 36.6198 185.943 36.2969 186.141C35.9792 186.339 35.8203 186.609 35.8203 186.953C35.8203 187.219 35.8932 187.438 36.0391 187.609C36.1901 187.781 36.4297 187.943 36.7578 188.094C37.0859 188.245 37.5182 188.422 38.0547 188.625C38.5911 188.823 39.0547 189.029 39.4453 189.242C39.8359 189.451 40.1354 189.706 40.3438 190.008C40.5573 190.305 40.6641 190.688 40.6641 191.156ZM46.1797 193.656C45.4089 193.656 44.7292 193.497 44.1406 193.18C43.5521 192.862 43.0938 192.378 42.7656 191.727C42.4375 191.076 42.2734 190.255 42.2734 189.266C42.2734 188.229 42.4453 187.383 42.7891 186.727C43.138 186.065 43.6172 185.576 44.2266 185.258C44.8359 184.94 45.5286 184.781 46.3047 184.781C46.7318 184.781 47.1432 184.826 47.5391 184.914C47.9401 184.997 48.2682 185.104 48.5234 185.234L48.1328 186.32C47.8724 186.216 47.5703 186.122 47.2266 186.039C46.888 185.956 46.5703 185.914 46.2734 185.914C45.6797 185.914 45.1849 186.042 44.7891 186.297C44.3984 186.552 44.1042 186.927 43.9062 187.422C43.7135 187.917 43.6172 188.526 43.6172 189.25C43.6172 189.943 43.7109 190.534 43.8984 191.023C44.0911 191.513 44.375 191.888 44.75 192.148C45.1302 192.404 45.6042 192.531 46.1719 192.531C46.625 192.531 47.0339 192.484 47.3984 192.391C47.763 192.292 48.0938 192.177 48.3906 192.047V193.203C48.1042 193.349 47.7839 193.461 47.4297 193.539C47.0807 193.617 46.6641 193.656 46.1797 193.656ZM57.8047 189.203C57.8047 189.906 57.7135 190.534 57.5312 191.086C57.349 191.638 57.0859 192.104 56.7422 192.484C56.3984 192.865 55.9818 193.156 55.4922 193.359C55.0078 193.557 54.4583 193.656 53.8438 193.656C53.2708 193.656 52.7448 193.557 52.2656 193.359C51.7917 193.156 51.3802 192.865 51.0312 192.484C50.6875 192.104 50.4193 191.638 50.2266 191.086C50.0391 190.534 49.9453 189.906 49.9453 189.203C49.9453 188.266 50.1042 187.469 50.4219 186.812C50.7396 186.151 51.1927 185.648 51.7812 185.305C52.375 184.956 53.0807 184.781 53.8984 184.781C54.6797 184.781 55.362 184.956 55.9453 185.305C56.5339 185.654 56.9896 186.159 57.3125 186.82C57.6406 187.477 57.8047 188.271 57.8047 189.203ZM51.2891 189.203C51.2891 189.891 51.3802 190.487 51.5625 190.992C51.7448 191.497 52.026 191.888 52.4062 192.164C52.7865 192.44 53.276 192.578 53.875 192.578C54.4688 192.578 54.9557 192.44 55.3359 192.164C55.7214 191.888 56.0052 191.497 56.1875 190.992C56.3698 190.487 56.4609 189.891 56.4609 189.203C56.4609 188.521 56.3698 187.932 56.1875 187.438C56.0052 186.938 55.724 186.552 55.3438 186.281C54.9635 186.01 54.4714 185.875 53.8672 185.875C52.9766 185.875 52.3229 186.169 51.9062 186.758C51.4948 187.346 51.2891 188.161 51.2891 189.203ZM61.9297 193.5L58.6797 184.938H60.0703L61.9531 190.117C62.0833 190.471 62.2161 190.862 62.3516 191.289C62.487 191.716 62.5807 192.06 62.6328 192.32H62.6875C62.75 192.06 62.8542 191.716 63 191.289C63.1458 190.857 63.2786 190.466 63.3984 190.117L65.2812 184.938H66.6719L63.4141 193.5H61.9297ZM71.3438 184.781C72.0729 184.781 72.6979 184.943 73.2188 185.266C73.7396 185.589 74.138 186.042 74.4141 186.625C74.6901 187.203 74.8281 187.88 74.8281 188.656V189.461H68.9141C68.9297 190.466 69.1797 191.232 69.6641 191.758C70.1484 192.284 70.8307 192.547 71.7109 192.547C72.2526 192.547 72.7318 192.497 73.1484 192.398C73.5651 192.299 73.9974 192.154 74.4453 191.961V193.102C74.013 193.294 73.5833 193.435 73.1562 193.523C72.7344 193.612 72.2344 193.656 71.6562 193.656C70.8333 193.656 70.1146 193.49 69.5 193.156C68.8906 192.818 68.4167 192.323 68.0781 191.672C67.7396 191.021 67.5703 190.224 67.5703 189.281C67.5703 188.359 67.724 187.562 68.0312 186.891C68.3438 186.214 68.7812 185.693 69.3438 185.328C69.9115 184.964 70.5781 184.781 71.3438 184.781ZM71.3281 185.844C70.6354 185.844 70.0833 186.07 69.6719 186.523C69.2604 186.977 69.0156 187.609 68.9375 188.422H73.4688C73.4635 187.911 73.3828 187.464 73.2266 187.078C73.0755 186.688 72.8438 186.385 72.5312 186.172C72.2188 185.953 71.8177 185.844 71.3281 185.844ZM80.9219 184.781C81.0938 184.781 81.2734 184.792 81.4609 184.812C81.6484 184.828 81.8151 184.852 81.9609 184.883L81.7969 186.086C81.6562 186.049 81.5 186.021 81.3281 186C81.1562 185.979 80.9948 185.969 80.8438 185.969C80.5 185.969 80.1745 186.039 79.8672 186.18C79.5651 186.315 79.2995 186.513 79.0703 186.773C78.8411 187.029 78.6615 187.339 78.5312 187.703C78.401 188.062 78.3359 188.464 78.3359 188.906V193.5H77.0312V184.938H78.1094L78.25 186.516H78.3047C78.4818 186.198 78.6953 185.909 78.9453 185.648C79.1953 185.383 79.4844 185.172 79.8125 185.016C80.1458 184.859 80.5156 184.781 80.9219 184.781ZM91.625 184.781C91.7969 184.781 91.9766 184.792 92.1641 184.812C92.3516 184.828 92.5182 184.852 92.6641 184.883L92.5 186.086C92.3594 186.049 92.2031 186.021 92.0312 186C91.8594 185.979 91.6979 185.969 91.5469 185.969C91.2031 185.969 90.8776 186.039 90.5703 186.18C90.2682 186.315 90.0026 186.513 89.7734 186.773C89.5443 187.029 89.3646 187.339 89.2344 187.703C89.1042 188.062 89.0391 188.464 89.0391 188.906V193.5H87.7344V184.938H88.8125L88.9531 186.516H89.0078C89.1849 186.198 89.3984 185.909 89.6484 185.648C89.8984 185.383 90.1875 185.172 90.5156 185.016C90.849 184.859 91.2188 184.781 91.625 184.781ZM97.5781 184.781C98.3073 184.781 98.9323 184.943 99.4531 185.266C99.974 185.589 100.372 186.042 100.648 186.625C100.924 187.203 101.062 187.88 101.062 188.656V189.461H95.1484C95.1641 190.466 95.4141 191.232 95.8984 191.758C96.3828 192.284 97.0651 192.547 97.9453 192.547C98.487 192.547 98.9661 192.497 99.3828 192.398C99.7995 192.299 100.232 192.154 100.68 191.961V193.102C100.247 193.294 99.8177 193.435 99.3906 193.523C98.9688 193.612 98.4688 193.656 97.8906 193.656C97.0677 193.656 96.349 193.49 95.7344 193.156C95.125 192.818 94.651 192.323 94.3125 191.672C93.974 191.021 93.8047 190.224 93.8047 189.281C93.8047 188.359 93.9583 187.562 94.2656 186.891C94.5781 186.214 95.0156 185.693 95.5781 185.328C96.1458 184.964 96.8125 184.781 97.5781 184.781ZM97.5625 185.844C96.8698 185.844 96.3177 186.07 95.9062 186.523C95.4948 186.977 95.25 187.609 95.1719 188.422H99.7031C99.6979 187.911 99.6172 187.464 99.4609 187.078C99.3099 186.688 99.0781 186.385 98.7656 186.172C98.4531 185.953 98.0521 185.844 97.5625 185.844ZM108.805 191.156C108.805 191.703 108.667 192.164 108.391 192.539C108.12 192.909 107.729 193.188 107.219 193.375C106.714 193.562 106.109 193.656 105.406 193.656C104.807 193.656 104.289 193.609 103.852 193.516C103.414 193.422 103.031 193.289 102.703 193.117V191.922C103.052 192.094 103.469 192.25 103.953 192.391C104.438 192.531 104.932 192.602 105.438 192.602C106.177 192.602 106.714 192.482 107.047 192.242C107.38 192.003 107.547 191.677 107.547 191.266C107.547 191.031 107.479 190.826 107.344 190.648C107.214 190.466 106.992 190.292 106.68 190.125C106.367 189.953 105.935 189.766 105.383 189.562C104.836 189.354 104.362 189.148 103.961 188.945C103.565 188.737 103.258 188.484 103.039 188.188C102.826 187.891 102.719 187.505 102.719 187.031C102.719 186.307 103.01 185.753 103.594 185.367C104.182 184.977 104.953 184.781 105.906 184.781C106.422 184.781 106.904 184.833 107.352 184.938C107.805 185.036 108.227 185.172 108.617 185.344L108.18 186.383C107.826 186.232 107.448 186.104 107.047 186C106.646 185.896 106.237 185.844 105.82 185.844C105.221 185.844 104.76 185.943 104.438 186.141C104.12 186.339 103.961 186.609 103.961 186.953C103.961 187.219 104.034 187.438 104.18 187.609C104.331 187.781 104.57 187.943 104.898 188.094C105.227 188.245 105.659 188.422 106.195 188.625C106.732 188.823 107.195 189.029 107.586 189.242C107.977 189.451 108.276 189.706 108.484 190.008C108.698 190.305 108.805 190.688 108.805 191.156ZM117.961 184.938V193.5H116.898L116.711 192.297H116.641C116.464 192.594 116.234 192.844 115.953 193.047C115.672 193.25 115.354 193.401 115 193.5C114.651 193.604 114.279 193.656 113.883 193.656C113.206 193.656 112.638 193.547 112.18 193.328C111.721 193.109 111.375 192.771 111.141 192.312C110.911 191.854 110.797 191.266 110.797 190.547V184.938H112.109V190.453C112.109 191.167 112.271 191.701 112.594 192.055C112.917 192.404 113.409 192.578 114.07 192.578C114.706 192.578 115.211 192.458 115.586 192.219C115.966 191.979 116.24 191.628 116.406 191.164C116.573 190.695 116.656 190.122 116.656 189.445V184.938H117.961ZM122.008 193.5H120.703V181.344H122.008V193.5ZM127.516 192.594C127.729 192.594 127.948 192.576 128.172 192.539C128.396 192.503 128.578 192.458 128.719 192.406V193.414C128.568 193.482 128.357 193.539 128.086 193.586C127.82 193.633 127.56 193.656 127.305 193.656C126.852 193.656 126.44 193.578 126.07 193.422C125.701 193.26 125.404 192.99 125.18 192.609C124.961 192.229 124.852 191.703 124.852 191.031V185.953H123.633V185.32L124.859 184.812L125.375 182.953H126.156V184.938H128.664V185.953H126.156V190.992C126.156 191.529 126.279 191.93 126.523 192.195C126.773 192.461 127.104 192.594 127.516 192.594ZM135.992 191.156C135.992 191.703 135.854 192.164 135.578 192.539C135.307 192.909 134.917 193.188 134.406 193.375C133.901 193.562 133.297 193.656 132.594 193.656C131.995 193.656 131.477 193.609 131.039 193.516C130.602 193.422 130.219 193.289 129.891 193.117V191.922C130.24 192.094 130.656 192.25 131.141 192.391C131.625 192.531 132.12 192.602 132.625 192.602C133.365 192.602 133.901 192.482 134.234 192.242C134.568 192.003 134.734 191.677 134.734 191.266C134.734 191.031 134.667 190.826 134.531 190.648C134.401 190.466 134.18 190.292 133.867 190.125C133.555 189.953 133.122 189.766 132.57 189.562C132.023 189.354 131.549 189.148 131.148 188.945C130.753 188.737 130.445 188.484 130.227 188.188C130.013 187.891 129.906 187.505 129.906 187.031C129.906 186.307 130.198 185.753 130.781 185.367C131.37 184.977 132.141 184.781 133.094 184.781C133.609 184.781 134.091 184.833 134.539 184.938C134.992 185.036 135.414 185.172 135.805 185.344L135.367 186.383C135.013 186.232 134.635 186.104 134.234 186C133.833 185.896 133.424 185.844 133.008 185.844C132.409 185.844 131.948 185.943 131.625 186.141C131.307 186.339 131.148 186.609 131.148 186.953C131.148 187.219 131.221 187.438 131.367 187.609C131.518 187.781 131.758 187.943 132.086 188.094C132.414 188.245 132.846 188.422 133.383 188.625C133.919 188.823 134.383 189.029 134.773 189.242C135.164 189.451 135.464 189.706 135.672 190.008C135.885 190.305 135.992 190.688 135.992 191.156ZM145.438 184.797C146.458 184.797 147.216 185.026 147.711 185.484C148.206 185.943 148.453 186.674 148.453 187.68V193.5H147.508L147.258 192.234H147.195C146.956 192.547 146.706 192.81 146.445 193.023C146.185 193.232 145.883 193.391 145.539 193.5C145.201 193.604 144.784 193.656 144.289 193.656C143.768 193.656 143.305 193.565 142.898 193.383C142.497 193.201 142.18 192.924 141.945 192.555C141.716 192.185 141.602 191.716 141.602 191.148C141.602 190.294 141.94 189.638 142.617 189.18C143.294 188.721 144.326 188.471 145.711 188.43L147.188 188.367V187.844C147.188 187.104 147.029 186.586 146.711 186.289C146.393 185.992 145.945 185.844 145.367 185.844C144.919 185.844 144.492 185.909 144.086 186.039C143.68 186.169 143.294 186.323 142.93 186.5L142.531 185.516C142.917 185.318 143.359 185.148 143.859 185.008C144.359 184.867 144.885 184.797 145.438 184.797ZM147.172 189.281L145.867 189.336C144.799 189.378 144.047 189.552 143.609 189.859C143.172 190.167 142.953 190.602 142.953 191.164C142.953 191.654 143.102 192.016 143.398 192.25C143.695 192.484 144.089 192.602 144.578 192.602C145.339 192.602 145.961 192.391 146.445 191.969C146.93 191.547 147.172 190.914 147.172 190.07V189.281ZM155.18 184.781C156.195 184.781 156.964 185.031 157.484 185.531C158.005 186.026 158.266 186.823 158.266 187.922V193.5H156.984V188.008C156.984 187.294 156.82 186.76 156.492 186.406C156.169 186.052 155.672 185.875 155 185.875C154.052 185.875 153.385 186.143 153 186.68C152.615 187.216 152.422 187.995 152.422 189.016V193.5H151.125V184.938H152.172L152.367 186.172H152.438C152.62 185.87 152.852 185.617 153.133 185.414C153.414 185.206 153.729 185.049 154.078 184.945C154.427 184.836 154.794 184.781 155.18 184.781ZM163.984 193.656C162.901 193.656 162.042 193.286 161.406 192.547C160.776 191.807 160.461 190.708 160.461 189.25C160.461 187.776 160.784 186.664 161.43 185.914C162.076 185.159 162.935 184.781 164.008 184.781C164.461 184.781 164.857 184.841 165.195 184.961C165.534 185.081 165.826 185.242 166.07 185.445C166.315 185.643 166.521 185.87 166.688 186.125H166.781C166.76 185.964 166.74 185.742 166.719 185.461C166.698 185.18 166.688 184.951 166.688 184.773V181.344H167.984V193.5H166.938L166.742 192.281H166.688C166.526 192.536 166.32 192.768 166.07 192.977C165.826 193.185 165.531 193.352 165.188 193.477C164.849 193.596 164.448 193.656 163.984 193.656ZM164.188 192.578C165.104 192.578 165.753 192.318 166.133 191.797C166.513 191.276 166.703 190.503 166.703 189.477V189.242C166.703 188.154 166.521 187.318 166.156 186.734C165.797 186.151 165.141 185.859 164.188 185.859C163.391 185.859 162.794 186.167 162.398 186.781C162.003 187.391 161.805 188.224 161.805 189.281C161.805 190.333 162 191.146 162.391 191.719C162.786 192.292 163.385 192.578 164.188 192.578ZM178.094 184.797C179.115 184.797 179.872 185.026 180.367 185.484C180.862 185.943 181.109 186.674 181.109 187.68V193.5H180.164L179.914 192.234H179.852C179.612 192.547 179.362 192.81 179.102 193.023C178.841 193.232 178.539 193.391 178.195 193.5C177.857 193.604 177.44 193.656 176.945 193.656C176.424 193.656 175.961 193.565 175.555 193.383C175.154 193.201 174.836 192.924 174.602 192.555C174.372 192.185 174.258 191.716 174.258 191.148C174.258 190.294 174.596 189.638 175.273 189.18C175.951 188.721 176.982 188.471 178.367 188.43L179.844 188.367V187.844C179.844 187.104 179.685 186.586 179.367 186.289C179.049 185.992 178.602 185.844 178.023 185.844C177.576 185.844 177.148 185.909 176.742 186.039C176.336 186.169 175.951 186.323 175.586 186.5L175.188 185.516C175.573 185.318 176.016 185.148 176.516 185.008C177.016 184.867 177.542 184.797 178.094 184.797ZM179.828 189.281L178.523 189.336C177.456 189.378 176.703 189.552 176.266 189.859C175.828 190.167 175.609 190.602 175.609 191.164C175.609 191.654 175.758 192.016 176.055 192.25C176.352 192.484 176.745 192.602 177.234 192.602C177.995 192.602 178.617 192.391 179.102 191.969C179.586 191.547 179.828 190.914 179.828 190.07V189.281ZM186.828 193.656C185.745 193.656 184.885 193.286 184.25 192.547C183.62 191.807 183.305 190.708 183.305 189.25C183.305 187.776 183.628 186.664 184.273 185.914C184.919 185.159 185.779 184.781 186.852 184.781C187.305 184.781 187.701 184.841 188.039 184.961C188.378 185.081 188.669 185.242 188.914 185.445C189.159 185.643 189.365 185.87 189.531 186.125H189.625C189.604 185.964 189.583 185.742 189.562 185.461C189.542 185.18 189.531 184.951 189.531 184.773V181.344H190.828V193.5H189.781L189.586 192.281H189.531C189.37 192.536 189.164 192.768 188.914 192.977C188.669 193.185 188.375 193.352 188.031 193.477C187.693 193.596 187.292 193.656 186.828 193.656ZM187.031 192.578C187.948 192.578 188.596 192.318 188.977 191.797C189.357 191.276 189.547 190.503 189.547 189.477V189.242C189.547 188.154 189.365 187.318 189 186.734C188.641 186.151 187.984 185.859 187.031 185.859C186.234 185.859 185.638 186.167 185.242 186.781C184.846 187.391 184.648 188.224 184.648 189.281C184.648 190.333 184.844 191.146 185.234 191.719C185.63 192.292 186.229 192.578 187.031 192.578ZM196.625 193.656C195.542 193.656 194.682 193.286 194.047 192.547C193.417 191.807 193.102 190.708 193.102 189.25C193.102 187.776 193.424 186.664 194.07 185.914C194.716 185.159 195.576 184.781 196.648 184.781C197.102 184.781 197.497 184.841 197.836 184.961C198.174 185.081 198.466 185.242 198.711 185.445C198.956 185.643 199.161 185.87 199.328 186.125H199.422C199.401 185.964 199.38 185.742 199.359 185.461C199.339 185.18 199.328 184.951 199.328 184.773V181.344H200.625V193.5H199.578L199.383 192.281H199.328C199.167 192.536 198.961 192.768 198.711 192.977C198.466 193.185 198.172 193.352 197.828 193.477C197.49 193.596 197.089 193.656 196.625 193.656ZM196.828 192.578C197.745 192.578 198.393 192.318 198.773 191.797C199.154 191.276 199.344 190.503 199.344 189.477V189.242C199.344 188.154 199.161 187.318 198.797 186.734C198.438 186.151 197.781 185.859 196.828 185.859C196.031 185.859 195.435 186.167 195.039 186.781C194.643 187.391 194.445 188.224 194.445 189.281C194.445 190.333 194.641 191.146 195.031 191.719C195.427 192.292 196.026 192.578 196.828 192.578ZM208.828 181.344V184.383C208.828 184.732 208.818 185.07 208.797 185.398C208.781 185.727 208.768 185.982 208.758 186.164H208.828C209.062 185.779 209.401 185.453 209.844 185.188C210.286 184.922 210.852 184.789 211.539 184.789C212.612 184.789 213.466 185.161 214.102 185.906C214.742 186.646 215.062 187.747 215.062 189.211C215.062 190.174 214.917 190.987 214.625 191.648C214.333 192.31 213.922 192.81 213.391 193.148C212.859 193.487 212.232 193.656 211.508 193.656C210.831 193.656 210.273 193.531 209.836 193.281C209.404 193.026 209.07 192.716 208.836 192.352H208.734L208.469 193.5H207.531V181.344H208.828ZM211.328 185.875C210.708 185.875 210.216 185.997 209.852 186.242C209.487 186.482 209.224 186.846 209.062 187.336C208.906 187.82 208.828 188.435 208.828 189.18V189.25C208.828 190.328 209.008 191.154 209.367 191.727C209.727 192.294 210.38 192.578 211.328 192.578C212.125 192.578 212.721 192.286 213.117 191.703C213.518 191.12 213.719 190.286 213.719 189.203C213.719 188.099 213.521 187.268 213.125 186.711C212.734 186.154 212.135 185.875 211.328 185.875ZM224.711 189.203C224.711 189.906 224.62 190.534 224.438 191.086C224.255 191.638 223.992 192.104 223.648 192.484C223.305 192.865 222.888 193.156 222.398 193.359C221.914 193.557 221.365 193.656 220.75 193.656C220.177 193.656 219.651 193.557 219.172 193.359C218.698 193.156 218.286 192.865 217.938 192.484C217.594 192.104 217.326 191.638 217.133 191.086C216.945 190.534 216.852 189.906 216.852 189.203C216.852 188.266 217.01 187.469 217.328 186.812C217.646 186.151 218.099 185.648 218.688 185.305C219.281 184.956 219.987 184.781 220.805 184.781C221.586 184.781 222.268 184.956 222.852 185.305C223.44 185.654 223.896 186.159 224.219 186.82C224.547 187.477 224.711 188.271 224.711 189.203ZM218.195 189.203C218.195 189.891 218.286 190.487 218.469 190.992C218.651 191.497 218.932 191.888 219.312 192.164C219.693 192.44 220.182 192.578 220.781 192.578C221.375 192.578 221.862 192.44 222.242 192.164C222.628 191.888 222.911 191.497 223.094 190.992C223.276 190.487 223.367 189.891 223.367 189.203C223.367 188.521 223.276 187.932 223.094 187.438C222.911 186.938 222.63 186.552 222.25 186.281C221.87 186.01 221.378 185.875 220.773 185.875C219.883 185.875 219.229 186.169 218.812 186.758C218.401 187.346 218.195 188.161 218.195 189.203ZM234.336 189.203C234.336 189.906 234.245 190.534 234.062 191.086C233.88 191.638 233.617 192.104 233.273 192.484C232.93 192.865 232.513 193.156 232.023 193.359C231.539 193.557 230.99 193.656 230.375 193.656C229.802 193.656 229.276 193.557 228.797 193.359C228.323 193.156 227.911 192.865 227.562 192.484C227.219 192.104 226.951 191.638 226.758 191.086C226.57 190.534 226.477 189.906 226.477 189.203C226.477 188.266 226.635 187.469 226.953 186.812C227.271 186.151 227.724 185.648 228.312 185.305C228.906 184.956 229.612 184.781 230.43 184.781C231.211 184.781 231.893 184.956 232.477 185.305C233.065 185.654 233.521 186.159 233.844 186.82C234.172 187.477 234.336 188.271 234.336 189.203ZM227.82 189.203C227.82 189.891 227.911 190.487 228.094 190.992C228.276 191.497 228.557 191.888 228.938 192.164C229.318 192.44 229.807 192.578 230.406 192.578C231 192.578 231.487 192.44 231.867 192.164C232.253 191.888 232.536 191.497 232.719 190.992C232.901 190.487 232.992 189.891 232.992 189.203C232.992 188.521 232.901 187.932 232.719 187.438C232.536 186.938 232.255 186.552 231.875 186.281C231.495 186.01 231.003 185.875 230.398 185.875C229.508 185.875 228.854 186.169 228.438 186.758C228.026 187.346 227.82 188.161 227.82 189.203ZM237.867 181.344V187.656C237.867 187.865 237.859 188.12 237.844 188.422C237.828 188.719 237.815 188.982 237.805 189.211H237.859C237.969 189.076 238.128 188.875 238.336 188.609C238.549 188.344 238.729 188.13 238.875 187.969L241.719 184.938H243.242L239.797 188.594L243.492 193.5H241.93L238.906 189.445L237.867 190.398V193.5H236.578V181.344H237.867ZM254.281 184.781C255.224 184.781 255.935 185.029 256.414 185.523C256.893 186.013 257.133 186.802 257.133 187.891V193.5H255.852V187.953C255.852 187.26 255.701 186.742 255.398 186.398C255.102 186.049 254.659 185.875 254.07 185.875C253.242 185.875 252.641 186.115 252.266 186.594C251.891 187.073 251.703 187.779 251.703 188.711V193.5H250.414V187.953C250.414 187.49 250.346 187.104 250.211 186.797C250.081 186.49 249.883 186.26 249.617 186.109C249.357 185.953 249.026 185.875 248.625 185.875C248.057 185.875 247.602 185.992 247.258 186.227C246.914 186.461 246.664 186.81 246.508 187.273C246.357 187.732 246.281 188.297 246.281 188.969V193.5H244.984V184.938H246.031L246.227 186.148H246.297C246.469 185.852 246.685 185.602 246.945 185.398C247.206 185.195 247.497 185.042 247.82 184.938C248.143 184.833 248.487 184.781 248.852 184.781C249.503 184.781 250.047 184.904 250.484 185.148C250.927 185.388 251.247 185.755 251.445 186.25H251.516C251.797 185.755 252.182 185.388 252.672 185.148C253.161 184.904 253.698 184.781 254.281 184.781ZM263 184.797C264.021 184.797 264.779 185.026 265.273 185.484C265.768 185.943 266.016 186.674 266.016 187.68V193.5H265.07L264.82 192.234H264.758C264.518 192.547 264.268 192.81 264.008 193.023C263.747 193.232 263.445 193.391 263.102 193.5C262.763 193.604 262.346 193.656 261.852 193.656C261.331 193.656 260.867 193.565 260.461 193.383C260.06 193.201 259.742 192.924 259.508 192.555C259.279 192.185 259.164 191.716 259.164 191.148C259.164 190.294 259.503 189.638 260.18 189.18C260.857 188.721 261.888 188.471 263.273 188.43L264.75 188.367V187.844C264.75 187.104 264.591 186.586 264.273 186.289C263.956 185.992 263.508 185.844 262.93 185.844C262.482 185.844 262.055 185.909 261.648 186.039C261.242 186.169 260.857 186.323 260.492 186.5L260.094 185.516C260.479 185.318 260.922 185.148 261.422 185.008C261.922 184.867 262.448 184.797 263 184.797ZM264.734 189.281L263.43 189.336C262.362 189.378 261.609 189.552 261.172 189.859C260.734 190.167 260.516 190.602 260.516 191.164C260.516 191.654 260.664 192.016 260.961 192.25C261.258 192.484 261.651 192.602 262.141 192.602C262.901 192.602 263.523 192.391 264.008 191.969C264.492 191.547 264.734 190.914 264.734 190.07V189.281ZM272.578 184.781C272.75 184.781 272.93 184.792 273.117 184.812C273.305 184.828 273.471 184.852 273.617 184.883L273.453 186.086C273.312 186.049 273.156 186.021 272.984 186C272.812 185.979 272.651 185.969 272.5 185.969C272.156 185.969 271.831 186.039 271.523 186.18C271.221 186.315 270.956 186.513 270.727 186.773C270.497 187.029 270.318 187.339 270.188 187.703C270.057 188.062 269.992 188.464 269.992 188.906V193.5H268.688V184.938H269.766L269.906 186.516H269.961C270.138 186.198 270.352 185.909 270.602 185.648C270.852 185.383 271.141 185.172 271.469 185.016C271.802 184.859 272.172 184.781 272.578 184.781ZM276.523 181.344V187.656C276.523 187.865 276.516 188.12 276.5 188.422C276.484 188.719 276.471 188.982 276.461 189.211H276.516C276.625 189.076 276.784 188.875 276.992 188.609C277.206 188.344 277.385 188.13 277.531 187.969L280.375 184.938H281.898L278.453 188.594L282.148 193.5H280.586L277.562 189.445L276.523 190.398V193.5H275.234V181.344H276.523ZM289.18 191.156C289.18 191.703 289.042 192.164 288.766 192.539C288.495 192.909 288.104 193.188 287.594 193.375C287.089 193.562 286.484 193.656 285.781 193.656C285.182 193.656 284.664 193.609 284.227 193.516C283.789 193.422 283.406 193.289 283.078 193.117V191.922C283.427 192.094 283.844 192.25 284.328 192.391C284.812 192.531 285.307 192.602 285.812 192.602C286.552 192.602 287.089 192.482 287.422 192.242C287.755 192.003 287.922 191.677 287.922 191.266C287.922 191.031 287.854 190.826 287.719 190.648C287.589 190.466 287.367 190.292 287.055 190.125C286.742 189.953 286.31 189.766 285.758 189.562C285.211 189.354 284.737 189.148 284.336 188.945C283.94 188.737 283.633 188.484 283.414 188.188C283.201 187.891 283.094 187.505 283.094 187.031C283.094 186.307 283.385 185.753 283.969 185.367C284.557 184.977 285.328 184.781 286.281 184.781C286.797 184.781 287.279 184.833 287.727 184.938C288.18 185.036 288.602 185.172 288.992 185.344L288.555 186.383C288.201 186.232 287.823 186.104 287.422 186C287.021 185.896 286.612 185.844 286.195 185.844C285.596 185.844 285.135 185.943 284.812 186.141C284.495 186.339 284.336 186.609 284.336 186.953C284.336 187.219 284.409 187.438 284.555 187.609C284.706 187.781 284.945 187.943 285.273 188.094C285.602 188.245 286.034 188.422 286.57 188.625C287.107 188.823 287.57 189.029 287.961 189.242C288.352 189.451 288.651 189.706 288.859 190.008C289.073 190.305 289.18 190.688 289.18 191.156Z" fill="#202124"/>
<defs>
<clipPath id="clip0_8809_212145">
<rect width="155.25" height="169.5" fill="white" transform="translate(76.375)"/>
</clipPath>
</defs>
</svg>
