<svg width="304" height="207" viewBox="0 0 304 207" fill="none" xmlns="http://www.w3.org/2000/svg">
<g clip-path="url(#clip0_8809_212166)">
<path d="M256.596 0H47.4033C38.0679 0 30.5 4.85838 30.5 10.8515V145.148C30.5 151.142 38.0679 156 47.4033 156H256.596C265.933 156 273.5 151.142 273.5 145.148V10.8515C273.5 4.85838 265.933 0 256.596 0Z" fill="#DCDCE6"/>
<path d="M232.803 158.753C229.97 162.731 227.305 166.487 224.453 170.495C221.493 155.368 218.582 140.513 215.75 126C228.393 134.463 241.261 143.072 254.03 151.622C249.708 152.459 245.023 153.364 240.006 154.327C245.269 160.756 250.316 166.934 255.5 173.276C253.324 175.028 251.198 176.729 249.003 178.5C243.613 171.924 238.32 165.465 232.822 158.753H232.803Z" fill="#524F81"/>
<path d="M47.4033 0H256.596C265.928 0 273.5 5.1849 273.5 11.5749V18H30.5V11.5749C30.5 5.1849 38.0717 0 47.4033 0Z" fill="#9795B3"/>
<path d="M60.4172 12.0938C62.327 12.0938 63.8753 10.553 63.8753 8.65236C63.8753 6.75172 62.327 5.21094 60.4172 5.21094C58.5073 5.21094 56.959 6.75172 56.959 8.65236C56.959 10.553 58.5073 12.0938 60.4172 12.0938Z" fill="#524F81"/>
<path d="M51.0226 12.0938C52.9325 12.0938 54.4807 10.553 54.4807 8.65236C54.4807 6.75172 52.9325 5.21094 51.0226 5.21094C49.1128 5.21094 47.5645 6.75172 47.5645 8.65236C47.5645 10.553 49.1128 12.0938 51.0226 12.0938Z" fill="#524F81"/>
<path d="M41.6354 12.0938C43.5453 12.0938 45.0935 10.553 45.0935 8.65236C45.0935 6.75172 43.5453 5.21094 41.6354 5.21094C39.7255 5.21094 38.1772 6.75172 38.1772 8.65236C38.1772 10.553 39.7255 12.0938 41.6354 12.0938Z" fill="#524F81"/>
<mask id="mask0_8809_212166" style="mask-type:luminance" maskUnits="userSpaceOnUse" x="185" y="43" width="60" height="74">
<path d="M244.25 43.5H185.75V117H244.25V43.5Z" fill="white"/>
</mask>
<g mask="url(#mask0_8809_212166)">
<path d="M222.313 43.5H193.063C189.04 43.5 185.787 46.8075 185.787 50.85V109.65C185.75 113.692 189.004 117 193.026 117H236.938C240.959 117 244.25 113.692 244.25 109.65V65.55L222.313 43.5ZM229.625 102.3H200.375V94.95H229.625V102.3ZM229.625 87.6H200.375V80.25H229.625V87.6ZM218.656 69.225V49.0125L238.765 69.225H218.656Z" fill="#9795B3"/>
</g>
<path d="M189.572 66.75H114.428C110.739 66.75 107.75 69.5515 107.75 73.0073V87.4927C107.75 90.9487 110.739 93.75 114.428 93.75H189.572C193.26 93.75 196.25 90.9487 196.25 87.4927V73.0073C196.25 69.5515 193.26 66.75 189.572 66.75Z" fill="#524F81"/>
<path d="M118.788 76.9089L120.502 82.2969H120.568L122.285 76.9089H123.947L121.503 84.0002H119.571L117.123 76.9089H118.788ZM124.773 84.0002V78.6819H126.248V84.0002H124.773ZM125.514 77.9964C125.294 77.9964 125.107 77.9237 124.949 77.7782C124.795 77.6304 124.718 77.4542 124.718 77.2487C124.718 77.0454 124.795 76.8714 124.949 76.7259C125.107 76.5782 125.294 76.5039 125.514 76.5039C125.733 76.5039 125.92 76.5782 126.075 76.7259C126.232 76.8714 126.311 77.0454 126.311 77.2487C126.311 77.4542 126.232 77.6304 126.075 77.7782C125.92 77.9237 125.733 77.9964 125.514 77.9964ZM129.853 84.1037C129.306 84.1037 128.835 83.9934 128.441 83.7714C128.048 83.5479 127.746 83.2314 127.533 82.8227C127.321 82.4124 127.215 81.9264 127.215 81.3654C127.215 80.8179 127.321 80.3379 127.533 79.9247C127.746 79.5122 128.045 79.1897 128.43 78.9587C128.818 78.7284 129.272 78.6129 129.794 78.6129C130.145 78.6129 130.472 78.6692 130.774 78.7824C131.079 78.8934 131.345 79.0607 131.57 79.2842C131.799 79.5084 131.977 79.7897 132.104 80.1294C132.23 80.4662 132.294 80.8607 132.294 81.3137V81.7187H127.803V80.8044H130.906C130.906 80.5922 130.859 80.4039 130.767 80.2404C130.675 80.0762 130.547 79.9479 130.383 79.8557C130.221 79.7612 130.033 79.7139 129.818 79.7139C129.595 79.7139 129.396 79.7657 129.223 79.8699C129.052 79.9712 128.918 80.1084 128.822 80.2817C128.724 80.4527 128.675 80.6432 128.672 80.8532V81.7217C128.672 81.9849 128.721 82.2122 128.818 82.4042C128.917 82.5954 129.057 82.7432 129.237 82.8474C129.417 82.9509 129.63 83.0027 129.878 83.0027C130.041 83.0027 130.191 82.9802 130.328 82.9337C130.463 82.8879 130.58 82.8182 130.677 82.7259C130.774 82.6337 130.848 82.5204 130.899 82.3869L132.263 82.4769C132.194 82.8047 132.052 83.0904 131.837 83.3357C131.625 83.5779 131.35 83.7669 131.013 83.9034C130.679 84.0369 130.292 84.1037 129.853 84.1037ZM134.267 84.0002L132.821 78.6819H134.312L135.137 82.2549H135.185L136.044 78.6819H137.508L138.381 82.2347H138.426L139.236 78.6819H140.725L139.281 84.0002H137.72L136.805 80.6552H136.74L135.826 84.0002H134.267ZM143.796 84.0002V76.9089H148.574V78.1457H145.295V79.8347H148.328V81.0707H145.295V82.7642H148.588V84.0002H143.796ZM154.697 78.6819L152.837 84.0002H151.175L149.316 78.6819H150.874L151.979 82.4874H152.034L153.135 78.6819H154.697ZM155.451 84.0002V78.6819H156.926V84.0002H155.451ZM156.192 77.9964C155.973 77.9964 155.785 77.9237 155.628 77.7782C155.473 77.6304 155.396 77.4542 155.396 77.2487C155.396 77.0454 155.473 76.8714 155.628 76.7259C155.785 76.5782 155.973 76.5039 156.192 76.5039C156.411 76.5039 156.599 76.5782 156.753 76.7259C156.91 76.8714 156.989 77.0454 156.989 77.2487C156.989 77.4542 156.91 77.6304 156.753 77.7782C156.599 77.9237 156.411 77.9964 156.192 77.9964ZM160.067 84.0864C159.664 84.0864 159.298 83.9829 158.97 83.7752C158.645 83.5652 158.386 83.2569 158.195 82.8504C158.005 82.4424 157.91 81.9414 157.91 81.3482C157.91 80.7384 158.009 80.2322 158.204 79.8279C158.401 79.4214 158.662 79.1184 158.987 78.9174C159.315 78.7142 159.674 78.6129 160.064 78.6129C160.362 78.6129 160.61 78.6632 160.808 78.7652C161.009 78.8642 161.171 78.9887 161.293 79.1387C161.418 79.2864 161.513 79.4319 161.577 79.5752H161.622V76.9089H163.094V84.0002H161.639V83.1482H161.577C161.508 83.2959 161.41 83.4429 161.282 83.5884C161.158 83.7309 160.995 83.8502 160.795 83.9447C160.596 84.0392 160.354 84.0864 160.067 84.0864ZM160.535 82.9127C160.772 82.9127 160.973 82.8482 161.138 82.7192C161.303 82.5872 161.43 82.4042 161.518 82.1687C161.608 81.9332 161.653 81.6572 161.653 81.3414C161.653 81.0249 161.609 80.7504 161.522 80.5172C161.434 80.2839 161.307 80.1039 161.141 79.9772C160.975 79.8497 160.772 79.7867 160.535 79.7867C160.292 79.7867 160.088 79.8519 159.922 79.9839C159.756 80.1152 159.63 80.2974 159.545 80.5307C159.459 80.7639 159.416 81.0339 159.416 81.3414C159.416 81.6504 159.459 81.9242 159.545 82.1619C159.632 82.3974 159.758 82.5819 159.922 82.7154C160.088 82.8474 160.292 82.9127 160.535 82.9127ZM166.73 84.1037C166.183 84.1037 165.712 83.9934 165.317 83.7714C164.925 83.5479 164.622 83.2314 164.41 82.8227C164.198 82.4124 164.092 81.9264 164.092 81.3654C164.092 80.8179 164.198 80.3379 164.41 79.9247C164.622 79.5122 164.921 79.1897 165.307 78.9587C165.695 78.7284 166.149 78.6129 166.671 78.6129C167.022 78.6129 167.348 78.6692 167.651 78.7824C167.956 78.8934 168.221 79.0607 168.447 79.2842C168.676 79.5084 168.854 79.7897 168.98 80.1294C169.107 80.4662 169.171 80.8607 169.171 81.3137V81.7187H164.68V80.8044H167.783C167.783 80.5922 167.736 80.4039 167.644 80.2404C167.552 80.0762 167.423 79.9479 167.26 79.8557C167.098 79.7612 166.91 79.7139 166.695 79.7139C166.472 79.7139 166.273 79.7657 166.1 79.8699C165.929 79.9712 165.795 80.1084 165.698 80.2817C165.601 80.4527 165.551 80.6432 165.549 80.8532V81.7217C165.549 81.9849 165.598 82.2122 165.695 82.4042C165.794 82.5954 165.934 82.7432 166.114 82.8474C166.294 82.9509 166.507 83.0027 166.754 83.0027C166.918 83.0027 167.068 82.9802 167.204 82.9337C167.34 82.8879 167.457 82.8182 167.554 82.7259C167.651 82.6337 167.725 82.5204 167.776 82.3869L169.139 82.4769C169.07 82.8047 168.929 83.0904 168.714 83.3357C168.501 83.5779 168.227 83.7669 167.89 83.9034C167.555 84.0369 167.168 84.1037 166.73 84.1037ZM171.608 80.9259V84.0002H170.133V78.6819H171.539V79.6202H171.602C171.719 79.3112 171.917 79.0667 172.193 78.8859C172.47 78.7037 172.806 78.6129 173.201 78.6129C173.57 78.6129 173.892 78.6932 174.167 78.8552C174.442 79.0164 174.655 79.2474 174.808 79.5474C174.96 79.8452 175.036 80.2007 175.036 80.6139V84.0002H173.561V80.8772C173.564 80.5517 173.48 80.2974 173.312 80.1152C173.144 79.9307 172.911 79.8384 172.616 79.8384C172.418 79.8384 172.242 79.8812 172.09 79.9667C171.94 80.0522 171.822 80.1767 171.737 80.3402C171.653 80.5022 171.611 80.6972 171.608 80.9259ZM178.601 84.1037C178.057 84.1037 177.588 83.9889 177.196 83.7579C176.806 83.5247 176.506 83.2014 176.296 82.7882C176.088 82.3749 175.984 81.8994 175.984 81.3617C175.984 80.8172 176.089 80.3394 176.299 79.9284C176.511 79.5152 176.813 79.1934 177.203 78.9624C177.593 78.7292 178.057 78.6129 178.595 78.6129C179.058 78.6129 179.465 78.6969 179.813 78.8657C180.162 79.0337 180.437 79.2707 180.641 79.5752C180.844 79.8797 180.956 80.2374 180.977 80.6484H179.585C179.546 80.3829 179.441 80.1699 179.273 80.0079C179.107 79.8444 178.889 79.7619 178.619 79.7619C178.391 79.7619 178.19 79.8249 178.02 79.9494C177.851 80.0717 177.719 80.2502 177.625 80.4857C177.53 80.7212 177.483 81.0062 177.483 81.3414C177.483 81.6804 177.53 81.9692 177.622 82.2069C177.716 82.4447 177.849 82.6254 178.02 82.7499C178.19 82.8752 178.391 82.9374 178.619 82.9374C178.787 82.9374 178.938 82.9029 179.072 82.8332C179.209 82.7642 179.321 82.6637 179.408 82.5324C179.498 82.3982 179.557 82.2377 179.585 82.0509H180.977C180.953 82.4574 180.843 82.8152 180.644 83.1242C180.448 83.4309 180.177 83.6709 179.831 83.8442C179.484 84.0174 179.075 84.1037 178.601 84.1037ZM184.345 84.1037C183.797 84.1037 183.326 83.9934 182.932 83.7714C182.54 83.5479 182.237 83.2314 182.025 82.8227C181.813 82.4124 181.706 81.9264 181.706 81.3654C181.706 80.8179 181.813 80.3379 182.025 79.9247C182.237 79.5122 182.536 79.1897 182.921 78.9587C183.309 78.7284 183.764 78.6129 184.286 78.6129C184.637 78.6129 184.963 78.6692 185.266 78.7824C185.57 78.8934 185.836 79.0607 186.062 79.2842C186.29 79.5084 186.468 79.7897 186.595 80.1294C186.722 80.4662 186.785 80.8607 186.785 81.3137V81.7187H182.295V80.8044H185.397C185.397 80.5922 185.351 80.4039 185.258 80.2404C185.166 80.0762 185.039 79.9479 184.874 79.8557C184.713 79.7612 184.525 79.7139 184.31 79.7139C184.086 79.7139 183.887 79.7657 183.714 79.8699C183.544 79.9712 183.41 80.1084 183.313 80.2817C183.216 80.4527 183.167 80.6432 183.164 80.8532V81.7217C183.164 81.9849 183.212 82.2122 183.309 82.4042C183.409 82.5954 183.548 82.7432 183.728 82.8474C183.908 82.9509 184.122 83.0027 184.369 83.0027C184.533 83.0027 184.683 82.9802 184.819 82.9337C184.955 82.8879 185.072 82.8182 185.168 82.7259C185.266 82.6337 185.339 82.5204 185.39 82.3869L186.755 82.4769C186.685 82.8047 186.543 83.0904 186.329 83.3357C186.116 83.5779 185.842 83.7669 185.504 83.9034C185.17 84.0369 184.783 84.1037 184.345 84.1037Z" fill="white"/>
<path d="M92.8474 111.521C81.5527 111.521 72.3964 102.338 72.3964 91.0103C72.3964 79.683 81.5527 70.5 92.8474 70.5C104.142 70.5 113.299 79.683 113.299 91.0103C113.299 102.338 104.142 111.521 92.8474 111.521Z" fill="#DCDCE6" stroke="#9795B3" stroke-width="6" stroke-miterlimit="10"/>
<path d="M56.042 124.746L59.7792 128.494L75.3344 112.893L73.5267 111.081L71.5973 109.143L56.042 124.746Z" fill="#9795B3" stroke="#9795B3" stroke-width="6" stroke-miterlimit="10"/>
<path d="M78.5128 105.326L74.1143 109.735" stroke="#9795B3" stroke-width="6" stroke-miterlimit="10"/>
<path d="M46.1667 81.8933L40.25 85.0455L46.1667 88.1963L49.4028 95.8395L52.6379 88.1963L58.5546 85.0455L52.6379 81.8933L49.4028 74.25L46.1667 81.8933Z" fill="white"/>
<path d="M114.613 127.6L119.323 130.115L114.613 132.63L112.036 138.73L109.461 132.63L104.75 130.115L109.461 127.6L112.036 121.5L114.613 127.6Z" fill="white"/>
<path d="M255.612 32.3501L260.322 34.8654L255.612 37.38L253.036 43.4801L250.461 37.38L245.75 34.8654L250.461 32.3501L253.036 26.25L255.612 32.3501Z" fill="white"/>
<mask id="mask1_8809_212166" style="mask-type:luminance" maskUnits="userSpaceOnUse" x="65" y="29" width="54" height="35">
<path d="M119 29.25H65.75V63.75H119V29.25Z" fill="white"/>
</mask>
<g mask="url(#mask1_8809_212166)">
<path d="M69.7438 63.75L85.7188 47.7758L96.3687 58.4075L119 32.9977L115.246 29.25L96.3687 50.4338L85.7188 39.802L65.75 59.7631L69.7438 63.75Z" fill="#9795B3"/>
</g>
</g>
<path d="M31.4297 202.5L30.0234 198.875H25.4453L24.0469 202.5H22.7031L27.1719 191.031H28.3672L32.8047 202.5H31.4297ZM29.625 197.695L28.2891 194.094C28.2578 194 28.2057 193.846 28.1328 193.633C28.0651 193.419 27.9948 193.198 27.9219 192.969C27.849 192.74 27.7891 192.555 27.7422 192.414C27.6901 192.628 27.6328 192.841 27.5703 193.055C27.513 193.263 27.4557 193.458 27.3984 193.641C27.3411 193.818 27.2917 193.969 27.25 194.094L25.8906 197.695H29.625ZM38.25 193.781C39.2656 193.781 40.0339 194.031 40.5547 194.531C41.0755 195.026 41.3359 195.823 41.3359 196.922V202.5H40.0547V197.008C40.0547 196.294 39.8906 195.76 39.5625 195.406C39.2396 195.052 38.7422 194.875 38.0703 194.875C37.1224 194.875 36.4557 195.143 36.0703 195.68C35.6849 196.216 35.4922 196.995 35.4922 198.016V202.5H34.1953V193.938H35.2422L35.4375 195.172H35.5078C35.6901 194.87 35.9219 194.617 36.2031 194.414C36.4844 194.206 36.7995 194.049 37.1484 193.945C37.4974 193.836 37.8646 193.781 38.25 193.781ZM47.2109 193.797C48.2318 193.797 48.9896 194.026 49.4844 194.484C49.9792 194.943 50.2266 195.674 50.2266 196.68V202.5H49.2812L49.0312 201.234H48.9688C48.7292 201.547 48.4792 201.81 48.2188 202.023C47.9583 202.232 47.6562 202.391 47.3125 202.5C46.974 202.604 46.5573 202.656 46.0625 202.656C45.5417 202.656 45.0781 202.565 44.6719 202.383C44.2708 202.201 43.9531 201.924 43.7188 201.555C43.4896 201.185 43.375 200.716 43.375 200.148C43.375 199.294 43.7135 198.638 44.3906 198.18C45.0677 197.721 46.099 197.471 47.4844 197.43L48.9609 197.367V196.844C48.9609 196.104 48.8021 195.586 48.4844 195.289C48.1667 194.992 47.7188 194.844 47.1406 194.844C46.6927 194.844 46.2656 194.909 45.8594 195.039C45.4531 195.169 45.0677 195.323 44.7031 195.5L44.3047 194.516C44.6901 194.318 45.1328 194.148 45.6328 194.008C46.1328 193.867 46.6589 193.797 47.2109 193.797ZM48.9453 198.281L47.6406 198.336C46.5729 198.378 45.8203 198.552 45.3828 198.859C44.9453 199.167 44.7266 199.602 44.7266 200.164C44.7266 200.654 44.875 201.016 45.1719 201.25C45.4688 201.484 45.862 201.602 46.3516 201.602C47.112 201.602 47.7344 201.391 48.2188 200.969C48.7031 200.547 48.9453 199.914 48.9453 199.07V198.281ZM54.2031 202.5H52.8984V190.344H54.2031V202.5ZM55.5938 193.938H56.9844L58.875 198.906C58.9844 199.198 59.0859 199.479 59.1797 199.75C59.2734 200.016 59.3568 200.271 59.4297 200.516C59.5026 200.76 59.5599 200.997 59.6016 201.227H59.6562C59.7292 200.966 59.8333 200.625 59.9688 200.203C60.1042 199.776 60.25 199.341 60.4062 198.898L62.1953 193.938H63.5938L59.8672 203.758C59.6693 204.284 59.4375 204.742 59.1719 205.133C58.9115 205.523 58.5938 205.823 58.2188 206.031C57.8438 206.245 57.3906 206.352 56.8594 206.352C56.6146 206.352 56.3984 206.336 56.2109 206.305C56.0234 206.279 55.862 206.247 55.7266 206.211V205.172C55.8411 205.198 55.9792 205.221 56.1406 205.242C56.3073 205.263 56.4792 205.273 56.6562 205.273C56.9792 205.273 57.2578 205.211 57.4922 205.086C57.7318 204.966 57.9375 204.789 58.1094 204.555C58.2812 204.32 58.4297 204.042 58.5547 203.719L59.0234 202.516L55.5938 193.938ZM70.4609 202.5H64.2188V201.641L68.9141 194.953H64.5156V193.938H70.3594V194.898L65.7266 201.492H70.4609V202.5ZM75.7578 193.781C76.487 193.781 77.112 193.943 77.6328 194.266C78.1536 194.589 78.5521 195.042 78.8281 195.625C79.1042 196.203 79.2422 196.88 79.2422 197.656V198.461H73.3281C73.3438 199.466 73.5938 200.232 74.0781 200.758C74.5625 201.284 75.2448 201.547 76.125 201.547C76.6667 201.547 77.1458 201.497 77.5625 201.398C77.9792 201.299 78.4115 201.154 78.8594 200.961V202.102C78.4271 202.294 77.9974 202.435 77.5703 202.523C77.1484 202.612 76.6484 202.656 76.0703 202.656C75.2474 202.656 74.5286 202.49 73.9141 202.156C73.3047 201.818 72.8307 201.323 72.4922 200.672C72.1536 200.021 71.9844 199.224 71.9844 198.281C71.9844 197.359 72.138 196.562 72.4453 195.891C72.7578 195.214 73.1953 194.693 73.7578 194.328C74.3255 193.964 74.9922 193.781 75.7578 193.781ZM75.7422 194.844C75.0495 194.844 74.4974 195.07 74.0859 195.523C73.6745 195.977 73.4297 196.609 73.3516 197.422H77.8828C77.8776 196.911 77.7969 196.464 77.6406 196.078C77.4896 195.688 77.2578 195.385 76.9453 195.172C76.6328 194.953 76.2318 194.844 75.7422 194.844ZM88.8984 193.781C89.6276 193.781 90.2526 193.943 90.7734 194.266C91.2943 194.589 91.6927 195.042 91.9688 195.625C92.2448 196.203 92.3828 196.88 92.3828 197.656V198.461H86.4688C86.4844 199.466 86.7344 200.232 87.2188 200.758C87.7031 201.284 88.3854 201.547 89.2656 201.547C89.8073 201.547 90.2865 201.497 90.7031 201.398C91.1198 201.299 91.5521 201.154 92 200.961V202.102C91.5677 202.294 91.138 202.435 90.7109 202.523C90.2891 202.612 89.7891 202.656 89.2109 202.656C88.388 202.656 87.6693 202.49 87.0547 202.156C86.4453 201.818 85.9714 201.323 85.6328 200.672C85.2943 200.021 85.125 199.224 85.125 198.281C85.125 197.359 85.2786 196.562 85.5859 195.891C85.8984 195.214 86.3359 194.693 86.8984 194.328C87.4661 193.964 88.1328 193.781 88.8984 193.781ZM88.8828 194.844C88.1901 194.844 87.638 195.07 87.2266 195.523C86.8151 195.977 86.5703 196.609 86.4922 197.422H91.0234C91.0182 196.911 90.9375 196.464 90.7812 196.078C90.6302 195.688 90.3984 195.385 90.0859 195.172C89.7734 194.953 89.3724 194.844 88.8828 194.844ZM96.4688 202.5L93.2188 193.938H94.6094L96.4922 199.117C96.6224 199.471 96.7552 199.862 96.8906 200.289C97.026 200.716 97.1198 201.06 97.1719 201.32H97.2266C97.2891 201.06 97.3932 200.716 97.5391 200.289C97.6849 199.857 97.8177 199.466 97.9375 199.117L99.8203 193.938H101.211L97.9531 202.5H96.4688ZM103.883 193.938V202.5H102.586V193.938H103.883ZM103.25 190.734C103.464 190.734 103.646 190.805 103.797 190.945C103.953 191.081 104.031 191.294 104.031 191.586C104.031 191.872 103.953 192.086 103.797 192.227C103.646 192.367 103.464 192.438 103.25 192.438C103.026 192.438 102.839 192.367 102.688 192.227C102.542 192.086 102.469 191.872 102.469 191.586C102.469 191.294 102.542 191.081 102.688 190.945C102.839 190.805 103.026 190.734 103.25 190.734ZM109.68 202.656C108.596 202.656 107.737 202.286 107.102 201.547C106.471 200.807 106.156 199.708 106.156 198.25C106.156 196.776 106.479 195.664 107.125 194.914C107.771 194.159 108.63 193.781 109.703 193.781C110.156 193.781 110.552 193.841 110.891 193.961C111.229 194.081 111.521 194.242 111.766 194.445C112.01 194.643 112.216 194.87 112.383 195.125H112.477C112.456 194.964 112.435 194.742 112.414 194.461C112.393 194.18 112.383 193.951 112.383 193.773V190.344H113.68V202.5H112.633L112.438 201.281H112.383C112.221 201.536 112.016 201.768 111.766 201.977C111.521 202.185 111.227 202.352 110.883 202.477C110.544 202.596 110.143 202.656 109.68 202.656ZM109.883 201.578C110.799 201.578 111.448 201.318 111.828 200.797C112.208 200.276 112.398 199.503 112.398 198.477V198.242C112.398 197.154 112.216 196.318 111.852 195.734C111.492 195.151 110.836 194.859 109.883 194.859C109.086 194.859 108.49 195.167 108.094 195.781C107.698 196.391 107.5 197.224 107.5 198.281C107.5 199.333 107.695 200.146 108.086 200.719C108.482 201.292 109.081 201.578 109.883 201.578ZM119.727 193.781C120.456 193.781 121.081 193.943 121.602 194.266C122.122 194.589 122.521 195.042 122.797 195.625C123.073 196.203 123.211 196.88 123.211 197.656V198.461H117.297C117.312 199.466 117.562 200.232 118.047 200.758C118.531 201.284 119.214 201.547 120.094 201.547C120.635 201.547 121.115 201.497 121.531 201.398C121.948 201.299 122.38 201.154 122.828 200.961V202.102C122.396 202.294 121.966 202.435 121.539 202.523C121.117 202.612 120.617 202.656 120.039 202.656C119.216 202.656 118.497 202.49 117.883 202.156C117.273 201.818 116.799 201.323 116.461 200.672C116.122 200.021 115.953 199.224 115.953 198.281C115.953 197.359 116.107 196.562 116.414 195.891C116.727 195.214 117.164 194.693 117.727 194.328C118.294 193.964 118.961 193.781 119.727 193.781ZM119.711 194.844C119.018 194.844 118.466 195.07 118.055 195.523C117.643 195.977 117.398 196.609 117.32 197.422H121.852C121.846 196.911 121.766 196.464 121.609 196.078C121.458 195.688 121.227 195.385 120.914 195.172C120.602 194.953 120.201 194.844 119.711 194.844ZM129.469 193.781C130.484 193.781 131.253 194.031 131.773 194.531C132.294 195.026 132.555 195.823 132.555 196.922V202.5H131.273V197.008C131.273 196.294 131.109 195.76 130.781 195.406C130.458 195.052 129.961 194.875 129.289 194.875C128.341 194.875 127.674 195.143 127.289 195.68C126.904 196.216 126.711 196.995 126.711 198.016V202.5H125.414V193.938H126.461L126.656 195.172H126.727C126.909 194.87 127.141 194.617 127.422 194.414C127.703 194.206 128.018 194.049 128.367 193.945C128.716 193.836 129.083 193.781 129.469 193.781ZM138.656 202.656C137.885 202.656 137.206 202.497 136.617 202.18C136.029 201.862 135.57 201.378 135.242 200.727C134.914 200.076 134.75 199.255 134.75 198.266C134.75 197.229 134.922 196.383 135.266 195.727C135.615 195.065 136.094 194.576 136.703 194.258C137.312 193.94 138.005 193.781 138.781 193.781C139.208 193.781 139.62 193.826 140.016 193.914C140.417 193.997 140.745 194.104 141 194.234L140.609 195.32C140.349 195.216 140.047 195.122 139.703 195.039C139.365 194.956 139.047 194.914 138.75 194.914C138.156 194.914 137.661 195.042 137.266 195.297C136.875 195.552 136.581 195.927 136.383 196.422C136.19 196.917 136.094 197.526 136.094 198.25C136.094 198.943 136.188 199.534 136.375 200.023C136.568 200.513 136.852 200.888 137.227 201.148C137.607 201.404 138.081 201.531 138.648 201.531C139.102 201.531 139.51 201.484 139.875 201.391C140.24 201.292 140.57 201.177 140.867 201.047V202.203C140.581 202.349 140.26 202.461 139.906 202.539C139.557 202.617 139.141 202.656 138.656 202.656ZM146.195 193.781C146.924 193.781 147.549 193.943 148.07 194.266C148.591 194.589 148.99 195.042 149.266 195.625C149.542 196.203 149.68 196.88 149.68 197.656V198.461H143.766C143.781 199.466 144.031 200.232 144.516 200.758C145 201.284 145.682 201.547 146.562 201.547C147.104 201.547 147.583 201.497 148 201.398C148.417 201.299 148.849 201.154 149.297 200.961V202.102C148.865 202.294 148.435 202.435 148.008 202.523C147.586 202.612 147.086 202.656 146.508 202.656C145.685 202.656 144.966 202.49 144.352 202.156C143.742 201.818 143.268 201.323 142.93 200.672C142.591 200.021 142.422 199.224 142.422 198.281C142.422 197.359 142.576 196.562 142.883 195.891C143.195 195.214 143.633 194.693 144.195 194.328C144.763 193.964 145.43 193.781 146.195 193.781ZM146.18 194.844C145.487 194.844 144.935 195.07 144.523 195.523C144.112 195.977 143.867 196.609 143.789 197.422H148.32C148.315 196.911 148.234 196.464 148.078 196.078C147.927 195.688 147.695 195.385 147.383 195.172C147.07 194.953 146.669 194.844 146.18 194.844ZM157.336 193.938V202.5H156.039V193.938H157.336ZM156.703 190.734C156.917 190.734 157.099 190.805 157.25 190.945C157.406 191.081 157.484 191.294 157.484 191.586C157.484 191.872 157.406 192.086 157.25 192.227C157.099 192.367 156.917 192.438 156.703 192.438C156.479 192.438 156.292 192.367 156.141 192.227C155.995 192.086 155.922 191.872 155.922 191.586C155.922 191.294 155.995 191.081 156.141 190.945C156.292 190.805 156.479 190.734 156.703 190.734ZM164.141 193.781C165.156 193.781 165.924 194.031 166.445 194.531C166.966 195.026 167.227 195.823 167.227 196.922V202.5H165.945V197.008C165.945 196.294 165.781 195.76 165.453 195.406C165.13 195.052 164.633 194.875 163.961 194.875C163.013 194.875 162.346 195.143 161.961 195.68C161.576 196.216 161.383 196.995 161.383 198.016V202.5H160.086V193.938H161.133L161.328 195.172H161.398C161.581 194.87 161.812 194.617 162.094 194.414C162.375 194.206 162.69 194.049 163.039 193.945C163.388 193.836 163.755 193.781 164.141 193.781ZM176.82 201.594C177.034 201.594 177.253 201.576 177.477 201.539C177.701 201.503 177.883 201.458 178.023 201.406V202.414C177.872 202.482 177.661 202.539 177.391 202.586C177.125 202.633 176.865 202.656 176.609 202.656C176.156 202.656 175.745 202.578 175.375 202.422C175.005 202.26 174.708 201.99 174.484 201.609C174.266 201.229 174.156 200.703 174.156 200.031V194.953H172.938V194.32L174.164 193.812L174.68 191.953H175.461V193.938H177.969V194.953H175.461V199.992C175.461 200.529 175.583 200.93 175.828 201.195C176.078 201.461 176.409 201.594 176.82 201.594ZM181.055 190.344V193.977C181.055 194.185 181.049 194.396 181.039 194.609C181.029 194.818 181.01 195.01 180.984 195.188H181.07C181.247 194.885 181.471 194.633 181.742 194.43C182.018 194.221 182.331 194.065 182.68 193.961C183.029 193.852 183.398 193.797 183.789 193.797C184.477 193.797 185.049 193.906 185.508 194.125C185.971 194.344 186.318 194.682 186.547 195.141C186.781 195.599 186.898 196.193 186.898 196.922V202.5H185.617V197.008C185.617 196.294 185.453 195.76 185.125 195.406C184.802 195.052 184.305 194.875 183.633 194.875C182.997 194.875 182.49 194.997 182.109 195.242C181.734 195.482 181.464 195.836 181.297 196.305C181.135 196.773 181.055 197.346 181.055 198.023V202.5H179.758V190.344H181.055ZM192.867 193.781C193.596 193.781 194.221 193.943 194.742 194.266C195.263 194.589 195.661 195.042 195.938 195.625C196.214 196.203 196.352 196.88 196.352 197.656V198.461H190.438C190.453 199.466 190.703 200.232 191.188 200.758C191.672 201.284 192.354 201.547 193.234 201.547C193.776 201.547 194.255 201.497 194.672 201.398C195.089 201.299 195.521 201.154 195.969 200.961V202.102C195.536 202.294 195.107 202.435 194.68 202.523C194.258 202.612 193.758 202.656 193.18 202.656C192.357 202.656 191.638 202.49 191.023 202.156C190.414 201.818 189.94 201.323 189.602 200.672C189.263 200.021 189.094 199.224 189.094 198.281C189.094 197.359 189.247 196.562 189.555 195.891C189.867 195.214 190.305 194.693 190.867 194.328C191.435 193.964 192.102 193.781 192.867 193.781ZM192.852 194.844C192.159 194.844 191.607 195.07 191.195 195.523C190.784 195.977 190.539 196.609 190.461 197.422H194.992C194.987 196.911 194.906 196.464 194.75 196.078C194.599 195.688 194.367 195.385 194.055 195.172C193.742 194.953 193.341 194.844 192.852 194.844ZM209.68 202.484L208.156 197.5C208.089 197.286 208.023 197.078 207.961 196.875C207.904 196.667 207.849 196.469 207.797 196.281C207.75 196.089 207.706 195.911 207.664 195.75C207.628 195.583 207.596 195.44 207.57 195.32H207.516C207.495 195.44 207.466 195.583 207.43 195.75C207.393 195.911 207.349 196.089 207.297 196.281C207.25 196.474 207.198 196.677 207.141 196.891C207.083 197.099 207.018 197.31 206.945 197.523L205.352 202.484H203.891L201.531 193.922H202.875L204.109 198.648C204.193 198.961 204.271 199.271 204.344 199.578C204.422 199.88 204.487 200.167 204.539 200.438C204.596 200.703 204.638 200.935 204.664 201.133H204.727C204.758 201.003 204.792 200.846 204.828 200.664C204.87 200.482 204.914 200.289 204.961 200.086C205.013 199.878 205.068 199.672 205.125 199.469C205.182 199.26 205.24 199.065 205.297 198.883L206.875 193.922H208.273L209.797 198.875C209.875 199.125 209.951 199.385 210.023 199.656C210.102 199.927 210.172 200.19 210.234 200.445C210.297 200.695 210.341 200.919 210.367 201.117H210.43C210.451 200.94 210.49 200.721 210.547 200.461C210.604 200.201 210.669 199.914 210.742 199.602C210.82 199.289 210.901 198.971 210.984 198.648L212.234 193.922H213.555L211.188 202.484H209.68ZM222.5 198.203C222.5 198.906 222.409 199.534 222.227 200.086C222.044 200.638 221.781 201.104 221.438 201.484C221.094 201.865 220.677 202.156 220.188 202.359C219.703 202.557 219.154 202.656 218.539 202.656C217.966 202.656 217.44 202.557 216.961 202.359C216.487 202.156 216.076 201.865 215.727 201.484C215.383 201.104 215.115 200.638 214.922 200.086C214.734 199.534 214.641 198.906 214.641 198.203C214.641 197.266 214.799 196.469 215.117 195.812C215.435 195.151 215.888 194.648 216.477 194.305C217.07 193.956 217.776 193.781 218.594 193.781C219.375 193.781 220.057 193.956 220.641 194.305C221.229 194.654 221.685 195.159 222.008 195.82C222.336 196.477 222.5 197.271 222.5 198.203ZM215.984 198.203C215.984 198.891 216.076 199.487 216.258 199.992C216.44 200.497 216.721 200.888 217.102 201.164C217.482 201.44 217.971 201.578 218.57 201.578C219.164 201.578 219.651 201.44 220.031 201.164C220.417 200.888 220.701 200.497 220.883 199.992C221.065 199.487 221.156 198.891 221.156 198.203C221.156 197.521 221.065 196.932 220.883 196.438C220.701 195.938 220.419 195.552 220.039 195.281C219.659 195.01 219.167 194.875 218.562 194.875C217.672 194.875 217.018 195.169 216.602 195.758C216.19 196.346 215.984 197.161 215.984 198.203ZM228.633 193.781C228.805 193.781 228.984 193.792 229.172 193.812C229.359 193.828 229.526 193.852 229.672 193.883L229.508 195.086C229.367 195.049 229.211 195.021 229.039 195C228.867 194.979 228.706 194.969 228.555 194.969C228.211 194.969 227.885 195.039 227.578 195.18C227.276 195.315 227.01 195.513 226.781 195.773C226.552 196.029 226.372 196.339 226.242 196.703C226.112 197.062 226.047 197.464 226.047 197.906V202.5H224.742V193.938H225.82L225.961 195.516H226.016C226.193 195.198 226.406 194.909 226.656 194.648C226.906 194.383 227.195 194.172 227.523 194.016C227.857 193.859 228.227 193.781 228.633 193.781ZM232.578 190.344V196.656C232.578 196.865 232.57 197.12 232.555 197.422C232.539 197.719 232.526 197.982 232.516 198.211H232.57C232.68 198.076 232.839 197.875 233.047 197.609C233.26 197.344 233.44 197.13 233.586 196.969L236.43 193.938H237.953L234.508 197.594L238.203 202.5H236.641L233.617 198.445L232.578 199.398V202.5H231.289V190.344H232.578ZM245.234 200.156C245.234 200.703 245.096 201.164 244.82 201.539C244.549 201.909 244.159 202.188 243.648 202.375C243.143 202.562 242.539 202.656 241.836 202.656C241.237 202.656 240.719 202.609 240.281 202.516C239.844 202.422 239.461 202.289 239.133 202.117V200.922C239.482 201.094 239.898 201.25 240.383 201.391C240.867 201.531 241.362 201.602 241.867 201.602C242.607 201.602 243.143 201.482 243.477 201.242C243.81 201.003 243.977 200.677 243.977 200.266C243.977 200.031 243.909 199.826 243.773 199.648C243.643 199.466 243.422 199.292 243.109 199.125C242.797 198.953 242.365 198.766 241.812 198.562C241.266 198.354 240.792 198.148 240.391 197.945C239.995 197.737 239.688 197.484 239.469 197.188C239.255 196.891 239.148 196.505 239.148 196.031C239.148 195.307 239.44 194.753 240.023 194.367C240.612 193.977 241.383 193.781 242.336 193.781C242.852 193.781 243.333 193.833 243.781 193.938C244.234 194.036 244.656 194.172 245.047 194.344L244.609 195.383C244.255 195.232 243.878 195.104 243.477 195C243.076 194.896 242.667 194.844 242.25 194.844C241.651 194.844 241.19 194.943 240.867 195.141C240.549 195.339 240.391 195.609 240.391 195.953C240.391 196.219 240.464 196.438 240.609 196.609C240.76 196.781 241 196.943 241.328 197.094C241.656 197.245 242.089 197.422 242.625 197.625C243.161 197.823 243.625 198.029 244.016 198.242C244.406 198.451 244.706 198.706 244.914 199.008C245.128 199.305 245.234 199.688 245.234 200.156ZM251.344 193.781C252.411 193.781 253.263 194.148 253.898 194.883C254.534 195.617 254.852 196.721 254.852 198.195C254.852 199.169 254.706 199.987 254.414 200.648C254.122 201.31 253.711 201.81 253.18 202.148C252.654 202.487 252.031 202.656 251.312 202.656C250.859 202.656 250.461 202.596 250.117 202.477C249.773 202.357 249.479 202.195 249.234 201.992C248.99 201.789 248.786 201.568 248.625 201.328H248.531C248.547 201.531 248.565 201.776 248.586 202.062C248.612 202.349 248.625 202.599 248.625 202.812V206.328H247.32V193.938H248.391L248.562 195.203H248.625C248.792 194.943 248.995 194.706 249.234 194.492C249.474 194.273 249.766 194.102 250.109 193.977C250.458 193.846 250.87 193.781 251.344 193.781ZM251.117 194.875C250.523 194.875 250.044 194.99 249.68 195.219C249.32 195.448 249.057 195.792 248.891 196.25C248.724 196.703 248.635 197.273 248.625 197.961V198.211C248.625 198.935 248.703 199.547 248.859 200.047C249.021 200.547 249.284 200.927 249.648 201.188C250.018 201.448 250.513 201.578 251.133 201.578C251.664 201.578 252.107 201.435 252.461 201.148C252.815 200.862 253.078 200.464 253.25 199.953C253.427 199.438 253.516 198.846 253.516 198.18C253.516 197.169 253.318 196.367 252.922 195.773C252.531 195.174 251.93 194.875 251.117 194.875ZM260.32 193.797C261.341 193.797 262.099 194.026 262.594 194.484C263.089 194.943 263.336 195.674 263.336 196.68V202.5H262.391L262.141 201.234H262.078C261.839 201.547 261.589 201.81 261.328 202.023C261.068 202.232 260.766 202.391 260.422 202.5C260.083 202.604 259.667 202.656 259.172 202.656C258.651 202.656 258.188 202.565 257.781 202.383C257.38 202.201 257.062 201.924 256.828 201.555C256.599 201.185 256.484 200.716 256.484 200.148C256.484 199.294 256.823 198.638 257.5 198.18C258.177 197.721 259.208 197.471 260.594 197.43L262.07 197.367V196.844C262.07 196.104 261.911 195.586 261.594 195.289C261.276 194.992 260.828 194.844 260.25 194.844C259.802 194.844 259.375 194.909 258.969 195.039C258.562 195.169 258.177 195.323 257.812 195.5L257.414 194.516C257.799 194.318 258.242 194.148 258.742 194.008C259.242 193.867 259.768 193.797 260.32 193.797ZM262.055 198.281L260.75 198.336C259.682 198.378 258.93 198.552 258.492 198.859C258.055 199.167 257.836 199.602 257.836 200.164C257.836 200.654 257.984 201.016 258.281 201.25C258.578 201.484 258.971 201.602 259.461 201.602C260.221 201.602 260.844 201.391 261.328 200.969C261.812 200.547 262.055 199.914 262.055 199.07V198.281ZM269.438 202.656C268.667 202.656 267.987 202.497 267.398 202.18C266.81 201.862 266.352 201.378 266.023 200.727C265.695 200.076 265.531 199.255 265.531 198.266C265.531 197.229 265.703 196.383 266.047 195.727C266.396 195.065 266.875 194.576 267.484 194.258C268.094 193.94 268.786 193.781 269.562 193.781C269.99 193.781 270.401 193.826 270.797 193.914C271.198 193.997 271.526 194.104 271.781 194.234L271.391 195.32C271.13 195.216 270.828 195.122 270.484 195.039C270.146 194.956 269.828 194.914 269.531 194.914C268.938 194.914 268.443 195.042 268.047 195.297C267.656 195.552 267.362 195.927 267.164 196.422C266.971 196.917 266.875 197.526 266.875 198.25C266.875 198.943 266.969 199.534 267.156 200.023C267.349 200.513 267.633 200.888 268.008 201.148C268.388 201.404 268.862 201.531 269.43 201.531C269.883 201.531 270.292 201.484 270.656 201.391C271.021 201.292 271.352 201.177 271.648 201.047V202.203C271.362 202.349 271.042 202.461 270.688 202.539C270.339 202.617 269.922 202.656 269.438 202.656ZM276.977 193.781C277.706 193.781 278.331 193.943 278.852 194.266C279.372 194.589 279.771 195.042 280.047 195.625C280.323 196.203 280.461 196.88 280.461 197.656V198.461H274.547C274.562 199.466 274.812 200.232 275.297 200.758C275.781 201.284 276.464 201.547 277.344 201.547C277.885 201.547 278.365 201.497 278.781 201.398C279.198 201.299 279.63 201.154 280.078 200.961V202.102C279.646 202.294 279.216 202.435 278.789 202.523C278.367 202.612 277.867 202.656 277.289 202.656C276.466 202.656 275.747 202.49 275.133 202.156C274.523 201.818 274.049 201.323 273.711 200.672C273.372 200.021 273.203 199.224 273.203 198.281C273.203 197.359 273.357 196.562 273.664 195.891C273.977 195.214 274.414 194.693 274.977 194.328C275.544 193.964 276.211 193.781 276.977 193.781ZM276.961 194.844C276.268 194.844 275.716 195.07 275.305 195.523C274.893 195.977 274.648 196.609 274.57 197.422H279.102C279.096 196.911 279.016 196.464 278.859 196.078C278.708 195.688 278.477 195.385 278.164 195.172C277.852 194.953 277.451 194.844 276.961 194.844Z" fill="#202124"/>
<defs>
<clipPath id="clip0_8809_212166">
<rect width="243" height="178.5" fill="white" transform="translate(30.5)"/>
</clipPath>
</defs>
</svg>
