<svg width="304" height="203" viewBox="0 0 304 203" fill="none" xmlns="http://www.w3.org/2000/svg">
<g clip-path="url(#clip0_8809_212117)">
<path d="M256.221 0.5H47.0283C37.6929 0.5 30.125 5.35838 30.125 11.3515V145.648C30.125 151.642 37.6929 156.5 47.0283 156.5H256.221C265.558 156.5 273.125 151.642 273.125 145.648V11.3515C273.125 5.35838 265.558 0.5 256.221 0.5Z" fill="#DCDCE6"/>
<path d="M174.947 113H99.803C96.1148 113 93.125 115.879 93.125 119.431V134.319C93.125 137.871 96.1148 140.75 99.803 140.75H174.947C178.635 140.75 181.625 137.871 181.625 134.319V119.431C181.625 115.879 178.635 113 174.947 113Z" fill="#524F81"/>
<path d="M125.734 130.249H123.22V123.158H125.755C126.468 123.158 127.081 123.301 127.597 123.584C128.111 123.866 128.507 124.271 128.784 124.8C129.063 125.328 129.203 125.961 129.203 126.697C129.203 127.435 129.063 128.071 128.784 128.602C128.507 129.132 128.109 129.54 127.589 129.823C127.072 130.108 126.454 130.249 125.734 130.249ZM124.719 128.965H125.671C126.115 128.965 126.487 128.887 126.79 128.729C127.094 128.57 127.323 128.324 127.475 127.992C127.63 127.657 127.707 127.225 127.707 126.697C127.707 126.173 127.63 125.745 127.475 125.413C127.323 125.08 127.096 124.835 126.793 124.678C126.49 124.522 126.118 124.443 125.675 124.443H124.719V128.965ZM130.285 130.249V124.931H131.716V125.859H131.771C131.868 125.529 132.031 125.28 132.259 125.111C132.488 124.94 132.751 124.855 133.048 124.855C133.123 124.855 133.202 124.86 133.288 124.869C133.373 124.878 133.448 124.891 133.513 124.907V126.216C133.444 126.195 133.348 126.176 133.225 126.16C133.103 126.144 132.991 126.136 132.889 126.136C132.673 126.136 132.478 126.184 132.308 126.278C132.139 126.37 132.005 126.499 131.906 126.666C131.809 126.832 131.761 127.024 131.761 127.24V130.249H130.285ZM137.686 127.985V124.931H139.161V130.249H137.745V129.283H137.689C137.569 129.595 137.369 129.845 137.09 130.035C136.813 130.224 136.475 130.318 136.075 130.318C135.72 130.318 135.407 130.238 135.137 130.076C134.867 129.915 134.656 129.685 134.504 129.387C134.353 129.089 134.278 128.733 134.275 128.317V124.931H135.75V128.054C135.753 128.368 135.837 128.617 136.003 128.799C136.169 128.981 136.392 129.072 136.671 129.072C136.849 129.072 137.015 129.032 137.17 128.951C137.324 128.868 137.449 128.746 137.544 128.584C137.641 128.422 137.688 128.223 137.686 127.985ZM142.736 132.355C142.258 132.355 141.849 132.289 141.507 132.157C141.168 132.028 140.898 131.851 140.697 131.627C140.496 131.404 140.366 131.152 140.306 130.873L141.67 130.689C141.712 130.795 141.778 130.894 141.868 130.987C141.958 131.079 142.076 131.153 142.224 131.209C142.374 131.266 142.556 131.295 142.771 131.295C143.092 131.295 143.356 131.217 143.564 131.059C143.774 130.905 143.879 130.645 143.879 130.281V129.307H143.817C143.752 129.455 143.655 129.595 143.526 129.727C143.397 129.858 143.23 129.965 143.027 130.048C142.824 130.132 142.582 130.173 142.3 130.173C141.901 130.173 141.538 130.081 141.209 129.896C140.884 129.709 140.624 129.424 140.431 129.041C140.239 128.656 140.143 128.168 140.143 127.58C140.143 126.977 140.241 126.475 140.437 126.07C140.634 125.666 140.894 125.364 141.22 125.163C141.547 124.963 141.907 124.862 142.297 124.862C142.594 124.862 142.843 124.912 143.044 125.014C143.245 125.113 143.407 125.238 143.53 125.388C143.654 125.536 143.749 125.681 143.817 125.824H143.872V124.931H145.336V130.301C145.336 130.753 145.226 131.132 145.004 131.437C144.783 131.742 144.475 131.97 144.083 132.123C143.693 132.277 143.244 132.355 142.736 132.355ZM142.768 129.065C143.005 129.065 143.206 129.007 143.37 128.889C143.536 128.769 143.663 128.598 143.751 128.376C143.841 128.152 143.886 127.885 143.886 127.573C143.886 127.261 143.842 126.991 143.755 126.763C143.667 126.532 143.539 126.353 143.374 126.226C143.207 126.099 143.005 126.036 142.768 126.036C142.525 126.036 142.321 126.101 142.155 126.233C141.988 126.362 141.862 126.542 141.778 126.773C141.692 127.004 141.649 127.27 141.649 127.573C141.649 127.88 141.692 128.146 141.778 128.369C141.865 128.591 141.991 128.763 142.155 128.885C142.321 129.005 142.525 129.065 142.768 129.065ZM150.935 126.448L149.585 126.531C149.562 126.415 149.512 126.312 149.436 126.219C149.36 126.124 149.26 126.049 149.135 125.994C149.012 125.936 148.866 125.908 148.695 125.908C148.467 125.908 148.274 125.956 148.117 126.053C147.96 126.148 147.881 126.274 147.881 126.434C147.881 126.561 147.932 126.668 148.034 126.756C148.135 126.844 148.309 126.914 148.557 126.967L149.519 127.161C150.036 127.267 150.421 127.438 150.676 127.673C150.929 127.909 151.057 128.218 151.057 128.602C151.057 128.95 150.954 129.256 150.748 129.519C150.545 129.782 150.266 129.988 149.911 130.135C149.557 130.281 149.15 130.353 148.688 130.353C147.984 130.353 147.424 130.207 147.005 129.913C146.59 129.618 146.347 129.217 146.275 128.709L147.726 128.632C147.769 128.847 147.876 129.011 148.044 129.124C148.213 129.235 148.429 129.29 148.692 129.29C148.95 129.29 149.158 129.241 149.315 129.142C149.474 129.04 149.555 128.909 149.557 128.75C149.555 128.617 149.498 128.506 149.388 128.421C149.277 128.334 149.106 128.266 148.875 128.221L147.954 128.037C147.435 127.933 147.048 127.753 146.794 127.497C146.542 127.24 146.417 126.914 146.417 126.517C146.417 126.175 146.509 125.881 146.694 125.634C146.881 125.387 147.143 125.197 147.48 125.063C147.819 124.929 148.216 124.862 148.671 124.862C149.343 124.862 149.871 125.004 150.256 125.288C150.644 125.572 150.871 125.959 150.935 126.448Z" fill="white"/>
<path d="M231.947 71.75H156.803C153.115 71.75 150.125 74.5515 150.125 78.0073V92.4927C150.125 95.9487 153.115 98.75 156.803 98.75H231.947C235.636 98.75 238.625 95.9487 238.625 92.4927V78.0073C238.625 74.5515 235.636 71.75 231.947 71.75Z" fill="#662E6B"/>
<path d="M231.947 71.75H156.803C153.115 71.75 150.125 74.5515 150.125 78.0073V92.4927C150.125 95.9487 153.115 98.75 156.803 98.75H231.947C235.636 98.75 238.625 95.9487 238.625 92.4927V78.0073C238.625 74.5515 235.636 71.75 231.947 71.75Z" fill="#524F81"/>
<path d="M177.222 84.3914H175.705C175.678 84.1957 175.621 84.0217 175.536 83.8687C175.45 83.7142 175.341 83.5829 175.207 83.4742C175.073 83.3654 174.919 83.2829 174.743 83.2252C174.57 83.1674 174.382 83.1382 174.178 83.1382C173.812 83.1382 173.492 83.2297 173.219 83.4119C172.947 83.5919 172.736 83.8552 172.586 84.2017C172.436 84.5452 172.361 84.9629 172.361 85.4549C172.361 85.9604 172.436 86.3849 172.586 86.7292C172.738 87.0727 172.951 87.3322 173.223 87.5077C173.495 87.6832 173.81 87.7709 174.168 87.7709C174.369 87.7709 174.555 87.7447 174.726 87.6914C174.898 87.6382 175.052 87.5609 175.186 87.4597C175.32 87.3554 175.431 87.2294 175.519 87.0817C175.609 86.9347 175.671 86.7659 175.705 86.5762L177.222 86.5837C177.183 86.9092 177.085 87.2227 176.928 87.5249C176.773 87.8249 176.564 88.0942 176.301 88.3319C176.04 88.5674 175.729 88.7542 175.366 88.8929C175.006 89.0287 174.598 89.0969 174.144 89.0969C173.512 89.0969 172.946 88.9537 172.447 88.6679C171.951 88.3814 171.559 87.9674 171.27 87.4252C170.984 86.8822 170.841 86.2259 170.841 85.4549C170.841 84.6817 170.986 84.0239 171.277 83.4809C171.568 82.9387 171.963 82.5254 172.461 82.2419C172.96 81.9554 173.521 81.8122 174.144 81.8122C174.555 81.8122 174.936 81.8699 175.286 81.9854C175.639 82.1009 175.952 82.2697 176.224 82.4909C176.497 82.7099 176.719 82.9792 176.89 83.2979C177.063 83.6159 177.173 83.9812 177.222 84.3914ZM179.744 85.9259V89.0002H178.27V81.9089H179.703V84.6202H179.765C179.885 84.3067 180.079 84.0607 180.346 83.8829C180.614 83.7029 180.95 83.6129 181.354 83.6129C181.723 83.6129 182.046 83.6932 182.32 83.8552C182.597 84.0142 182.812 84.2437 182.964 84.5444C183.119 84.8422 183.195 85.1984 183.193 85.6139V89.0002H181.718V85.8772C181.72 85.5494 181.637 85.2944 181.468 85.1122C181.303 84.9299 181.069 84.8384 180.769 84.8384C180.568 84.8384 180.391 84.8812 180.236 84.9667C180.084 85.0522 179.964 85.1767 179.876 85.3402C179.791 85.5022 179.746 85.6972 179.744 85.9259ZM186.777 89.1037C186.23 89.1037 185.759 88.9934 185.365 88.7714C184.972 88.5479 184.669 88.2314 184.457 87.8227C184.245 87.4124 184.139 86.9264 184.139 86.3654C184.139 85.8179 184.245 85.3379 184.457 84.9247C184.669 84.5122 184.969 84.1897 185.354 83.9587C185.742 83.7284 186.196 83.6129 186.718 83.6129C187.069 83.6129 187.396 83.6692 187.698 83.7824C188.003 83.8934 188.269 84.0607 188.494 84.2842C188.723 84.5084 188.901 84.7897 189.028 85.1294C189.154 85.4662 189.218 85.8607 189.218 86.3137V86.7187H184.727V85.8044H187.83C187.83 85.5922 187.783 85.4039 187.691 85.2404C187.599 85.0762 187.471 84.9479 187.307 84.8557C187.145 84.7612 186.957 84.7139 186.742 84.7139C186.519 84.7139 186.32 84.7657 186.147 84.8699C185.976 84.9712 185.842 85.1084 185.746 85.2817C185.648 85.4527 185.599 85.6432 185.596 85.8532V86.7217C185.596 86.9849 185.645 87.2122 185.742 87.4042C185.841 87.5954 185.981 87.7432 186.161 87.8474C186.341 87.9509 186.554 88.0027 186.802 88.0027C186.965 88.0027 187.115 87.9802 187.252 87.9337C187.387 87.8879 187.504 87.8182 187.601 87.7259C187.698 87.6337 187.772 87.5204 187.823 87.3869L189.187 87.4769C189.118 87.8047 188.976 88.0904 188.761 88.3357C188.548 88.5779 188.274 88.7669 187.937 88.9034C187.603 89.0369 187.216 89.1037 186.777 89.1037ZM190.18 89.0002V83.6819H191.587V84.6202H191.649C191.759 84.3089 191.944 84.0629 192.202 83.8829C192.461 83.7029 192.77 83.6129 193.131 83.6129C193.495 83.6129 193.806 83.7037 194.062 83.8859C194.318 84.0667 194.489 84.3112 194.575 84.6202H194.63C194.738 84.3157 194.935 84.0719 195.218 83.8897C195.505 83.7052 195.843 83.6129 196.233 83.6129C196.729 83.6129 197.132 83.7712 197.441 84.0869C197.753 84.4012 197.908 84.8467 197.908 85.4234V89.0002H196.437V85.7144C196.437 85.4189 196.359 85.1977 196.201 85.0499C196.045 84.9022 195.849 84.8279 195.613 84.8279C195.346 84.8279 195.136 84.9134 194.986 85.0844C194.836 85.2524 194.761 85.4752 194.761 85.7527V89.0002H193.331V85.6829C193.331 85.4227 193.256 85.2149 193.106 85.0597C192.958 84.9052 192.763 84.8279 192.521 84.8279C192.358 84.8279 192.21 84.8699 192.078 84.9524C191.949 85.0334 191.846 85.1474 191.77 85.2952C191.694 85.4407 191.656 85.6117 191.656 85.8082V89.0002H190.18ZM199.074 89.0002V83.6819H200.548V89.0002H199.074ZM199.815 82.9964C199.595 82.9964 199.408 82.9237 199.25 82.7782C199.096 82.6304 199.018 82.4542 199.018 82.2487C199.018 82.0454 199.096 81.8714 199.25 81.7259C199.408 81.5782 199.595 81.5039 199.815 81.5039C200.034 81.5039 200.221 81.5782 200.376 81.7259C200.533 81.8714 200.611 82.0454 200.611 82.2487C200.611 82.4542 200.533 82.6304 200.376 82.7782C200.221 82.9237 200.034 82.9964 199.815 82.9964ZM204.133 89.1037C203.588 89.1037 203.12 88.9889 202.727 88.7579C202.337 88.5247 202.037 88.2014 201.827 87.7882C201.619 87.3749 201.516 86.8994 201.516 86.3617C201.516 85.8172 201.621 85.3394 201.831 84.9284C202.043 84.5152 202.344 84.1934 202.735 83.9624C203.125 83.7292 203.588 83.6129 204.126 83.6129C204.59 83.6129 204.997 83.6969 205.345 83.8657C205.693 84.0337 205.969 84.2707 206.173 84.5752C206.376 84.8797 206.488 85.2374 206.509 85.6484H205.117C205.077 85.3829 204.973 85.1699 204.805 85.0079C204.639 84.8444 204.421 84.7619 204.151 84.7619C203.922 84.7619 203.722 84.8249 203.551 84.9494C203.383 85.0717 203.251 85.2502 203.157 85.4857C203.062 85.7212 203.014 86.0062 203.014 86.3414C203.014 86.6804 203.061 86.9692 203.153 87.2069C203.248 87.4447 203.38 87.6254 203.551 87.7499C203.722 87.8752 203.922 87.9374 204.151 87.9374C204.319 87.9374 204.47 87.9029 204.604 87.8332C204.74 87.7642 204.852 87.6637 204.94 87.5324C205.03 87.3982 205.089 87.2377 205.117 87.0509H206.509C206.485 87.4574 206.374 87.8152 206.176 88.1242C205.98 88.4309 205.708 88.6709 205.362 88.8442C205.016 89.0174 204.607 89.1037 204.133 89.1037ZM208.969 89.1007C208.63 89.1007 208.327 89.0414 208.062 88.9237C207.796 88.8037 207.586 88.6274 207.432 88.3942C207.28 88.1587 207.203 87.8654 207.203 87.5152C207.203 87.2197 207.258 86.9714 207.366 86.7704C207.475 86.5694 207.622 86.4082 207.809 86.2859C207.996 86.1637 208.209 86.0707 208.447 86.0084C208.687 85.9462 208.938 85.9027 209.201 85.8772C209.51 85.8449 209.76 85.8149 209.949 85.7872C210.139 85.7572 210.276 85.7129 210.361 85.6552C210.446 85.5982 210.489 85.5127 210.489 85.3994V85.3784C210.489 85.1594 210.42 84.9899 210.281 84.8699C210.145 84.7499 209.951 84.6892 209.7 84.6892C209.434 84.6892 209.223 84.7484 209.066 84.8662C208.909 84.9817 208.805 85.1272 208.754 85.3027L207.391 85.1917C207.46 84.8684 207.595 84.5894 207.799 84.3539C208.002 84.1162 208.264 83.9339 208.585 83.8064C208.908 83.6774 209.282 83.6129 209.707 83.6129C210.002 83.6129 210.285 83.6474 210.555 83.7164C210.827 83.7862 211.069 83.8934 211.279 84.0389C211.491 84.1837 211.658 84.3712 211.78 84.5992C211.903 84.8257 211.964 85.0972 211.964 85.4129V89.0002H210.565V88.2629H210.523C210.439 88.4287 210.324 88.5757 210.181 88.7024C210.038 88.8269 209.866 88.9252 209.665 88.9964C209.464 89.0662 209.233 89.1007 208.969 89.1007ZM209.392 88.0829C209.608 88.0829 209.8 88.0402 209.966 87.9547C210.133 87.8669 210.263 87.7492 210.358 87.6014C210.452 87.4537 210.499 87.2864 210.499 87.0997V86.5349C210.454 86.5649 210.39 86.5927 210.309 86.6182C210.231 86.6414 210.142 86.6632 210.043 86.6842C209.943 86.7022 209.844 86.7194 209.745 86.7359C209.645 86.7494 209.555 86.7622 209.475 86.7742C209.302 86.7989 209.15 86.8394 209.021 86.8949C208.892 86.9504 208.792 87.0254 208.72 87.1199C208.648 87.2122 208.612 87.3277 208.612 87.4664C208.612 87.6674 208.685 87.8204 208.831 87.9269C208.978 88.0304 209.165 88.0829 209.392 88.0829ZM214.583 81.9089V89.0002H213.109V81.9089H214.583ZM220.19 85.1984L218.839 85.2817C218.816 85.1662 218.767 85.0627 218.691 84.9697C218.614 84.8752 218.514 84.8002 218.389 84.7447C218.267 84.6869 218.12 84.6584 217.95 84.6584C217.721 84.6584 217.528 84.7072 217.372 84.8039C217.214 84.8984 217.136 85.0252 217.136 85.1849C217.136 85.3117 217.186 85.4189 217.288 85.5067C217.39 85.5944 217.564 85.6649 217.811 85.7182L218.773 85.9117C219.291 86.0182 219.676 86.1884 219.93 86.4239C220.184 86.6594 220.311 86.9692 220.311 87.3524C220.311 87.7004 220.208 88.0064 220.003 88.2697C219.799 88.5329 219.52 88.7384 219.165 88.8862C218.812 89.0317 218.404 89.1037 217.942 89.1037C217.239 89.1037 216.678 88.9574 216.26 88.6642C215.845 88.3687 215.601 87.9674 215.53 87.4597L216.98 87.3832C217.024 87.5977 217.13 87.7619 217.299 87.8752C217.467 87.9854 217.683 88.0409 217.946 88.0409C218.205 88.0409 218.413 87.9914 218.569 87.8924C218.728 87.7904 218.809 87.6599 218.812 87.5009C218.809 87.3674 218.753 87.2572 218.642 87.1717C218.531 87.0847 218.36 87.0172 218.13 86.9714L217.209 86.7877C216.689 86.6842 216.303 86.5042 216.049 86.2477C215.797 85.9912 215.671 85.6649 215.671 85.2674C215.671 84.9262 215.764 84.6322 215.948 84.3847C216.136 84.1379 216.397 83.9474 216.734 83.8139C217.074 83.6797 217.471 83.6129 217.925 83.6129C218.597 83.6129 219.126 83.7547 219.511 84.0389C219.899 84.3224 220.125 84.7094 220.19 85.1984Z" fill="white"/>
<path d="M159.197 32.75H84.053C80.3648 32.75 77.375 35.7071 77.375 39.3549V54.645C77.375 58.2929 80.3648 61.25 84.053 61.25H159.197C162.885 61.25 165.875 58.2929 165.875 54.645V39.3549C165.875 35.7071 162.885 32.75 159.197 32.75Z" fill="#524F81"/>
<path d="M103.013 50.7499H100.499V43.6591H103.033C103.747 43.6591 104.361 43.801 104.875 44.0849C105.391 44.3665 105.786 44.7716 106.063 45.3002C106.342 45.8287 106.482 46.4612 106.482 47.1976C106.482 47.9362 106.342 48.571 106.063 49.1019C105.786 49.6327 105.388 50.0401 104.869 50.3241C104.351 50.608 103.733 50.7499 103.013 50.7499ZM101.998 49.4654H102.95C103.394 49.4654 103.766 49.3869 104.069 49.23C104.373 49.0707 104.602 48.8248 104.754 48.4925C104.909 48.1578 104.986 47.7262 104.986 47.1976C104.986 46.6736 104.909 46.2454 104.754 45.913C104.602 45.5806 104.375 45.336 104.072 45.179C103.77 45.022 103.397 44.9436 102.954 44.9436H101.998V49.4654ZM107.565 50.7499V45.4318H109.04V50.7499H107.565ZM108.306 44.7462C108.087 44.7462 107.899 44.6735 107.742 44.5281C107.587 44.3803 107.509 44.2038 107.509 43.9984C107.509 43.7952 107.587 43.621 107.742 43.4755C107.899 43.3278 108.087 43.2539 108.306 43.2539C108.525 43.2539 108.712 43.3278 108.867 43.4755C109.024 43.621 109.102 43.7952 109.102 43.9984C109.102 44.2038 109.024 44.3803 108.867 44.5281C108.712 44.6735 108.525 44.7462 108.306 44.7462ZM114.646 46.9483L113.296 47.0314C113.273 46.9159 113.224 46.8121 113.147 46.7197C113.071 46.6251 112.971 46.5501 112.846 46.4947C112.723 46.437 112.577 46.4081 112.406 46.4081C112.177 46.4081 111.985 46.4566 111.828 46.5535C111.671 46.6482 111.592 46.7752 111.592 46.9344C111.592 47.0614 111.643 47.1687 111.745 47.2564C111.847 47.3441 112.021 47.4145 112.267 47.4676L113.23 47.6615C113.747 47.7677 114.133 47.9385 114.387 48.1739C114.64 48.4094 114.767 48.7187 114.767 49.1019C114.767 49.4504 114.665 49.7563 114.46 50.0194C114.256 50.2825 113.977 50.488 113.621 50.6357C113.269 50.7811 112.861 50.8538 112.399 50.8538C111.695 50.8538 111.134 50.7073 110.716 50.4141C110.301 50.1187 110.058 49.717 109.986 49.2092L111.436 49.133C111.481 49.3477 111.586 49.5115 111.755 49.6246C111.924 49.7355 112.14 49.7908 112.402 49.7908C112.661 49.7908 112.869 49.7413 113.026 49.642C113.185 49.5404 113.266 49.41 113.269 49.2508C113.266 49.1169 113.209 49.0072 113.098 48.9218C112.988 48.8341 112.817 48.7672 112.586 48.721L111.665 48.5375C111.146 48.4336 110.759 48.2536 110.506 47.9974C110.254 47.7412 110.128 47.4145 110.128 47.0175C110.128 46.6759 110.221 46.3816 110.405 46.1346C110.592 45.8876 110.854 45.6972 111.191 45.5633C111.53 45.4294 111.927 45.3625 112.382 45.3625C113.053 45.3625 113.582 45.5044 113.968 45.7884C114.355 46.0723 114.582 46.4589 114.646 46.9483ZM118.12 50.8538C117.573 50.8538 117.102 50.743 116.707 50.5214C116.315 50.2975 116.012 49.9813 115.8 49.5727C115.588 49.1619 115.482 48.676 115.482 48.1151C115.482 47.5681 115.588 47.0879 115.8 46.6747C116.012 46.2616 116.311 45.9396 116.697 45.7087C117.085 45.4779 117.539 45.3625 118.061 45.3625C118.412 45.3625 118.738 45.4191 119.041 45.5322C119.346 45.643 119.611 45.8103 119.837 46.0342C120.066 46.2581 120.244 46.5397 120.37 46.879C120.497 47.216 120.561 47.6107 120.561 48.0631V48.4682H116.07V47.5542H119.173C119.173 47.3418 119.126 47.1537 119.034 46.9898C118.942 46.8259 118.813 46.6978 118.65 46.6055C118.488 46.5109 118.3 46.4635 118.085 46.4635C117.862 46.4635 117.663 46.5154 117.49 46.6193C117.319 46.7209 117.185 46.8583 117.088 47.0314C116.991 47.2021 116.941 47.3926 116.939 47.6026V48.4717C116.939 48.7348 116.988 48.9622 117.085 49.1538C117.184 49.3453 117.324 49.4931 117.504 49.597C117.684 49.7008 117.897 49.7528 118.144 49.7528C118.308 49.7528 118.458 49.7297 118.594 49.6835C118.73 49.6374 118.847 49.5681 118.944 49.4758C119.041 49.3834 119.115 49.2703 119.166 49.1365L120.529 49.2265C120.46 49.5543 120.319 49.8405 120.104 50.0851C119.891 50.3275 119.617 50.5168 119.28 50.653C118.945 50.7868 118.558 50.8538 118.12 50.8538ZM123.04 50.8504C122.701 50.8504 122.398 50.7915 122.133 50.6737C121.867 50.5537 121.657 50.3772 121.503 50.144C121.351 49.9086 121.274 49.6154 121.274 49.2646C121.274 48.9691 121.328 48.721 121.437 48.5202C121.546 48.3193 121.693 48.1578 121.88 48.0355C122.067 47.9131 122.279 47.8208 122.517 47.7585C122.757 47.6962 123.009 47.6523 123.272 47.6269C123.581 47.5946 123.831 47.5645 124.02 47.5369C124.209 47.5069 124.346 47.463 124.432 47.4053C124.517 47.3476 124.56 47.2622 124.56 47.1491V47.1283C124.56 46.909 124.491 46.7394 124.352 46.6193C124.216 46.4993 124.022 46.4393 123.77 46.4393C123.505 46.4393 123.294 46.4982 123.137 46.6159C122.98 46.7313 122.876 46.8767 122.825 47.0521L121.461 46.9414C121.531 46.6182 121.666 46.3389 121.87 46.1035C122.073 45.8657 122.335 45.6834 122.656 45.5564C122.979 45.4271 123.352 45.3625 123.778 45.3625C124.073 45.3625 124.356 45.3971 124.626 45.4664C124.898 45.5356 125.14 45.643 125.35 45.7884C125.562 45.9338 125.729 46.1208 125.851 46.3493C125.974 46.5755 126.035 46.8467 126.035 47.1629V50.7499H124.636V50.0125H124.594C124.509 50.1787 124.395 50.3252 124.252 50.4522C124.108 50.5768 123.937 50.6749 123.736 50.7465C123.535 50.8157 123.303 50.8504 123.04 50.8504ZM123.463 49.8324C123.679 49.8324 123.871 49.7897 124.037 49.7043C124.204 49.6166 124.333 49.4989 124.429 49.3511C124.523 49.2034 124.57 49.036 124.57 48.8491V48.2848C124.524 48.3148 124.461 48.3424 124.38 48.3679C124.301 48.3909 124.213 48.4129 124.114 48.4336C124.014 48.4521 123.915 48.4694 123.815 48.4855C123.716 48.4994 123.626 48.5121 123.545 48.5236C123.373 48.5491 123.221 48.5894 123.092 48.6448C122.962 48.7002 122.862 48.7753 122.791 48.8699C122.719 48.9622 122.683 49.0776 122.683 49.2161C122.683 49.417 122.756 49.5704 122.902 49.6766C123.049 49.7805 123.236 49.8324 123.463 49.8324ZM131.604 46.9483L130.254 47.0314C130.231 46.9159 130.181 46.8121 130.105 46.7197C130.029 46.6251 129.928 46.5501 129.804 46.4947C129.682 46.437 129.535 46.4081 129.364 46.4081C129.136 46.4081 128.943 46.4566 128.785 46.5535C128.629 46.6482 128.551 46.7752 128.551 46.9344C128.551 47.0614 128.601 47.1687 128.703 47.2564C128.804 47.3441 128.978 47.4145 129.226 47.4676L130.188 47.6615C130.705 47.7677 131.09 47.9385 131.344 48.1739C131.599 48.4094 131.725 48.7187 131.725 49.1019C131.725 49.4504 131.623 49.7563 131.417 50.0194C131.214 50.2825 130.935 50.488 130.579 50.6357C130.226 50.7811 129.819 50.8538 129.357 50.8538C128.653 50.8538 128.092 50.7073 127.675 50.4141C127.259 50.1187 127.015 49.717 126.943 49.2092L128.395 49.133C128.438 49.3477 128.545 49.5115 128.713 49.6246C128.881 49.7355 129.097 49.7908 129.361 49.7908C129.619 49.7908 129.826 49.7413 129.984 49.642C130.143 49.5404 130.224 49.41 130.226 49.2508C130.224 49.1169 130.167 49.0072 130.057 48.9218C129.946 48.8341 129.775 48.7672 129.544 48.721L128.623 48.5375C128.104 48.4336 127.717 48.2536 127.463 47.9974C127.211 47.7412 127.086 47.4145 127.086 47.0175C127.086 46.6759 127.178 46.3816 127.363 46.1346C127.549 45.8876 127.812 45.6972 128.149 45.5633C128.488 45.4294 128.885 45.3625 129.34 45.3625C130.012 45.3625 130.54 45.5044 130.925 45.7884C131.313 46.0723 131.539 46.4589 131.604 46.9483ZM135.078 50.8538C134.53 50.8538 134.06 50.743 133.665 50.5214C133.273 50.2975 132.97 49.9813 132.758 49.5727C132.546 49.1619 132.439 48.676 132.439 48.1151C132.439 47.5681 132.546 47.0879 132.758 46.6747C132.97 46.2616 133.269 45.9396 133.654 45.7087C134.042 45.4779 134.497 45.3625 135.019 45.3625C135.37 45.3625 135.697 45.4191 135.999 45.5322C136.303 45.643 136.569 45.8103 136.795 46.0342C137.023 46.2581 137.201 46.5397 137.328 46.879C137.455 47.216 137.518 47.6107 137.518 48.0631V48.4682H133.028V47.5542H136.13C136.13 47.3418 136.084 47.1537 135.991 46.9898C135.899 46.8259 135.772 46.6978 135.607 46.6055C135.446 46.5109 135.258 46.4635 135.043 46.4635C134.819 46.4635 134.62 46.5154 134.448 46.6193C134.277 46.7209 134.143 46.8583 134.046 47.0314C133.949 47.2021 133.9 47.3926 133.897 47.6026V48.4717C133.897 48.7348 133.945 48.9622 134.042 49.1538C134.142 49.3453 134.281 49.4931 134.461 49.597C134.641 49.7008 134.855 49.7528 135.102 49.7528C135.266 49.7528 135.416 49.7297 135.552 49.6835C135.688 49.6374 135.805 49.5681 135.901 49.4758C135.999 49.3834 136.072 49.2703 136.123 49.1365L137.488 49.2265C137.418 49.5543 137.276 49.8405 137.062 50.0851C136.849 50.3275 136.575 50.5168 136.237 50.653C135.903 50.7868 135.516 50.8538 135.078 50.8538ZM142.906 46.9483L141.556 47.0314C141.532 46.9159 141.483 46.8121 141.407 46.7197C141.331 46.6251 141.23 46.5501 141.106 46.4947C140.983 46.437 140.836 46.4081 140.666 46.4081C140.437 46.4081 140.245 46.4566 140.088 46.5535C139.931 46.6482 139.852 46.7752 139.852 46.9344C139.852 47.0614 139.903 47.1687 140.005 47.2564C140.106 47.3441 140.281 47.4145 140.527 47.4676L141.49 47.6615C142.007 47.7677 142.393 47.9385 142.646 48.1739C142.9 48.4094 143.027 48.7187 143.027 49.1019C143.027 49.4504 142.924 49.7563 142.719 50.0194C142.516 50.2825 142.237 50.488 141.881 50.6357C141.528 50.7811 141.121 50.8538 140.659 50.8538C139.955 50.8538 139.394 50.7073 138.976 50.4141C138.561 50.1187 138.317 49.717 138.246 49.2092L139.696 49.133C139.741 49.3477 139.846 49.5115 140.015 49.6246C140.184 49.7355 140.399 49.7908 140.662 49.7908C140.921 49.7908 141.129 49.7413 141.286 49.642C141.445 49.5404 141.526 49.41 141.528 49.2508C141.526 49.1169 141.469 49.0072 141.358 48.9218C141.247 48.8341 141.077 48.7672 140.846 48.721L139.925 48.5375C139.405 48.4336 139.019 48.2536 138.765 47.9974C138.514 47.7412 138.388 47.4145 138.388 47.0175C138.388 46.6759 138.48 46.3816 138.664 46.1346C138.852 45.8876 139.114 45.6972 139.45 45.5633C139.79 45.4294 140.187 45.3625 140.641 45.3625C141.313 45.3625 141.842 45.5044 142.228 45.7884C142.615 46.0723 142.841 46.4589 142.906 46.9483Z" fill="white"/>
<mask id="mask0_8809_212117" style="mask-type:luminance" maskUnits="userSpaceOnUse" x="57" y="98" width="55" height="55">
<path d="M111.875 98.75H57.125V152.75H111.875V98.75Z" fill="white"/>
</mask>
<g mask="url(#mask0_8809_212117)">
<path d="M68.1914 117.912L73.1422 112.977L76.3457 109.783L101.391 133.009L92.0717 142.299L68.1914 117.912Z" fill="#DCDCE6"/>
<path d="M98.796 135.591L106.856 127.551C108.469 125.961 109.716 124.131 110.598 122.061C111.449 120.021 111.906 117.861 111.906 115.611C111.906 110.901 110.233 106.911 106.917 103.641C103.602 100.371 99.5564 98.7207 94.781 98.7207C92.4998 98.7207 90.3097 99.1407 88.2414 100.011C86.1731 100.851 84.3177 102.081 82.6752 103.701L74.5235 111.651L98.796 135.591ZM74.2193 152.781C76.5006 152.781 78.6906 152.361 80.759 151.491C82.8273 150.651 84.6826 149.421 86.3251 147.801L94.4768 139.851L70.2044 115.911L62.144 123.951C60.5318 125.541 59.2847 127.371 58.4027 129.441C57.551 131.481 57.0947 133.641 57.0947 135.891C57.0947 140.601 58.7677 144.591 62.0831 147.861C65.3985 151.131 69.4439 152.781 74.2193 152.781Z" fill="#9795B3"/>
</g>
<path fill-rule="evenodd" clip-rule="evenodd" d="M253.941 83.0037V66.9062C253.941 66.7219 254.091 66.5726 254.275 66.5726H254.95C256.42 66.5726 257.613 65.3811 257.613 63.9113C257.613 62.4415 256.42 61.25 254.95 61.25H236.552C235.081 61.25 233.89 62.4415 233.89 63.9113C233.89 65.3811 235.081 66.5726 236.552 66.5726H237.227C237.412 66.5726 237.561 66.7219 237.561 66.9062V83.0037L224.452 100.821C223.558 102.035 223.021 103.471 222.901 104.97C222.781 106.468 223.083 107.97 223.772 109.309C224.462 110.647 225.512 111.77 226.805 112.553C228.099 113.337 229.585 113.75 231.1 113.75H260.4C261.916 113.75 263.401 113.337 264.695 112.553C265.988 111.77 267.038 110.647 267.728 109.309C268.417 107.97 268.72 106.468 268.6 104.97C268.48 103.472 267.945 102.036 267.05 100.821L253.941 83.0037ZM242.927 67.4193V83.3495C242.927 84.2518 242.638 85.1307 242.104 85.8575L239.443 89.4732C239.196 89.8085 239.436 90.2825 239.852 90.2825H251.65C252.067 90.2825 252.306 89.8085 252.059 89.4732L249.399 85.8575C248.864 85.1307 248.575 84.2518 248.575 83.3495V67.4193C248.575 66.9517 248.196 66.5726 247.728 66.5726H243.774C243.306 66.5726 242.927 66.9517 242.927 67.4193ZM231.103 108.427H260.401C260.93 108.426 261.448 108.282 261.898 108.009C262.348 107.736 262.711 107.347 262.949 106.884C263.187 106.422 263.291 105.905 263.25 105.39C263.209 104.874 263.025 104.379 262.717 103.958L256.824 95.9502C256.664 95.7327 256.411 95.6045 256.141 95.6045H235.361C235.091 95.6045 234.838 95.7327 234.679 95.9502L228.787 103.958C228.479 104.378 228.295 104.874 228.253 105.39C228.213 105.905 228.317 106.422 228.555 106.884C228.793 107.347 229.156 107.736 229.606 108.009C230.056 108.282 230.574 108.426 231.103 108.427Z" fill="#9795B3"/>
<path d="M226.264 105.282L234.736 91.7334L239.82 93.4269L258.458 95.1204L263.542 98.5074L266.931 105.282L261.847 112.056L227.959 110.363L226.264 105.282Z" fill="#9795B3"/>
<path d="M251.966 35.1538L246.875 38.0004L251.966 40.8462L254.751 47.75L257.534 40.8462L262.625 38.0004L257.534 35.1538L254.751 28.25L251.966 35.1538Z" fill="white"/>
<path d="M45.4054 100.809L38.375 104.751L45.4054 108.691L49.2505 118.25L53.0946 108.691L60.125 104.751L53.0946 100.809L49.2505 91.25L45.4054 100.809Z" fill="white"/>
<path fill-rule="evenodd" clip-rule="evenodd" d="M60.049 27.7727C60.049 26.3795 61.1784 25.25 62.5716 25.25H68.1777C69.571 25.25 70.7005 26.3795 70.7005 27.7727C70.7005 29.166 69.571 30.2955 68.1777 30.2955H67.8975V36.6533C70.5817 37.0641 73.0535 38.1204 75.1495 39.6585L79.6466 35.1615L79.4487 34.9636C78.4635 33.9784 78.4635 32.3811 79.4487 31.3959C80.4339 30.4107 82.0312 30.4107 83.0164 31.3959L86.9799 35.3594C87.9652 36.3446 87.9652 37.9419 86.9799 38.9271C85.9948 39.9123 84.3974 39.9123 83.4122 38.9271L83.2143 38.7291L78.717 43.2264C80.2548 45.3221 81.3108 47.7935 81.7215 50.4772H88.0795V50.197C88.0795 48.8037 89.209 47.6742 90.6022 47.6742C91.9955 47.6742 93.125 48.8037 93.125 50.197V55.803C93.125 57.1962 91.9955 58.3257 90.6022 58.3257C89.209 58.3257 88.0795 57.1962 88.0795 55.803V55.5227H81.7215C81.3108 58.2065 80.2548 60.6779 78.717 62.7736L83.2143 67.2709L83.4122 67.073C84.3974 66.0878 85.9948 66.0878 86.9799 67.073C87.9652 68.0581 87.9652 69.6555 86.9799 70.6407L83.0164 74.6041C82.0312 75.5892 80.4339 75.5892 79.4487 74.6041C78.4635 73.6189 78.4635 72.0216 79.4487 71.0364L79.6466 70.8385L75.1495 66.3414C73.0535 67.8796 70.5817 68.9359 67.8975 69.3467V75.7048H68.1777C69.571 75.7048 70.7005 76.8343 70.7005 78.227C70.7005 79.6205 69.571 80.75 68.1777 80.75H62.5716C61.1784 80.75 60.049 79.6205 60.049 78.227C60.049 76.8343 61.1784 75.7048 62.5716 75.7048H62.852V69.3467C60.1682 68.9359 57.6969 67.88 55.6012 66.3422L51.1049 70.8384L51.3034 71.037C52.2882 72.0226 52.2876 73.6199 51.3021 74.6047C50.3166 75.5892 48.7192 75.5893 47.7344 74.6035L45.8038 72.6715C45.7868 72.6555 45.7699 72.639 45.7533 72.6224C45.7362 72.6053 45.7194 72.588 45.7028 72.5705L43.7737 70.64C42.7888 69.6545 42.7893 68.0571 43.7749 67.0723C44.7605 66.0875 46.3578 66.088 47.3426 67.0736L47.5384 67.2696L52.0334 62.7746C50.4953 60.6786 49.4392 58.207 49.0285 55.5228H42.6705V55.803C42.6705 57.1963 41.541 58.3257 40.1478 58.3257C38.7545 58.3257 37.625 57.1963 37.625 55.803V50.197C37.625 48.8038 38.7545 47.6742 40.1478 47.6742C41.541 47.6742 42.6705 48.8038 42.6705 50.197V50.4773H49.0285C49.4392 47.7933 50.4951 45.3217 52.0331 43.2259L47.5364 38.7293L47.3378 38.9277C46.3523 39.9126 44.755 39.912 43.7701 38.9265C42.7852 37.941 42.7858 36.3436 43.7714 35.3588L45.7033 33.4282C45.7194 33.4112 45.7358 33.3943 45.7525 33.3777C45.7696 33.3606 45.7869 33.3438 45.8043 33.3273L47.7349 31.3981C48.7204 30.4133 50.3178 30.4138 51.3026 31.3994C52.2874 32.3849 52.2869 33.9823 51.3013 34.9671L51.1054 35.1629L55.6007 39.6582C57.6965 38.1201 60.168 37.0641 62.852 36.6533V30.2955H62.5716C61.1784 30.2955 60.049 29.166 60.049 27.7727ZM65.3747 41.5076C59.0277 41.5076 53.8827 46.6528 53.8827 53C53.8827 59.3473 59.0277 64.4924 65.3747 64.4924C71.7219 64.4924 76.8673 59.3471 76.8673 53C76.8673 46.6529 71.7219 41.5076 65.3747 41.5076Z" fill="#9795B3"/>
<path d="M77.9889 52.1596C77.9889 59.5904 71.9651 65.6142 64.5342 65.6142C57.1034 65.6142 51.0796 59.5904 51.0796 52.1596C51.0796 44.7289 57.1034 38.7051 64.5342 38.7051C71.9651 38.7051 77.9889 44.7289 77.9889 52.1596Z" fill="#9795B3"/>
<path d="M226.428 154.753C223.595 158.731 220.93 162.487 218.078 166.495C215.118 151.368 212.207 136.513 209.375 122C222.018 130.463 234.886 139.072 247.655 147.622C243.333 148.459 238.648 149.364 233.631 150.327C238.894 156.756 243.941 162.934 249.125 169.276C246.949 171.028 244.823 172.729 242.628 174.5C237.238 167.924 231.945 161.465 226.447 154.753H226.428Z" fill="#524F81"/>
<path d="M47.7783 0.5H256.971C266.303 0.5 273.875 5.6849 273.875 12.0749V18.5H30.875V12.0749C30.875 5.6849 38.4467 0.5 47.7783 0.5Z" fill="#9795B3"/>
<path d="M61.5422 12.5938C63.452 12.5938 65.0003 11.053 65.0003 9.15236C65.0003 7.25172 63.452 5.71094 61.5422 5.71094C59.6323 5.71094 58.084 7.25172 58.084 9.15236C58.084 11.053 59.6323 12.5938 61.5422 12.5938Z" fill="#524F81"/>
<path d="M52.1476 12.5938C54.0575 12.5938 55.6057 11.053 55.6057 9.15236C55.6057 7.25172 54.0575 5.71094 52.1476 5.71094C50.2378 5.71094 48.6895 7.25172 48.6895 9.15236C48.6895 11.053 50.2378 12.5938 52.1476 12.5938Z" fill="#524F81"/>
<path d="M42.7604 12.5938C44.6703 12.5938 46.2185 11.053 46.2185 9.15236C46.2185 7.25172 44.6703 5.71094 42.7604 5.71094C40.8505 5.71094 39.3022 7.25172 39.3022 9.15236C39.3022 11.053 40.8505 12.5938 42.7604 12.5938Z" fill="#524F81"/>
</g>
<path d="M44.8516 195.461C44.8516 196.138 44.6823 196.716 44.3438 197.195C44.0104 197.669 43.5417 198.031 42.9375 198.281C42.3333 198.531 41.6224 198.656 40.8047 198.656C40.3724 198.656 39.9635 198.635 39.5781 198.594C39.1927 198.552 38.8385 198.492 38.5156 198.414C38.1927 198.336 37.9089 198.24 37.6641 198.125V196.852C38.0547 197.013 38.5312 197.164 39.0938 197.305C39.6562 197.44 40.2448 197.508 40.8594 197.508C41.4323 197.508 41.9167 197.432 42.3125 197.281C42.7083 197.125 43.0078 196.904 43.2109 196.617C43.4193 196.326 43.5234 195.977 43.5234 195.57C43.5234 195.18 43.4375 194.854 43.2656 194.594C43.0938 194.328 42.8073 194.089 42.4062 193.875C42.0104 193.656 41.4688 193.424 40.7812 193.18C40.2969 193.008 39.8698 192.82 39.5 192.617C39.1302 192.409 38.8203 192.174 38.5703 191.914C38.3203 191.654 38.1302 191.352 38 191.008C37.875 190.664 37.8125 190.271 37.8125 189.828C37.8125 189.219 37.9661 188.698 38.2734 188.266C38.5859 187.828 39.0156 187.495 39.5625 187.266C40.1146 187.031 40.7474 186.914 41.4609 186.914C42.0703 186.914 42.6328 186.971 43.1484 187.086C43.6693 187.201 44.1458 187.354 44.5781 187.547L44.1641 188.688C43.7526 188.516 43.3151 188.372 42.8516 188.258C42.3932 188.143 41.9193 188.086 41.4297 188.086C40.9401 188.086 40.526 188.159 40.1875 188.305C39.8542 188.445 39.599 188.646 39.4219 188.906C39.2448 189.167 39.1562 189.477 39.1562 189.836C39.1562 190.237 39.2396 190.57 39.4062 190.836C39.5781 191.102 39.849 191.339 40.2188 191.547C40.5938 191.75 41.0885 191.964 41.7031 192.188C42.375 192.432 42.9453 192.693 43.4141 192.969C43.8828 193.24 44.2396 193.573 44.4844 193.969C44.7292 194.359 44.8516 194.857 44.8516 195.461ZM50.2891 189.781C51.0182 189.781 51.6432 189.943 52.1641 190.266C52.6849 190.589 53.0833 191.042 53.3594 191.625C53.6354 192.203 53.7734 192.88 53.7734 193.656V194.461H47.8594C47.875 195.466 48.125 196.232 48.6094 196.758C49.0938 197.284 49.776 197.547 50.6562 197.547C51.1979 197.547 51.6771 197.497 52.0938 197.398C52.5104 197.299 52.9427 197.154 53.3906 196.961V198.102C52.9583 198.294 52.5286 198.435 52.1016 198.523C51.6797 198.612 51.1797 198.656 50.6016 198.656C49.7786 198.656 49.0599 198.49 48.4453 198.156C47.8359 197.818 47.362 197.323 47.0234 196.672C46.6849 196.021 46.5156 195.224 46.5156 194.281C46.5156 193.359 46.6693 192.562 46.9766 191.891C47.2891 191.214 47.7266 190.693 48.2891 190.328C48.8568 189.964 49.5234 189.781 50.2891 189.781ZM50.2734 190.844C49.5807 190.844 49.0286 191.07 48.6172 191.523C48.2057 191.977 47.9609 192.609 47.8828 193.422H52.4141C52.4089 192.911 52.3281 192.464 52.1719 192.078C52.0208 191.688 51.7891 191.385 51.4766 191.172C51.1641 190.953 50.763 190.844 50.2734 190.844ZM57.2812 198.5H55.9766V186.344H57.2812V198.5ZM63.3203 189.781C64.0495 189.781 64.6745 189.943 65.1953 190.266C65.7161 190.589 66.1146 191.042 66.3906 191.625C66.6667 192.203 66.8047 192.88 66.8047 193.656V194.461H60.8906C60.9062 195.466 61.1562 196.232 61.6406 196.758C62.125 197.284 62.8073 197.547 63.6875 197.547C64.2292 197.547 64.7083 197.497 65.125 197.398C65.5417 197.299 65.974 197.154 66.4219 196.961V198.102C65.9896 198.294 65.5599 198.435 65.1328 198.523C64.7109 198.612 64.2109 198.656 63.6328 198.656C62.8099 198.656 62.0911 198.49 61.4766 198.156C60.8672 197.818 60.3932 197.323 60.0547 196.672C59.7161 196.021 59.5469 195.224 59.5469 194.281C59.5469 193.359 59.7005 192.562 60.0078 191.891C60.3203 191.214 60.7578 190.693 61.3203 190.328C61.888 189.964 62.5547 189.781 63.3203 189.781ZM63.3047 190.844C62.612 190.844 62.0599 191.07 61.6484 191.523C61.237 191.977 60.9922 192.609 60.9141 193.422H65.4453C65.4401 192.911 65.3594 192.464 65.2031 192.078C65.0521 191.688 64.8203 191.385 64.5078 191.172C64.1953 190.953 63.7943 190.844 63.3047 190.844ZM72.4375 198.656C71.6667 198.656 70.987 198.497 70.3984 198.18C69.8099 197.862 69.3516 197.378 69.0234 196.727C68.6953 196.076 68.5312 195.255 68.5312 194.266C68.5312 193.229 68.7031 192.383 69.0469 191.727C69.3958 191.065 69.875 190.576 70.4844 190.258C71.0938 189.94 71.7865 189.781 72.5625 189.781C72.9896 189.781 73.401 189.826 73.7969 189.914C74.1979 189.997 74.526 190.104 74.7812 190.234L74.3906 191.32C74.1302 191.216 73.8281 191.122 73.4844 191.039C73.1458 190.956 72.8281 190.914 72.5312 190.914C71.9375 190.914 71.4427 191.042 71.0469 191.297C70.6562 191.552 70.362 191.927 70.1641 192.422C69.9714 192.917 69.875 193.526 69.875 194.25C69.875 194.943 69.9688 195.534 70.1562 196.023C70.349 196.513 70.6328 196.888 71.0078 197.148C71.388 197.404 71.862 197.531 72.4297 197.531C72.8828 197.531 73.2917 197.484 73.6562 197.391C74.0208 197.292 74.3516 197.177 74.6484 197.047V198.203C74.362 198.349 74.0417 198.461 73.6875 198.539C73.3385 198.617 72.9219 198.656 72.4375 198.656ZM79.4453 197.594C79.6589 197.594 79.8776 197.576 80.1016 197.539C80.3255 197.503 80.5078 197.458 80.6484 197.406V198.414C80.4974 198.482 80.2865 198.539 80.0156 198.586C79.75 198.633 79.4896 198.656 79.2344 198.656C78.7812 198.656 78.3698 198.578 78 198.422C77.6302 198.26 77.3333 197.99 77.1094 197.609C76.8906 197.229 76.7812 196.703 76.7812 196.031V190.953H75.5625V190.32L76.7891 189.812L77.3047 187.953H78.0859V189.938H80.5938V190.953H78.0859V195.992C78.0859 196.529 78.2083 196.93 78.4531 197.195C78.7031 197.461 79.0339 197.594 79.4453 197.594ZM89.7422 189.797C90.763 189.797 91.5208 190.026 92.0156 190.484C92.5104 190.943 92.7578 191.674 92.7578 192.68V198.5H91.8125L91.5625 197.234H91.5C91.2604 197.547 91.0104 197.81 90.75 198.023C90.4896 198.232 90.1875 198.391 89.8438 198.5C89.5052 198.604 89.0885 198.656 88.5938 198.656C88.0729 198.656 87.6094 198.565 87.2031 198.383C86.8021 198.201 86.4844 197.924 86.25 197.555C86.0208 197.185 85.9062 196.716 85.9062 196.148C85.9062 195.294 86.2448 194.638 86.9219 194.18C87.599 193.721 88.6302 193.471 90.0156 193.43L91.4922 193.367V192.844C91.4922 192.104 91.3333 191.586 91.0156 191.289C90.6979 190.992 90.25 190.844 89.6719 190.844C89.224 190.844 88.7969 190.909 88.3906 191.039C87.9844 191.169 87.599 191.323 87.2344 191.5L86.8359 190.516C87.2214 190.318 87.6641 190.148 88.1641 190.008C88.6641 189.867 89.1901 189.797 89.7422 189.797ZM91.4766 194.281L90.1719 194.336C89.1042 194.378 88.3516 194.552 87.9141 194.859C87.4766 195.167 87.2578 195.602 87.2578 196.164C87.2578 196.654 87.4062 197.016 87.7031 197.25C88 197.484 88.3932 197.602 88.8828 197.602C89.6432 197.602 90.2656 197.391 90.75 196.969C91.2344 196.547 91.4766 195.914 91.4766 195.07V194.281ZM103.477 189.781C103.648 189.781 103.828 189.792 104.016 189.812C104.203 189.828 104.37 189.852 104.516 189.883L104.352 191.086C104.211 191.049 104.055 191.021 103.883 191C103.711 190.979 103.549 190.969 103.398 190.969C103.055 190.969 102.729 191.039 102.422 191.18C102.12 191.315 101.854 191.513 101.625 191.773C101.396 192.029 101.216 192.339 101.086 192.703C100.956 193.062 100.891 193.464 100.891 193.906V198.5H99.5859V189.938H100.664L100.805 191.516H100.859C101.036 191.198 101.25 190.909 101.5 190.648C101.75 190.383 102.039 190.172 102.367 190.016C102.701 189.859 103.07 189.781 103.477 189.781ZM109.43 189.781C110.159 189.781 110.784 189.943 111.305 190.266C111.826 190.589 112.224 191.042 112.5 191.625C112.776 192.203 112.914 192.88 112.914 193.656V194.461H107C107.016 195.466 107.266 196.232 107.75 196.758C108.234 197.284 108.917 197.547 109.797 197.547C110.339 197.547 110.818 197.497 111.234 197.398C111.651 197.299 112.083 197.154 112.531 196.961V198.102C112.099 198.294 111.669 198.435 111.242 198.523C110.82 198.612 110.32 198.656 109.742 198.656C108.919 198.656 108.201 198.49 107.586 198.156C106.977 197.818 106.503 197.323 106.164 196.672C105.826 196.021 105.656 195.224 105.656 194.281C105.656 193.359 105.81 192.562 106.117 191.891C106.43 191.214 106.867 190.693 107.43 190.328C107.997 189.964 108.664 189.781 109.43 189.781ZM109.414 190.844C108.721 190.844 108.169 191.07 107.758 191.523C107.346 191.977 107.102 192.609 107.023 193.422H111.555C111.549 192.911 111.469 192.464 111.312 192.078C111.161 191.688 110.93 191.385 110.617 191.172C110.305 190.953 109.904 190.844 109.414 190.844ZM116.422 198.5H115.117V186.344H116.422V198.5ZM122.367 189.797C123.388 189.797 124.146 190.026 124.641 190.484C125.135 190.943 125.383 191.674 125.383 192.68V198.5H124.438L124.188 197.234H124.125C123.885 197.547 123.635 197.81 123.375 198.023C123.115 198.232 122.812 198.391 122.469 198.5C122.13 198.604 121.714 198.656 121.219 198.656C120.698 198.656 120.234 198.565 119.828 198.383C119.427 198.201 119.109 197.924 118.875 197.555C118.646 197.185 118.531 196.716 118.531 196.148C118.531 195.294 118.87 194.638 119.547 194.18C120.224 193.721 121.255 193.471 122.641 193.43L124.117 193.367V192.844C124.117 192.104 123.958 191.586 123.641 191.289C123.323 190.992 122.875 190.844 122.297 190.844C121.849 190.844 121.422 190.909 121.016 191.039C120.609 191.169 120.224 191.323 119.859 191.5L119.461 190.516C119.846 190.318 120.289 190.148 120.789 190.008C121.289 189.867 121.815 189.797 122.367 189.797ZM124.102 194.281L122.797 194.336C121.729 194.378 120.977 194.552 120.539 194.859C120.102 195.167 119.883 195.602 119.883 196.164C119.883 196.654 120.031 197.016 120.328 197.25C120.625 197.484 121.018 197.602 121.508 197.602C122.268 197.602 122.891 197.391 123.375 196.969C123.859 196.547 124.102 195.914 124.102 195.07V194.281ZM130.82 197.594C131.034 197.594 131.253 197.576 131.477 197.539C131.701 197.503 131.883 197.458 132.023 197.406V198.414C131.872 198.482 131.661 198.539 131.391 198.586C131.125 198.633 130.865 198.656 130.609 198.656C130.156 198.656 129.745 198.578 129.375 198.422C129.005 198.26 128.708 197.99 128.484 197.609C128.266 197.229 128.156 196.703 128.156 196.031V190.953H126.938V190.32L128.164 189.812L128.68 187.953H129.461V189.938H131.969V190.953H129.461V195.992C129.461 196.529 129.583 196.93 129.828 197.195C130.078 197.461 130.409 197.594 130.82 197.594ZM135.055 189.938V198.5H133.758V189.938H135.055ZM134.422 186.734C134.635 186.734 134.818 186.805 134.969 186.945C135.125 187.081 135.203 187.294 135.203 187.586C135.203 187.872 135.125 188.086 134.969 188.227C134.818 188.367 134.635 188.438 134.422 188.438C134.198 188.438 134.01 188.367 133.859 188.227C133.714 188.086 133.641 187.872 133.641 187.586C133.641 187.294 133.714 187.081 133.859 186.945C134.01 186.805 134.198 186.734 134.422 186.734ZM145.188 194.203C145.188 194.906 145.096 195.534 144.914 196.086C144.732 196.638 144.469 197.104 144.125 197.484C143.781 197.865 143.365 198.156 142.875 198.359C142.391 198.557 141.841 198.656 141.227 198.656C140.654 198.656 140.128 198.557 139.648 198.359C139.174 198.156 138.763 197.865 138.414 197.484C138.07 197.104 137.802 196.638 137.609 196.086C137.422 195.534 137.328 194.906 137.328 194.203C137.328 193.266 137.487 192.469 137.805 191.812C138.122 191.151 138.576 190.648 139.164 190.305C139.758 189.956 140.464 189.781 141.281 189.781C142.062 189.781 142.745 189.956 143.328 190.305C143.917 190.654 144.372 191.159 144.695 191.82C145.023 192.477 145.188 193.271 145.188 194.203ZM138.672 194.203C138.672 194.891 138.763 195.487 138.945 195.992C139.128 196.497 139.409 196.888 139.789 197.164C140.169 197.44 140.659 197.578 141.258 197.578C141.852 197.578 142.339 197.44 142.719 197.164C143.104 196.888 143.388 196.497 143.57 195.992C143.753 195.487 143.844 194.891 143.844 194.203C143.844 193.521 143.753 192.932 143.57 192.438C143.388 191.938 143.107 191.552 142.727 191.281C142.346 191.01 141.854 190.875 141.25 190.875C140.359 190.875 139.706 191.169 139.289 191.758C138.878 192.346 138.672 193.161 138.672 194.203ZM151.484 189.781C152.5 189.781 153.268 190.031 153.789 190.531C154.31 191.026 154.57 191.823 154.57 192.922V198.5H153.289V193.008C153.289 192.294 153.125 191.76 152.797 191.406C152.474 191.052 151.977 190.875 151.305 190.875C150.357 190.875 149.69 191.143 149.305 191.68C148.919 192.216 148.727 192.995 148.727 194.016V198.5H147.43V189.938H148.477L148.672 191.172H148.742C148.924 190.87 149.156 190.617 149.438 190.414C149.719 190.206 150.034 190.049 150.383 189.945C150.732 189.836 151.099 189.781 151.484 189.781ZM162.781 196.156C162.781 196.703 162.643 197.164 162.367 197.539C162.096 197.909 161.706 198.188 161.195 198.375C160.69 198.562 160.086 198.656 159.383 198.656C158.784 198.656 158.266 198.609 157.828 198.516C157.391 198.422 157.008 198.289 156.68 198.117V196.922C157.029 197.094 157.445 197.25 157.93 197.391C158.414 197.531 158.909 197.602 159.414 197.602C160.154 197.602 160.69 197.482 161.023 197.242C161.357 197.003 161.523 196.677 161.523 196.266C161.523 196.031 161.456 195.826 161.32 195.648C161.19 195.466 160.969 195.292 160.656 195.125C160.344 194.953 159.911 194.766 159.359 194.562C158.812 194.354 158.339 194.148 157.938 193.945C157.542 193.737 157.234 193.484 157.016 193.188C156.802 192.891 156.695 192.505 156.695 192.031C156.695 191.307 156.987 190.753 157.57 190.367C158.159 189.977 158.93 189.781 159.883 189.781C160.398 189.781 160.88 189.833 161.328 189.938C161.781 190.036 162.203 190.172 162.594 190.344L162.156 191.383C161.802 191.232 161.424 191.104 161.023 191C160.622 190.896 160.214 190.844 159.797 190.844C159.198 190.844 158.737 190.943 158.414 191.141C158.096 191.339 157.938 191.609 157.938 191.953C157.938 192.219 158.01 192.438 158.156 192.609C158.307 192.781 158.547 192.943 158.875 193.094C159.203 193.245 159.635 193.422 160.172 193.625C160.708 193.823 161.172 194.029 161.562 194.242C161.953 194.451 162.253 194.706 162.461 195.008C162.674 195.305 162.781 195.688 162.781 196.156ZM166.164 186.344V189.977C166.164 190.185 166.159 190.396 166.148 190.609C166.138 190.818 166.12 191.01 166.094 191.188H166.18C166.357 190.885 166.581 190.633 166.852 190.43C167.128 190.221 167.44 190.065 167.789 189.961C168.138 189.852 168.508 189.797 168.898 189.797C169.586 189.797 170.159 189.906 170.617 190.125C171.081 190.344 171.427 190.682 171.656 191.141C171.891 191.599 172.008 192.193 172.008 192.922V198.5H170.727V193.008C170.727 192.294 170.562 191.76 170.234 191.406C169.911 191.052 169.414 190.875 168.742 190.875C168.107 190.875 167.599 190.997 167.219 191.242C166.844 191.482 166.573 191.836 166.406 192.305C166.245 192.773 166.164 193.346 166.164 194.023V198.5H164.867V186.344H166.164ZM175.977 189.938V198.5H174.68V189.938H175.977ZM175.344 186.734C175.557 186.734 175.74 186.805 175.891 186.945C176.047 187.081 176.125 187.294 176.125 187.586C176.125 187.872 176.047 188.086 175.891 188.227C175.74 188.367 175.557 188.438 175.344 188.438C175.12 188.438 174.932 188.367 174.781 188.227C174.635 188.086 174.562 187.872 174.562 187.586C174.562 187.294 174.635 187.081 174.781 186.945C174.932 186.805 175.12 186.734 175.344 186.734ZM182.75 189.781C183.818 189.781 184.669 190.148 185.305 190.883C185.94 191.617 186.258 192.721 186.258 194.195C186.258 195.169 186.112 195.987 185.82 196.648C185.529 197.31 185.117 197.81 184.586 198.148C184.06 198.487 183.438 198.656 182.719 198.656C182.266 198.656 181.867 198.596 181.523 198.477C181.18 198.357 180.885 198.195 180.641 197.992C180.396 197.789 180.193 197.568 180.031 197.328H179.938C179.953 197.531 179.971 197.776 179.992 198.062C180.018 198.349 180.031 198.599 180.031 198.812V202.328H178.727V189.938H179.797L179.969 191.203H180.031C180.198 190.943 180.401 190.706 180.641 190.492C180.88 190.273 181.172 190.102 181.516 189.977C181.865 189.846 182.276 189.781 182.75 189.781ZM182.523 190.875C181.93 190.875 181.451 190.99 181.086 191.219C180.727 191.448 180.464 191.792 180.297 192.25C180.13 192.703 180.042 193.273 180.031 193.961V194.211C180.031 194.935 180.109 195.547 180.266 196.047C180.427 196.547 180.69 196.927 181.055 197.188C181.424 197.448 181.919 197.578 182.539 197.578C183.07 197.578 183.513 197.435 183.867 197.148C184.221 196.862 184.484 196.464 184.656 195.953C184.833 195.438 184.922 194.846 184.922 194.18C184.922 193.169 184.724 192.367 184.328 191.773C183.938 191.174 183.336 190.875 182.523 190.875ZM195.445 197.594C195.659 197.594 195.878 197.576 196.102 197.539C196.326 197.503 196.508 197.458 196.648 197.406V198.414C196.497 198.482 196.286 198.539 196.016 198.586C195.75 198.633 195.49 198.656 195.234 198.656C194.781 198.656 194.37 198.578 194 198.422C193.63 198.26 193.333 197.99 193.109 197.609C192.891 197.229 192.781 196.703 192.781 196.031V190.953H191.562V190.32L192.789 189.812L193.305 187.953H194.086V189.938H196.594V190.953H194.086V195.992C194.086 196.529 194.208 196.93 194.453 197.195C194.703 197.461 195.034 197.594 195.445 197.594ZM205.766 194.203C205.766 194.906 205.674 195.534 205.492 196.086C205.31 196.638 205.047 197.104 204.703 197.484C204.359 197.865 203.943 198.156 203.453 198.359C202.969 198.557 202.419 198.656 201.805 198.656C201.232 198.656 200.706 198.557 200.227 198.359C199.753 198.156 199.341 197.865 198.992 197.484C198.648 197.104 198.38 196.638 198.188 196.086C198 195.534 197.906 194.906 197.906 194.203C197.906 193.266 198.065 192.469 198.383 191.812C198.701 191.151 199.154 190.648 199.742 190.305C200.336 189.956 201.042 189.781 201.859 189.781C202.641 189.781 203.323 189.956 203.906 190.305C204.495 190.654 204.951 191.159 205.273 191.82C205.602 192.477 205.766 193.271 205.766 194.203ZM199.25 194.203C199.25 194.891 199.341 195.487 199.523 195.992C199.706 196.497 199.987 196.888 200.367 197.164C200.747 197.44 201.237 197.578 201.836 197.578C202.43 197.578 202.917 197.44 203.297 197.164C203.682 196.888 203.966 196.497 204.148 195.992C204.331 195.487 204.422 194.891 204.422 194.203C204.422 193.521 204.331 192.932 204.148 192.438C203.966 191.938 203.685 191.552 203.305 191.281C202.924 191.01 202.432 190.875 201.828 190.875C200.938 190.875 200.284 191.169 199.867 191.758C199.456 192.346 199.25 193.161 199.25 194.203ZM215.461 189.781C216.19 189.781 216.815 189.943 217.336 190.266C217.857 190.589 218.255 191.042 218.531 191.625C218.807 192.203 218.945 192.88 218.945 193.656V194.461H213.031C213.047 195.466 213.297 196.232 213.781 196.758C214.266 197.284 214.948 197.547 215.828 197.547C216.37 197.547 216.849 197.497 217.266 197.398C217.682 197.299 218.115 197.154 218.562 196.961V198.102C218.13 198.294 217.701 198.435 217.273 198.523C216.852 198.612 216.352 198.656 215.773 198.656C214.951 198.656 214.232 198.49 213.617 198.156C213.008 197.818 212.534 197.323 212.195 196.672C211.857 196.021 211.688 195.224 211.688 194.281C211.688 193.359 211.841 192.562 212.148 191.891C212.461 191.214 212.898 190.693 213.461 190.328C214.029 189.964 214.695 189.781 215.461 189.781ZM215.445 190.844C214.753 190.844 214.201 191.07 213.789 191.523C213.378 191.977 213.133 192.609 213.055 193.422H217.586C217.581 192.911 217.5 192.464 217.344 192.078C217.193 191.688 216.961 191.385 216.648 191.172C216.336 190.953 215.935 190.844 215.445 190.844ZM223.188 194.117L220.227 189.938H221.711L223.969 193.234L226.219 189.938H227.688L224.727 194.117L227.852 198.5H226.367L223.969 195.008L221.555 198.5H220.086L223.188 194.117ZM233.547 189.781C234.615 189.781 235.466 190.148 236.102 190.883C236.737 191.617 237.055 192.721 237.055 194.195C237.055 195.169 236.909 195.987 236.617 196.648C236.326 197.31 235.914 197.81 235.383 198.148C234.857 198.487 234.234 198.656 233.516 198.656C233.062 198.656 232.664 198.596 232.32 198.477C231.977 198.357 231.682 198.195 231.438 197.992C231.193 197.789 230.99 197.568 230.828 197.328H230.734C230.75 197.531 230.768 197.776 230.789 198.062C230.815 198.349 230.828 198.599 230.828 198.812V202.328H229.523V189.938H230.594L230.766 191.203H230.828C230.995 190.943 231.198 190.706 231.438 190.492C231.677 190.273 231.969 190.102 232.312 189.977C232.661 189.846 233.073 189.781 233.547 189.781ZM233.32 190.875C232.727 190.875 232.247 190.99 231.883 191.219C231.523 191.448 231.26 191.792 231.094 192.25C230.927 192.703 230.839 193.273 230.828 193.961V194.211C230.828 194.935 230.906 195.547 231.062 196.047C231.224 196.547 231.487 196.927 231.852 197.188C232.221 197.448 232.716 197.578 233.336 197.578C233.867 197.578 234.31 197.435 234.664 197.148C235.018 196.862 235.281 196.464 235.453 195.953C235.63 195.438 235.719 194.846 235.719 194.18C235.719 193.169 235.521 192.367 235.125 191.773C234.734 191.174 234.133 190.875 233.32 190.875ZM240.625 198.5H239.32V186.344H240.625V198.5ZM250.75 194.203C250.75 194.906 250.659 195.534 250.477 196.086C250.294 196.638 250.031 197.104 249.688 197.484C249.344 197.865 248.927 198.156 248.438 198.359C247.953 198.557 247.404 198.656 246.789 198.656C246.216 198.656 245.69 198.557 245.211 198.359C244.737 198.156 244.326 197.865 243.977 197.484C243.633 197.104 243.365 196.638 243.172 196.086C242.984 195.534 242.891 194.906 242.891 194.203C242.891 193.266 243.049 192.469 243.367 191.812C243.685 191.151 244.138 190.648 244.727 190.305C245.32 189.956 246.026 189.781 246.844 189.781C247.625 189.781 248.307 189.956 248.891 190.305C249.479 190.654 249.935 191.159 250.258 191.82C250.586 192.477 250.75 193.271 250.75 194.203ZM244.234 194.203C244.234 194.891 244.326 195.487 244.508 195.992C244.69 196.497 244.971 196.888 245.352 197.164C245.732 197.44 246.221 197.578 246.82 197.578C247.414 197.578 247.901 197.44 248.281 197.164C248.667 196.888 248.951 196.497 249.133 195.992C249.315 195.487 249.406 194.891 249.406 194.203C249.406 193.521 249.315 192.932 249.133 192.438C248.951 191.938 248.669 191.552 248.289 191.281C247.909 191.01 247.417 190.875 246.812 190.875C245.922 190.875 245.268 191.169 244.852 191.758C244.44 192.346 244.234 193.161 244.234 194.203ZM256.883 189.781C257.055 189.781 257.234 189.792 257.422 189.812C257.609 189.828 257.776 189.852 257.922 189.883L257.758 191.086C257.617 191.049 257.461 191.021 257.289 191C257.117 190.979 256.956 190.969 256.805 190.969C256.461 190.969 256.135 191.039 255.828 191.18C255.526 191.315 255.26 191.513 255.031 191.773C254.802 192.029 254.622 192.339 254.492 192.703C254.362 193.062 254.297 193.464 254.297 193.906V198.5H252.992V189.938H254.07L254.211 191.516H254.266C254.443 191.198 254.656 190.909 254.906 190.648C255.156 190.383 255.445 190.172 255.773 190.016C256.107 189.859 256.477 189.781 256.883 189.781ZM262.836 189.781C263.565 189.781 264.19 189.943 264.711 190.266C265.232 190.589 265.63 191.042 265.906 191.625C266.182 192.203 266.32 192.88 266.32 193.656V194.461H260.406C260.422 195.466 260.672 196.232 261.156 196.758C261.641 197.284 262.323 197.547 263.203 197.547C263.745 197.547 264.224 197.497 264.641 197.398C265.057 197.299 265.49 197.154 265.938 196.961V198.102C265.505 198.294 265.076 198.435 264.648 198.523C264.227 198.612 263.727 198.656 263.148 198.656C262.326 198.656 261.607 198.49 260.992 198.156C260.383 197.818 259.909 197.323 259.57 196.672C259.232 196.021 259.062 195.224 259.062 194.281C259.062 193.359 259.216 192.562 259.523 191.891C259.836 191.214 260.273 190.693 260.836 190.328C261.404 189.964 262.07 189.781 262.836 189.781ZM262.82 190.844C262.128 190.844 261.576 191.07 261.164 191.523C260.753 191.977 260.508 192.609 260.43 193.422H264.961C264.956 192.911 264.875 192.464 264.719 192.078C264.568 191.688 264.336 191.385 264.023 191.172C263.711 190.953 263.31 190.844 262.82 190.844Z" fill="#202124"/>
<defs>
<clipPath id="clip0_8809_212117">
<rect width="243.75" height="174" fill="white" transform="translate(30.125 0.5)"/>
</clipPath>
</defs>
</svg>
