<svg width="324" height="238" viewBox="0 0 324 238" fill="none" xmlns="http://www.w3.org/2000/svg">
<path d="M301.462 0H22.5377C10.0905 0 0 6.47784 0 14.4687V193.531C0 201.522 10.0905 208 22.5377 208H301.462C313.91 208 324 201.522 324 193.531V14.4687C324 6.47784 313.91 0 301.462 0Z" fill="#DCDCE5"/>
<path d="M269.737 211.671C265.96 216.975 262.406 221.982 258.604 227.326C254.657 207.157 250.776 187.351 247 168C263.857 179.284 281.014 190.763 298.04 202.163C292.277 203.279 286.031 204.485 279.341 205.769C286.358 214.342 293.088 222.578 300 231.035C297.099 233.37 294.264 235.639 291.337 238C284.15 229.232 277.093 220.62 269.763 211.671H269.737Z" fill="#6A6A83"/>
<path d="M22.5377 0H301.462C313.904 0 324 6.9132 324 15.4332V24H0V15.4332C0 6.9132 10.0956 0 22.5377 0Z" fill="#9492B7"/>
<path d="M39.8892 16.1254C42.4357 16.1254 44.5 14.071 44.5 11.5368C44.5 9.00262 42.4357 6.94824 39.8892 6.94824C37.3427 6.94824 35.2783 9.00262 35.2783 11.5368C35.2783 14.071 37.3427 16.1254 39.8892 16.1254Z" fill="#6A6A83"/>
<path d="M27.3638 16.1254C29.9103 16.1254 31.9746 14.071 31.9746 11.5368C31.9746 9.00262 29.9103 6.94824 27.3638 6.94824C24.8173 6.94824 22.7529 9.00262 22.7529 11.5368C22.7529 14.071 24.8173 16.1254 27.3638 16.1254Z" fill="#6A6A83"/>
<path d="M14.8472 16.1254C17.3937 16.1254 19.458 14.071 19.458 11.5368C19.458 9.00262 17.3937 6.94824 14.8472 6.94824C12.3007 6.94824 10.2363 9.00262 10.2363 11.5368C10.2363 14.071 12.3007 16.1254 14.8472 16.1254Z" fill="#6A6A83"/>
<g clip-path="url(#clip0_292_155)">
<path d="M255.75 58H216.75C211.387 58 207.049 62.41 207.049 67.8V146.2C207 151.59 211.339 156 216.701 156H275.25C280.612 156 285 151.59 285 146.2V87.4L255.75 58ZM265.5 136.4H226.5V126.6H265.5V136.4ZM265.5 116.8H226.5V107H265.5V116.8ZM250.875 92.3V65.35L277.687 92.3H250.875Z" fill="#9492B7"/>
</g>
<path d="M212.096 89H111.904C106.986 89 103 92.7353 103 97.3431V116.657C103 121.265 106.986 125 111.904 125H212.096C217.014 125 221 121.265 221 116.657V97.3431C221 92.7353 217.014 89 212.096 89Z" fill="#6A6A83"/>
<path d="M117.717 102.545L120.002 109.729H120.09L122.38 102.545H124.596L121.337 112H118.761L115.497 102.545H117.717ZM125.697 112V104.909H127.664V112H125.697ZM126.685 103.995C126.392 103.995 126.142 103.898 125.932 103.704C125.726 103.507 125.623 103.272 125.623 102.998C125.623 102.727 125.726 102.495 125.932 102.301C126.142 102.104 126.392 102.005 126.685 102.005C126.977 102.005 127.226 102.104 127.433 102.301C127.642 102.495 127.747 102.727 127.747 102.998C127.747 103.272 127.642 103.507 127.433 103.704C127.226 103.898 126.977 103.995 126.685 103.995ZM132.47 112.138C131.741 112.138 131.113 111.991 130.587 111.695C130.064 111.397 129.661 110.975 129.377 110.43C129.094 109.883 128.953 109.235 128.953 108.487C128.953 107.757 129.094 107.117 129.377 106.566C129.661 106.016 130.059 105.586 130.573 105.278C131.09 104.971 131.696 104.817 132.392 104.817C132.86 104.817 133.295 104.892 133.698 105.043C134.105 105.191 134.459 105.414 134.76 105.712C135.065 106.011 135.302 106.386 135.471 106.839C135.64 107.288 135.725 107.814 135.725 108.418V108.958H129.737V107.739H133.874C133.874 107.456 133.812 107.205 133.689 106.987C133.566 106.768 133.395 106.597 133.177 106.474C132.961 106.348 132.71 106.285 132.424 106.285C132.126 106.285 131.861 106.354 131.63 106.493C131.402 106.628 131.224 106.811 131.095 107.042C130.965 107.27 130.899 107.524 130.896 107.804V108.962C130.896 109.313 130.961 109.616 131.09 109.872C131.222 110.127 131.409 110.324 131.649 110.463C131.889 110.601 132.173 110.67 132.503 110.67C132.721 110.67 132.921 110.64 133.103 110.578C133.284 110.517 133.44 110.424 133.569 110.301C133.698 110.178 133.797 110.027 133.865 109.849L135.683 109.969C135.591 110.406 135.402 110.787 135.116 111.114C134.833 111.437 134.466 111.689 134.017 111.871C133.571 112.049 133.055 112.138 132.47 112.138ZM138.356 112L136.427 104.909H138.416L139.515 109.673H139.58L140.725 104.909H142.677L143.841 109.646H143.901L144.981 104.909H146.966L145.041 112H142.959L141.74 107.54H141.653L140.434 112H138.356ZM151.061 112V102.545H157.432V104.194H153.06V106.446H157.104V108.094H153.06V110.352H157.45V112H151.061ZM165.595 104.909L163.116 112H160.9L158.421 104.909H160.498L161.971 109.983H162.045L163.513 104.909H165.595ZM166.601 112V104.909H168.568V112H166.601ZM167.589 103.995C167.297 103.995 167.046 103.898 166.837 103.704C166.63 103.507 166.527 103.272 166.527 102.998C166.527 102.727 166.63 102.495 166.837 102.301C167.046 102.104 167.297 102.005 167.589 102.005C167.881 102.005 168.131 102.104 168.337 102.301C168.546 102.495 168.651 102.727 168.651 102.998C168.651 103.272 168.546 103.507 168.337 103.704C168.131 103.898 167.881 103.995 167.589 103.995ZM172.756 112.115C172.218 112.115 171.73 111.977 171.293 111.7C170.859 111.42 170.514 111.009 170.259 110.467C170.006 109.923 169.88 109.255 169.88 108.464C169.88 107.651 170.011 106.976 170.272 106.437C170.534 105.895 170.882 105.491 171.316 105.223C171.753 104.952 172.231 104.817 172.751 104.817C173.149 104.817 173.479 104.884 173.744 105.02C174.012 105.152 174.227 105.318 174.39 105.518C174.557 105.715 174.683 105.909 174.769 106.1H174.829V102.545H176.791V112H174.852V110.864H174.769C174.677 111.061 174.546 111.257 174.376 111.451C174.21 111.641 173.993 111.8 173.726 111.926C173.461 112.052 173.138 112.115 172.756 112.115ZM173.379 110.55C173.696 110.55 173.964 110.464 174.183 110.292C174.404 110.116 174.573 109.872 174.69 109.558C174.81 109.244 174.87 108.876 174.87 108.455C174.87 108.033 174.812 107.667 174.695 107.356C174.578 107.045 174.409 106.805 174.187 106.636C173.966 106.466 173.696 106.382 173.379 106.382C173.056 106.382 172.784 106.469 172.562 106.645C172.341 106.82 172.173 107.063 172.059 107.374C171.945 107.685 171.888 108.045 171.888 108.455C171.888 108.867 171.945 109.232 172.059 109.549C172.176 109.863 172.344 110.109 172.562 110.287C172.784 110.463 173.056 110.55 173.379 110.55ZM181.639 112.138C180.91 112.138 180.282 111.991 179.756 111.695C179.233 111.397 178.829 110.975 178.546 110.43C178.263 109.883 178.122 109.235 178.122 108.487C178.122 107.757 178.263 107.117 178.546 106.566C178.829 106.016 179.228 105.586 179.742 105.278C180.259 104.971 180.865 104.817 181.561 104.817C182.029 104.817 182.464 104.892 182.867 105.043C183.274 105.191 183.628 105.414 183.929 105.712C184.234 106.011 184.471 106.386 184.64 106.839C184.809 107.288 184.894 107.814 184.894 108.418V108.958H178.906V107.739H183.043C183.043 107.456 182.981 107.205 182.858 106.987C182.735 106.768 182.564 106.597 182.346 106.474C182.13 106.348 181.879 106.285 181.593 106.285C181.295 106.285 181.03 106.354 180.799 106.493C180.571 106.628 180.393 106.811 180.264 107.042C180.134 107.27 180.068 107.524 180.065 107.804V108.962C180.065 109.313 180.13 109.616 180.259 109.872C180.391 110.127 180.578 110.324 180.818 110.463C181.058 110.601 181.342 110.67 181.672 110.67C181.89 110.67 182.09 110.64 182.272 110.578C182.453 110.517 182.609 110.424 182.738 110.301C182.867 110.178 182.966 110.027 183.034 109.849L184.852 109.969C184.76 110.406 184.571 110.787 184.285 111.114C184.001 111.437 183.635 111.689 183.186 111.871C182.74 112.049 182.224 112.138 181.639 112.138ZM188.144 107.901V112H186.177V104.909H188.052V106.16H188.135C188.292 105.748 188.555 105.422 188.924 105.181C189.293 104.938 189.741 104.817 190.268 104.817C190.76 104.817 191.189 104.924 191.556 105.14C191.922 105.355 192.206 105.663 192.41 106.063C192.613 106.46 192.714 106.934 192.714 107.485V112H190.748V107.836C190.751 107.402 190.64 107.063 190.415 106.82C190.191 106.574 189.881 106.451 189.487 106.451C189.223 106.451 188.989 106.508 188.786 106.622C188.586 106.736 188.429 106.902 188.315 107.12C188.204 107.336 188.147 107.596 188.144 107.901ZM197.468 112.138C196.742 112.138 196.117 111.985 195.594 111.677C195.074 111.366 194.674 110.935 194.394 110.384C194.117 109.833 193.978 109.199 193.978 108.482C193.978 107.756 194.118 107.119 194.398 106.571C194.681 106.02 195.083 105.591 195.603 105.283C196.123 104.972 196.742 104.817 197.459 104.817C198.077 104.817 198.619 104.929 199.084 105.154C199.549 105.378 199.916 105.694 200.187 106.1C200.458 106.506 200.607 106.983 200.635 107.531H198.779C198.727 107.177 198.588 106.893 198.364 106.677C198.142 106.459 197.851 106.349 197.491 106.349C197.187 106.349 196.92 106.433 196.693 106.599C196.468 106.762 196.292 107 196.166 107.314C196.04 107.628 195.977 108.008 195.977 108.455C195.977 108.907 196.039 109.292 196.162 109.609C196.288 109.926 196.465 110.167 196.693 110.333C196.92 110.5 197.187 110.583 197.491 110.583C197.716 110.583 197.917 110.537 198.096 110.444C198.278 110.352 198.427 110.218 198.544 110.043C198.664 109.864 198.742 109.65 198.779 109.401H200.635C200.604 109.943 200.457 110.42 200.192 110.832C199.93 111.241 199.569 111.561 199.107 111.792C198.645 112.023 198.099 112.138 197.468 112.138ZM205.126 112.138C204.396 112.138 203.768 111.991 203.242 111.695C202.719 111.397 202.316 110.975 202.033 110.43C201.75 109.883 201.608 109.235 201.608 108.487C201.608 107.757 201.75 107.117 202.033 106.566C202.316 106.016 202.714 105.586 203.228 105.278C203.745 104.971 204.352 104.817 205.047 104.817C205.515 104.817 205.95 104.892 206.354 105.043C206.76 105.191 207.114 105.414 207.415 105.712C207.72 106.011 207.957 106.386 208.126 106.839C208.296 107.288 208.38 107.814 208.38 108.418V108.958H202.393V107.739H206.529C206.529 107.456 206.468 107.205 206.344 106.987C206.221 106.768 206.051 106.597 205.832 106.474C205.617 106.348 205.366 106.285 205.08 106.285C204.781 106.285 204.516 106.354 204.285 106.493C204.058 106.628 203.879 106.811 203.75 107.042C203.621 107.27 203.555 107.524 203.551 107.804V108.962C203.551 109.313 203.616 109.616 203.745 109.872C203.878 110.127 204.064 110.324 204.304 110.463C204.544 110.601 204.829 110.67 205.158 110.67C205.377 110.67 205.577 110.64 205.758 110.578C205.94 110.517 206.095 110.424 206.224 110.301C206.354 110.178 206.452 110.027 206.52 109.849L208.339 109.969C208.246 110.406 208.057 110.787 207.771 111.114C207.488 111.437 207.122 111.689 206.672 111.871C206.226 112.049 205.71 112.138 205.126 112.138Z" fill="white"/>
<path d="M83.1297 148.695C68.07 148.695 55.8616 136.451 55.8616 121.347C55.8616 106.244 68.07 94 83.1297 94C98.1895 94 110.398 106.244 110.398 121.347C110.398 136.451 98.1895 148.695 83.1297 148.695Z" fill="#DCDCE5" stroke="#9492B7" stroke-width="8" stroke-miterlimit="10"/>
<path d="M34.0555 166.327L39.0384 171.325L59.7787 150.524L57.3685 148.107L54.7959 145.523L34.0555 166.327Z" fill="#9492B7" stroke="#9492B7" stroke-width="8" stroke-miterlimit="10"/>
<path d="M64.0171 140.435L58.1524 146.313" stroke="#9492B7" stroke-width="8" stroke-miterlimit="10"/>
<path d="M20.8891 109.191L13.0001 113.394L20.8891 117.595L25.2038 127.786L29.5173 117.595L37.4062 113.394L29.5173 109.191L25.2038 99L20.8891 109.191Z" fill="white"/>
<path d="M112.15 170.133L118.43 173.487L112.15 176.84L108.715 184.973L105.281 176.84L99 173.487L105.281 170.133L108.715 162L112.15 170.133Z" fill="white"/>
<path d="M300.15 43.1335L306.43 46.4872L300.15 49.84L296.715 57.9735L293.281 49.84L287 46.4872L293.281 43.1335L296.715 35L300.15 43.1335Z" fill="white"/>
<g clip-path="url(#clip1_292_155)">
<path d="M52.325 85L73.625 63.7011L87.825 77.8767L118 43.9969L112.994 39L87.825 67.245L73.625 53.0693L47 79.6841L52.325 85Z" fill="#9492B7"/>
</g>
<defs>
<clipPath id="clip0_292_155">
<rect width="78" height="98" fill="white" transform="translate(207 58)"/>
</clipPath>
<clipPath id="clip1_292_155">
<rect width="71" height="46" fill="white" transform="translate(47 39)"/>
</clipPath>
</defs>
</svg>
