<svg width="325" height="232" viewBox="0 0 325 232" fill="none" xmlns="http://www.w3.org/2000/svg">
<path d="M301.462 0H22.5377C10.0905 0 0 6.47784 0 14.4687V193.531C0 201.522 10.0905 208 22.5377 208H301.462C313.91 208 324 201.522 324 193.531V14.4687C324 6.47784 313.91 0 301.462 0Z" fill="#DCDCE5"/>
<path d="M193.096 150H92.904C87.9864 150 84 153.839 84 158.575V178.425C84 183.161 87.9864 187 92.904 187H193.096C198.014 187 202 183.161 202 178.425V158.575C202 153.839 198.014 150 193.096 150Z" fill="#6A6A83"/>
<path d="M127.478 173H124.126V163.545H127.506C128.457 163.545 129.275 163.735 129.962 164.113C130.648 164.489 131.176 165.029 131.545 165.734C131.917 166.438 132.104 167.282 132.104 168.263C132.104 169.248 131.917 170.095 131.545 170.803C131.176 171.51 130.645 172.054 129.952 172.432C129.263 172.811 128.438 173 127.478 173ZM126.125 171.287H127.395C127.986 171.287 128.483 171.183 128.886 170.973C129.292 170.761 129.597 170.433 129.8 169.99C130.006 169.544 130.109 168.968 130.109 168.263C130.109 167.565 130.006 166.994 129.8 166.551C129.597 166.108 129.294 165.781 128.891 165.572C128.487 165.363 127.99 165.258 127.4 165.258H126.125V171.287ZM133.547 173V165.909H135.454V167.146H135.528C135.657 166.706 135.874 166.374 136.179 166.149C136.484 165.921 136.834 165.808 137.231 165.808C137.33 165.808 137.436 165.814 137.55 165.826C137.664 165.838 137.764 165.855 137.85 165.877V167.622C137.758 167.594 137.63 167.569 137.467 167.548C137.304 167.526 137.155 167.516 137.019 167.516C136.73 167.516 136.471 167.579 136.244 167.705C136.019 167.828 135.84 168 135.708 168.222C135.579 168.444 135.514 168.699 135.514 168.988V173H133.547ZM143.414 169.981V165.909H145.381V173H143.493V171.712H143.419C143.259 172.127 142.992 172.461 142.62 172.714C142.251 172.966 141.8 173.092 141.267 173.092C140.793 173.092 140.376 172.985 140.016 172.769C139.656 172.554 139.375 172.248 139.172 171.85C138.971 171.453 138.87 170.978 138.867 170.424V165.909H140.833V170.073C140.837 170.492 140.949 170.823 141.17 171.066C141.392 171.309 141.689 171.43 142.061 171.43C142.298 171.43 142.52 171.377 142.726 171.269C142.932 171.158 143.099 170.995 143.225 170.779C143.354 170.564 143.417 170.298 143.414 169.981ZM150.148 175.807C149.511 175.807 148.965 175.719 148.509 175.544C148.057 175.371 147.697 175.136 147.429 174.837C147.161 174.539 146.988 174.203 146.908 173.831L148.726 173.586C148.782 173.728 148.87 173.86 148.99 173.983C149.11 174.106 149.268 174.205 149.465 174.279C149.665 174.356 149.908 174.394 150.195 174.394C150.622 174.394 150.975 174.29 151.252 174.08C151.532 173.874 151.672 173.528 151.672 173.042V171.744H151.589C151.503 171.941 151.373 172.127 151.201 172.303C151.029 172.478 150.807 172.621 150.536 172.732C150.265 172.843 149.942 172.898 149.567 172.898C149.034 172.898 148.55 172.775 148.112 172.529C147.679 172.28 147.332 171.9 147.074 171.389C146.818 170.875 146.691 170.225 146.691 169.441C146.691 168.637 146.821 167.967 147.083 167.428C147.345 166.889 147.692 166.486 148.126 166.218C148.563 165.951 149.042 165.817 149.562 165.817C149.959 165.817 150.291 165.884 150.559 166.02C150.827 166.152 151.042 166.318 151.206 166.518C151.372 166.715 151.499 166.909 151.589 167.1H151.663V165.909H153.615V173.069C153.615 173.672 153.468 174.177 153.172 174.583C152.877 174.99 152.467 175.294 151.944 175.498C151.424 175.704 150.825 175.807 150.148 175.807ZM150.19 171.421C150.507 171.421 150.775 171.343 150.993 171.186C151.215 171.026 151.384 170.798 151.501 170.502C151.621 170.204 151.681 169.847 151.681 169.431C151.681 169.016 151.623 168.656 151.506 168.351C151.389 168.043 151.219 167.805 150.998 167.636C150.776 167.466 150.507 167.382 150.19 167.382C149.867 167.382 149.594 167.469 149.373 167.645C149.151 167.817 148.983 168.057 148.87 168.365C148.756 168.673 148.699 169.028 148.699 169.431C148.699 169.841 148.756 170.195 148.87 170.493C148.987 170.789 149.154 171.018 149.373 171.181C149.594 171.341 149.867 171.421 150.19 171.421ZM161.08 167.931L159.28 168.042C159.249 167.888 159.183 167.75 159.081 167.626C158.98 167.5 158.846 167.4 158.68 167.326C158.516 167.249 158.321 167.211 158.093 167.211C157.789 167.211 157.532 167.276 157.322 167.405C157.113 167.531 157.008 167.7 157.008 167.913C157.008 168.082 157.076 168.225 157.212 168.342C157.347 168.459 157.579 168.553 157.909 168.624L159.192 168.882C159.881 169.024 160.395 169.251 160.734 169.565C161.072 169.879 161.242 170.292 161.242 170.803C161.242 171.267 161.105 171.675 160.831 172.026C160.56 172.377 160.188 172.651 159.714 172.848C159.243 173.042 158.7 173.138 158.084 173.138C157.145 173.138 156.398 172.943 155.84 172.552C155.286 172.158 154.962 171.623 154.866 170.946L156.801 170.844C156.859 171.13 157.001 171.349 157.225 171.5C157.45 171.647 157.738 171.721 158.089 171.721C158.433 171.721 158.71 171.655 158.92 171.523C159.132 171.387 159.24 171.213 159.243 171.001C159.24 170.823 159.164 170.676 159.017 170.562C158.869 170.446 158.641 170.356 158.333 170.295L157.105 170.05C156.413 169.912 155.897 169.672 155.559 169.33C155.223 168.988 155.056 168.553 155.056 168.023C155.056 167.568 155.179 167.176 155.425 166.846C155.674 166.517 156.024 166.263 156.473 166.085C156.925 165.906 157.455 165.817 158.061 165.817C158.957 165.817 159.661 166.006 160.175 166.385C160.692 166.763 160.994 167.279 161.08 167.931Z" fill="white"/>
<path d="M269.096 95H168.904C163.986 95 160 98.7353 160 103.343V122.657C160 127.265 163.986 131 168.904 131H269.096C274.014 131 278 127.265 278 122.657V103.343C278 98.7353 274.014 95 269.096 95Z" fill="#8462A1"/>
<path d="M269.096 95H168.904C163.986 95 160 98.7353 160 103.343V122.657C160 127.265 163.986 131 168.904 131H269.096C274.014 131 278 127.265 278 122.657V103.343C278 98.7353 274.014 95 269.096 95Z" fill="#6A6A83"/>
<path d="M196.129 111.855H194.107C194.07 111.594 193.995 111.362 193.881 111.158C193.767 110.952 193.621 110.777 193.442 110.632C193.264 110.487 193.058 110.377 192.824 110.3C192.593 110.223 192.342 110.184 192.071 110.184C191.582 110.184 191.156 110.306 190.792 110.549C190.429 110.789 190.148 111.14 189.948 111.602C189.748 112.06 189.648 112.617 189.648 113.273C189.648 113.947 189.748 114.513 189.948 114.972C190.151 115.43 190.434 115.776 190.797 116.01C191.16 116.244 191.58 116.361 192.057 116.361C192.325 116.361 192.573 116.326 192.801 116.255C193.031 116.184 193.236 116.081 193.415 115.946C193.593 115.807 193.741 115.639 193.858 115.442C193.978 115.246 194.061 115.021 194.107 114.768L196.129 114.778C196.077 115.212 195.946 115.63 195.737 116.033C195.53 116.433 195.252 116.792 194.901 117.109C194.553 117.423 194.138 117.672 193.655 117.857C193.174 118.038 192.631 118.129 192.025 118.129C191.182 118.129 190.428 117.938 189.763 117.557C189.101 117.175 188.578 116.623 188.193 115.9C187.812 115.176 187.621 114.301 187.621 113.273C187.621 112.242 187.815 111.365 188.203 110.641C188.59 109.918 189.117 109.367 189.781 108.989C190.446 108.607 191.194 108.416 192.025 108.416C192.573 108.416 193.081 108.493 193.548 108.647C194.019 108.801 194.436 109.026 194.799 109.321C195.163 109.613 195.458 109.972 195.686 110.397C195.917 110.821 196.064 111.308 196.129 111.855ZM199.492 113.901V118H197.526V108.545H199.437V112.16H199.52C199.68 111.742 199.938 111.414 200.295 111.177C200.652 110.937 201.1 110.817 201.639 110.817C202.131 110.817 202.561 110.924 202.927 111.14C203.296 111.352 203.582 111.658 203.785 112.059C203.992 112.456 204.093 112.931 204.09 113.485V118H202.124V113.836C202.127 113.399 202.016 113.059 201.791 112.816C201.57 112.573 201.259 112.451 200.859 112.451C200.591 112.451 200.354 112.508 200.148 112.622C199.945 112.736 199.785 112.902 199.668 113.12C199.554 113.336 199.495 113.596 199.492 113.901ZM208.869 118.138C208.14 118.138 207.512 117.991 206.986 117.695C206.463 117.397 206.059 116.975 205.776 116.43C205.493 115.883 205.352 115.235 205.352 114.487C205.352 113.757 205.493 113.117 205.776 112.566C206.059 112.016 206.458 111.586 206.972 111.278C207.489 110.971 208.095 110.817 208.791 110.817C209.259 110.817 209.694 110.892 210.097 111.043C210.504 111.191 210.858 111.414 211.159 111.712C211.464 112.011 211.701 112.386 211.87 112.839C212.039 113.288 212.124 113.814 212.124 114.418V114.958H206.136V113.739H210.273C210.273 113.456 210.211 113.205 210.088 112.987C209.965 112.768 209.794 112.597 209.576 112.474C209.36 112.348 209.109 112.285 208.823 112.285C208.525 112.285 208.26 112.354 208.029 112.493C207.801 112.628 207.623 112.811 207.494 113.042C207.364 113.27 207.298 113.524 207.295 113.804V114.962C207.295 115.313 207.36 115.616 207.489 115.872C207.621 116.127 207.808 116.324 208.048 116.463C208.288 116.601 208.572 116.67 208.902 116.67C209.12 116.67 209.32 116.64 209.502 116.578C209.683 116.517 209.839 116.424 209.968 116.301C210.097 116.178 210.196 116.027 210.264 115.849L212.082 115.969C211.99 116.406 211.801 116.787 211.515 117.114C211.231 117.437 210.865 117.689 210.416 117.871C209.97 118.049 209.454 118.138 208.869 118.138ZM213.407 118V110.909H215.282V112.16H215.365C215.512 111.745 215.759 111.417 216.103 111.177C216.448 110.937 216.86 110.817 217.341 110.817C217.827 110.817 218.241 110.938 218.582 111.181C218.924 111.422 219.152 111.748 219.266 112.16H219.34C219.484 111.754 219.746 111.429 220.124 111.186C220.506 110.94 220.957 110.817 221.477 110.817C222.139 110.817 222.676 111.028 223.088 111.449C223.504 111.868 223.711 112.462 223.711 113.231V118H221.749V113.619C221.749 113.225 221.645 112.93 221.435 112.733C221.226 112.536 220.965 112.437 220.651 112.437C220.294 112.437 220.015 112.551 219.815 112.779C219.615 113.003 219.515 113.3 219.515 113.67V118H217.608V113.577C217.608 113.23 217.508 112.953 217.308 112.746C217.111 112.54 216.851 112.437 216.528 112.437C216.31 112.437 216.113 112.493 215.937 112.603C215.765 112.711 215.628 112.863 215.526 113.06C215.425 113.254 215.374 113.482 215.374 113.744V118H213.407ZM225.265 118V110.909H227.231V118H225.265ZM226.253 109.995C225.96 109.995 225.71 109.898 225.5 109.704C225.294 109.507 225.191 109.272 225.191 108.998C225.191 108.727 225.294 108.495 225.5 108.301C225.71 108.104 225.96 108.005 226.253 108.005C226.545 108.005 226.794 108.104 227.001 108.301C227.21 108.495 227.314 108.727 227.314 108.998C227.314 109.272 227.21 109.507 227.001 109.704C226.794 109.898 226.545 109.995 226.253 109.995ZM232.011 118.138C231.284 118.138 230.66 117.985 230.136 117.677C229.616 117.366 229.216 116.935 228.936 116.384C228.659 115.833 228.521 115.199 228.521 114.482C228.521 113.756 228.661 113.119 228.941 112.571C229.224 112.02 229.625 111.591 230.146 111.283C230.666 110.972 231.284 110.817 232.001 110.817C232.62 110.817 233.162 110.929 233.626 111.154C234.091 111.378 234.459 111.694 234.73 112.1C235.001 112.506 235.15 112.983 235.178 113.531H233.322C233.269 113.177 233.131 112.893 232.906 112.677C232.685 112.459 232.394 112.349 232.034 112.349C231.729 112.349 231.463 112.433 231.235 112.599C231.01 112.762 230.835 113 230.709 113.314C230.583 113.628 230.519 114.008 230.519 114.455C230.519 114.907 230.581 115.292 230.704 115.609C230.83 115.926 231.007 116.167 231.235 116.333C231.463 116.5 231.729 116.583 232.034 116.583C232.258 116.583 232.46 116.537 232.638 116.444C232.82 116.352 232.969 116.218 233.086 116.043C233.206 115.864 233.285 115.65 233.322 115.401H235.178C235.147 115.943 234.999 116.42 234.734 116.832C234.473 117.241 234.111 117.561 233.649 117.792C233.188 118.023 232.642 118.138 232.011 118.138ZM238.459 118.134C238.006 118.134 237.603 118.055 237.249 117.898C236.895 117.738 236.615 117.503 236.409 117.192C236.206 116.878 236.104 116.487 236.104 116.02C236.104 115.626 236.177 115.295 236.321 115.027C236.466 114.759 236.663 114.544 236.912 114.381C237.161 114.218 237.445 114.094 237.762 114.011C238.082 113.928 238.417 113.87 238.768 113.836C239.18 113.793 239.513 113.753 239.765 113.716C240.018 113.676 240.201 113.617 240.314 113.54C240.428 113.464 240.485 113.35 240.485 113.199V113.171C240.485 112.879 240.393 112.653 240.208 112.493C240.027 112.333 239.768 112.252 239.433 112.252C239.079 112.252 238.797 112.331 238.588 112.488C238.379 112.642 238.24 112.836 238.172 113.07L236.354 112.922C236.446 112.491 236.627 112.119 236.898 111.805C237.169 111.488 237.518 111.245 237.946 111.075C238.377 110.903 238.876 110.817 239.442 110.817C239.836 110.817 240.213 110.863 240.573 110.955C240.936 111.048 241.258 111.191 241.538 111.385C241.821 111.578 242.044 111.828 242.207 112.132C242.37 112.434 242.452 112.796 242.452 113.217V118H240.587V117.017H240.531C240.418 117.238 240.265 117.434 240.074 117.603C239.884 117.769 239.654 117.9 239.387 117.995C239.119 118.088 238.81 118.134 238.459 118.134ZM239.022 116.777C239.311 116.777 239.567 116.72 239.788 116.606C240.01 116.489 240.184 116.332 240.31 116.135C240.436 115.938 240.499 115.715 240.499 115.466V114.713C240.438 114.753 240.353 114.79 240.245 114.824C240.141 114.855 240.022 114.884 239.89 114.912C239.757 114.936 239.625 114.959 239.493 114.981C239.36 114.999 239.24 115.016 239.133 115.032C238.902 115.065 238.7 115.119 238.528 115.193C238.356 115.267 238.222 115.367 238.126 115.493C238.031 115.616 237.983 115.77 237.983 115.955C237.983 116.223 238.08 116.427 238.274 116.569C238.471 116.707 238.72 116.777 239.022 116.777ZM245.944 108.545V118H243.978V108.545H245.944ZM253.42 112.931L251.619 113.042C251.588 112.888 251.522 112.75 251.421 112.626C251.319 112.5 251.185 112.4 251.019 112.326C250.856 112.249 250.66 112.211 250.433 112.211C250.128 112.211 249.871 112.276 249.662 112.405C249.452 112.531 249.348 112.7 249.348 112.913C249.348 113.082 249.415 113.225 249.551 113.342C249.686 113.459 249.919 113.553 250.248 113.624L251.531 113.882C252.221 114.024 252.735 114.251 253.073 114.565C253.412 114.879 253.581 115.292 253.581 115.803C253.581 116.267 253.444 116.675 253.17 117.026C252.899 117.377 252.527 117.651 252.053 117.848C251.582 118.042 251.039 118.138 250.423 118.138C249.485 118.138 248.737 117.943 248.18 117.552C247.626 117.158 247.301 116.623 247.206 115.946L249.14 115.844C249.199 116.13 249.34 116.349 249.565 116.5C249.789 116.647 250.077 116.721 250.428 116.721C250.773 116.721 251.05 116.655 251.259 116.523C251.471 116.387 251.579 116.213 251.582 116.001C251.579 115.823 251.504 115.676 251.356 115.562C251.208 115.446 250.98 115.356 250.673 115.295L249.445 115.05C248.752 114.912 248.237 114.672 247.898 114.33C247.563 113.988 247.395 113.553 247.395 113.023C247.395 112.568 247.518 112.176 247.764 111.846C248.014 111.517 248.363 111.263 248.812 111.085C249.265 110.906 249.794 110.817 250.4 110.817C251.296 110.817 252.001 111.006 252.515 111.385C253.032 111.763 253.333 112.279 253.42 112.931Z" fill="white"/>
<path d="M172.096 43H71.904C66.9864 43 63 46.9428 63 51.8066V72.1934C63 77.0572 66.9864 81 71.904 81H172.096C177.014 81 181 77.0572 181 72.1934V51.8066C181 46.9428 177.014 43 172.096 43Z" fill="#6A6A83"/>
<path d="M97.1835 67H93.832V57.5455H97.2112C98.1622 57.5455 98.9809 57.7347 99.6672 58.1133C100.354 58.4888 100.881 59.0289 101.251 59.7337C101.623 60.4384 101.809 61.2817 101.809 62.2635C101.809 63.2483 101.623 64.0947 101.251 64.8026C100.881 65.5104 100.35 66.0536 99.658 66.4322C98.9686 66.8107 98.1438 67 97.1835 67ZM95.8309 65.2873H97.1005C97.6914 65.2873 98.1884 65.1826 98.5916 64.9734C98.9978 64.761 99.3025 64.4332 99.5056 63.9901C99.7118 63.5438 99.8149 62.9683 99.8149 62.2635C99.8149 61.5649 99.7118 60.994 99.5056 60.5508C99.3025 60.1076 98.9994 59.7814 98.5962 59.5721C98.193 59.3628 97.696 59.2582 97.1051 59.2582H95.8309V65.2873ZM103.253 67V59.9091H105.22V67H103.253ZM104.241 58.995C103.949 58.995 103.698 58.8981 103.489 58.7042C103.282 58.5072 103.179 58.2718 103.179 57.9979C103.179 57.727 103.282 57.4947 103.489 57.3008C103.698 57.1038 103.949 57.0053 104.241 57.0053C104.533 57.0053 104.783 57.1038 104.989 57.3008C105.198 57.4947 105.303 57.727 105.303 57.9979C105.303 58.2718 105.198 58.5072 104.989 58.7042C104.783 58.8981 104.533 58.995 104.241 58.995ZM112.695 61.9311L110.894 62.0419C110.864 61.888 110.798 61.7495 110.696 61.6264C110.594 61.5002 110.461 61.4002 110.294 61.3263C110.131 61.2494 109.936 61.2109 109.708 61.2109C109.403 61.2109 109.146 61.2756 108.937 61.4048C108.728 61.531 108.623 61.7003 108.623 61.9126C108.623 62.0819 108.691 62.225 108.826 62.342C108.962 62.4589 109.194 62.5528 109.523 62.6236L110.807 62.8821C111.496 63.0237 112.01 63.2514 112.349 63.5653C112.687 63.8793 112.856 64.2917 112.856 64.8026C112.856 65.2673 112.72 65.6751 112.446 66.0259C112.175 66.3768 111.802 66.6507 111.328 66.8477C110.858 67.0415 110.314 67.1385 109.699 67.1385C108.76 67.1385 108.012 66.9431 107.455 66.5522C106.901 66.1583 106.577 65.6228 106.481 64.9457L108.415 64.8441C108.474 65.1303 108.615 65.3488 108.84 65.4996C109.065 65.6474 109.353 65.7212 109.703 65.7212C110.048 65.7212 110.325 65.6551 110.534 65.5227C110.747 65.3873 110.854 65.2134 110.858 65.0011C110.854 64.8226 110.779 64.6764 110.631 64.5625C110.484 64.4455 110.256 64.3563 109.948 64.2947L108.72 64.0501C108.028 63.9116 107.512 63.6715 107.174 63.3299C106.838 62.9883 106.67 62.5528 106.67 62.0234C106.67 61.5679 106.794 61.1755 107.04 60.8462C107.289 60.5169 107.638 60.263 108.088 60.0845C108.54 59.906 109.069 59.8168 109.676 59.8168C110.571 59.8168 111.276 60.006 111.79 60.3846C112.307 60.7631 112.609 61.2786 112.695 61.9311ZM117.326 67.1385C116.597 67.1385 115.969 66.9908 115.443 66.6953C114.92 66.3968 114.516 65.9751 114.233 65.4304C113.95 64.8826 113.809 64.2347 113.809 63.4869C113.809 62.7575 113.95 62.1173 114.233 61.5664C114.516 61.0155 114.915 60.5862 115.429 60.2784C115.946 59.9706 116.552 59.8168 117.248 59.8168C117.716 59.8168 118.151 59.8922 118.554 60.043C118.961 60.1907 119.315 60.4138 119.616 60.7124C119.921 61.0109 120.158 61.3864 120.327 61.8388C120.496 62.2881 120.581 62.8144 120.581 63.4176V63.9577H114.593V62.739H118.73C118.73 62.4558 118.668 62.205 118.545 61.9865C118.422 61.768 118.251 61.5972 118.033 61.4741C117.817 61.3479 117.566 61.2848 117.28 61.2848C116.982 61.2848 116.717 61.354 116.486 61.4925C116.258 61.628 116.08 61.8111 115.951 62.0419C115.821 62.2696 115.755 62.5236 115.752 62.8036V63.9624C115.752 64.3132 115.817 64.6164 115.946 64.8718C116.078 65.1272 116.265 65.3242 116.505 65.4627C116.745 65.6012 117.029 65.6705 117.359 65.6705C117.577 65.6705 117.777 65.6397 117.959 65.5781C118.14 65.5166 118.296 65.4242 118.425 65.3011C118.554 65.178 118.653 65.0272 118.721 64.8487L120.539 64.9688C120.447 65.4058 120.258 65.7874 119.972 66.1136C119.688 66.4368 119.322 66.6892 118.873 66.8707C118.427 67.0492 117.911 67.1385 117.326 67.1385ZM123.886 67.1339C123.434 67.1339 123.031 67.0554 122.677 66.8984C122.323 66.7384 122.043 66.503 121.837 66.1921C121.634 65.8782 121.532 65.4873 121.532 65.0195C121.532 64.6256 121.604 64.2947 121.749 64.027C121.894 63.7592 122.091 63.5438 122.34 63.3807C122.589 63.2176 122.872 63.0945 123.189 63.0114C123.509 62.9283 123.845 62.8698 124.196 62.8359C124.608 62.7929 124.941 62.7528 125.193 62.7159C125.445 62.6759 125.628 62.6174 125.742 62.5405C125.856 62.4635 125.913 62.3497 125.913 62.1989V62.1712C125.913 61.8788 125.821 61.6526 125.636 61.4925C125.454 61.3325 125.196 61.2525 124.86 61.2525C124.507 61.2525 124.225 61.331 124.016 61.4879C123.806 61.6418 123.668 61.8357 123.6 62.0696L121.781 61.9219C121.874 61.491 122.055 61.1186 122.326 60.8047C122.597 60.4877 122.946 60.2446 123.374 60.0753C123.805 59.9029 124.303 59.8168 124.87 59.8168C125.264 59.8168 125.641 59.8629 126.001 59.9553C126.364 60.0476 126.686 60.1907 126.966 60.3846C127.249 60.5785 127.472 60.8278 127.635 61.1325C127.798 61.4341 127.88 61.7957 127.88 62.2173V67H126.015V66.0167H125.959C125.845 66.2383 125.693 66.4337 125.502 66.603C125.311 66.7692 125.082 66.9 124.814 66.9954C124.547 67.0877 124.237 67.1339 123.886 67.1339ZM124.45 65.7766C124.739 65.7766 124.994 65.7197 125.216 65.6058C125.438 65.4889 125.611 65.3319 125.738 65.1349C125.864 64.938 125.927 64.7148 125.927 64.4656V63.7131C125.865 63.7531 125.781 63.79 125.673 63.8239C125.568 63.8546 125.45 63.8839 125.318 63.9116C125.185 63.9362 125.053 63.9593 124.92 63.9808C124.788 63.9993 124.668 64.0162 124.56 64.0316C124.33 64.0655 124.128 64.1193 123.956 64.1932C123.783 64.267 123.649 64.3671 123.554 64.4933C123.459 64.6164 123.411 64.7702 123.411 64.9549C123.411 65.2227 123.508 65.4273 123.702 65.5689C123.899 65.7074 124.148 65.7766 124.45 65.7766ZM135.305 61.9311L133.505 62.0419C133.474 61.888 133.408 61.7495 133.306 61.6264C133.205 61.5002 133.071 61.4002 132.905 61.3263C132.742 61.2494 132.546 61.2109 132.318 61.2109C132.014 61.2109 131.757 61.2756 131.547 61.4048C131.338 61.531 131.234 61.7003 131.234 61.9126C131.234 62.0819 131.301 62.225 131.437 62.342C131.572 62.4589 131.804 62.5528 132.134 62.6236L133.417 62.8821C134.107 63.0237 134.62 63.2514 134.959 63.5653C135.298 63.8793 135.467 64.2917 135.467 64.8026C135.467 65.2673 135.33 65.6751 135.056 66.0259C134.785 66.3768 134.413 66.6507 133.939 66.8477C133.468 67.0415 132.925 67.1385 132.309 67.1385C131.37 67.1385 130.623 66.9431 130.066 66.5522C129.512 66.1583 129.187 65.6228 129.091 64.9457L131.026 64.8441C131.084 65.1303 131.226 65.3488 131.451 65.4996C131.675 65.6474 131.963 65.7212 132.314 65.7212C132.658 65.7212 132.935 65.6551 133.145 65.5227C133.357 65.3873 133.465 65.2134 133.468 65.0011C133.465 64.8226 133.389 64.6764 133.242 64.5625C133.094 64.4455 132.866 64.3563 132.558 64.2947L131.33 64.0501C130.638 63.9116 130.122 63.6715 129.784 63.3299C129.448 62.9883 129.281 62.5528 129.281 62.0234C129.281 61.5679 129.404 61.1755 129.65 60.8462C129.899 60.5169 130.249 60.263 130.698 60.0845C131.15 59.906 131.68 59.8168 132.286 59.8168C133.182 59.8168 133.886 60.006 134.4 60.3846C134.917 60.7631 135.219 61.2786 135.305 61.9311ZM139.937 67.1385C139.207 67.1385 138.58 66.9908 138.053 66.6953C137.53 66.3968 137.127 65.9751 136.844 65.4304C136.561 64.8826 136.419 64.2347 136.419 63.4869C136.419 62.7575 136.561 62.1173 136.844 61.5664C137.127 61.0155 137.525 60.5862 138.039 60.2784C138.556 59.9706 139.163 59.8168 139.858 59.8168C140.326 59.8168 140.762 59.8922 141.165 60.043C141.571 60.1907 141.925 60.4138 142.227 60.7124C142.531 61.0109 142.768 61.3864 142.937 61.8388C143.107 62.2881 143.191 62.8144 143.191 63.4176V63.9577H137.204V62.739H141.34C141.34 62.4558 141.279 62.205 141.155 61.9865C141.032 61.768 140.862 61.5972 140.643 61.4741C140.428 61.3479 140.177 61.2848 139.891 61.2848C139.592 61.2848 139.327 61.354 139.097 61.4925C138.869 61.628 138.69 61.8111 138.561 62.0419C138.432 62.2696 138.366 62.5236 138.363 62.8036V63.9624C138.363 64.3132 138.427 64.6164 138.556 64.8718C138.689 65.1272 138.875 65.3242 139.115 65.4627C139.355 65.6012 139.64 65.6705 139.969 65.6705C140.188 65.6705 140.388 65.6397 140.569 65.5781C140.751 65.5166 140.906 65.4242 141.035 65.3011C141.165 65.178 141.263 65.0272 141.331 64.8487L143.15 64.9688C143.057 65.4058 142.868 65.7874 142.582 66.1136C142.299 66.4368 141.933 66.6892 141.483 66.8707C141.037 67.0492 140.521 67.1385 139.937 67.1385ZM150.375 61.9311L148.574 62.0419C148.543 61.888 148.477 61.7495 148.376 61.6264C148.274 61.5002 148.14 61.4002 147.974 61.3263C147.811 61.2494 147.615 61.2109 147.388 61.2109C147.083 61.2109 146.826 61.2756 146.617 61.4048C146.408 61.531 146.303 61.7003 146.303 61.9126C146.303 62.0819 146.371 62.225 146.506 62.342C146.641 62.4589 146.874 62.5528 147.203 62.6236L148.486 62.8821C149.176 63.0237 149.69 63.2514 150.028 63.5653C150.367 63.8793 150.536 64.2917 150.536 64.8026C150.536 65.2673 150.399 65.6751 150.125 66.0259C149.854 66.3768 149.482 66.6507 149.008 66.8477C148.537 67.0415 147.994 67.1385 147.379 67.1385C146.44 67.1385 145.692 66.9431 145.135 66.5522C144.581 66.1583 144.256 65.6228 144.161 64.9457L146.095 64.8441C146.154 65.1303 146.295 65.3488 146.52 65.4996C146.745 65.6474 147.032 65.7212 147.383 65.7212C147.728 65.7212 148.005 65.6551 148.214 65.5227C148.426 65.3873 148.534 65.2134 148.537 65.0011C148.534 64.8226 148.459 64.6764 148.311 64.5625C148.163 64.4455 147.936 64.3563 147.628 64.2947L146.4 64.0501C145.707 63.9116 145.192 63.6715 144.853 63.3299C144.518 62.9883 144.35 62.5528 144.35 62.0234C144.35 61.5679 144.473 61.1755 144.719 60.8462C144.969 60.5169 145.318 60.263 145.767 60.0845C146.22 59.906 146.749 59.8168 147.355 59.8168C148.251 59.8168 148.956 60.006 149.47 60.3846C149.987 60.7631 150.288 61.2786 150.375 61.9311Z" fill="white"/>
<g clip-path="url(#clip0_292_133)">
<path d="M50.7553 156.549L57.3564 149.968L61.6277 145.71L95.0213 176.678L82.5957 189.065L50.7553 156.549Z" fill="#DCDCE5"/>
<path d="M91.5611 180.12L102.308 169.4C104.458 167.28 106.121 164.84 107.297 162.08C108.432 159.36 109.041 156.48 109.041 153.48C109.041 147.2 106.81 141.88 102.389 137.52C97.9689 133.16 92.575 130.96 86.2078 130.96C83.1661 130.96 80.2461 131.52 77.4883 132.68C74.7306 133.8 72.2567 135.44 70.0667 137.6L59.1978 148.2L91.5611 180.12ZM58.7922 203.04C61.8339 203.04 64.7539 202.48 67.5117 201.32C70.2695 200.2 72.7433 198.56 74.9333 196.4L85.8022 185.8L53.4389 153.88L42.6917 164.6C40.5422 166.72 38.8794 169.16 37.7033 171.92C36.5678 174.64 35.9594 177.52 35.9594 180.52C35.9594 186.8 38.19 192.12 42.6106 196.48C47.0311 200.84 52.425 203.04 58.7922 203.04Z" fill="#9492B7"/>
</g>
<path fill-rule="evenodd" clip-rule="evenodd" d="M298.421 110.005V88.5416C298.421 88.2959 298.621 88.0968 298.866 88.0968H299.766C301.727 88.0968 303.317 86.5081 303.317 84.5484C303.317 82.5887 301.727 81 299.766 81H275.236C273.275 81 271.686 82.5887 271.686 84.5484C271.686 86.5081 273.275 88.0968 275.236 88.0968H276.136C276.382 88.0968 276.581 88.2959 276.581 88.5416V110.005L259.102 133.762C257.911 135.38 257.194 137.295 257.034 139.293C256.874 141.291 257.277 143.293 258.196 145.078C259.116 146.863 260.516 148.36 262.24 149.404C263.965 150.449 265.946 151 267.967 151H307.033C309.054 151 311.035 150.449 312.76 149.404C314.484 148.36 315.884 146.863 316.804 145.078C317.723 143.293 318.126 141.291 317.966 139.293C317.806 137.296 317.093 135.381 315.9 133.762L298.421 110.005ZM283.736 89.2258V110.466C283.736 111.669 283.351 112.841 282.638 113.81L279.09 118.631C278.761 119.078 279.081 119.71 279.636 119.71H295.366C295.922 119.71 296.241 119.078 295.912 118.631L292.365 113.81C291.652 112.841 291.267 111.669 291.267 110.466V89.2258C291.267 88.6023 290.761 88.0968 290.137 88.0968H284.865C284.241 88.0968 283.736 88.6023 283.736 89.2258ZM267.97 143.903H307.035C307.74 143.902 308.431 143.709 309.03 143.345C309.63 142.982 310.114 142.463 310.432 141.846C310.749 141.23 310.888 140.54 310.833 139.853C310.779 139.165 310.533 138.505 310.122 137.944L302.265 127.267C302.052 126.977 301.714 126.806 301.355 126.806H273.648C273.288 126.806 272.95 126.977 272.738 127.267L264.883 137.944C264.472 138.504 264.226 139.165 264.171 139.853C264.117 140.54 264.256 141.23 264.573 141.846C264.891 142.463 265.375 142.982 265.975 143.345C266.574 143.709 267.265 143.902 267.97 143.903Z" fill="#9492B7"/>
<path d="M261.519 139.71L272.815 121.645L279.593 123.903L304.444 126.161L311.222 130.677L315.741 139.71L308.963 148.742L263.778 146.484L261.519 139.71Z" fill="#9492B7"/>
<path d="M295.788 46.205L289 50.0005L295.788 53.795L299.501 63L303.212 53.795L310 50.0005L303.212 46.205L299.501 37L295.788 46.205Z" fill="white"/>
<path d="M20.3739 133.745L11 139.001L20.3739 144.255L25.5007 157L30.6261 144.255L40 139.001L30.6261 133.745L25.5007 121L20.3739 133.745Z" fill="white"/>
<path fill-rule="evenodd" clip-rule="evenodd" d="M39.8986 36.3636C39.8986 34.506 41.4045 33 43.2622 33H50.737C52.5947 33 54.1007 34.506 54.1007 36.3636C54.1007 38.2213 52.5947 39.7273 50.737 39.7273H50.3633V48.2044C53.9423 48.7522 57.238 50.1605 60.0327 52.2114L66.0288 46.2153L65.7649 45.9514C64.4513 44.6379 64.4513 42.5081 65.7649 41.1945C67.0785 39.8809 69.2083 39.881 70.5219 41.1945L75.8066 46.4792C77.1202 47.7928 77.1202 49.9225 75.8066 51.2361C74.493 52.5497 72.3632 52.5497 71.0496 51.2361L70.7857 50.9722L64.7894 56.9685C66.8398 59.7628 68.2477 63.058 68.7954 66.6363H77.2727V66.2626C77.2727 64.4049 78.7786 62.899 80.6363 62.899C82.494 62.899 84 64.4049 84 66.2626V73.7374C84 75.595 82.494 77.101 80.6363 77.101C78.7786 77.101 77.2727 75.595 77.2727 73.7374V73.3636H68.7954C68.2477 76.942 66.8398 80.2372 64.7894 83.0315L70.7857 89.0278L71.0496 88.764C72.3632 87.4504 74.493 87.4504 75.8066 88.764C77.1202 90.0775 77.1202 92.2073 75.8066 93.5209L70.5219 98.8055C69.2083 100.119 67.0785 100.119 65.7649 98.8055C64.4513 97.4919 64.4513 95.3622 65.7649 94.0486L66.0288 93.7847L60.0326 87.7886C57.238 89.8395 53.9423 91.2478 50.3633 91.7956V100.273H50.737C52.5947 100.273 54.1007 101.779 54.1007 103.636C54.1007 105.494 52.5947 107 50.737 107H43.2622C41.4045 107 39.8986 105.494 39.8986 103.636C39.8986 101.779 41.4045 100.273 43.2622 100.273H43.636V91.7956C40.0576 91.2479 36.7625 89.84 33.9683 87.7896L27.9732 93.7846L28.2378 94.0494C29.5509 95.3635 29.5502 97.4932 28.2361 98.8063C26.9221 100.119 24.7923 100.119 23.4792 98.8047L20.9051 96.2287C20.8824 96.2073 20.8599 96.1854 20.8377 96.1632C20.8149 96.1404 20.7925 96.1173 20.7704 96.094L18.1982 93.52C16.8851 92.206 16.8858 90.0762 18.1999 88.7631C19.514 87.45 21.6437 87.4507 22.9568 88.7648L23.2179 89.0261L29.2112 83.0328C27.1604 80.2382 25.7523 76.9426 25.2046 73.3637H16.7273V73.7374C16.7273 75.5951 15.2214 77.101 13.3637 77.101C11.506 77.101 10 75.5951 10 73.7374V66.2626C10 64.405 11.506 62.899 13.3637 62.899C15.2214 62.899 16.7273 64.405 16.7273 66.2626V66.6364H25.2046C25.7523 63.0578 27.1602 59.7623 29.2108 56.9679L23.2152 50.9724L22.9504 51.237C21.6364 52.5501 19.5066 52.5494 18.1935 51.2353C16.8803 49.9213 16.8811 47.7915 18.1952 46.4784L20.7711 43.9043C20.7926 43.8816 20.8144 43.8591 20.8367 43.8369C20.8595 43.8141 20.8825 43.7917 20.9058 43.7697L23.4799 41.1975C24.7939 39.8844 26.9237 39.8851 28.2368 41.1992C29.5499 42.5132 29.5492 44.643 28.2351 45.9561L27.9739 46.2172L33.9676 52.2109C36.762 50.1602 40.0573 48.7522 43.636 48.2044V39.7273H43.2622C41.4045 39.7273 39.8986 38.2213 39.8986 36.3636ZM46.9996 54.6768C38.5369 54.6768 31.677 61.5371 31.677 70C31.677 78.463 38.5369 85.3232 46.9996 85.3232C55.4625 85.3232 62.323 78.4628 62.323 70C62.323 61.5372 55.4625 54.6768 46.9996 54.6768Z" fill="#9492B7"/>
<path d="M63.8187 68.8788C63.8187 78.7865 55.7869 86.8182 45.8791 86.8182C35.9714 86.8182 27.9396 78.7865 27.9396 68.8788C27.9396 58.9712 35.9714 50.9394 45.8791 50.9394C55.7869 50.9394 63.8187 58.9712 63.8187 68.8788Z" fill="#9492B7"/>
<path d="M261.737 205.671C257.96 210.975 254.406 215.982 250.604 221.326C246.657 201.157 242.776 181.351 239 162C255.857 173.284 273.014 184.763 290.04 196.163C284.277 197.279 278.031 198.485 271.341 199.769C278.358 208.342 285.088 216.578 292 225.035C289.099 227.37 286.264 229.639 283.337 232C276.15 223.232 269.093 214.62 261.763 205.671H261.737Z" fill="#6A6A83"/>
<path d="M23.5377 0H302.462C314.904 0 325 6.9132 325 15.4332V24H1V15.4332C1 6.9132 11.0956 0 23.5377 0Z" fill="#9492B7"/>
<path d="M41.8892 16.1254C44.4357 16.1254 46.5 14.071 46.5 11.5368C46.5 9.00262 44.4357 6.94824 41.8892 6.94824C39.3427 6.94824 37.2783 9.00262 37.2783 11.5368C37.2783 14.071 39.3427 16.1254 41.8892 16.1254Z" fill="#6A6A83"/>
<path d="M29.3638 16.1254C31.9103 16.1254 33.9746 14.071 33.9746 11.5368C33.9746 9.00262 31.9103 6.94824 29.3638 6.94824C26.8173 6.94824 24.7529 9.00262 24.7529 11.5368C24.7529 14.071 26.8173 16.1254 29.3638 16.1254Z" fill="#6A6A83"/>
<path d="M16.8472 16.1254C19.3937 16.1254 21.458 14.071 21.458 11.5368C21.458 9.00262 19.3937 6.94824 16.8472 6.94824C14.3007 6.94824 12.2363 9.00262 12.2363 11.5368C12.2363 14.071 14.3007 16.1254 16.8472 16.1254Z" fill="#6A6A83"/>
<defs>
<clipPath id="clip0_292_133">
<rect width="73" height="72" fill="white" transform="translate(36 131)"/>
</clipPath>
</defs>
</svg>
