<svg width="207" height="226" viewBox="0 0 207 226" fill="none" xmlns="http://www.w3.org/2000/svg">
<g clip-path="url(#clip0_292_114)">
<path d="M192.601 0H14.3991C6.44669 0 0 6.41555 0 14.3295V191.67C0 199.584 6.44669 206 14.3991 206H192.601C200.553 206 207 199.584 207 191.67V14.3295C207 6.41555 200.553 0 192.601 0Z" fill="#DCDCE5"/>
<path d="M14.3991 0H192.601C200.55 0 207 6.4188 207 14.3295V22.2836H0V14.3295C0 6.4188 6.44996 0 14.3991 0Z" fill="#9492B7"/>
<path d="M37.8891 16.1254C40.4356 16.1254 42.5 14.071 42.5 11.5368C42.5 9.00262 40.4356 6.94824 37.8891 6.94824C35.3426 6.94824 33.2783 9.00262 33.2783 11.5368C33.2783 14.071 35.3426 16.1254 37.8891 16.1254Z" fill="#6A6A83"/>
<path d="M25.364 16.1254C27.9105 16.1254 29.9749 14.071 29.9749 11.5368C29.9749 9.00262 27.9105 6.94824 25.364 6.94824C22.8175 6.94824 20.7532 9.00262 20.7532 11.5368C20.7532 14.071 22.8175 16.1254 25.364 16.1254Z" fill="#6A6A83"/>
<path d="M12.8476 16.1254C15.3941 16.1254 17.4585 14.071 17.4585 11.5368C17.4585 9.00262 15.3941 6.94824 12.8476 6.94824C10.3011 6.94824 8.23677 9.00262 8.23677 11.5368C8.23677 14.071 10.3011 16.1254 12.8476 16.1254Z" fill="#6A6A83"/>
<path d="M131.571 57H79.4286C73.6929 57 69 61.75 69 67.5556V152L105.5 136.167L142 152V67.5556C142 61.75 137.307 57 131.571 57Z" fill="#9492B7"/>
<path d="M168.889 41.1914L161 45.3936L168.889 49.5947L173.204 59.786L177.517 49.5947L185.406 45.3936L177.517 41.1914L173.204 31L168.889 41.1914Z" fill="white"/>
<path d="M26.1028 156.65L14.9998 162.691L26.1028 168.73L32.1753 183.38L38.2461 168.73L49.3491 162.691L38.2461 156.65L32.1753 142L26.1028 156.65Z" fill="white"/>
<path d="M152.096 82H51.904C46.9864 82 43 85.7353 43 90.3431V109.657C43 114.265 46.9864 118 51.904 118H152.096C157.014 118 161 114.265 161 109.657V90.3431C161 85.7353 157.014 82 152.096 82Z" fill="#6A6A83"/>
<path d="M51.7753 105V95.5455H58.0353V97.1935H53.7743V99.4464H57.6198V101.094H53.7743V105H51.7753ZM61.276 105.134C60.8236 105.134 60.4204 105.055 60.0665 104.898C59.7126 104.738 59.4325 104.503 59.2263 104.192C59.0232 103.878 58.9216 103.487 58.9216 103.02C58.9216 102.626 58.994 102.295 59.1386 102.027C59.2833 101.759 59.4802 101.544 59.7295 101.381C59.9788 101.218 60.2619 101.094 60.5789 101.011C60.899 100.928 61.2345 100.87 61.5853 100.836C61.9977 100.793 62.3301 100.753 62.5825 100.716C62.8349 100.676 63.018 100.617 63.1319 100.54C63.2457 100.464 63.3027 100.35 63.3027 100.199V100.171C63.3027 99.8788 63.2103 99.6526 63.0257 99.4925C62.8441 99.3325 62.5856 99.2525 62.2501 99.2525C61.8962 99.2525 61.6146 99.331 61.4053 99.4879C61.196 99.6418 61.0575 99.8357 60.9898 100.07L59.1709 99.9219C59.2632 99.491 59.4448 99.1186 59.7157 98.8047C59.9865 98.4877 60.3358 98.2446 60.7636 98.0753C61.1945 97.9029 61.6931 97.8168 62.2593 97.8168C62.6533 97.8168 63.0303 97.8629 63.3904 97.9553C63.7535 98.0476 64.0752 98.1907 64.3552 98.3846C64.6384 98.5785 64.8615 98.8278 65.0246 99.1325C65.1877 99.4341 65.2693 99.7957 65.2693 100.217V105H63.4042V104.017H63.3488C63.235 104.238 63.0826 104.434 62.8918 104.603C62.701 104.769 62.4717 104.9 62.2039 104.995C61.9362 105.088 61.6269 105.134 61.276 105.134ZM61.8392 103.777C62.1285 103.777 62.384 103.72 62.6056 103.606C62.8272 103.489 63.0011 103.332 63.1272 103.135C63.2534 102.938 63.3165 102.715 63.3165 102.466V101.713C63.255 101.753 63.1703 101.79 63.0626 101.824C62.958 101.855 62.8395 101.884 62.7071 101.912C62.5748 101.936 62.4425 101.959 62.3101 101.981C62.1778 101.999 62.0578 102.016 61.95 102.032C61.7192 102.065 61.5176 102.119 61.3453 102.193C61.1729 102.267 61.0391 102.367 60.9436 102.493C60.8482 102.616 60.8005 102.77 60.8005 102.955C60.8005 103.223 60.8975 103.427 61.0914 103.569C61.2883 103.707 61.5376 103.777 61.8392 103.777ZM73.1519 97.9091L70.6729 105H68.457L65.9779 97.9091H68.0553L69.528 102.983H69.6019L71.0699 97.9091H73.1519ZM77.1336 105.138C76.4165 105.138 75.7964 104.986 75.2732 104.681C74.7531 104.374 74.3514 103.946 74.0683 103.398C73.7851 102.847 73.6436 102.209 73.6436 101.482C73.6436 100.75 73.7851 100.11 74.0683 99.5618C74.3514 99.0109 74.7531 98.5831 75.2732 98.2784C75.7964 97.9706 76.4165 97.8168 77.1336 97.8168C77.8507 97.8168 78.4693 97.9706 78.9895 98.2784C79.5127 98.5831 79.9158 99.0109 80.199 99.5618C80.4821 100.11 80.6237 100.75 80.6237 101.482C80.6237 102.209 80.4821 102.847 80.199 103.398C79.9158 103.946 79.5127 104.374 78.9895 104.681C78.4693 104.986 77.8507 105.138 77.1336 105.138ZM77.1429 103.615C77.4691 103.615 77.7415 103.523 77.96 103.338C78.1785 103.15 78.3432 102.895 78.4539 102.572C78.5678 102.249 78.6248 101.881 78.6248 101.468C78.6248 101.056 78.5678 100.688 78.4539 100.365C78.3432 100.042 78.1785 99.7865 77.96 99.5987C77.7415 99.411 77.4691 99.3171 77.1429 99.3171C76.8136 99.3171 76.5366 99.411 76.3119 99.5987C76.0903 99.7865 75.9226 100.042 75.8087 100.365C75.6979 100.688 75.6425 101.056 75.6425 101.468C75.6425 101.881 75.6979 102.249 75.8087 102.572C75.9226 102.895 76.0903 103.15 76.3119 103.338C76.5366 103.523 76.8136 103.615 77.1429 103.615ZM81.9025 105V97.9091H83.8091V99.1463H83.8829C84.0122 98.7062 84.2292 98.3738 84.5338 98.1491C84.8385 97.9214 85.1894 97.8075 85.5864 97.8075C85.6849 97.8075 85.7911 97.8137 85.9049 97.826C86.0188 97.8383 86.1188 97.8552 86.205 97.8768V99.6218C86.1127 99.5941 85.985 99.5695 85.8218 99.5479C85.6587 99.5264 85.5095 99.5156 85.374 99.5156C85.0847 99.5156 84.8262 99.5787 84.5985 99.7049C84.3738 99.828 84.1953 100 84.063 100.222C83.9337 100.444 83.8691 100.699 83.8691 100.988V105H81.9025ZM87.2218 105V97.9091H89.1884V105H87.2218ZM88.2097 96.995C87.9173 96.995 87.6665 96.8981 87.4572 96.7042C87.251 96.5072 87.1479 96.2718 87.1479 95.9979C87.1479 95.727 87.251 95.4947 87.4572 95.3008C87.6665 95.1038 87.9173 95.0053 88.2097 95.0053C88.5021 95.0053 88.7514 95.1038 88.9576 95.3008C89.1669 95.4947 89.2715 95.727 89.2715 95.9979C89.2715 96.2718 89.1669 96.5072 88.9576 96.7042C88.7514 96.8981 88.5021 96.995 88.2097 96.995ZM94.5354 97.9091V99.3864H90.2652V97.9091H94.5354ZM91.2347 96.2102H93.2013V102.821C93.2013 103.003 93.229 103.144 93.2844 103.246C93.3398 103.344 93.4167 103.413 93.5152 103.453C93.6168 103.493 93.7337 103.513 93.8661 103.513C93.9584 103.513 94.0507 103.506 94.143 103.49C94.2354 103.472 94.3062 103.458 94.3554 103.449L94.6647 104.912C94.5662 104.943 94.4277 104.978 94.2492 105.018C94.0707 105.062 93.8537 105.088 93.5983 105.097C93.1243 105.115 92.7089 105.052 92.3519 104.908C91.9979 104.763 91.7225 104.538 91.5255 104.234C91.3285 103.929 91.2316 103.544 91.2347 103.08V96.2102ZM98.9719 105.138C98.2425 105.138 97.6146 104.991 97.0884 104.695C96.5652 104.397 96.162 103.975 95.8788 103.43C95.5957 102.883 95.4541 102.235 95.4541 101.487C95.4541 100.757 95.5957 100.117 95.8788 99.5664C96.162 99.0155 96.5605 98.5862 97.0745 98.2784C97.5916 97.9706 98.1978 97.8168 98.8934 97.8168C99.3612 97.8168 99.7967 97.8922 100.2 98.043C100.606 98.1907 100.96 98.4138 101.262 98.7124C101.566 99.0109 101.803 99.3864 101.973 99.8388C102.142 100.288 102.226 100.814 102.226 101.418V101.958H96.2389V100.739H100.375C100.375 100.456 100.314 100.205 100.191 99.9865C100.068 99.768 99.8967 99.5972 99.6782 99.4741C99.4628 99.3479 99.2119 99.2848 98.9257 99.2848C98.6272 99.2848 98.3625 99.354 98.1317 99.4925C97.9039 99.628 97.7254 99.8111 97.5962 100.042C97.4669 100.27 97.4007 100.524 97.3977 100.804V101.962C97.3977 102.313 97.4623 102.616 97.5916 102.872C97.7239 103.127 97.9101 103.324 98.1501 103.463C98.3902 103.601 98.6749 103.67 99.0042 103.67C99.2227 103.67 99.4228 103.64 99.6043 103.578C99.7859 103.517 99.9413 103.424 100.071 103.301C100.2 103.178 100.298 103.027 100.366 102.849L102.185 102.969C102.093 103.406 101.903 103.787 101.617 104.114C101.334 104.437 100.968 104.689 100.518 104.871C100.072 105.049 99.5566 105.138 98.9719 105.138ZM106.556 105V95.5455H110.286C111 95.5455 111.609 95.6732 112.114 95.9286C112.622 96.181 113.008 96.5395 113.273 97.0043C113.54 97.4659 113.674 98.0091 113.674 98.6339C113.674 99.2617 113.539 99.8018 113.268 100.254C112.997 100.704 112.605 101.048 112.091 101.288C111.58 101.528 110.961 101.648 110.235 101.648H107.737V100.042H109.912C110.293 100.042 110.61 99.9896 110.863 99.8849C111.115 99.7803 111.303 99.6233 111.426 99.4141C111.552 99.2048 111.615 98.9447 111.615 98.6339C111.615 98.32 111.552 98.0553 111.426 97.8398C111.303 97.6244 111.114 97.4613 110.858 97.3505C110.606 97.2366 110.287 97.1797 109.903 97.1797H108.555V105H106.556ZM111.661 100.697L114.011 105H111.805L109.506 100.697H111.661ZM118.167 105.138C117.438 105.138 116.81 104.991 116.284 104.695C115.76 104.397 115.357 103.975 115.074 103.43C114.791 102.883 114.649 102.235 114.649 101.487C114.649 100.757 114.791 100.117 115.074 99.5664C115.357 99.0155 115.756 98.5862 116.27 98.2784C116.787 97.9706 117.393 97.8168 118.089 97.8168C118.557 97.8168 118.992 97.8922 119.395 98.043C119.801 98.1907 120.155 98.4138 120.457 98.7124C120.762 99.0109 120.999 99.3864 121.168 99.8388C121.337 100.288 121.422 100.814 121.422 101.418V101.958H115.434V100.739H119.571C119.571 100.456 119.509 100.205 119.386 99.9865C119.263 99.768 119.092 99.5972 118.874 99.4741C118.658 99.3479 118.407 99.2848 118.121 99.2848C117.822 99.2848 117.558 99.354 117.327 99.4925C117.099 99.628 116.921 99.8111 116.791 100.042C116.662 100.27 116.596 100.524 116.593 100.804V101.962C116.593 102.313 116.658 102.616 116.787 102.872C116.919 103.127 117.105 103.324 117.345 103.463C117.586 103.601 117.87 103.67 118.2 103.67C118.418 103.67 118.618 103.64 118.8 103.578C118.981 103.517 119.137 103.424 119.266 103.301C119.395 103.178 119.494 103.027 119.561 102.849L121.38 102.969C121.288 103.406 121.099 103.787 120.812 104.114C120.529 104.437 120.163 104.689 119.714 104.871C119.267 105.049 118.752 105.138 118.167 105.138ZM128.605 99.9311L126.805 100.042C126.774 99.888 126.708 99.7495 126.606 99.6264C126.505 99.5002 126.371 99.4002 126.204 99.3263C126.041 99.2494 125.846 99.2109 125.618 99.2109C125.313 99.2109 125.057 99.2756 124.847 99.4048C124.638 99.531 124.533 99.7003 124.533 99.9126C124.533 100.082 124.601 100.225 124.736 100.342C124.872 100.459 125.104 100.553 125.434 100.624L126.717 100.882C127.406 101.024 127.92 101.251 128.259 101.565C128.597 101.879 128.767 102.292 128.767 102.803C128.767 103.267 128.63 103.675 128.356 104.026C128.085 104.377 127.713 104.651 127.239 104.848C126.768 105.042 126.224 105.138 125.609 105.138C124.67 105.138 123.922 104.943 123.365 104.552C122.811 104.158 122.487 103.623 122.391 102.946L124.326 102.844C124.384 103.13 124.526 103.349 124.75 103.5C124.975 103.647 125.263 103.721 125.614 103.721C125.958 103.721 126.235 103.655 126.445 103.523C126.657 103.387 126.765 103.213 126.768 103.001C126.765 102.823 126.689 102.676 126.541 102.562C126.394 102.446 126.166 102.356 125.858 102.295L124.63 102.05C123.938 101.912 123.422 101.672 123.084 101.33C122.748 100.988 122.581 100.553 122.581 100.023C122.581 99.5679 122.704 99.1755 122.95 98.8462C123.199 98.5169 123.548 98.263 123.998 98.0845C124.45 97.906 124.98 97.8168 125.586 97.8168C126.481 97.8168 127.186 98.006 127.7 98.3846C128.217 98.7631 128.519 99.2786 128.605 99.9311ZM134.552 101.981V97.9091H136.519V105H134.631V103.712H134.557C134.397 104.127 134.131 104.461 133.758 104.714C133.389 104.966 132.938 105.092 132.406 105.092C131.932 105.092 131.515 104.985 131.154 104.769C130.794 104.554 130.513 104.248 130.31 103.85C130.11 103.453 130.008 102.978 130.005 102.424V97.9091H131.972V102.073C131.975 102.492 132.087 102.823 132.309 103.066C132.53 103.309 132.827 103.43 133.2 103.43C133.437 103.43 133.658 103.377 133.864 103.269C134.071 103.158 134.237 102.995 134.363 102.779C134.492 102.564 134.555 102.298 134.552 101.981ZM140.059 95.5455V105H138.092V95.5455H140.059ZM145.406 97.9091V99.3864H141.135V97.9091H145.406ZM142.105 96.2102H144.071V102.821C144.071 103.003 144.099 103.144 144.154 103.246C144.21 103.344 144.287 103.413 144.385 103.453C144.487 103.493 144.604 103.513 144.736 103.513C144.829 103.513 144.921 103.506 145.013 103.49C145.105 103.472 145.176 103.458 145.226 103.449L145.535 104.912C145.436 104.943 145.298 104.978 145.119 105.018C144.941 105.062 144.724 105.088 144.468 105.097C143.994 105.115 143.579 105.052 143.222 104.908C142.868 104.763 142.593 104.538 142.396 104.234C142.199 103.929 142.102 103.544 142.105 103.08V96.2102ZM152.498 99.9311L150.697 100.042C150.666 99.888 150.6 99.7495 150.499 99.6264C150.397 99.5002 150.263 99.4002 150.097 99.3263C149.934 99.2494 149.739 99.2109 149.511 99.2109C149.206 99.2109 148.949 99.2756 148.74 99.4048C148.531 99.531 148.426 99.7003 148.426 99.9126C148.426 100.082 148.494 100.225 148.629 100.342C148.764 100.459 148.997 100.553 149.326 100.624L150.609 100.882C151.299 101.024 151.813 101.251 152.151 101.565C152.49 101.879 152.659 102.292 152.659 102.803C152.659 103.267 152.522 103.675 152.248 104.026C151.977 104.377 151.605 104.651 151.131 104.848C150.66 105.042 150.117 105.138 149.502 105.138C148.563 105.138 147.815 104.943 147.258 104.552C146.704 104.158 146.379 103.623 146.284 102.946L148.218 102.844C148.277 103.13 148.418 103.349 148.643 103.5C148.868 103.647 149.155 103.721 149.506 103.721C149.851 103.721 150.128 103.655 150.337 103.523C150.549 103.387 150.657 103.213 150.66 103.001C150.657 102.823 150.582 102.676 150.434 102.562C150.286 102.446 150.059 102.356 149.751 102.295L148.523 102.05C147.83 101.912 147.315 101.672 146.976 101.33C146.641 100.988 146.473 100.553 146.473 100.023C146.473 99.5679 146.596 99.1755 146.842 98.8462C147.092 98.5169 147.441 98.263 147.89 98.0845C148.343 97.906 148.872 97.8168 149.478 97.8168C150.374 97.8168 151.079 98.006 151.593 98.3846C152.11 98.7631 152.411 99.2786 152.498 99.9311Z" fill="white"/>
</g>
<path d="M176.737 199.671C172.96 204.975 169.406 209.982 165.604 215.326C161.657 195.157 157.776 175.351 154 156C170.857 167.284 188.014 178.763 205.04 190.163C199.277 191.279 193.031 192.485 186.341 193.769C193.358 202.342 200.088 210.578 207 219.035C204.099 221.37 201.264 223.639 198.337 226C191.15 217.232 184.093 208.62 176.763 199.671H176.737Z" fill="#6A6A83"/>
<defs>
<clipPath id="clip0_292_114">
<rect width="207" height="206" fill="white"/>
</clipPath>
</defs>
</svg>
