<svg width="24" height="24" viewBox="0 0 24 24" fill="none" xmlns="http://www.w3.org/2000/svg">
<path fill-rule="evenodd" clip-rule="evenodd" d="M8.09504 7.10204C8.09504 6.69628 8.42805 6.36735 8.83884 6.36735H18.7562C19.167 6.36735 19.5 6.69628 19.5 7.10204C19.5 7.5078 19.167 7.83673 18.7562 7.83673H8.83884C8.42805 7.83673 8.09504 7.5078 8.09504 7.10204Z" fill="#202124"/>
<path fill-rule="evenodd" clip-rule="evenodd" d="M8.09504 12C8.09504 11.5942 8.42805 11.2653 8.83884 11.2653H18.7562C19.167 11.2653 19.5 11.5942 19.5 12C19.5 12.4058 19.167 12.7347 18.7562 12.7347H8.83884C8.42805 12.7347 8.09504 12.4058 8.09504 12Z" fill="#202124"/>
<path fill-rule="evenodd" clip-rule="evenodd" d="M8.09504 16.898C8.09504 16.4922 8.42805 16.1633 8.83884 16.1633H18.7562C19.167 16.1633 19.5 16.4922 19.5 16.898C19.5 17.3037 19.167 17.6327 18.7562 17.6327H8.83884C8.42805 17.6327 8.09504 17.3037 8.09504 16.898Z" fill="#202124"/>
<path fill-rule="evenodd" clip-rule="evenodd" d="M5.6157 6C4.99952 6 4.5 6.4934 4.5 7.10204C4.5 7.71068 4.99952 8.20408 5.6157 8.20408C6.23189 8.20408 6.73141 7.71068 6.73141 7.10204C6.73141 6.4934 6.23189 6 5.6157 6ZM5.6157 10.898C4.99952 10.898 4.5 11.3914 4.5 12C4.5 12.6086 4.99952 13.102 5.6157 13.102C6.23189 13.102 6.73141 12.6086 6.73141 12C6.73141 11.3914 6.23189 10.898 5.6157 10.898ZM5.6157 15.7959C4.99952 15.7959 4.5 16.2893 4.5 16.898C4.5 17.5066 4.99952 18 5.6157 18C6.23189 18 6.73141 17.5066 6.73141 16.898C6.73141 16.2893 6.23189 15.7959 5.6157 15.7959Z" fill="#202124"/>
</svg>
