<svg width="12" height="12" viewBox="0 0 12 12" fill="none" xmlns="http://www.w3.org/2000/svg">
<path fill-rule="evenodd" clip-rule="evenodd" d="M4.67627 6.79297C4.82272 6.64652 5.06058 6.64652 5.20703 6.79297C5.35348 6.93941 5.35348 7.17728 5.20703 7.32373L3.65527 8.875H4.94189C5.1489 8.87512 5.31689 9.04297 5.31689 9.25C5.31689 9.45703 5.1489 9.62488 4.94189 9.625H2.375V7.05811C2.37512 6.8511 2.54297 6.68311 2.75 6.68311C2.95703 6.68311 3.12488 6.8511 3.125 7.05811V8.34424L4.67627 6.79297ZM9.625 4.94189C9.62488 5.1489 9.45703 5.31689 9.25 5.31689C9.04297 5.31689 8.87512 5.1489 8.875 4.94189V3.65527L7.32373 5.20703C7.17728 5.35348 6.93941 5.35348 6.79297 5.20703C6.64652 5.06058 6.64652 4.82272 6.79297 4.67627L8.34473 3.125H7.05811C6.8511 3.12488 6.68311 2.95703 6.68311 2.75C6.68311 2.54297 6.8511 2.37512 7.05811 2.375H9.625V4.94189Z" fill="#202124"/>
</svg>
