<svg width="24" height="24" viewBox="0 0 24 24" fill="none" xmlns="http://www.w3.org/2000/svg">
<path fill-rule="evenodd" clip-rule="evenodd" d="M8.46683 7.76491C8.39666 7.8339 8.34108 7.91572 8.30319 8.00565C8.2653 8.09557 8.24582 8.1919 8.24581 8.28913C8.24579 8.38637 8.26526 8.48269 8.30312 8.57263C8.34099 8.66256 8.39655 8.74439 8.46671 8.8134C8.60842 8.95278 8.80098 9.0314 9.00211 9.03142C9.20325 9.03144 9.39583 8.95288 9.53757 8.81352L11.2432 7.13663V13.2028C11.2432 13.3991 11.3225 13.5877 11.4642 13.727C11.6059 13.8664 11.7985 13.945 11.9996 13.945C12.2008 13.945 12.3933 13.8664 12.5351 13.727C12.6767 13.5877 12.756 13.3991 12.756 13.2028V7.13663L14.4615 8.81333C14.6033 8.95201 14.7958 9.0301 14.9965 9.0298C15.1973 9.02951 15.3894 8.95091 15.5309 8.81175C15.6723 8.67266 15.7515 8.48445 15.7518 8.2885C15.752 8.09258 15.6733 7.90421 15.5323 7.76479L12.535 4.8179C12.3933 4.67857 12.2007 4.60001 11.9996 4.60001C11.7985 4.60001 11.606 4.67857 11.4642 4.8179L8.46683 7.76491ZM15.8868 11.9799V17.9156H8.11241V11.9799H8.574C8.77515 11.9799 8.96772 11.9013 9.10945 11.7619C9.25113 11.6226 9.3304 11.434 9.3304 11.2377C9.3304 11.0414 9.25113 10.8528 9.10945 10.7134C8.96772 10.5741 8.77515 10.4955 8.574 10.4955H7.92706C7.57459 10.4959 7.237 10.6338 6.98826 10.8784C6.7396 11.1229 6.60003 11.4541 6.59961 11.7992L6.59961 18.0962C6.60001 18.4413 6.73959 18.7726 6.98826 19.0171C7.237 19.2617 7.57459 19.3996 7.92706 19.4H16.0722C16.4246 19.3996 16.7622 19.2617 17.011 19.0171C17.2596 18.7726 17.3992 18.4413 17.3996 18.0962V11.7993C17.3992 11.4541 17.2596 11.1229 17.011 10.8784C16.7622 10.6338 16.4246 10.4959 16.0722 10.4955H15.4252C15.2241 10.4955 15.0315 10.5741 14.8898 10.7134C14.7481 10.8528 14.6688 11.0414 14.6688 11.2377C14.6688 11.434 14.7481 11.6226 14.8898 11.7619C15.0315 11.9013 15.2241 11.9799 15.4252 11.9799H15.8868Z" fill="#202124"/>
<path d="M8.30319 8.00565C8.34108 7.91572 8.39666 7.8339 8.46683 7.76491L11.4642 4.8179C11.606 4.67857 11.7985 4.60001 11.9996 4.60001C12.2007 4.60001 12.3933 4.67857 12.535 4.8179L15.5323 7.76479C15.6733 7.90421 15.752 8.09258 15.7518 8.2885C15.7515 8.48445 15.6723 8.67266 15.5309 8.81175C15.3894 8.95091 15.1973 9.02951 14.9965 9.0298C14.7958 9.0301 14.6033 8.95201 14.4615 8.81333L12.756 7.13663V13.2028C12.756 13.3991 12.6767 13.5877 12.5351 13.727C12.3933 13.8664 12.2008 13.945 11.9996 13.945C11.7985 13.945 11.6059 13.8664 11.4642 13.727C11.3225 13.5877 11.2432 13.3991 11.2432 13.2028V7.13663L9.53757 8.81352C9.39583 8.95288 9.20325 9.03144 9.00211 9.03142C8.80098 9.0314 8.60842 8.95278 8.46671 8.8134C8.39655 8.74439 8.34099 8.66256 8.30312 8.57263C8.26526 8.48269 8.24579 8.38637 8.24581 8.28913C8.24582 8.1919 8.2653 8.09557 8.30319 8.00565Z" fill="#202124"/>
<path d="M9.10945 11.7619C8.96772 11.9013 8.77515 11.9799 8.574 11.9799H8.11241V17.9156H15.8868V11.9799H15.4252C15.2241 11.9799 15.0315 11.9013 14.8898 11.7619C14.7481 11.6226 14.6688 11.434 14.6688 11.2377C14.6688 11.0414 14.7481 10.8528 14.8898 10.7134C15.0315 10.5741 15.2241 10.4955 15.4252 10.4955H16.0722C16.4246 10.4959 16.7622 10.6338 17.011 10.8784C17.2596 11.1229 17.3992 11.4541 17.3996 11.7993V18.0962C17.3992 18.4413 17.2596 18.7726 17.011 19.0171C16.7622 19.2617 16.4246 19.3996 16.0722 19.4H7.92706C7.57459 19.3996 7.237 19.2617 6.98826 19.0171C6.73959 18.7726 6.60001 18.4413 6.59961 18.0962L6.59961 11.7992C6.60003 11.4541 6.7396 11.1229 6.98826 10.8784C7.237 10.6338 7.57459 10.4959 7.92706 10.4955H8.574C8.77515 10.4955 8.96772 10.5741 9.10945 10.7134C9.25113 10.8528 9.3304 11.0414 9.3304 11.2377C9.3304 11.434 9.25113 11.6226 9.10945 11.7619Z" fill="#202124"/>
</svg>
