<svg width="24" height="24" viewBox="0 0 24 24" fill="none" xmlns="http://www.w3.org/2000/svg">
<path d="M9.125 16.875C9.30208 16.8333 9.47917 16.7969 9.65625 16.7656C10.0938 16.6979 10.388 16.6146 10.5391 16.5156C10.5911 16.4844 10.6458 16.4167 10.7031 16.3125C10.7604 16.2083 10.9089 15.6641 11.1484 14.6797C11.4609 13.3672 11.737 11.9948 11.9766 10.5625L12.4062 8.32031L12.4531 7.86719C12.474 7.7474 12.4844 7.64583 12.4844 7.5625C12.4844 7.42188 12.4427 7.32552 12.3594 7.27344C12.2135 7.17969 11.9323 7.13281 11.5156 7.13281L11.4531 7.14062H11.2422C11.1589 7.14062 11.0521 7.125 10.9219 7.09375C10.9375 6.98958 10.9609 6.8776 10.9922 6.75781L11.9297 6.80469L13.3906 6.85156L14.7031 6.78906L15.2891 6.75781V7.03125C15.1953 7.05729 15.0078 7.08594 14.7266 7.11719C14.2995 7.16927 14.0391 7.22656 13.9453 7.28906C13.8776 7.34115 13.8151 7.43229 13.7578 7.5625C13.7005 7.6875 13.4896 8.61198 13.125 10.3359L12.2344 14.6094C12 15.7031 11.8828 16.3229 11.8828 16.4688C11.8828 16.5 11.8932 16.5365 11.9141 16.5781C12.0391 16.6562 12.3047 16.7135 12.7109 16.75C12.9661 16.776 13.1771 16.8047 13.3438 16.8359L13.3672 17.0781C13.3464 17.099 13.3073 17.1094 13.25 17.1094H13.0625C12.8177 17.125 12.4115 17.1328 11.8438 17.1328L10.4609 17.1016H10.0938C10.0625 17.1016 9.94531 17.1068 9.74219 17.1172C9.53906 17.1328 9.33333 17.1406 9.125 17.1406V16.875Z" fill="#202124"/>
</svg>
