<svg width="24" height="24" viewBox="0 0 24 24" fill="none" xmlns="http://www.w3.org/2000/svg">
<path d="M12.7578 19V20.5H11.1621V19H12.7578ZM16.5 9.45801C16.5 7.00588 14.4952 5 12 5C9.50475 5 7.5 7.00588 7.5 9.45801C7.50002 10.6325 7.95676 11.6993 8.70898 12.498C9.12869 12.9437 9.54183 13.5501 9.71289 14.3145L10.1025 16.0557H13.8174L14.1836 14.4189C14.3604 13.6291 14.796 13.0072 15.2373 12.5547L16.3096 13.6016C15.996 13.9232 15.7457 14.3078 15.6475 14.7461L14.71 18.9365C14.5055 19.8502 13.6941 20.5 12.7578 20.5V19C12.9918 19 13.1949 18.8377 13.2461 18.6094L13.4814 17.5557H10.4385L10.6738 18.6094C10.725 18.8377 10.9281 19 11.1621 19V20.5L10.9883 20.4922C10.1268 20.4176 9.40168 19.7932 9.20996 18.9365L8.24902 14.6416C8.16588 14.2704 7.97226 13.9379 7.72559 13.6484L7.61719 13.5264C6.67688 12.528 6.07791 11.2083 6.00684 9.75098L6 9.45801C6 6.16753 8.68629 3.5 12 3.5C15.3137 3.5 18 6.16753 18 9.45801L17.9922 9.75781C17.9177 11.2493 17.2898 12.5962 16.3096 13.6016L15.2373 12.5547C16.0217 11.7502 16.5 10.6601 16.5 9.45801Z" fill="#202124"/>
</svg>
