<svg width="24" height="24" viewBox="0 0 24 24" fill="none" xmlns="http://www.w3.org/2000/svg">
<path d="M6.475 14.55C4.83195 14.55 3.5 13.218 3.5 11.575C3.5 9.93195 4.83195 8.6 6.475 8.6C7.55719 8.6 8.50442 9.17782 9.025 10.0418L14.6732 7.325C14.593 7.05567 14.55 6.77036 14.55 6.475C14.55 4.83195 15.882 3.5 17.525 3.5C19.168 3.5 20.5 4.83195 20.5 6.475C20.5 8.11805 19.168 9.45 17.525 9.45C16.7144 9.45 15.9795 9.1258 15.4429 8.6L9.45 11.575C9.45 11.8704 9.40696 12.1557 9.3268 12.425L15.4429 15.4C15.9795 14.8742 16.7144 14.55 17.525 14.55C19.168 14.55 20.5 15.882 20.5 17.525C20.5 19.168 19.168 20.5 17.525 20.5C15.882 20.5 14.55 19.168 14.55 17.525C14.55 17.2296 14.593 16.9443 14.6732 16.675L8.55707 13.7C8.02049 14.2258 7.2856 14.55 6.475 14.55Z" fill="#202124"/>
</svg>
