<svg width="24" height="24" viewBox="0 0 24 24" fill="none" xmlns="http://www.w3.org/2000/svg">
<path fill-rule="evenodd" clip-rule="evenodd" d="M21 12C21 16.9706 16.9706 21 12 21C7.02944 21 3 16.9706 3 12C3 7.02944 7.02944 3 12 3C16.9706 3 21 7.02944 21 12ZM19.5 12C19.5 16.1421 16.1421 19.5 12 19.5C7.85786 19.5 4.5 16.1421 4.5 12C4.5 7.85786 7.85786 4.5 12 4.5C16.1421 4.5 19.5 7.85786 19.5 12Z" fill="#202124"/>
<path fill-rule="evenodd" clip-rule="evenodd" d="M10.5 8.25C10.9142 8.25 11.25 8.58579 11.25 9V15C11.25 15.4142 10.9142 15.75 10.5 15.75C10.0858 15.75 9.75 15.4142 9.75 15V9C9.75 8.58579 10.0858 8.25 10.5 8.25ZM13.5 8.25C13.9142 8.25 14.25 8.58579 14.25 9V15C14.25 15.4142 13.9142 15.75 13.5 15.75C13.0858 15.75 12.75 15.4142 12.75 15V9C12.75 8.58579 13.0858 8.25 13.5 8.25Z" fill="#202124"/>
</svg>
