<svg width="100" height="100" viewBox="0 0 100 100" fill="none" xmlns="http://www.w3.org/2000/svg">
<path fill-rule="evenodd" clip-rule="evenodd" d="M79.1667 54.8113L39.5833 77.6647C35.8796 79.803 31.25 77.1301 31.25 72.8534L31.25 27.1466C31.25 22.8699 35.8796 20.197 39.5833 22.3353L79.1667 45.1887C82.8704 47.3271 82.8704 52.6729 79.1667 54.8113Z" fill="#DCDCE6"/>
<path fill-rule="evenodd" clip-rule="evenodd" d="M100 50C100 77.6142 77.6142 100 50 100C22.3858 100 0 77.6142 0 50C0 22.3858 22.3858 0 50 0C77.6142 0 100 22.3858 100 50ZM39.5833 77.6647L79.1667 54.8113C82.8704 52.6729 82.8704 47.3271 79.1667 45.1887L39.5833 22.3353C35.8796 20.197 31.25 22.8699 31.25 27.1466L31.25 72.8534C31.25 77.1301 35.8796 79.803 39.5833 77.6647Z" fill="white" fill-opacity="0.15"/>
</svg>
