<svg width="24" height="24" viewBox="0 0 24 24" fill="none" xmlns="http://www.w3.org/2000/svg">
<path d="M20.5277 13.3059C20.5578 13.1057 20.5822 12.9028 20.5985 12.697C20.6106 12.545 20.5638 12.3489 20.4473 12.1891C20.3278 12.0254 20.1343 11.8996 19.861 11.8996C19.4757 11.8996 19.1567 12.1949 19.1252 12.578C19.1068 12.8127 19.0765 13.0444 19.0354 13.2715C19.0141 13.3895 18.9899 13.5064 18.9628 13.6222C18.9443 13.7015 18.9245 13.7803 18.9033 13.8585C18.0839 16.8912 15.309 19.1255 12.0146 19.1255C10.3922 19.1255 8.89556 18.5835 7.69654 17.6712C7.05927 17.1863 6.50607 16.5968 6.06279 15.9285L7.57459 15.9247C7.67658 15.9246 7.77377 15.9039 7.86219 15.8665C8.12717 15.7544 8.31327 15.4923 8.31327 15.187C8.31327 14.7798 7.98237 14.4493 7.57459 14.4493H4.14092C3.73314 14.4493 3.40224 14.7798 3.40224 15.187V18.6295C3.40224 19.0367 3.73314 19.3672 4.14092 19.3672C4.54858 19.3672 4.87954 19.0376 4.87961 18.6295L4.88176 16.8194C5.22798 17.3292 5.62756 17.7999 6.07248 18.2237C7.61832 19.696 9.71141 20.6008 12.0146 20.6008C16.308 20.6008 19.8706 17.4576 20.5202 13.3525L20.5277 13.3059Z" fill="#202124"/>
<path d="M3.47312 10.695C3.44301 10.8951 3.41862 11.0981 3.40224 11.3038C3.39015 11.4558 3.43695 11.652 3.55353 11.8117C3.67302 11.9754 3.86652 12.1013 4.13976 12.1013C4.52508 12.1013 4.84407 11.806 4.87555 11.4228C4.89402 11.1881 4.92426 10.9564 4.96539 10.7293C4.9867 10.6114 5.01092 10.4944 5.03797 10.3786C5.05647 10.2993 5.07631 10.2206 5.09744 10.1423C5.91683 7.10963 8.69183 4.87531 11.9862 4.87531C13.6086 4.87531 15.1052 5.41735 16.3042 6.32967C16.9415 6.81456 17.4947 7.40406 17.938 8.07237L16.4262 8.07616C16.3242 8.0762 16.227 8.0969 16.1386 8.13431C15.8736 8.24642 15.6875 8.50855 15.6875 8.81382C15.6875 9.22104 16.0184 9.55148 16.4262 9.55148H19.8599C20.2676 9.55148 20.5985 9.22104 20.5985 8.81382V5.37131C20.5985 4.9641 20.2676 4.63365 19.8599 4.63365C19.4522 4.63365 19.1212 4.96321 19.1212 5.37131L19.119 7.1814C18.7728 6.67167 18.3732 6.2009 17.9283 5.77714C16.3825 4.30484 14.2894 3.39999 11.9862 3.39999C7.69278 3.39999 4.13015 6.54325 3.48063 10.6483L3.47312 10.695Z" fill="#202124"/>
</svg>
