<svg width="24" height="24" viewBox="0 0 24 24" fill="none" xmlns="http://www.w3.org/2000/svg">
<path d="M13.1856 18.6123L13.213 18.663C13.2912 18.7633 13.4621 18.7459 13.5098 18.6123L13.5577 18.4795L13.3477 18.5537L13.1387 18.4795L13.1856 18.6123ZM13.5098 5.61525C13.4553 5.46158 13.2401 5.46158 13.1856 5.61525L12.5831 7.30763C11.912 9.18583 10.446 10.6645 8.58503 11.3418L6.90827 11.9512C6.75736 12.0064 6.75724 12.2222 6.90827 12.2773L7.04499 12.3262L8.58503 12.8857C10.4459 13.563 11.912 15.0419 12.5831 16.9199L13.1387 18.4795L13.3477 18.5537L13.5577 18.4795L14.1124 16.9199C14.7835 15.0418 16.2496 13.563 18.1104 12.8857L19.7872 12.2773C19.9383 12.2223 19.9382 12.0064 19.7872 11.9512L18.1104 11.3418C16.2494 10.6645 14.7834 9.18576 14.1124 7.30763L13.5098 5.61525ZM13.3477 8.08985C14.1218 9.89523 15.5528 11.336 17.3497 12.1133C15.5527 12.8904 14.1219 14.3322 13.3477 16.1377C12.5736 14.3326 11.1434 12.8905 9.34675 12.1133C11.1432 11.336 12.5737 9.89502 13.3477 8.08985Z" fill="#202124"/>
<path d="M7.15044 14.0525C7.12591 13.9825 7.02849 13.9825 7.00396 14.0525L6.72759 14.823C6.42136 15.6785 5.75378 16.3528 4.90532 16.6619L4.14165 16.9402C4.07251 16.9658 4.07264 17.0637 4.14165 17.0886L4.90532 17.367C5.75279 17.676 6.42129 18.3497 6.72759 19.2058L7.00396 19.9773L7.01665 19.9998C7.05256 20.0456 7.12885 20.0383 7.15044 19.9773L7.42681 19.2058C7.73311 18.3506 8.40076 17.676 9.24907 17.367L10.0127 17.0886C10.0817 17.0628 10.0818 16.965 10.0127 16.9402L9.24907 16.6619C8.40146 16.3528 7.73304 15.6793 7.42681 14.823L7.15044 14.0525ZM7.0772 15.8113C7.38104 16.2981 7.79072 16.7094 8.27544 17.0144C7.79086 17.3193 7.3818 17.7306 7.07817 18.2166C6.77447 17.7302 6.36423 17.3193 5.87993 17.0144C6.36461 16.7093 6.77368 16.2976 7.0772 15.8113Z" fill="#202124"/>
<path d="M7.15044 4.0525C7.12591 3.9825 7.02849 3.9825 7.00396 4.0525L6.72759 4.82301C6.42136 5.67846 5.75378 6.35282 4.90532 6.66188L4.14165 6.9402C4.07251 6.96584 4.07264 7.06371 4.14165 7.08864L4.90532 7.36696C5.75279 7.67596 6.42129 8.34973 6.72759 9.20582L7.00396 9.97731L7.01665 9.99977C7.05256 10.0456 7.12885 10.0383 7.15044 9.97731L7.42681 9.20582C7.73311 8.35059 8.40076 7.67596 9.24907 7.36696L10.0127 7.08864C10.0817 7.06285 10.0818 6.96501 10.0127 6.9402L9.24907 6.66188C8.40146 6.35282 7.73304 5.67931 7.42681 4.82301L7.15044 4.0525ZM7.0772 5.81129C7.38104 6.29814 7.79072 6.7094 8.27544 7.01442C7.79086 7.3193 7.3818 7.73058 7.07817 8.21657C6.77447 7.73017 6.36423 7.31927 5.87993 7.01442C6.36461 6.70927 6.77368 6.29763 7.0772 5.81129Z" fill="#202124"/>
</svg>
