<svg width="24" height="24" viewBox="0 0 24 24" fill="none" xmlns="http://www.w3.org/2000/svg">
<path d="M10.3715 6.80021L10.8542 8.15404C11.3911 9.65661 12.5633 10.8396 14.0521 11.3815L15.3935 11.8687C15.5146 11.9127 15.5146 12.0857 15.3935 12.1297L14.0521 12.6169C12.5633 13.1587 11.3911 14.3418 10.8542 15.8443L10.3715 17.1982C10.3279 17.3203 10.1564 17.3203 10.1128 17.1982L9.6301 15.8443C9.09322 14.3418 7.92098 13.1587 6.43223 12.6169L5.0908 12.1297C4.96974 12.0857 4.96974 11.9127 5.0908 11.8687L6.43223 11.3815C7.92104 10.8396 9.09324 9.65655 9.6301 8.15404L10.1128 6.80021C10.1564 6.67727 10.3279 6.67727 10.3715 6.80021Z" fill="#202124"/>
<path d="M16.4099 3.54724L16.6551 4.23249C16.9273 4.99289 17.5205 5.59239 18.2747 5.8671L18.9537 6.11449C19.0153 6.13726 19.0153 6.22453 18.9537 6.24653L18.2747 6.49392C17.5213 6.76864 16.9273 7.36738 16.6551 8.12853L16.4099 8.81378C16.3874 8.87601 16.3009 8.87601 16.2791 8.81378L16.034 8.12853C15.7618 7.36814 15.1685 6.76864 14.4143 6.49392L13.7354 6.24653C13.6737 6.22377 13.6737 6.1365 13.7354 6.11449L14.4143 5.8671C15.1678 5.59239 15.7618 4.99364 16.034 4.23249L16.2791 3.54724C16.3009 3.48425 16.3881 3.48425 16.4099 3.54724Z" fill="#202124"/>
<path d="M16.4099 15.1863L16.6551 15.8716C16.9273 16.632 17.5205 17.2315 18.2747 17.5062L18.9537 17.7536C19.0153 17.7763 19.0153 17.8636 18.9537 17.8856L18.2747 18.133C17.5213 18.4077 16.9273 19.0065 16.6551 19.7676L16.4099 20.4529C16.3874 20.5151 16.3009 20.5151 16.2791 20.4529L16.034 19.7676C15.7618 19.0072 15.1685 18.4077 14.4143 18.133L13.7354 17.8856C13.6737 17.8628 13.6737 17.7756 13.7354 17.7536L14.4143 17.5062C15.1678 17.2315 15.7618 16.6327 16.034 15.8716L16.2791 15.1863C16.3009 15.1241 16.3881 15.1241 16.4099 15.1863Z" fill="#202124"/>
</svg>
