<svg width="24" height="24" viewBox="0 0 24 24" fill="none" xmlns="http://www.w3.org/2000/svg">
<path fill-rule="evenodd" clip-rule="evenodd" d="M21 12C21 16.9706 16.9706 21 12 21C7.02944 21 3 16.9706 3 12C3 7.02944 7.02944 3 12 3C16.9706 3 21 7.02944 21 12ZM19.5 12C19.5 16.1421 16.1421 19.5 12 19.5C7.85786 19.5 4.5 16.1421 4.5 12C4.5 7.85786 7.85786 4.5 12 4.5C16.1421 4.5 19.5 7.85786 19.5 12Z" fill="#202124"/>
<path fill-rule="evenodd" clip-rule="evenodd" d="M9.79221 7.67749C10.2799 7.41646 10.8718 7.44507 11.3321 7.75192L15.8321 10.7519C16.2493 11.0301 16.5 11.4985 16.5 12C16.5 12.5015 16.2493 12.9699 15.8321 13.2481L11.3321 16.2481C10.8718 16.5549 10.2799 16.5835 9.79221 16.3225C9.30448 16.0615 9 15.5532 9 15V9C9 8.44681 9.30448 7.93852 9.79221 7.67749ZM10.5 9V15L15 12L10.5 9Z" fill="#202124"/>
</svg>
