<svg width="24" height="24" viewBox="0 0 24 24" fill="none" xmlns="http://www.w3.org/2000/svg">
<path fill-rule="evenodd" clip-rule="evenodd" d="M8.03033 4.46967C8.32322 4.76256 8.32322 5.23744 8.03033 5.53033L6.31066 7.25L14.5 7.25C14.9142 7.25 15.25 7.58579 15.25 8C15.25 8.41421 14.9142 8.75 14.5 8.75L6.31066 8.75L8.03033 10.4697C8.32322 10.7626 8.32322 11.2374 8.03033 11.5303C7.73744 11.8232 7.26256 11.8232 6.96967 11.5303L3.96967 8.53033C3.67678 8.23744 3.67678 7.76256 3.96967 7.46967L6.96967 4.46967C7.26256 4.17678 7.73744 4.17678 8.03033 4.46967ZM15.9697 12.4697C16.2626 12.1768 16.7374 12.1768 17.0303 12.4697L20.0303 15.4697C20.3232 15.7626 20.3232 16.2374 20.0303 16.5303L17.0303 19.5303C16.7374 19.8232 16.2626 19.8232 15.9697 19.5303C15.6768 19.2374 15.6768 18.7626 15.9697 18.4697L17.6893 16.75H9.5C9.08579 16.75 8.75 16.4142 8.75 16C8.75 15.5858 9.08579 15.25 9.5 15.25H17.6893L15.9697 13.5303C15.6768 13.2374 15.6768 12.7626 15.9697 12.4697Z" fill="#202124"/>
</svg>
