<svg width="24" height="24" viewBox="0 0 24 24" fill="none" xmlns="http://www.w3.org/2000/svg">
<path fill-rule="evenodd" clip-rule="evenodd" d="M16.1705 5.04063C15.9884 4.65454 15.7002 4.32796 15.3396 4.09947C14.9792 3.87106 14.5612 3.74985 14.1345 3.75H9.86551C9.43885 3.75 9.02097 3.8713 8.66064 4.09977C8.3003 4.32825 8.01233 4.65452 7.83036 5.04043L7.02441 6.75H4.5C4.08579 6.75 3.75 7.08579 3.75 7.5C3.75 7.91421 4.08579 8.25 4.5 8.25H5.32872L6.43955 18.2475C6.50055 18.7979 6.76243 19.3068 7.17502 19.6763C7.58767 20.0457 8.12211 20.25 8.676 20.25H15.3239C15.8778 20.25 16.4123 20.0457 16.825 19.6763C17.2376 19.3068 17.4995 18.798 17.5604 18.2475L18.6713 8.25H19.5C19.9142 8.25 20.25 7.91421 20.25 7.5C20.25 7.08579 19.9142 6.75 19.5 6.75H18H16.9757L16.1705 5.04063ZM14.5367 5.36649C14.4165 5.29033 14.2772 5.24993 14.1349 5.25H13.4206H9.8655C9.72328 5.25 9.58398 5.29043 9.46387 5.36659C9.34377 5.44274 9.2478 5.55146 9.18714 5.68007L8.68274 6.75H15.3176L14.9063 5.87685L14.8136 5.68013C14.7529 5.55154 14.6568 5.4426 14.5367 5.36649ZM15.8244 18.5588C15.962 18.4356 16.0493 18.2657 16.0696 18.0822L17.1621 8.25H7.49915H6.83795L7.93045 18.0825C7.95076 18.266 8.03805 18.4356 8.1756 18.5588C8.31316 18.6819 8.49137 18.75 8.676 18.75H15.3241C15.5087 18.75 15.6868 18.6819 15.8244 18.5588Z" fill="#662E6B"/>
<path fill-rule="evenodd" clip-rule="evenodd" d="M16.0696 18.0822C16.0493 18.2657 15.962 18.4356 15.8244 18.5588C15.6868 18.6819 15.5087 18.75 15.3241 18.75H8.676C8.49137 18.75 8.31316 18.6819 8.1756 18.5588C8.03805 18.4356 7.95076 18.266 7.93045 18.0825L6.83795 8.25H7.49915H17.1621L16.0696 18.0822ZM10 10.5C10.4142 10.5 10.75 10.8358 10.75 11.25V16C10.75 16.4142 10.4142 16.75 10 16.75C9.58579 16.75 9.25 16.4142 9.25 16V11.25C9.25 10.8358 9.58579 10.5 10 10.5ZM14 10.5C14.4142 10.5 14.75 10.8358 14.75 11.25V16C14.75 16.4142 14.4142 16.75 14 16.75C13.5858 16.75 13.25 16.4142 13.25 16V11.25C13.25 10.8358 13.5858 10.5 14 10.5Z" fill="#662E6B"/>
<defs>
<clipPath id="clip0_9476_486200">
<rect width="24" height="24" fill="white"/>
</clipPath>
</defs>
</svg>
