<svg width="24" height="24" viewBox="0 0 24 24" fill="none" xmlns="http://www.w3.org/2000/svg">
<path d="M14.75 6.54688H16.2656V13.1641C16.2656 14.3151 16.1354 15.2292 15.875 15.9062C15.6146 16.5833 15.1432 17.1354 14.4609 17.5625C13.7839 17.9844 12.8932 18.1953 11.7891 18.1953C10.7161 18.1953 9.83854 18.0104 9.15625 17.6406C8.47396 17.2708 7.98698 16.737 7.69531 16.0391C7.40365 15.3359 7.25781 14.3776 7.25781 13.1641V6.54688H8.77344V13.1562C8.77344 14.151 8.86458 14.8854 9.04688 15.3594C9.23438 15.8281 9.55208 16.1901 10 16.4453C10.4531 16.7005 11.0052 16.8281 11.6562 16.8281C12.7708 16.8281 13.5651 16.5755 14.0391 16.0703C14.513 15.5651 14.75 14.5938 14.75 13.1562V6.54688Z" fill="#202124"/>
<path d="M6 20.2812H17.5547V21.4531H6V20.2812Z" fill="#202124"/>
</svg>
