<svg width="24" height="24" viewBox="0 0 24 24" fill="none" xmlns="http://www.w3.org/2000/svg">
<path fill-rule="evenodd" clip-rule="evenodd" d="M21 12C21 16.9706 16.9706 21 12 21C7.02944 21 3 16.9706 3 12C3 7.02944 7.02944 3 12 3C16.9706 3 21 7.02944 21 12ZM12 19.5C16.1421 19.5 19.5 16.1421 19.5 12C19.5 7.85786 16.1421 4.5 12 4.5C7.85786 4.5 4.5 7.85786 4.5 12C4.5 16.1421 7.85786 19.5 12 19.5Z" fill="#202124"/>
<path fill-rule="evenodd" clip-rule="evenodd" d="M16.4801 8.92383C16.7983 9.18901 16.8413 9.66193 16.5762 9.98014L11.5762 15.9801C11.4413 16.142 11.2445 16.2397 11.034 16.2492C10.8235 16.2588 10.6187 16.1793 10.4697 16.0303L7.46967 13.0303C7.17678 12.7374 7.17678 12.2626 7.46967 11.9697C7.76256 11.6768 8.23744 11.6768 8.53033 11.9697L10.9496 14.3889L15.4238 9.01986C15.689 8.70165 16.1619 8.65866 16.4801 8.92383Z" fill="#202124"/>
</svg>
