<svg width="24" height="24" viewBox="0 0 24 24" fill="none" xmlns="http://www.w3.org/2000/svg">
<g clip-path="url(#clip0_91_1998)">
<path fill-rule="evenodd" clip-rule="evenodd" d="M21 12C21 16.9706 16.9706 21 12 21C7.02944 21 3 16.9706 3 12C3 7.02944 7.02944 3 12 3C16.9706 3 21 7.02944 21 12ZM12 19.5C16.1421 19.5 19.5 16.1421 19.5 12C19.5 7.85786 16.1421 4.5 12 4.5C7.85786 4.5 4.5 7.85786 4.5 12C4.5 16.1421 7.85786 19.5 12 19.5Z" fill="#202124"/>
<path d="M13 16C13 16.5523 12.5523 17 12 17C11.4477 17 11 16.5523 11 16C11 15.4477 11.4477 15 12 15C12.5523 15 13 15.4477 13 16Z" fill="#202124"/>
<path d="M12 6.85C11.7262 6.85 11.4857 6.91706 11.2881 7.06038C11.0836 7.20611 10.9748 7.40874 10.9748 7.65658L11.3057 13.7235L11.3067 13.7328C11.3259 13.8967 11.4058 14.0306 11.5416 14.1237L11.5438 14.1252C11.6734 14.2108 11.8286 14.2487 12 14.2487C12.1714 14.2487 12.3265 14.2108 12.4561 14.1252L12.4583 14.1237C12.5941 14.0305 12.6743 13.8967 12.6935 13.7328L13.025 7.64957V7.6414C13.025 7.40131 12.9102 7.20555 12.7064 7.06037C12.5092 6.91732 12.2707 6.85 12 6.85Z" fill="#202124"/>
</g>
<defs>
<clipPath id="clip0_91_1998">
<rect width="24" height="24" fill="white"/>
</clipPath>
</defs>
</svg>
