<svg width="24" height="24" viewBox="0 0 24 24" fill="none" xmlns="http://www.w3.org/2000/svg">
<path d="M9.29735 20.2195C9.41878 20.6155 9.83826 20.8381 10.2343 20.7166C10.6303 20.5952 10.8529 20.1757 10.7314 19.7797L9.29735 20.2195ZM8.24045 17.1409L8.70668 16.5534L8.70667 16.5534L8.24045 17.1409ZM5.37692 12.0034L4.67923 11.7282L4.67914 11.7284L5.37692 12.0034ZM4.01935 10.2782L4.60975 10.7408L4.61028 10.7401L4.01935 10.2782ZM7.06287 8.55189L7.40262 9.22052C7.61304 9.1136 7.76086 8.91387 7.80161 8.68139L7.06287 8.55189ZM14.2975 17.4213L14.157 16.6845C13.9629 16.7215 13.7913 16.8337 13.6794 16.9965L14.2975 17.4213ZM15.038 20.5039C15.3162 20.8107 15.7906 20.8338 16.0974 20.5555C16.4042 20.2772 16.4273 19.8029 16.149 19.4961L15.038 20.5039ZM10.2 8.19989L9.48148 7.98494C9.47875 7.99407 9.47619 8.00324 9.47381 8.01247L10.2 8.19989ZM10.4332 10.335L10.9592 9.80037L10.9586 9.79986L10.4332 10.335ZM12.5644 11.139L13.3032 11.2678C13.3384 11.0657 13.2894 10.8581 13.1674 10.6931C13.0455 10.5282 12.8613 10.4204 12.6577 10.3949L12.5644 11.139ZM14.8095 12.0034L15.0124 11.2814C14.8205 11.2274 14.615 11.2521 14.4413 11.35C14.2676 11.4479 14.14 11.6109 14.0868 11.8031L14.8095 12.0034ZM16.7998 11.1394L17.5452 11.2227L17.5452 11.2226L16.7998 11.1394ZM11.5772 7.19992L11.72 7.93619L11.7201 7.93618L11.5772 7.19992ZM14.9953 13.2371C15.3473 13.0187 15.4556 12.5563 15.2372 12.2044C15.0188 11.8524 14.5565 11.7441 14.2045 11.9625L14.9953 13.2371ZM13.3999 13.5998L12.7904 13.1627L12.7903 13.1629L13.3999 13.5998ZM11.4963 15.297C11.4157 15.7033 11.6798 16.098 12.0861 16.1786C12.4924 16.2592 12.8871 15.9951 12.9676 15.5888L11.4963 15.297ZM10.7314 19.7797C10.3092 18.4027 9.64941 17.3016 8.70668 16.5534L7.77421 17.7283C8.41304 18.2353 8.93561 19.0398 9.29735 20.2195L10.7314 19.7797ZM8.70667 16.5534C7.92064 15.9296 6.9248 15.8307 6.27119 15.7449C5.90672 15.6971 5.63904 15.6568 5.42385 15.586C5.22332 15.52 5.13464 15.4478 5.08376 15.3768L3.86452 16.2506C4.16163 16.6652 4.56949 16.884 4.95508 17.0109C5.32601 17.1329 5.73404 17.1873 6.0759 17.2322C6.83496 17.3318 7.37428 17.411 7.77422 17.7284L8.70667 16.5534ZM5.08376 15.3768C5.03996 15.3157 4.99913 15.21 5.0118 15.0025C5.0249 14.7881 5.09275 14.5202 5.21158 14.2015C5.32899 13.8866 5.4808 13.5613 5.63919 13.2307C5.79035 12.9153 5.95832 12.5737 6.07469 12.2784L4.67914 11.7284C4.58792 11.9599 4.45224 12.2366 4.28646 12.5826C4.12791 12.9135 3.94948 13.2928 3.80609 13.6774C3.66413 14.0582 3.54064 14.4846 3.51459 14.9111C3.48811 15.3445 3.56033 15.8261 3.86452 16.2506L5.08376 15.3768ZM6.0746 12.2786C6.27823 11.7624 6.17872 11.2839 5.92976 10.9133C5.71191 10.5889 5.39429 10.3657 5.16281 10.2214C5.03991 10.1448 4.91838 10.077 4.81978 10.0222C4.71284 9.96277 4.64311 9.92415 4.58999 9.89078C4.51835 9.84578 4.56341 9.86223 4.62044 9.93588C4.65515 9.98071 4.73211 10.0948 4.74759 10.2689C4.76514 10.4663 4.69479 10.6322 4.60975 10.7408L3.42896 9.81571C3.31461 9.96167 3.23248 10.1656 3.25348 10.4018C3.27242 10.6147 3.36806 10.7685 3.43443 10.8542C3.55476 11.0096 3.71495 11.1125 3.79206 11.1609C3.88769 11.221 4.00034 11.2829 4.09116 11.3334C4.19031 11.3885 4.28194 11.4399 4.36935 11.4944C4.55852 11.6123 4.65021 11.6985 4.68457 11.7496C4.68781 11.7545 4.6834 11.7176 4.67923 11.7282L6.0746 12.2786ZM4.61028 10.7401C4.56308 10.8005 4.55287 10.7884 4.71132 10.6835C4.83705 10.6003 5.02024 10.4896 5.26731 10.3494C5.75974 10.0702 6.46973 9.69454 7.40262 9.22052L6.72313 7.88325C5.78327 8.36081 5.04949 8.74855 4.52735 9.04467C4.26713 9.19224 4.05034 9.3222 3.88339 9.4327C3.74917 9.52154 3.55362 9.6562 3.42842 9.81639L4.61028 10.7401ZM7.80161 8.68139C8.04343 7.30193 8.59304 6.35005 9.39415 5.73159C10.2046 5.10591 11.365 4.75 12.9591 4.75V3.25C11.1541 3.25 9.63239 3.65267 8.47751 4.54425C7.31327 5.44305 6.61431 6.76712 6.32414 8.42239L7.80161 8.68139ZM12.9591 4.75C15.2666 4.75 16.8141 5.71572 17.8023 6.96918C18.8115 8.24929 19.2498 9.84979 19.2498 11.0718H20.7498C20.7498 9.54432 20.2168 7.60891 18.9803 6.0405C17.7227 4.44543 15.7499 3.25 12.9591 3.25V4.75ZM19.2498 11.0718C19.2498 13.4328 17.182 16.1078 14.157 16.6845L14.438 18.158C18.1136 17.4572 20.7498 14.2091 20.7498 11.0718H19.2498ZM13.6794 16.9965C13.2794 17.5785 13.4888 18.2566 13.7266 18.7298C13.9882 19.2504 14.4407 19.8455 15.038 20.5039L16.149 19.4961C15.5826 18.8718 15.2373 18.3955 15.0669 18.0563C14.8727 17.6699 15.016 17.7 14.9156 17.846L13.6794 16.9965ZM9.47381 8.01247C9.19845 9.0794 9.18502 10.1606 9.90777 10.8702L10.9586 9.79986C10.847 9.69027 10.6784 9.34754 10.9262 8.38732L9.47381 8.01247ZM9.90726 10.8697C10.5001 11.4529 11.4108 11.7501 12.471 11.8832L12.6577 10.3949C11.71 10.2759 11.1999 10.0371 10.9592 9.80037L9.90726 10.8697ZM11.8255 11.0102C11.7066 11.6924 11.6813 12.3656 11.9186 12.8894C12.0488 13.177 12.2619 13.4263 12.5685 13.5802C12.8643 13.7286 13.1819 13.7556 13.4745 13.7254L13.3206 12.2333C13.2216 12.2435 13.2107 12.2242 13.2413 12.2395C13.2826 12.2602 13.2936 12.2896 13.285 12.2706C13.2705 12.2386 13.2426 12.1498 13.238 11.9703C13.2334 11.7945 13.2518 11.5629 13.3032 11.2678L11.8255 11.0102ZM13.4745 13.7254C13.9466 13.6767 14.3935 13.5481 14.7644 13.2918C15.1494 13.0257 15.408 12.6519 15.5322 12.2037L14.0868 11.8031C14.053 11.9249 13.9972 11.9987 13.9116 12.0578C13.8117 12.1268 13.6317 12.2012 13.3206 12.2333L13.4745 13.7254ZM14.6066 12.7254C15.2717 12.9123 15.952 12.9816 16.5237 12.7334C17.1725 12.4518 17.4736 11.8633 17.5452 11.2227L16.0545 11.0561C16.0379 11.205 16.0038 11.2784 15.9843 11.3091C15.9699 11.3319 15.9563 11.3445 15.9265 11.3574C15.8348 11.3972 15.5713 11.4384 15.0124 11.2814L14.6066 12.7254ZM17.5452 11.2226C17.6392 10.3806 17.4603 9.62432 17.2064 9.06959C17.08 8.79353 16.9257 8.54686 16.7569 8.35583C16.6731 8.26109 16.5715 8.16386 16.4527 8.08473C16.3463 8.01396 16.1539 7.90908 15.9047 7.90908V9.40908C15.7317 9.40908 15.6293 9.33859 15.6215 9.33339C15.6011 9.31982 15.6065 9.31934 15.633 9.34933C15.6847 9.40774 15.764 9.52241 15.8425 9.69394C15.9984 10.0344 16.1145 10.5183 16.0545 11.0562L17.5452 11.2226ZM15.9047 7.90908C15.8427 7.90908 15.7587 7.90715 15.6694 7.89945C15.5775 7.89153 15.4959 7.87882 15.4337 7.86245C15.3617 7.84348 15.3674 7.83304 15.4051 7.86308C15.429 7.88213 15.4701 7.92132 15.505 7.98628C15.5418 8.05496 15.5595 8.13015 15.5595 8.19989H14.0595C14.0595 8.57964 14.2522 8.86241 14.4704 9.03626C14.6658 9.19195 14.8882 9.26994 15.0519 9.31302C15.3846 9.40063 15.738 9.40908 15.9047 9.40908V7.90908ZM15.5595 8.19989C15.5595 7.7903 15.3286 7.50345 15.1278 7.33882C14.9302 7.17672 14.6939 7.07153 14.4821 7.00053C14.0517 6.85629 13.5284 6.78991 13.0531 6.78991V8.28991C13.4111 8.28991 13.766 8.34253 14.0054 8.42279C14.0623 8.44183 14.1056 8.46013 14.1366 8.47574C14.1686 8.49181 14.1794 8.50091 14.1766 8.49867C14.175 8.49735 14.0595 8.39849 14.0595 8.19989H15.5595ZM13.0531 6.78991C12.9291 6.78991 12.9411 6.76921 12.9978 6.8009C13.0137 6.80975 13.0881 6.8722 12.9411 6.73618C12.8021 6.60759 12.6035 6.47152 12.2983 6.4199C12.0407 6.37632 11.7542 6.40157 11.4343 6.46365L11.7201 7.93618C11.9721 7.88727 12.0519 7.89952 12.0481 7.89888C12.0376 7.8971 12.0085 7.89011 11.9724 7.8707C11.9379 7.85218 11.9187 7.83376 11.9223 7.83715C11.9263 7.84079 11.9315 7.84586 11.948 7.86227C11.9616 7.87575 11.9857 7.89973 12.0127 7.92474C12.071 7.97859 12.1539 8.04758 12.266 8.11024C12.4988 8.24036 12.7606 8.28991 13.0531 8.28991V6.78991ZM11.4343 6.46365C10.5322 6.63867 9.74951 7.08896 9.48148 7.98494L10.9186 8.41485C10.9609 8.27325 11.0966 8.05716 11.72 7.93619L11.4343 6.46365ZM14.2045 11.9625C13.9768 12.1038 13.71 12.2896 13.4644 12.4879C13.2297 12.6774 12.968 12.9151 12.7904 13.1627L14.0094 14.0368C14.0671 13.9565 14.2019 13.8203 14.4068 13.6549C14.6006 13.4984 14.8163 13.3482 14.9953 13.2371L14.2045 11.9625ZM12.7903 13.1629C12.6499 13.3588 12.5156 13.5364 12.3862 13.7072C12.2595 13.8746 12.1329 14.0416 12.0208 14.2012C11.8035 14.5107 11.5803 14.8735 11.4963 15.297L12.9676 15.5888C12.9877 15.4879 13.0546 15.3391 13.2484 15.0632C13.3419 14.93 13.451 14.7858 13.5821 14.6127C13.7106 14.4429 13.8562 14.2507 14.0096 14.0366L12.7903 13.1629Z" fill="#202124"/>
</svg>
