<svg width="24" height="24" viewBox="0 0 24 24" fill="none" xmlns="http://www.w3.org/2000/svg">
<path d="M13.4334 16.2C13.0282 16.2 12.7 16.5286 12.7 16.9336C12.7 17.3386 13.0281 17.6673 13.4334 17.6673C13.8386 17.6673 14.1671 17.3388 14.1671 16.9336C14.1671 16.5285 13.8386 16.2 13.4334 16.2Z" fill="#202124"/>
<path d="M16.1143 11.1276C15.709 11.1276 15.3808 11.4562 15.3808 11.8612C15.3808 12.2662 15.709 12.5948 16.1143 12.5948C16.5194 12.5948 16.8479 12.2664 16.8479 11.8612C16.8479 11.4561 16.5194 11.1276 16.1143 11.1276Z" fill="#202124"/>
<path d="M11.4334 5.70001C11.0282 5.70001 10.7 6.0286 10.7 6.43363C10.7 6.83864 11.0281 7.16726 11.4334 7.16726C11.8386 7.16726 12.1671 6.8388 12.1671 6.43363C12.1671 6.02849 11.8386 5.70001 11.4334 5.70001Z" fill="#202124"/>
<path fill-rule="evenodd" clip-rule="evenodd" d="M12 3.45001C7.28542 3.45001 3.44995 7.28531 3.44995 12C3.44995 16.7147 7.28526 20.55 12 20.55C16.7146 20.55 20.55 16.7147 20.55 12C20.55 7.28532 16.7146 3.45001 12 3.45001ZM4.71549 12C4.71549 7.9838 7.98375 4.71554 12 4.71554C16.0162 4.71554 19.2844 7.9838 19.2844 12C19.2844 16.0162 16.0162 19.2845 12 19.2845C7.98378 19.2845 4.71549 16.0162 4.71549 12ZM10.7 6.43363C10.7 6.0286 11.0282 5.70001 11.4334 5.70001C11.8386 5.70001 12.1671 6.02849 12.1671 6.43363C12.1671 6.8388 11.8386 7.16726 11.4334 7.16726C11.0281 7.16726 10.7 6.83864 10.7 6.43363ZM13.7047 7.67219C14.1544 7.17861 14.972 7.14174 15.4652 7.59153L16.3407 8.39097C16.5864 8.61515 16.7302 8.92301 16.7454 9.25471C16.7607 9.58693 16.6449 9.90615 16.4207 10.1518C16.1852 10.4097 15.8498 10.5577 15.5003 10.5577C15.1885 10.5577 14.8899 10.4413 14.6602 10.2317L13.7847 9.43272C13.5392 9.2087 13.3949 8.90083 13.38 8.56862C13.3652 8.23672 13.4808 7.91761 13.7047 7.67219ZM5.90421 11.6949C5.90421 10.8566 6.58632 10.175 7.42445 10.175C8.26258 10.175 8.94471 10.8566 8.94471 11.6949C8.94471 12.5334 8.26294 13.2152 7.42445 13.2152C6.58597 13.2152 5.90421 12.5334 5.90421 11.6949ZM15.3808 11.8612C15.3808 11.4562 15.709 11.1276 16.1143 11.1276C16.5194 11.1276 16.8479 11.4561 16.8479 11.8612C16.8479 12.2664 16.5194 12.5948 16.1143 12.5948C15.709 12.5948 15.3808 12.2662 15.3808 11.8612ZM8.61424 15.0917C8.83294 14.6907 9.25252 14.4418 9.70922 14.4418C9.91668 14.4418 10.1226 14.4945 10.3053 14.5945L11.3458 15.1615C11.638 15.3205 11.851 15.5854 11.945 15.9035C12.0391 16.2224 12.0031 16.5606 11.8438 16.8523C11.6252 17.2528 11.2054 17.5024 10.7489 17.5024C10.5411 17.5024 10.3353 17.4496 10.1526 17.3497L9.11232 16.7827C8.82062 16.624 8.60671 16.3598 8.513 16.0405C8.41893 15.7216 8.45507 15.3835 8.61424 15.0917ZM12.7 16.9336C12.7 16.5286 13.0282 16.2 13.4334 16.2C13.8386 16.2 14.1671 16.5285 14.1671 16.9336C14.1671 17.3388 13.8386 17.6673 13.4334 17.6673C13.0281 17.6673 12.7 17.3386 12.7 16.9336ZM7.4246 12.2496C7.11872 12.2496 6.86988 12.0007 6.86988 11.6949C6.86988 11.389 7.11887 11.1405 7.4246 11.1405C7.73048 11.1405 7.97931 11.389 7.97931 11.6949C7.97931 12.0007 7.73048 12.2496 7.4246 12.2496ZM10.6147 16.5026C10.7481 16.575 10.9239 16.5219 10.9958 16.3901C11.0317 16.3243 11.04 16.2487 11.0179 16.1768C10.9969 16.1046 10.9491 16.0453 10.8831 16.0093L9.84221 15.442C9.80032 15.419 9.75545 15.4074 9.70851 15.4074C9.60541 15.4074 9.51063 15.4637 9.46131 15.5539C9.42536 15.62 9.41748 15.6959 9.43873 15.7678C9.45997 15.84 9.50781 15.8993 9.57377 15.9352L10.6147 16.5026ZM15.3113 9.51863C15.4227 9.62039 15.6067 9.61117 15.7079 9.50065C15.7586 9.44509 15.7846 9.3732 15.7811 9.29892C15.7777 9.22375 15.7455 9.15482 15.6899 9.10431L14.8145 8.30505C14.7629 8.25781 14.6953 8.23152 14.6255 8.23152C14.5453 8.23152 14.4717 8.26375 14.4178 8.32303C14.3669 8.37859 14.3413 8.45019 14.3446 8.52507C14.348 8.60024 14.3802 8.66917 14.4358 8.71968L15.3113 9.51863Z" fill="#202124"/>
<path fill-rule="evenodd" clip-rule="evenodd" d="M12.0329 9.65401C11.7898 9.65401 11.5558 9.69075 11.334 9.75515L11.0032 9.20399C11.0734 9.1782 11.1438 9.15535 11.2144 9.13617C11.5219 9.05238 11.7043 8.73514 11.6204 8.42691C11.5722 8.24872 11.4452 8.11256 11.2883 8.04594C11.173 7.99699 11.0405 7.98513 10.9109 8.0202C10.5637 8.11464 10.2326 8.25531 9.92346 8.42954C9.91109 8.43423 9.89689 8.4405 9.8819 8.44911L9.87674 8.45223C9.86008 8.46228 9.84657 8.47266 9.83616 8.48159C9.59091 8.62687 9.35466 8.79432 9.13881 8.98996C8.902 9.20386 8.88665 9.57045 9.09977 9.80599C9.31403 10.0418 9.67961 10.0601 9.91639 9.84529C9.94292 9.82118 9.97009 9.79753 9.99786 9.7743L10.3268 10.3228C9.82398 10.7844 9.50358 11.4456 9.50358 12.1826C9.50358 13.5776 10.6378 14.7118 12.0328 14.7118C12.6386 14.7118 13.1948 14.4969 13.6301 14.141L14.1499 14.5191C14.0953 14.5703 14.0395 14.6188 13.982 14.6641C13.7317 14.8613 13.6877 15.2246 13.8854 15.4756C13.9994 15.6208 14.1694 15.6965 14.3399 15.6965C14.4652 15.6965 14.5918 15.6557 14.6974 15.5727C14.9801 15.3501 15.2299 15.0913 15.4464 14.8101C15.456 14.801 15.4666 14.7896 15.477 14.7759L15.4805 14.771C15.4919 14.7552 15.5003 14.7404 15.5064 14.7281C15.6754 14.4985 15.8275 14.2521 15.9497 13.9877C16.0841 13.6982 15.955 13.3548 15.6668 13.2212C15.3774 13.0879 15.0337 13.2139 14.8997 13.5041C14.8847 13.5367 14.869 13.5691 14.8525 13.6013L14.3353 13.2249C14.4799 12.9077 14.5621 12.5554 14.5621 12.1832C14.5621 10.7882 13.4279 9.65401 12.0329 9.65401ZM12.0325 10.811C11.2757 10.811 10.6596 11.4271 10.6596 12.1839C10.6596 12.9406 11.2757 13.5567 12.0325 13.5567C12.7893 13.5567 13.4053 12.9406 13.4053 12.1839C13.4053 11.4271 12.7893 10.811 12.0325 10.811Z" fill="#202124"/>
<path fill-rule="evenodd" clip-rule="evenodd" d="M11.334 9.75515C11.5558 9.69075 11.7898 9.65401 12.0329 9.65401C13.4279 9.65401 14.5621 10.7882 14.5621 12.1832C14.5621 12.5554 14.4799 12.9077 14.3353 13.2249L14.8525 13.6013C14.869 13.5691 14.8847 13.5367 14.8997 13.5041C15.0337 13.2139 15.3774 13.0879 15.6668 13.2212C15.955 13.3548 16.0841 13.6982 15.9497 13.9877C15.8275 14.2521 15.6754 14.4985 15.5064 14.7281C15.5003 14.7404 15.4919 14.7552 15.4805 14.771L15.477 14.7759C15.4666 14.7896 15.456 14.801 15.4464 14.8101C15.2299 15.0913 14.9801 15.3501 14.6974 15.5727C14.5918 15.6557 14.4652 15.6965 14.3399 15.6965C14.1694 15.6965 13.9994 15.6208 13.8854 15.4756C13.6877 15.2246 13.7317 14.8613 13.982 14.6641C14.0395 14.6188 14.0953 14.5703 14.1499 14.5191L13.6301 14.141C13.1948 14.4969 12.6386 14.7118 12.0328 14.7118C10.6378 14.7118 9.50358 13.5776 9.50358 12.1826C9.50358 11.4456 9.82398 10.7844 10.3268 10.3228L9.99786 9.7743C9.97009 9.79753 9.94292 9.82118 9.91639 9.84529C9.67961 10.0601 9.31403 10.0418 9.09977 9.80599C8.88665 9.57045 8.902 9.20386 9.13881 8.98996C9.35466 8.79432 9.59091 8.62687 9.83616 8.48159C9.84657 8.47266 9.86008 8.46228 9.87674 8.45223L9.8819 8.44911C9.89689 8.4405 9.91109 8.43423 9.92346 8.42954C10.2326 8.25531 10.5637 8.11464 10.9109 8.0202C11.0405 7.98513 11.173 7.99699 11.2883 8.04594C11.4452 8.11256 11.5722 8.24872 11.6204 8.42691C11.7043 8.73514 11.5219 9.05238 11.2144 9.13617C11.1438 9.15535 11.0734 9.1782 11.0032 9.20399L11.334 9.75515ZM10.6596 12.1839C10.6596 11.4271 11.2757 10.811 12.0325 10.811C12.7893 10.811 13.4053 11.4271 13.4053 12.1839C13.4053 12.9406 12.7893 13.5567 12.0325 13.5567C11.2757 13.5567 10.6596 12.9406 10.6596 12.1839Z" fill="#202124"/>
</svg>
