<svg width="200" height="12" viewBox="0 0 200 12" fill="none" xmlns="http://www.w3.org/2000/svg">
<path fill-rule="evenodd" clip-rule="evenodd" d="M195.045 0.696704L199.782 5.46967C200.073 5.76257 200.073 6.23744 199.782 6.53033L195.045 11.3033C194.754 11.5962 194.282 11.5962 193.992 11.3033C193.701 11.0104 193.701 10.5355 193.992 10.2426L197.458 6.75L0.744417 6.75002C0.333287 6.75002 5.19045e-07 6.41424 4.82834e-07 6.00002C4.46622e-07 5.58581 0.333287 5.25002 0.744417 5.25002L197.458 5.25L193.992 1.75736C193.701 1.46447 193.701 0.989597 193.992 0.696704C194.282 0.40381 194.754 0.40381 195.045 0.696704Z" fill="#606368"/>
</svg>
