<svg width="142" height="30" viewBox="0 0 142 30" fill="none" xmlns="http://www.w3.org/2000/svg">
<path d="M1.31826 4.052C0.79469 3.87623 0.227765 4.15817 0.051996 4.68174C-0.123773 5.20531 0.158173 5.77223 0.681742 5.948L1.31826 4.052ZM141.895 5.4453C142.141 4.95079 141.94 4.35055 141.445 4.10462L133.387 0.0969414C132.892 -0.14899 132.292 0.0525206 132.046 0.547027C131.8 1.04153 132.002 1.64178 132.496 1.88771L139.659 5.45009L136.097 12.6131C135.851 13.1077 136.053 13.7079 136.547 13.9538C137.042 14.1998 137.642 13.9982 137.888 13.5037L141.895 5.4453ZM70.3635 28.2863L70.0452 29.2343L70.3635 28.2863ZM71.6365 28.2863L71.9548 29.2343L71.6365 28.2863ZM138.755 4.69884C138.231 4.87461 137.949 5.44153 138.125 5.9651C138.301 6.48867 138.868 6.77062 139.391 6.59485L138.755 4.69884ZM135.538 7.88853C136.062 7.71276 136.343 7.14584 136.168 6.62227C135.992 6.0987 135.425 5.81675 134.901 5.99252L135.538 7.88853ZM131.048 7.28621C130.524 7.46198 130.242 8.0289 130.418 8.55247C130.594 9.07604 131.161 9.35798 131.684 9.18221L131.048 7.28621ZM127.831 10.4759C128.354 10.3001 128.636 9.7332 128.461 9.20964C128.285 8.68607 127.718 8.40412 127.194 8.57989L127.831 10.4759ZM123.341 9.87357C122.817 10.0493 122.535 10.6163 122.711 11.1398C122.887 11.6634 123.454 11.9454 123.977 11.7696L123.341 9.87357ZM120.124 13.0633C120.647 12.8875 120.929 12.3206 120.754 11.797C120.578 11.2734 120.011 10.9915 119.487 11.1673L120.124 13.0633ZM115.634 12.4609C115.11 12.6367 114.828 13.2036 115.004 13.7272C115.18 14.2508 115.747 14.5327 116.27 14.3569L115.634 12.4609ZM112.417 15.6506C112.94 15.4749 113.222 14.9079 113.047 14.3844C112.871 13.8608 112.304 13.5789 111.78 13.7546L112.417 15.6506ZM107.927 15.0483C107.403 15.2241 107.121 15.791 107.297 16.3146C107.473 16.8381 108.04 17.1201 108.563 16.9443L107.927 15.0483ZM104.71 18.238C105.233 18.0622 105.515 17.4953 105.34 16.9717C105.164 16.4482 104.597 16.1662 104.073 16.342L104.71 18.238ZM100.22 17.6357C99.6961 17.8114 99.4142 18.3784 99.59 18.9019C99.7657 19.4255 100.333 19.7075 100.856 19.5317L100.22 17.6357ZM97.0027 20.8254C97.5263 20.6496 97.8082 20.0827 97.6324 19.5591C97.4567 19.0355 96.8898 18.7536 96.3662 18.9294L97.0027 20.8254ZM92.5127 20.223C91.9891 20.3988 91.7071 20.9657 91.8829 21.4893C92.0587 22.0129 92.6256 22.2948 93.1492 22.1191L92.5127 20.223ZM89.2957 23.4127C89.8192 23.237 90.1012 22.67 89.9254 22.1465C89.7496 21.6229 89.1827 21.341 88.6591 21.5167L89.2957 23.4127ZM84.8056 22.8104C84.282 22.9862 84.0001 23.5531 84.1759 24.0767C84.3516 24.6002 84.9186 24.8822 85.4421 24.7064L84.8056 22.8104ZM81.5886 26.0001C82.1122 25.8243 82.3941 25.2574 82.2183 24.7338C82.0426 24.2103 81.4756 23.9283 80.9521 24.1041L81.5886 26.0001ZM77.0986 25.3978C76.575 25.5736 76.293 26.1405 76.4688 26.664C76.6446 27.1876 77.2115 27.4696 77.7351 27.2938L77.0986 25.3978ZM73.8815 28.5875C74.4051 28.4117 74.6871 27.8448 74.5113 27.3212C74.3355 26.7976 73.7686 26.5157 73.245 26.6915L73.8815 28.5875ZM68.755 26.6915C68.2314 26.5157 67.6645 26.7976 67.4887 27.3212C67.3129 27.8448 67.5949 28.4117 68.1185 28.5875L68.755 26.6915ZM64.2649 27.2938C64.7885 27.4696 65.3554 27.1876 65.5312 26.664C65.707 26.1405 65.425 25.5736 64.9015 25.3978L64.2649 27.2938ZM61.0479 24.1041C60.5244 23.9283 59.9574 24.2103 59.7817 24.7338C59.6059 25.2574 59.8878 25.8243 60.4114 26.0001L61.0479 24.1041ZM56.5579 24.7064C57.0814 24.8822 57.6484 24.6002 57.8241 24.0767C57.9999 23.5531 57.718 22.9862 57.1944 22.8104L56.5579 24.7064ZM53.3409 21.5167C52.8173 21.341 52.2504 21.6229 52.0746 22.1465C51.8988 22.67 52.1808 23.237 52.7044 23.4127L53.3409 21.5167ZM48.8508 22.1191C49.3744 22.2948 49.9413 22.0129 50.1171 21.4893C50.2929 20.9657 50.0109 20.3988 49.4873 20.223L48.8508 22.1191ZM45.6338 18.9294C45.1102 18.7536 44.5433 19.0355 44.3676 19.5591C44.1918 20.0827 44.4737 20.6496 44.9973 20.8254L45.6338 18.9294ZM41.1438 19.5317C41.6673 19.7075 42.2343 19.4255 42.41 18.9019C42.5858 18.3784 42.3039 17.8114 41.7803 17.6357L41.1438 19.5317ZM37.9268 16.342C37.4032 16.1662 36.8363 16.4482 36.6605 16.9717C36.4847 17.4953 36.7667 18.0622 37.2902 18.238L37.9268 16.342ZM33.4367 16.9443C33.9603 17.1201 34.5272 16.8381 34.703 16.3146C34.8788 15.791 34.5968 15.2241 34.0732 15.0483L33.4367 16.9443ZM30.2197 13.7546C29.6961 13.5789 29.1292 13.8608 28.9534 14.3844C28.7777 14.9079 29.0596 15.4749 29.5832 15.6506L30.2197 13.7546ZM25.7297 14.357C26.2532 14.5327 26.8202 14.2508 26.9959 13.7272C27.1717 13.2036 26.8898 12.6367 26.3662 12.4609L25.7297 14.357ZM22.5127 11.1673C21.9891 10.9915 21.4222 11.2734 21.2464 11.797C21.0706 12.3206 21.3526 12.8875 21.8761 13.0633L22.5127 11.1673ZM18.0226 11.7696C18.5462 11.9454 19.1131 11.6634 19.2889 11.1398C19.4646 10.6163 19.1827 10.0493 18.6591 9.87358L18.0226 11.7696ZM14.8056 8.57989C14.282 8.40412 13.7151 8.68607 13.5393 9.20964C13.3636 9.7332 13.6455 10.3001 14.1691 10.4759L14.8056 8.57989ZM10.3156 9.18222C10.8391 9.35798 11.4061 9.07604 11.5818 8.55247C11.7576 8.0289 11.4756 7.46198 10.9521 7.28621L10.3156 9.18222ZM7.09855 5.99252C6.57498 5.81675 6.00806 6.0987 5.83229 6.62227C5.65652 7.14584 5.93847 7.71276 6.46203 7.88853L7.09855 5.99252ZM2.6085 6.59484C3.13207 6.77061 3.69899 6.48867 3.87476 5.9651C4.05053 5.44153 3.76859 4.87461 3.24502 4.69884L2.6085 6.59484ZM140.682 4.052L138.755 4.69884L139.391 6.59485L141.318 5.948L140.682 4.052ZM134.901 5.99252L131.048 7.28621L131.684 9.18221L135.538 7.88853L134.901 5.99252ZM127.194 8.57989L123.341 9.87357L123.977 11.7696L127.831 10.4759L127.194 8.57989ZM119.487 11.1673L115.634 12.4609L116.27 14.3569L120.124 13.0633L119.487 11.1673ZM111.78 13.7546L107.927 15.0483L108.563 16.9443L112.417 15.6506L111.78 13.7546ZM104.073 16.342L100.22 17.6357L100.856 19.5317L104.71 18.238L104.073 16.342ZM96.3662 18.9294L92.5127 20.223L93.1492 22.1191L97.0027 20.8254L96.3662 18.9294ZM88.6591 21.5167L84.8056 22.8104L85.4421 24.7064L89.2957 23.4127L88.6591 21.5167ZM80.9521 24.1041L77.0986 25.3978L77.7351 27.2938L81.5886 26.0001L80.9521 24.1041ZM73.245 26.6915L71.3183 27.3383L71.9548 29.2343L73.8815 28.5875L73.245 26.6915ZM71.3183 27.3383C71.1117 27.4076 70.8883 27.4076 70.6817 27.3383L70.0452 29.2343C70.6648 29.4423 71.3352 29.4423 71.9548 29.2343L71.3183 27.3383ZM70.6817 27.3383L68.755 26.6915L68.1185 28.5875L70.0452 29.2343L70.6817 27.3383ZM64.9015 25.3978L61.0479 24.1041L60.4114 26.0001L64.2649 27.2938L64.9015 25.3978ZM57.1944 22.8104L53.3409 21.5167L52.7044 23.4127L56.5579 24.7064L57.1944 22.8104ZM49.4873 20.223L45.6338 18.9294L44.9973 20.8254L48.8508 22.1191L49.4873 20.223ZM41.7803 17.6357L37.9268 16.342L37.2902 18.238L41.1438 19.5317L41.7803 17.6357ZM34.0732 15.0483L30.2197 13.7546L29.5832 15.6506L33.4367 16.9443L34.0732 15.0483ZM26.3662 12.4609L22.5127 11.1673L21.8761 13.0633L25.7297 14.357L26.3662 12.4609ZM18.6591 9.87358L14.8056 8.57989L14.1691 10.4759L18.0226 11.7696L18.6591 9.87358ZM10.9521 7.28621L7.09855 5.99252L6.46203 7.88853L10.3156 9.18222L10.9521 7.28621ZM3.24502 4.69884L1.31826 4.052L0.681742 5.948L2.6085 6.59484L3.24502 4.69884Z" fill="#7271A4"/>
</svg>
