<svg width="12" height="15" viewBox="0 0 12 15" fill="none" xmlns="http://www.w3.org/2000/svg">
<path fill-rule="evenodd" clip-rule="evenodd" d="M2.46732 3.26452C2.39715 3.33351 2.34157 3.41532 2.30368 3.50525C2.26579 3.59518 2.24631 3.6915 2.24629 3.78874C2.24628 3.88597 2.26574 3.9823 2.30361 4.07223C2.34148 4.16217 2.39704 4.244 2.4672 4.313C2.60891 4.45239 2.80147 4.531 3.0026 4.53102C3.20374 4.53105 3.39632 4.45248 3.53806 4.31313L5.2437 2.63624V8.70242C5.2437 8.89872 5.32297 9.08732 5.46465 9.22664C5.60638 9.36602 5.79895 9.44462 6.0001 9.44462C6.20124 9.44462 6.39382 9.36602 6.53555 9.22664C6.67722 9.08732 6.7565 8.89872 6.7565 8.70242V2.63624L8.46194 4.31294C8.60382 4.45161 8.79626 4.52971 8.997 4.52941C9.19779 4.52911 9.38993 4.45051 9.53139 4.31136C9.67279 4.17226 9.75202 3.98405 9.75226 3.7881C9.7525 3.59218 9.67376 3.40382 9.53275 3.26439L6.53547 0.317505C6.39374 0.178174 6.2012 0.0996094 6.0001 0.0996094C5.79899 0.0996094 5.60645 0.178174 5.46473 0.317503L2.46732 3.26452ZM9.88729 7.47948V13.4152H2.1129V7.47948H2.57449C2.77564 7.47948 2.96821 7.40088 3.10994 7.2615C3.25161 7.12218 3.33089 6.93357 3.33089 6.73727C3.33089 6.54097 3.25161 6.35237 3.10994 6.21304C2.96821 6.07366 2.77564 5.99507 2.57449 5.99507H1.92755C1.57508 5.99547 1.23749 6.13336 0.988752 6.37797C0.740087 6.62251 0.600516 6.9537 0.600098 7.2988L0.600098 13.5958C0.600501 13.9409 0.740074 14.2722 0.988752 14.5167C1.23749 14.7613 1.57508 14.8992 1.92755 14.8996H10.0726C10.4251 14.8992 10.7627 14.7613 11.0114 14.5167C11.2601 14.2722 11.3997 13.9409 11.4001 13.5958V7.29886C11.3997 6.95374 11.2601 6.62252 11.0114 6.37797C10.7627 6.13336 10.4251 5.99547 10.0726 5.99507H9.4257C9.22456 5.99507 9.03198 6.07366 8.89025 6.21304C8.74858 6.35237 8.6693 6.54097 8.6693 6.73727C8.6693 6.93357 8.74858 7.12218 8.89025 7.2615C9.03198 7.40088 9.22456 7.47948 9.4257 7.47948H9.88729Z" fill="white"/>
<path d="M2.30368 3.50525C2.34157 3.41532 2.39715 3.33351 2.46732 3.26452L5.46473 0.317503C5.60645 0.178174 5.79899 0.0996094 6.0001 0.0996094C6.2012 0.0996094 6.39374 0.178174 6.53547 0.317505L9.53275 3.26439C9.67376 3.40382 9.7525 3.59218 9.75226 3.7881C9.75202 3.98405 9.67279 4.17226 9.53139 4.31136C9.38993 4.45051 9.19779 4.52911 8.997 4.52941C8.79626 4.52971 8.60382 4.45161 8.46194 4.31294L6.7565 2.63624V8.70242C6.7565 8.89872 6.67722 9.08732 6.53555 9.22664C6.39382 9.36602 6.20124 9.44462 6.0001 9.44462C5.79895 9.44462 5.60638 9.36602 5.46465 9.22664C5.32297 9.08732 5.2437 8.89872 5.2437 8.70242V2.63624L3.53806 4.31313C3.39632 4.45248 3.20374 4.53105 3.0026 4.53102C2.80147 4.531 2.60891 4.45239 2.4672 4.313C2.39704 4.244 2.34148 4.16217 2.30361 4.07223C2.26574 3.9823 2.24628 3.88597 2.24629 3.78874C2.24631 3.6915 2.26579 3.59518 2.30368 3.50525Z" fill="white"/>
<path d="M3.10994 7.2615C2.96821 7.40088 2.77564 7.47948 2.57449 7.47948H2.1129V13.4152H9.88729V7.47948H9.4257C9.22456 7.47948 9.03198 7.40088 8.89025 7.2615C8.74858 7.12218 8.6693 6.93357 8.6693 6.73727C8.6693 6.54097 8.74858 6.35237 8.89025 6.21304C9.03198 6.07366 9.22456 5.99507 9.4257 5.99507H10.0726C10.4251 5.99547 10.7627 6.13336 11.0114 6.37797C11.2601 6.62252 11.3997 6.95374 11.4001 7.29886V13.5958C11.3997 13.9409 11.2601 14.2722 11.0114 14.5167C10.7627 14.7613 10.4251 14.8992 10.0726 14.8996H1.92755C1.57508 14.8992 1.23749 14.7613 0.988752 14.5167C0.740074 14.2722 0.600501 13.9409 0.600098 13.5958L0.600098 7.2988C0.600516 6.9537 0.740087 6.62251 0.988752 6.37797C1.23749 6.13336 1.57508 5.99547 1.92755 5.99507H2.57449C2.77564 5.99507 2.96821 6.07366 3.10994 6.21304C3.25161 6.35237 3.33089 6.54097 3.33089 6.73727C3.33089 6.93357 3.25161 7.12218 3.10994 7.2615Z" fill="white"/>
</svg>
