<svg width="19" height="19" viewBox="0 0 19 19" fill="none" xmlns="http://www.w3.org/2000/svg">
<mask id="mask0_1_7" style="mask-type:alpha" maskUnits="userSpaceOnUse" x="0" y="0" width="19" height="19">
<rect width="19" height="19" fill="#D9D9D9"/>
</mask>
<g mask="url(#mask0_1_7)">
<path d="M8.39168 13.1417L13.9729 7.56041L12.8646 6.45208L8.39168 10.925L6.13543 8.66874L5.02709 9.77708L8.39168 13.1417ZM9.50001 17.4167C8.40487 17.4167 7.3757 17.2088 6.41251 16.7932C5.44932 16.3776 4.61147 15.8135 3.89897 15.101C3.18647 14.3885 2.62241 13.5507 2.20678 12.5875C1.79116 11.6243 1.58334 10.5951 1.58334 9.49999C1.58334 8.40486 1.79116 7.37569 2.20678 6.41249C2.62241 5.4493 3.18647 4.61145 3.89897 3.89895C4.61147 3.18645 5.44932 2.62239 6.41251 2.20677C7.3757 1.79114 8.40487 1.58333 9.50001 1.58333C10.5951 1.58333 11.6243 1.79114 12.5875 2.20677C13.5507 2.62239 14.3886 3.18645 15.1011 3.89895C15.8136 4.61145 16.3776 5.4493 16.7932 6.41249C17.2089 7.37569 17.4167 8.40486 17.4167 9.49999C17.4167 10.5951 17.2089 11.6243 16.7932 12.5875C16.3776 13.5507 15.8136 14.3885 15.1011 15.101C14.3886 15.8135 13.5507 16.3776 12.5875 16.7932C11.6243 17.2088 10.5951 17.4167 9.50001 17.4167ZM9.50001 15.8333C11.2681 15.8333 12.7656 15.2198 13.9927 13.9927C15.2198 12.7656 15.8333 11.2681 15.8333 9.49999C15.8333 7.73194 15.2198 6.23437 13.9927 5.00729C12.7656 3.7802 11.2681 3.16666 9.50001 3.16666C7.73195 3.16666 6.23439 3.7802 5.0073 5.00729C3.78022 6.23437 3.16668 7.73194 3.16668 9.49999C3.16668 11.2681 3.78022 12.7656 5.0073 13.9927C6.23439 15.2198 7.73195 15.8333 9.50001 15.8333Z" fill="white"/>
</g>
</svg>
