<svg width="24" height="24" viewBox="0 0 24 24" fill="none" xmlns="http://www.w3.org/2000/svg">
<path fill-rule="evenodd" clip-rule="evenodd" d="M11.5413 7.82394C11.23 7.82394 10.9777 8.07629 10.9777 8.38758C10.9777 8.64344 11.1481 8.85948 11.3817 8.92831V9.50183C11.0856 9.56773 10.8087 9.6844 10.5606 9.84214L10.1551 9.43658C10.2713 9.22287 10.2391 8.94983 10.0584 8.76898C9.83835 8.54879 9.48147 8.54866 9.26128 8.7687L8.983 9.04678L8.97548 9.0541L8.9684 9.06137L8.68996 9.33962C8.46977 9.55965 8.46964 9.91653 8.68968 10.1367C8.87057 10.3177 9.14394 10.35 9.35782 10.2335L9.76355 10.6393C9.60581 10.8874 9.48914 11.1643 9.42325 11.4604H8.84973C8.78091 11.2268 8.56486 11.0563 8.30901 11.0563C7.99772 11.0563 7.74536 11.3087 7.74536 11.62V12.428C7.74536 12.7393 7.99771 12.9917 8.30901 12.9917C8.56486 12.9917 8.78091 12.8212 8.84973 12.5876H9.42325C9.48915 12.8838 9.60583 13.1607 9.76359 13.4088L9.35807 13.8143C9.14436 13.6981 8.87132 13.7303 8.69047 13.911C8.47028 14.131 8.47015 14.4879 8.69019 14.7081L8.96827 14.9864L8.97559 14.9939L8.98287 15.001L9.26111 15.2794C9.48115 15.4996 9.83802 15.4997 10.0582 15.2797C10.2392 15.0988 10.2715 14.8255 10.155 14.6116L10.5607 14.2059C10.8088 14.3636 11.0856 14.4803 11.3817 14.5462V15.1197C11.1481 15.1885 10.9777 15.4046 10.9777 15.6604C10.9777 15.9717 11.23 16.2241 11.5413 16.2241H12.3494C12.6607 16.2241 12.913 15.9717 12.913 15.6604C12.913 15.4046 12.7426 15.1885 12.509 15.1197V14.5462C12.8051 14.4803 13.0821 14.3636 13.3302 14.2058L13.7359 14.6116C13.6195 14.8254 13.6517 15.0987 13.8326 15.2796C14.0527 15.4997 14.4096 15.4997 14.6297 15.2796L15.201 14.7082C15.4212 14.4881 15.4212 14.1313 15.201 13.9111C15.0201 13.7302 14.7469 13.698 14.533 13.8145L14.1272 13.4087C14.285 13.1606 14.4016 12.8837 14.4675 12.5876H15.041C15.1099 12.8212 15.3259 12.9917 15.5818 12.9917C15.8931 12.9917 16.1454 12.7393 16.1454 12.428V11.6199C16.1454 11.3087 15.8931 11.0563 15.5818 11.0563C15.3259 11.0563 15.1099 11.2268 15.041 11.4604H14.4675C14.4016 11.1643 14.285 10.8874 14.1272 10.6393L14.533 10.2335C14.7469 10.35 15.0201 10.3178 15.201 10.1369C15.4212 9.91674 15.4212 9.55987 15.201 9.33975L14.6297 8.76843C14.4096 8.54831 14.0527 8.54831 13.8326 8.76843C13.6517 8.94933 13.6195 9.22261 13.7359 9.43643L13.3302 9.8422C13.0821 9.68442 12.8051 9.56773 12.509 9.50183V8.92831C12.7426 8.85948 12.913 8.64344 12.913 8.38758C12.913 8.07629 12.6607 7.82394 12.3494 7.82394H11.5413ZM11.9453 10.5674C11.1409 10.5674 10.4888 11.2195 10.4888 12.024C10.4888 12.8285 11.1409 13.4806 11.9453 13.4806C12.7498 13.4806 13.4019 12.8284 13.4019 12.024C13.4019 11.2195 12.7498 10.5674 11.9453 10.5674Z" fill="#202124"/>
<path d="M14.6687 5.03312C12.8231 4.17755 10.6952 4.17754 8.84931 5.03313C7.00368 5.88873 5.62647 7.51338 5.08315 9.47668L5.08082 9.48509C4.97235 9.83696 4.60385 10.0386 4.24907 9.94036C3.89413 9.84206 3.68225 9.4793 3.76975 9.12209L3.7718 9.11371C4.25429 7.36335 5.29679 5.81984 6.73957 4.71976C8.18217 3.61968 9.94546 3.02394 11.7587 3.02394C13.572 3.02394 15.3355 3.61968 16.7783 4.71976C17.7783 5.4823 18.586 6.45794 19.1482 7.56785L19.7725 6.2395C19.9422 5.91755 20.3354 5.78574 20.6649 5.9415C20.9941 6.09734 21.1424 6.48462 21.0018 6.82038L20.9968 6.83217L19.7318 9.52436L19.7031 9.58562C19.6094 9.78415 19.4265 9.92373 19.2155 9.96434L19.2029 9.97534L19.0957 9.97601C19.0947 9.97602 19.0937 9.97603 19.0927 9.97603L19.0912 9.97604C18.9902 9.97668 18.8908 9.95466 18.8 9.9122L16.0379 8.61082C15.7158 8.44066 15.5851 8.04694 15.7401 7.7177C15.8956 7.3887 16.2825 7.2391 16.6189 7.38021L16.6306 7.38511L17.8011 7.93562C17.0946 6.67417 16.0043 5.6523 14.6687 5.03312Z" fill="#202124"/>
<path d="M9.33142 18.9669C11.177 19.8225 13.3049 19.8225 15.1508 18.9669C16.9964 18.1113 18.3736 16.4866 18.917 14.5233L18.9193 14.5149C19.0278 14.163 19.3963 13.9614 19.751 14.0596C20.106 14.1579 20.3179 14.5207 20.2304 14.8779L20.2283 14.8863C19.7458 16.6367 18.7033 18.1802 17.2605 19.2802C15.8179 20.3803 14.0546 20.9761 12.2414 20.9761C10.4281 20.9761 8.66463 20.3803 7.22176 19.2802C6.22179 18.5177 5.41409 17.5421 4.85189 16.4322L4.22765 17.7605C4.0579 18.0824 3.66467 18.2143 3.3352 18.0585C3.00596 17.9027 2.85771 17.5154 2.99831 17.1796L3.00326 17.1678L4.26831 14.4756L4.297 14.4144C4.39069 14.2159 4.57362 14.0763 4.78461 14.0357L4.79715 14.0247L4.90441 14.024C4.90541 14.024 4.90642 14.024 4.90743 14.024L4.90892 14.024C5.0099 14.0233 5.10929 14.0453 5.20009 14.0878L7.96219 15.3892C8.28428 15.5593 8.415 15.9531 8.25995 16.2823C8.10454 16.6113 7.71756 16.7609 7.38123 16.6198L7.36954 16.6149L6.19898 16.0644C6.90545 17.3258 7.99581 18.3477 9.33142 18.9669Z" fill="#202124"/>
</svg>
