<svg width="24" height="24" viewBox="0 0 24 24" fill="none" xmlns="http://www.w3.org/2000/svg">
<path fill-rule="evenodd" clip-rule="evenodd" d="M14.9612 8.36406C15.7531 8.44135 16.5812 8.53443 17.3686 8.63399L17.382 8.63527C17.39 8.63578 17.3995 8.63668 17.4103 8.63771C17.4677 8.64317 17.5624 8.65216 17.6628 8.62517C17.8768 8.56757 18.0481 8.40866 18.1435 8.24137L18.149 8.23167L19.4168 5.38089C19.546 5.14468 19.5057 4.88918 19.4246 4.70802C19.3133 4.44855 19.0415 4.30025 18.7872 4.29346C18.5955 4.28139 18.339 4.26442 18.0403 4.24465C17.401 4.20236 16.5686 4.14728 15.7658 4.10018C14.5946 4.03147 13.4531 3.97747 13.0726 4.00944C12.6281 4.04773 12.2335 4.10859 11.8553 4.27246C11.4745 4.43744 11.1254 4.69998 10.7559 5.11949C10.5683 5.32426 10.2096 5.89536 9.96883 6.48215C9.84723 6.7785 9.74868 7.09526 9.72132 7.38388C9.70069 7.60156 9.7182 7.83357 9.82561 8.02581L10.469 9.99287C10.4246 9.99415 10.3858 9.99602 10.3531 9.99855L10.3512 9.99871C9.90672 10.037 9.51212 10.0979 9.13391 10.2617C8.75312 10.4267 8.40402 10.6893 8.03458 11.1088C7.84693 11.3136 7.48825 11.8846 7.24747 12.4714C7.12587 12.7678 7.02732 13.0845 6.99996 13.3732C6.97943 13.5897 6.99666 13.8204 7.10259 14.0121L7.54835 15.3982C7.22673 15.439 6.92938 15.5041 6.64152 15.6288C6.26073 15.7938 5.91162 16.0563 5.54217 16.4758C5.35451 16.6806 4.99586 17.2517 4.75509 17.8385C4.63349 18.1348 4.53493 18.4516 4.50757 18.7402C4.48079 19.0227 4.51806 19.3296 4.73291 19.5421L4.74174 19.55C4.87612 19.6696 5.03232 19.6867 5.18902 19.673C5.31653 19.6618 5.47936 19.6264 5.67735 19.5834C5.70662 19.577 5.73671 19.5708 5.7675 19.5642L5.80267 19.5547C5.92877 19.5208 6.21532 19.5024 6.64624 19.507C7.06658 19.5115 7.598 19.537 8.19471 19.5792C9.38771 19.6635 10.8324 19.8139 12.1532 19.9906L12.1682 19.9916C12.1762 19.9921 12.1857 19.993 12.1965 19.994C12.2539 19.9995 12.3485 20.0085 12.4488 19.9816C12.6524 19.9268 12.8201 19.8034 12.9155 19.5836L14.2107 16.6804L14.2156 16.6557L14.2495 16.4865L14.2519 16.474L14.253 16.4614C14.2656 16.3113 14.2377 16.1699 14.1774 16.0484C14.1617 15.996 14.135 15.9461 14.0975 15.9016L12.9619 14.4195C13.5266 14.4809 14.0968 14.5497 14.6456 14.6231L14.6891 14.6289L14.7314 14.6175C14.7446 14.614 14.7567 14.6127 14.7901 14.6105L14.7938 14.6103L14.8068 14.6095C14.8386 14.6073 14.8838 14.6032 14.9345 14.5895C15.1251 14.5383 15.3023 14.4211 15.3838 14.2213L16.6947 11.3715C16.8247 11.135 16.7845 10.8788 16.7032 10.6973C16.678 10.6385 16.6445 10.5853 16.6049 10.5383C16.5982 10.5287 16.5912 10.5195 16.5837 10.5105L14.9612 8.36406ZM11.4877 6.69719C12.4204 6.65129 14.075 6.72079 17.0221 7.09501L17.6685 5.70478C16.6849 5.63413 15.7162 5.57585 14.9288 5.53732C14.0517 5.4944 13.4179 5.47708 13.2282 5.49127L13.2256 5.49147C12.9064 5.51156 12.69 5.54345 12.4956 5.62666C12.3051 5.70826 12.1177 5.84739 11.8775 6.11334C11.7194 6.30254 11.5932 6.49347 11.4877 6.69719ZM14.5258 10.1832L13.0257 8.20427C12.5606 8.17464 12.1466 8.15662 11.8089 8.15309C11.658 8.15152 11.5237 8.15286 11.4077 8.1572L12.0215 10.0371C12.3436 10.053 12.6878 10.0718 13.035 10.0919C13.5384 10.121 14.0536 10.1531 14.5258 10.1832ZM8.78758 12.6866C9.72928 12.6526 11.3622 12.7234 14.3003 13.0846L14.9471 11.6939C13.9634 11.6232 12.9948 11.5649 12.2073 11.5264C11.3302 11.4835 10.6964 11.4662 10.5067 11.4804L10.5041 11.4806C10.185 11.5007 9.96847 11.5325 9.77416 11.6158C9.58408 11.6972 9.39714 11.8358 9.15783 12.1005C9.02098 12.2727 8.89208 12.4777 8.78758 12.6866ZM11.0035 14.2356C10.8963 14.2273 10.7907 14.2195 10.6871 14.2121C10.0904 14.17 9.55896 14.1444 9.13863 14.1399C8.95699 14.138 8.801 14.1401 8.67186 14.1458L9.07459 15.3754C9.55858 15.394 10.1286 15.4235 10.7001 15.4567C11.1414 15.4823 11.5842 15.5101 11.9899 15.5368L11.0035 14.2356ZM12.4606 17.0879C11.6205 17.0318 10.6784 16.9717 9.87125 16.9281C9.41756 16.9036 9.00761 16.8844 8.68285 16.874C8.3523 16.8635 8.12458 16.8628 8.02548 16.8722L8.01845 16.8729C7.69929 16.893 7.48281 16.9248 7.2885 17.008C7.09795 17.0896 6.91055 17.2287 6.67039 17.4947C6.51219 17.6839 6.38604 17.8748 6.28051 18.0785C7.21316 18.0326 8.86775 18.1021 11.8149 18.4763L12.4606 17.0879Z" fill="#202124"/>
</svg>
