<svg id="Layer_1" data-name="Layer 1" xmlns="http://www.w3.org/2000/svg" viewBox="0 0 24 24">
  <defs>
    <style>
      .cls-1 {
        fill: none;
        stroke: #231f20;
        stroke-linecap: round;
        stroke-linejoin: round;
        stroke-width: 1.5px;
      }
    </style>
  </defs>
  <path class="cls-1" d="m14.74,15.7v3.91c0,.42.17.67.25.91.17.25.5.42.91.42.5,0,.75-.25.91-.5.08-.25.08-.42.08-.67v-4.07s0-.91-1.08-.91c-.83,0-1,.5-1.08.91h0Z"/>
  <circle class="cls-1" cx="15.99" cy="8.55" r="5.24"/>
  <line class="cls-1" x1="5.43" y1="15.53" x2="12.25" y2="15.53"/>
  <line class="cls-1" x1="5.43" y1="7.47" x2="10.5" y2="7.47"/>
  <path class="cls-1" d="m10.75,8.38c0-2.49,1.83-4.57,4.16-5.07-.25-.17-.67-.25-1.08-.25H4.68c-1,0-1.91.91-1.91,1.91v12.72c0,1.08.91,2,2,2h9.15c.25,0,.5,0,.75-.17v-3.83h0c0-.42.17-.91,1.16-.91"/>
  <line class="cls-1" x1="5.43" y1="11.54" x2="11.09" y2="11.54"/>
</svg>