<svg width="142" height="29" viewBox="0 0 142 29" fill="none" xmlns="http://www.w3.org/2000/svg">
<path d="M141.334 25.1715C141.705 24.9871 141.856 24.5369 141.672 24.166L138.666 18.1222C138.481 17.7513 138.031 17.6002 137.66 17.7846C137.289 17.9691 137.138 18.4193 137.323 18.7901L139.994 24.1624L134.622 26.8342C134.251 27.0187 134.1 27.4689 134.285 27.8397C134.469 28.2106 134.919 28.3617 135.29 28.1773L141.334 25.1715ZM0.761306 23.789C0.36863 23.9208 0.15717 24.346 0.288997 24.7387C0.420824 25.1314 0.846018 25.3428 1.23869 25.211L0.761306 23.789ZM71.6365 1.21369L71.8752 0.502685L71.6365 1.21369ZM70.3635 1.21369L70.1248 0.502685L70.3635 1.21369ZM71.3978 1.92469L140.761 25.211L141.239 23.789L71.8752 0.502685L71.3978 1.92469ZM70.1248 0.502685L0.761306 23.789L1.23869 25.211L70.6022 1.92469L70.1248 0.502685ZM71.8752 0.502685C71.3073 0.312033 70.6927 0.312033 70.1248 0.502685L70.6022 1.92469C70.8603 1.83803 71.1397 1.83803 71.3978 1.92469L71.8752 0.502685Z" fill="#606368"/>
</svg>
