<svg width="131" height="12" viewBox="0 0 131 12" fill="none" xmlns="http://www.w3.org/2000/svg">
<path d="M130.53 6.53033C130.823 6.23744 130.823 5.76256 130.53 5.46967L125.757 0.696699C125.464 0.403806 124.99 0.403806 124.697 0.696699C124.404 0.989592 124.404 1.46447 124.697 1.75736L128.939 6L124.697 10.2426C124.404 10.5355 124.404 11.0104 124.697 11.3033C124.99 11.5962 125.464 11.5962 125.757 11.3033L130.53 6.53033ZM1 5.25C0.585786 5.25 0.25 5.58579 0.25 6C0.25 6.41421 0.585786 6.75 1 6.75V5.25ZM1 6.75H3.01563V5.25H1V6.75ZM7.04688 6.75H11.0781V5.25H7.04688V6.75ZM15.1094 6.75H19.1406V5.25H15.1094V6.75ZM23.1719 6.75H27.2031V5.25H23.1719V6.75ZM31.2344 6.75H35.2656V5.25H31.2344V6.75ZM39.2969 6.75H43.3281V5.25H39.2969V6.75ZM47.3594 6.75H51.3906V5.25H47.3594V6.75ZM55.4219 6.75H59.4531V5.25H55.4219V6.75ZM63.4844 6.75H65.5V5.25H63.4844V6.75ZM65.5 6.75H67.5156V5.25H65.5V6.75ZM71.5469 6.75H75.5781V5.25H71.5469V6.75ZM79.6094 6.75H83.6406V5.25H79.6094V6.75ZM87.6719 6.75H91.7031V5.25H87.6719V6.75ZM95.7344 6.75H99.7656V5.25H95.7344V6.75ZM103.797 6.75H107.828V5.25H103.797V6.75ZM111.859 6.75H115.891V5.25H111.859V6.75ZM119.922 6.75H123.953V5.25H119.922V6.75ZM127.984 6.75H130V5.25H127.984V6.75Z" fill="#7271A4"/>
</svg>
