<svg width="131" height="13" viewBox="0 0 131 13" fill="none" xmlns="http://www.w3.org/2000/svg">
<path d="M130.532 7.0382C130.825 6.74531 130.825 6.27044 130.532 5.97754L125.759 1.20457C125.466 0.911679 124.992 0.911679 124.699 1.20457C124.406 1.49747 124.406 1.97234 124.699 2.26523L128.941 6.50787L124.699 10.7505C124.406 11.0434 124.406 11.5183 124.699 11.8112C124.992 12.1041 125.466 12.1041 125.759 11.8112L130.532 7.0382ZM0.998047 5.75787C0.583833 5.75787 0.248047 6.09366 0.248047 6.50787C0.248047 6.92209 0.583833 7.25787 0.998047 7.25787V5.75787ZM65.5 7.25787H130.002V5.75787H65.5V7.25787ZM65.5 5.75787H0.998047V7.25787H65.5V5.75787Z" fill="#606368"/>
</svg>
