<svg width="153" height="28" viewBox="0 0 153 28" fill="none" xmlns="http://www.w3.org/2000/svg">
<path shape-rendering="auto" d="M152.353 24.6619C152.718 24.467 152.857 24.0128 152.662 23.6472L149.487 17.6905C149.292 17.325 148.838 17.1866 148.472 17.3814C148.107 17.5763 147.968 18.0305 148.163 18.396L150.985 23.6909L145.691 26.513C145.325 26.7079 145.187 27.1621 145.381 27.5277C145.576 27.8932 146.031 28.0316 146.396 27.8368L152.353 24.6619ZM0.78144 23.2826C0.385204 23.4033 0.161845 23.8223 0.282552 24.2186C0.40326 24.6148 0.822325 24.8382 1.21856 24.7174L0.78144 23.2826ZM77.0828 1.17755L77.3014 0.460102L77.0828 1.17755ZM75.9172 1.17755L75.6986 0.460102L75.9172 1.17755ZM76.8643 1.895L151.781 24.7174L152.219 23.2826L77.3014 0.460102L76.8643 1.895ZM75.6986 0.460102L0.78144 23.2826L1.21856 24.7174L76.1357 1.895L75.6986 0.460102ZM77.3014 0.460102C76.779 0.300958 76.221 0.300958 75.6986 0.460102L76.1357 1.895C76.3732 1.82266 76.6268 1.82266 76.8643 1.895L77.3014 0.460102Z" fill="#1F1F1F"/>
</svg>
