<svg width="18" height="18" viewBox="0 0 18 18" fill="none" xmlns="http://www.w3.org/2000/svg">
<path fill-rule="evenodd" clip-rule="evenodd" d="M18 9C18 13.9706 13.9706 18 9 18C4.02944 18 0 13.9706 0 9C0 4.02944 4.02944 0 9 0C13.9706 0 18 4.02944 18 9ZM9 16.5C13.1421 16.5 16.5 13.1421 16.5 9C16.5 4.85786 13.1421 1.5 9 1.5C4.85786 1.5 1.5 4.85786 1.5 9C1.5 13.1421 4.85786 16.5 9 16.5Z" fill="white"/>
<path d="M10 13C10 13.5523 9.55229 14 9 14C8.44771 14 8 13.5523 8 13C8 12.4477 8.44771 12 9 12C9.55229 12 10 12.4477 10 13Z" fill="white"/>
<path d="M8.99996 3.85C8.72621 3.85 8.48572 3.91706 8.28813 4.06038C8.0836 4.20611 7.97478 4.40874 7.97478 4.65658L8.30566 10.7235L8.30674 10.7328C8.32594 10.8967 8.40579 11.0306 8.5416 11.1237L8.54379 11.1252C8.67344 11.2108 8.82856 11.2487 8.99996 11.2487C9.17135 11.2487 9.32649 11.2108 9.45613 11.1252L9.4583 11.1237C9.59412 11.0305 9.67427 10.8967 9.69346 10.7328L10.025 4.64957V4.6414C10.025 4.40131 9.91022 4.20555 9.70644 4.06037C9.50921 3.91732 9.27068 3.85 8.99996 3.85Z" fill="white"/>
</svg>
